<?xml version="1.0" encoding="UTF-8" standalone="no"?>
<!-- Created with Inkscape (http://www.inkscape.org/) -->

<svg
   width="54.042046mm"
   height="60.351696mm"
   viewBox="0 0 54.042046 60.351696"
   version="1.1"
   id="svg1"
   xml:space="preserve"
   xmlns="http://www.w3.org/2000/svg"
   xmlns:svg="http://www.w3.org/2000/svg"><defs
     id="defs1" /><g
     id="layer1"
     transform="translate(-33.945728,-155.08869)"><g
       id="g404"
       transform="translate(-7.2866171,103.05358)"><path
         style="fill:#949494"
         d="m 65.205459,111.49985 c -0.415258,-0.48783 -0.941447,-1.23197 -1.169311,-1.65365 -0.287095,-0.53129 -1.261925,-1.22557 -3.175001,-2.26125 -1.518386,-0.822 -3.058358,-1.5827 -3.42216,-1.69043 -0.363802,-0.10773 -1.294153,-0.59944 -2.067445,-1.09267 -1.554494,-0.99152 -4.53609,-2.78512 -6.446336,-3.87785 -0.989685,-0.56614 -1.579065,-0.70803 -2.940882,-0.70803 -2.147913,0 -2.671122,-0.385322 -3.858554,-2.841654 L 41.232344,95.52617 42.225217,93.63673 43.21809,91.747289 43.037443,87.05194 c -0.217681,-5.657928 -0.21773,-5.25139 0.0013,-10.597287 l 0.176751,-4.314439 -0.858033,-1.69046 c -0.979189,-1.929158 -0.951008,-2.364091 0.29456,-4.54608 0.884052,-1.548686 1.779537,-2.003314 3.745495,-1.901548 1.015205,0.05255 1.560818,-0.164287 4.056709,-1.612223 1.586059,-0.920118 3.406267,-2.094039 4.044908,-2.608714 0.63864,-0.514675 1.888797,-1.19025 2.778125,-1.501278 0.889328,-0.311028 2.748054,-1.232753 4.130502,-2.048277 1.90671,-1.124794 2.639645,-1.719227 3.035869,-2.462188 0.796259,-1.493066 1.368048,-1.743685 3.956314,-1.734079 1.248154,0.0046 2.495857,0.129634 2.772673,0.277781 0.276815,0.148147 0.857485,0.844981 1.290377,1.54852 0.643715,1.04617 1.223758,1.527446 3.18453,2.642284 1.3186,0.749716 2.950865,1.502472 3.627257,1.672789 0.676391,0.170317 1.906588,0.818417 2.733772,1.440223 0.827184,0.621805 2.731351,1.855174 4.231482,2.74082 2.467861,1.456973 2.870287,1.610637 4.227307,1.614166 0.824887,0.0021 1.780026,0.150973 2.122531,0.330729 0.776683,0.407624 2.486119,3.135452 2.486119,3.967218 0,0.340001 -0.324846,1.304851 -0.721879,2.144111 -0.720252,1.522487 -0.721505,1.535581 -0.555662,5.808213 0.198579,5.116036 0.198667,4.633434 -0.002,10.851872 l -0.160741,4.982085 0.819341,1.537243 c 0.450638,0.845483 0.819342,1.797459 0.819342,2.115502 0,0.923163 -2.013603,4.153228 -2.704483,4.338317 -0.331545,0.0888 -1.237122,0.16313 -2.012393,0.16511 -1.24536,0.003 -1.738566,0.19502 -4.233333,1.64649 -1.553062,0.90359 -3.558626,2.14225 -4.456808,2.75258 -0.898182,0.61034 -2.027228,1.19628 -2.508992,1.3021 -0.811457,0.17822 -5.173312,2.4465 -6.019248,3.13016 -0.204442,0.16523 -0.521546,0.65885 -0.704674,1.09693 -0.183128,0.43809 -0.63525,1.1227 -1.004715,1.52136 -0.640835,0.69147 -0.786768,0.72483 -3.170521,0.72483 h -2.498766 z m 1.378127,-1.52095 c 0.10235,-0.16561 0.508558,-0.22553 0.941657,-0.13891 0.563756,0.11275 0.761661,0.0509 0.761661,-0.23793 0,-0.21464 0.131801,-0.39026 0.292891,-0.39026 0.16109,0 0.225821,0.17478 0.143847,0.3884 -0.223151,0.58152 0.342576,0.79082 0.72477,0.26813 0.289289,-0.39562 0.407587,-0.40792 0.909352,-0.0946 1.110432,0.69348 2.121085,-0.74448 1.784447,-2.53892 -0.214104,-1.14127 -2.348382,-3.9046 -3.25315,-4.21198 -0.614494,-0.20876 -0.813049,-0.10443 -1.730747,0.90937 -2.050019,2.26472 -2.399188,2.86173 -2.399188,4.10217 0,1.59894 1.228691,2.90847 1.82446,1.9445 z m -2.52252,-2.77418 c 0.172214,-0.52182 0.816628,-1.51569 1.432032,-2.2086 l 1.118915,-1.25984 0.05265,-2.52617 c 0.05586,-2.680256 -0.378198,-4.395091 -1.274748,-5.036151 -0.248925,-0.177989 -0.648605,-0.62582 -0.888177,-0.995178 -0.259549,-0.40016 -1.32028,-1.07986 -2.624688,-1.681861 -1.204007,-0.555665 -2.526174,-1.176197 -2.938149,-1.37896 -1.424757,-0.701226 -2.760175,-0.423287 -6.262413,1.303391 -0.363802,0.179362 -1.066278,1.009598 -1.561056,1.844968 -0.494779,0.835371 -0.935991,1.482463 -0.98047,1.437983 -0.09872,-0.09872 0.615836,-2.206421 0.976501,-2.880331 0.171627,-0.320688 0.170791,-0.655217 -0.0024,-0.978916 -0.229812,-0.429409 -0.635867,-0.497471 -3.203209,-0.536915 l -2.940035,-0.04517 -0.77485,0.829479 c -0.917124,0.981785 -0.938669,1.138865 -0.250588,1.826947 0.29133,0.29133 0.558079,0.964926 0.600372,1.516063 0.05486,0.714848 0.240494,1.073755 0.664795,1.285291 0.323777,0.161421 0.518988,0.363189 0.433803,0.448374 -0.321367,0.321367 0.210677,1.253093 0.715555,1.253093 0.825883,0 2.493322,-0.961753 2.995063,-1.727506 0.252137,-0.384811 0.528491,-0.629597 0.614119,-0.543969 0.08563,0.08563 -0.241941,0.709375 -0.727931,1.386104 -0.883403,1.230116 -0.883484,1.23052 -0.33346,1.653204 0.302587,0.23254 1.405425,0.89904 2.450752,1.48113 1.045326,0.58208 2.230066,1.24335 2.632755,1.46948 0.402689,0.22613 1.22125,0.79852 1.819024,1.27196 0.597774,0.47345 1.537346,0.92962 2.087939,1.01371 0.550593,0.0841 1.179671,0.29809 1.397952,0.47555 0.652598,0.53056 3.812269,2.24311 4.146669,2.24751 0.170616,0.002 0.451113,-0.42286 0.623327,-0.94467 z m 12.373236,-0.78066 c 1.350438,-0.80566 2.573299,-1.39193 2.717469,-1.30283 0.356392,0.22027 2.313865,-0.76358 3.303627,-1.66044 0.443869,-0.4022 1.932151,-1.31318 3.307292,-2.02439 1.375141,-0.71122 2.611789,-1.39425 2.748107,-1.517855 0.149473,-0.135534 0.02685,-0.462419 -0.30894,-0.823553 -0.306235,-0.329349 -0.955988,-1.372723 -1.443896,-2.318608 -1.390456,-2.695613 -1.784944,-3.158619 -3.375125,-3.961339 -1.898052,-0.958134 -3.624225,-1.228439 -4.955779,-0.776037 -0.556615,0.189113 -1.13109,0.352787 -1.276611,0.363721 -0.775694,0.05828 -4.07017,2.003309 -5.045929,2.979068 -1.634304,1.634304 -2.080189,3.000259 -1.884505,5.773123 0.135139,1.91493 0.274084,2.41243 0.940101,3.36602 0.429839,0.61544 1.091798,1.625 1.471019,2.24347 0.379222,0.61846 0.837619,1.12447 1.018662,1.12447 0.181042,0 1.434071,-0.65917 2.784508,-1.46482 z m -7.236359,-7.060714 c 0.226533,-0.323421 0.411878,-0.811491 0.411878,-1.084599 0,-0.51645 1.602147,-3.346092 2.433274,-4.297541 0.966181,-1.106056 0.710375,-1.192643 -3.29317,-1.114691 l -3.770313,0.07341 0.07938,0.79375 c 0.04366,0.436563 0.445332,1.309964 0.892611,1.940891 0.447278,0.630927 0.976464,1.689519 1.17597,2.352425 0.600365,1.994859 1.295063,2.443269 2.070373,1.336355 z m 21.876878,-0.381031 c 0.283095,-0.342951 0.290235,-0.464434 0.0324,-0.551215 -0.548629,-0.184652 -0.371664,-0.818241 0.253809,-0.90871 0.442108,-0.06395 0.636534,-0.33606 0.797934,-1.116772 0.117368,-0.567723 0.398675,-1.167703 0.625126,-1.333289 0.62491,-0.456945 0.208688,-1.670425 -0.741489,-2.16178 -0.52608,-0.272047 -1.638628,-0.423091 -3.342436,-0.453784 l -2.553881,-0.04601 0.09122,1.148263 c 0.183945,2.315373 1.688573,4.731254 3.427277,5.50295 0.961463,0.42673 0.993528,0.424919 1.41004,-0.07966 z M 90.39358,96.005232 c -0.08519,-0.137839 -0.04211,-0.320317 0.09573,-0.405507 0.137839,-0.08519 0.320317,-0.04211 0.405507,0.09573 0.08519,0.13784 0.04211,0.320318 -0.09573,0.405507 -0.137839,0.08519 -0.320317,0.04211 -0.405507,-0.09573 z M 72.183718,90.818385 c 0.90632,-0.579403 1.977882,-1.232192 2.38125,-1.450642 1.709933,-0.926042 2.898913,-2.149977 3.501943,-3.604896 0.535933,-1.293034 0.589207,-1.736732 0.435882,-3.63029 -0.09607,-1.186469 -0.358744,-2.719219 -0.583721,-3.406112 -0.567269,-1.731977 -2.383955,-3.667219 -4.260999,-4.53907 -0.844091,-0.392065 -1.713304,-0.815965 -1.931585,-0.942002 -0.218282,-0.126036 -1.059046,-0.436554 -1.868365,-0.69004 -1.432023,-0.448522 -1.513632,-0.446122 -3.042709,0.08949 -5.868824,2.055769 -7.788927,4.549136 -7.788927,10.11438 0,2.1681 0.08253,2.673653 0.529167,3.241458 0.291041,0.369999 0.529166,0.799897 0.529166,0.955328 0,0.710931 1.108936,1.978609 2.282814,2.609594 0.708984,0.381094 2.003437,1.085056 2.876562,1.564359 1.424105,0.781765 1.778126,0.864793 3.439583,0.80668 1.651432,-0.05776 2.030609,-0.178911 3.499939,-1.11824 z M 51.474006,90.204589 c 2.355839,-1.339815 2.705077,-1.637067 3.307292,-2.814991 0.627669,-1.227714 0.672982,-1.568506 0.668411,-5.027084 -0.0048,-3.614415 -0.02525,-3.747234 -0.79375,-5.150501 -0.573097,-1.046459 -1.367757,-1.892811 -2.905514,-3.094519 -1.164167,-0.909759 -2.272521,-1.660558 -2.463011,-1.668443 -0.190489,-0.0079 -0.279667,-0.12222 -0.198174,-0.254079 0.08149,-0.131859 0.386811,-0.177338 0.678483,-0.101064 0.674833,0.176472 1.321533,-0.352863 1.320255,-1.080651 -5.44e-4,-0.309604 -0.25969,-0.979635 -0.575881,-1.488958 -0.31619,-0.509323 -0.881292,-1.521354 -1.255782,-2.248958 -0.851685,-1.654758 -1.975142,-2.196531 -2.600819,-1.254211 -0.216465,0.326014 -0.617176,0.592753 -0.890468,0.592753 -0.309704,0 -0.496895,0.187143 -0.496895,0.496769 0,0.273224 -0.178594,0.64499 -0.396875,0.826147 -0.218281,0.181158 -0.396875,0.444542 -0.396875,0.585299 0,0.140757 -0.266856,0.472009 -0.593014,0.736115 -0.54785,0.443622 -0.560988,0.517379 -0.172508,0.968453 0.231278,0.268542 0.495083,0.698405 0.586234,0.95525 0.210349,0.592725 1.24199,0.988217 2.577763,0.988217 0.57261,0 1.041109,0.09018 1.041109,0.200399 0,0.11022 -0.935964,0.157895 -2.079919,0.105945 l -2.079919,-0.09445 v 4.399068 c 0,2.419488 0.102526,4.462433 0.227835,4.539879 0.378125,0.233694 0.256183,0.638747 -0.192295,0.638747 -0.350854,0 -0.385473,0.185421 -0.209945,1.124479 0.115603,0.618463 0.182104,2.702057 0.147782,4.630208 l -0.0624,3.50573 1.132245,0.0186 c 0.622735,0.01023 1.370371,0.120922 1.661412,0.245987 1.21238,0.520977 2.366076,0.226499 5.015228,-1.280128 z M 45.567429,68.110893 c -0.162077,-0.195291 -0.224546,-0.425212 -0.138821,-0.510937 0.255654,-0.255655 0.897879,0.10015 0.897879,0.497442 0,0.467602 -0.376626,0.474297 -0.759058,0.0135 z m 37.915793,23.380373 c 0.836222,-0.317932 0.8624,-0.799498 0.08337,-1.533691 -0.549239,-0.517629 -0.888506,-1.111435 -2.18863,-3.830671 -0.629659,-1.316945 -1.547553,-1.373493 -2.068198,-0.127415 -0.198729,0.475625 -0.861618,1.442816 -1.473088,2.149314 -0.879887,1.016631 -1.094978,1.457077 -1.031288,2.11179 l 0.08048,0.827249 2.594585,0.169238 c 1.427022,0.09308 2.667257,0.241909 2.756077,0.330729 0.221863,0.221863 0.457147,0.203643 1.246697,-0.09654 z m 8.290666,0.03999 1.129691,-0.178826 0.129859,-4.101042 c 0.07142,-2.255573 0.178343,-4.577291 0.237603,-5.159375 0.05926,-0.582083 -0.0097,-1.653646 -0.153164,-2.38125 -0.1435,-0.727604 -0.252424,-2.644054 -0.242053,-4.258777 l 0.01886,-2.935861 -2.938651,0.0305 c -2.582895,0.02681 -2.991895,0.09395 -3.378469,0.55461 -0.241899,0.288261 -1.111994,1.089883 -1.933543,1.781383 -0.846473,0.712477 -1.737951,1.761774 -2.057347,2.421556 -0.510892,1.055364 -0.553962,1.507042 -0.460383,4.828145 0.138674,4.921538 0.486883,5.839923 2.831126,7.466967 2.702254,1.875524 4.304414,2.329619 6.816475,1.931969 z M 58.653919,91.178237 c 2.329555,0.09344 2.405929,-0.137916 0.990602,-3.000812 -1.505671,-3.045643 -1.660402,-3.207176 -2.624728,-2.740108 -0.489878,0.237271 -0.819923,0.665812 -0.97411,1.264816 -0.128258,0.498277 -0.76882,1.656564 -1.423469,2.573973 -0.654649,0.917408 -1.106672,1.80328 -1.004497,1.968604 0.130157,0.210598 0.670563,0.235965 1.805085,0.08473 0.89062,-0.118721 2.344623,-0.186763 3.231117,-0.151205 z M 81.621038,78.075031 c 0.374226,-0.89965 0.984259,-2.083472 1.355628,-2.630716 0.706713,-1.041399 0.761563,-1.889461 0.111192,-1.719175 -0.209639,0.05489 -0.52999,0.08465 -0.711891,0.06615 -0.181901,-0.01851 -0.479557,-0.04721 -0.661458,-0.06377 -0.181901,-0.01656 -1.104636,-0.0035 -2.050521,0.02908 -0.945886,0.03256 -1.927148,-0.02577 -2.180582,-0.129628 -0.310777,-0.127352 -0.516655,-0.04325 -0.632387,0.258346 -0.199188,0.519075 1.697725,4.476724 2.738623,5.713762 0.832562,0.989443 1.055409,0.822252 2.031396,-1.524049 z m -23.757213,1.56553 c 0.468113,-0.311044 3.096176,-5.537119 2.924316,-5.815194 -0.08577,-0.138778 -1.26137,-0.223339 -2.612445,-0.187915 -1.351075,0.03542 -2.656235,-0.04168 -2.900355,-0.171341 -0.546963,-0.290513 -1.275937,-0.0403 -1.275937,0.437946 0,0.194915 0.416718,1.065414 0.926041,1.934441 0.509323,0.869028 0.926042,1.712668 0.926042,1.874757 0,0.162089 0.172518,0.707602 0.383374,1.212251 0.373888,0.894839 0.966739,1.155079 1.628964,0.715055 z m 1.162662,-7.375204 c 0.509323,-0.08782 1.104636,-0.307161 1.322917,-0.487417 0.218281,-0.180256 1.189572,-0.765176 2.158424,-1.299822 1.904579,-1.051013 3.544161,-2.793962 3.945869,-4.194637 0.135139,-0.471201 0.245107,-1.929078 0.244374,-3.239727 l -0.0013,-2.382997 -1.060695,-1.322916 c -0.583382,-0.727605 -1.267392,-1.76819 -1.520021,-2.312414 -0.520333,-1.120919 -0.785126,-1.200378 -1.680416,-0.504257 -1.212995,0.943148 -4.744644,2.736156 -5.111822,2.595256 -0.203701,-0.07817 -0.725117,0.177798 -1.158701,0.568813 -1.123904,1.013557 -2.144136,1.700086 -3.315136,2.230801 -0.560092,0.253843 -1.548594,0.81939 -2.196669,1.256771 -0.648076,0.437381 -1.276835,0.795238 -1.397242,0.795238 -0.120407,0 -0.3488,0.156493 -0.50754,0.347763 -0.215739,0.25995 -0.129879,0.581368 0.340029,1.272899 0.345755,0.508825 0.814139,1.369083 1.040853,1.911686 0.663981,1.58913 2.131281,3.161231 3.649967,3.910664 2.646324,1.305894 2.63698,1.304373 5.247142,0.854296 z m 23.240474,-0.183461 c 1.947114,-0.90211 3.21786,-1.949082 3.21786,-2.651203 0,-0.478768 0.720194,-2.105552 2.320576,-5.241754 0.04939,-0.09679 -0.147659,-0.251353 -0.43789,-0.343469 -0.290232,-0.09212 -1.318135,-0.697532 -2.284229,-1.345369 -0.966095,-0.647837 -1.868941,-1.177885 -2.006324,-1.177885 -0.137384,0 -0.773756,-0.482976 -1.41416,-1.07328 -1.032287,-0.951529 -1.225027,-1.035399 -1.69908,-0.739348 -0.450104,0.281094 -0.619616,0.25709 -1.071332,-0.151707 -0.562685,-0.509223 -4.998299,-3.062749 -5.320162,-3.062749 -0.102446,0 -0.52988,0.505606 -0.949853,1.123568 -0.419973,0.617962 -1.164475,1.657368 -1.654449,2.309791 l -0.890861,1.186224 0.112978,2.951582 c 0.117662,3.073958 0.255483,3.496613 1.620446,4.969433 0.347873,0.375361 1.334489,0.998317 2.19248,1.384347 0.857992,0.386031 1.738579,0.854422 1.95686,1.040871 0.686381,0.586282 3.002183,1.40889 4.008624,1.423923 0.531253,0.0079 1.565586,-0.263403 2.298516,-0.602975 z m 9.219711,-0.198788 c 0.687263,-0.221628 1.93565,-1.661675 1.93565,-2.232821 0,-0.172773 -1.852848,-1.978071 -2.030172,-1.978071 -0.08825,0 -0.304342,0.196784 -0.480209,0.437297 -0.180644,0.247045 -0.457922,0.351907 -0.637329,0.241028 -0.3929,-0.242826 0.102006,-0.942908 0.666565,-0.942908 0.617852,0 0.402195,-0.726918 -0.265365,-0.894465 -0.346413,-0.08694 -0.692454,-0.397508 -0.76898,-0.690141 -0.185698,-0.710112 -1.048024,-0.681307 -1.89352,0.06325 -0.850808,0.749236 -2.518259,4.927135 -2.252841,5.644629 0.165011,0.446067 0.487513,0.51822 2.536387,0.567464 1.291036,0.03103 2.726453,-0.06584 3.189814,-0.215262 z M 71.586173,71.341074 c 0.163677,-0.152912 0.09145,-0.50122 -0.199494,-0.962085 -0.25083,-0.397319 -0.842532,-1.525478 -1.314894,-2.507021 -0.755281,-1.569436 -0.947707,-1.784782 -1.595846,-1.785938 -0.622699,-0.0011 -0.816702,0.184607 -1.250846,1.197424 -0.282611,0.659306 -0.926365,1.739006 -1.430562,2.399334 -0.930901,1.219164 -0.992552,1.851873 -0.197079,2.022587 0.819495,0.175868 5.730284,-0.122861 5.988721,-0.364301 z m -2.51712,-9.358789 c 0.159368,-0.584538 0.759756,-1.534891 2.059528,-3.260023 0.695765,-0.923459 0.86249,-1.391084 0.86249,-2.419088 0,-1.257021 -0.278817,-1.651065 -0.992188,-1.402226 -0.181901,0.06345 -0.330729,0.37006 -0.330729,0.681354 v 0.56599 l -0.411878,-0.588038 c -0.226533,-0.323421 -0.575697,-0.588038 -0.77592,-0.588038 -0.385057,0 -0.789949,0.905536 -0.56653,1.267035 0.07255,0.117391 0.01844,0.386347 -0.120241,0.597681 -0.213878,0.325916 -0.310347,0.308042 -0.635525,-0.117758 -0.210855,-0.2761 -0.315991,-0.611024 -0.233637,-0.744276 0.225275,-0.364503 -0.690309,-1.252785 -1.120956,-1.08753 -0.206462,0.07923 -0.539849,0.0076 -0.740859,-0.159268 -0.577277,-0.479098 -1.215287,0.357582 -1.215287,1.593715 0,0.822216 0.227389,1.334887 1.058333,2.38611 0.582083,0.73639 1.058333,1.498153 1.058333,1.692805 0,0.194651 0.301646,0.591186 0.670324,0.881188 0.400299,0.314876 0.558432,0.596429 0.392559,0.698945 -0.395886,0.244671 -0.03745,0.709407 0.47154,0.611384 0.234713,-0.0452 0.491503,-0.319685 0.570643,-0.609962 z"
         id="path407" /><path
         style="fill:#6f6f6f"
         d="m 65.241106,109.73755 c -0.31337,-0.34627 -0.48198,-0.94208 -0.48198,-1.70315 0,-1.24044 0.349169,-1.83745 2.399188,-4.10217 0.917698,-1.0138 1.116253,-1.11813 1.730747,-0.90937 0.904768,0.30738 3.039046,3.07071 3.25315,4.21198 0.336638,1.79444 -0.674015,3.2324 -1.784447,2.53892 -0.501765,-0.31335 -0.620063,-0.30105 -0.909352,0.0946 -0.382194,0.52269 -0.947921,0.31339 -0.72477,-0.26813 0.08197,-0.21362 0.01724,-0.3884 -0.143847,-0.3884 -0.16109,0 -0.292891,0.17562 -0.292891,0.39026 0,0.28886 -0.197905,0.35068 -0.761661,0.23793 -0.433099,-0.0866 -0.839307,-0.0267 -0.941657,0.13891 -0.274845,0.4447 -0.808422,0.34878 -1.34248,-0.24135 z m 2.488952,-2.24852 c 0.193836,-0.65648 0.447792,-1.25254 0.564346,-1.32457 0.116555,-0.072 0.43044,0.30977 0.697522,0.84846 0.812697,1.63917 1.235113,1.47857 1.097968,-0.41744 -0.140116,-1.93708 -0.498643,-2.45083 -1.241304,-1.77873 -0.332757,0.30114 -0.569494,0.36314 -0.683325,0.17895 -0.519245,-0.84015 -1.063205,0.0526 -1.319442,2.16558 -0.232371,1.91613 0.351357,2.1325 0.884235,0.32775 z m 3.632817,-0.53492 c -0.184316,-0.48031 -0.694721,-0.51278 -0.694721,-0.0442 0,0.48166 0.62747,1.08092 0.749255,0.71556 0.05193,-0.15577 0.02739,-0.4579 -0.05453,-0.67138 z m -5.253271,-0.0739 c 0.158737,-0.47621 -0.388145,-0.37615 -0.572698,0.10479 -0.09888,0.25768 -0.03975,0.37864 0.153594,0.31419 0.172905,-0.0576 0.361502,-0.24617 0.419104,-0.41898 z m -4.701867,0.30476 c -0.945885,-0.52821 -1.898385,-1.10558 -2.116667,-1.28304 -0.218281,-0.17746 -0.847359,-0.39146 -1.397952,-0.47555 -0.550593,-0.0841 -1.490165,-0.54026 -2.087939,-1.01371 -0.597774,-0.47344 -1.416335,-1.04583 -1.819024,-1.27196 -0.402689,-0.22613 -1.587429,-0.8874 -2.632755,-1.46948 -1.045327,-0.58209 -2.148165,-1.24859 -2.450752,-1.48113 -0.550024,-0.422684 -0.549943,-0.423088 0.33346,-1.653204 0.48599,-0.676729 0.813559,-1.300476 0.727931,-1.386104 -0.08563,-0.08563 -0.361982,0.159158 -0.614119,0.543969 -0.501741,0.765753 -2.16918,1.727506 -2.995063,1.727506 -0.504878,0 -1.036922,-0.931726 -0.715555,-1.253093 0.08519,-0.08518 -0.110026,-0.286953 -0.433803,-0.448374 -0.424301,-0.211536 -0.609939,-0.570443 -0.664795,-1.285291 -0.04229,-0.551137 -0.309042,-1.224733 -0.600372,-1.516063 -0.688081,-0.688082 -0.666536,-0.845162 0.250588,-1.826947 l 0.77485,-0.829479 2.940035,0.04517 c 2.567342,0.03944 2.973397,0.107506 3.203209,0.536915 0.179891,0.336129 0.167307,0.670875 -0.03976,1.057791 -0.166617,0.311326 -0.396531,0.876873 -0.51092,1.256771 -0.11439,0.379899 -0.300146,0.918616 -0.412792,1.197149 -0.143842,0.35567 -0.112902,0.449622 0.103936,0.315609 0.421645,-0.260591 -0.05668,0.985243 -0.754577,1.965346 -0.287417,0.403641 -0.522577,0.866091 -0.522577,1.027667 0,0.332064 1.543378,1.341832 2.053234,1.343342 0.183394,5.4e-4 0.904495,0.40237 1.602448,0.89295 0.697952,0.49058 1.559934,0.9814 1.915515,1.09071 0.355581,0.10932 0.79534,0.31783 0.977241,0.46336 0.224913,0.17994 0.457708,0.15921 0.727604,-0.0648 0.335224,-0.27821 0.396875,-0.22402 0.396875,0.34886 0,0.84013 0.187354,0.9585 1.823881,1.15233 0.898822,0.10645 1.342703,0.29013 1.420556,0.58784 0.09081,0.34727 3.024766,2.1443 3.500928,2.1443 0.06768,0 0.353159,-0.44648 0.634406,-0.99219 0.281247,-0.5457 0.964106,-1.4089 1.517462,-1.91823 l 1.006104,-0.92604 -1.080208,1.21289 c -0.594114,0.66709 -1.224255,1.64935 -1.400312,2.18281 -0.176058,0.53346 -0.459699,0.96809 -0.630315,0.96585 -0.170616,-0.002 -1.084116,-0.43626 -2.030002,-0.96447 z M 47.983288,97.744696 c 1.430027,-0.49802 2.44058,-2.026646 1.339786,-2.026646 -0.369149,0 -0.341517,-0.108019 0.165766,-0.647996 0.761417,-0.810491 0.570667,-1.373066 -0.636594,-1.877492 -0.928245,-0.387846 -3.319509,-0.537195 -3.319509,-0.207324 0,0.09768 0.197047,0.395338 0.437882,0.661458 0.408171,0.451024 0.405389,0.519759 -0.04101,1.013021 -0.467978,0.51711 -0.462131,0.529167 0.256649,0.529167 0.676153,0 0.722721,0.06408 0.576788,0.79375 -0.132252,0.661262 -0.07403,0.79375 0.348799,0.79375 0.279152,0 0.690156,-0.260708 0.913342,-0.57935 0.48288,-0.689408 0.72301,-0.558575 0.504989,0.275139 -0.09038,0.345626 -0.301199,0.543223 -0.498704,0.467433 -0.188175,-0.07221 -0.53246,0.159182 -0.765078,0.514203 -0.232618,0.35502 -0.390432,0.643699 -0.350697,0.641508 0.03974,-0.0022 0.520149,-0.159971 1.067588,-0.350621 z m 24.72008,9.152004 c -0.948866,-1.52522 -1.017348,-1.65365 -0.881783,-1.65365 0.06948,0 0.387138,0.422 0.705907,0.93778 0.524159,0.84811 0.666802,0.92392 1.491736,0.79281 1.146527,-0.18221 2.43888,-0.83822 3.150355,-1.59915 0.342625,-0.36645 1.034711,-0.65936 1.844973,-0.78087 1.402086,-0.21026 2.501515,-1.09368 2.501515,-2.01003 0,-0.28355 0.119063,-0.51554 0.264584,-0.51554 0.14552,0 0.264583,0.11906 0.264583,0.26458 0,0.39451 0.683368,0.31952 1.043583,-0.11451 0.173045,-0.20851 0.515045,-0.36793 0.760001,-0.35426 0.492101,0.0275 4.01725,-1.85317 4.01725,-2.143154 0,-0.100164 -0.581329,-1.337778 -1.291842,-2.750254 -0.710513,-1.412475 -1.198331,-2.510344 -1.08404,-2.439709 0.114291,0.07064 0.645153,0.991754 1.179693,2.046931 0.534541,1.055176 1.223189,2.187969 1.530328,2.517318 0.33674,0.36109 0.460041,0.688036 0.310586,0.823553 -0.136318,0.123605 -1.372966,0.806635 -2.748107,1.517855 -1.375141,0.71121 -2.863423,1.62219 -3.307292,2.02439 -0.989762,0.89686 -2.947235,1.88071 -3.303627,1.66044 -0.14417,-0.0891 -1.367031,0.49717 -2.717469,1.30283 -1.350437,0.80565 -2.603466,1.46482 -2.784508,1.46482 -0.181043,0 -0.606934,-0.44648 -0.946426,-0.99218 z m -2.178385,-3.25875 c -0.09592,-0.1552 -0.117656,-0.33893 -0.0483,-0.40829 0.06936,-0.0694 0.196603,0.0576 0.282774,0.28219 0.178907,0.46622 0.02642,0.54823 -0.234473,0.1261 z m -4.069274,-0.40132 c 0.0127,-0.30823 0.07539,-0.37092 0.159852,-0.15986 0.07643,0.191 0.06703,0.4192 -0.02089,0.50712 -0.08792,0.0879 -0.150453,-0.0683 -0.138964,-0.34726 z m 3.755342,-3.814413 c 0,-0.654844 0.0516,-0.922734 0.114662,-0.595312 0.06306,0.327422 0.06306,0.863203 0,1.190625 -0.06306,0.32742 -0.114662,0.0595 -0.114662,-0.595313 z m -2.42234,0.169613 C 67.624589,99.394075 67.327075,98.689897 67.12757,98.026991 66.928064,97.364085 66.398878,96.305493 65.9516,95.674566 65.504321,95.043639 65.102647,94.170238 65.058989,93.733675 l -0.07938,-0.79375 3.770313,-0.07341 c 4.003545,-0.07795 4.259351,0.0086 3.29317,1.114691 -0.831127,0.951449 -2.433274,3.781091 -2.433274,4.297541 0,0.641863 -0.723012,1.672637 -1.173231,1.672637 -0.192212,0 -0.483757,-0.1618 -0.647879,-0.359554 z m 1.02736,-2.868996 c 0,-0.174973 0.380768,-0.710986 0.846151,-1.19114 0.574595,-0.592831 0.759629,-0.95953 0.576554,-1.142605 -0.2731,-0.2731 -3.803955,-0.709116 -3.803955,-0.46974 0,0.331503 0.925003,1.992472 1.406914,2.526306 0.593252,0.657171 0.974336,0.765582 0.974336,0.277179 z m -2.32967,2.302508 c 0.0054,-0.436562 0.06469,-0.583124 0.131773,-0.325693 0.06708,0.257431 0.06267,0.614618 -0.0098,0.79375 -0.07248,0.179131 -0.127362,-0.03149 -0.12197,-0.468057 z m 23.17838,0.03663 c -1.738704,-0.771696 -3.243332,-3.187577 -3.427277,-5.50295 l -0.09122,-1.148263 2.553881,0.04601 c 1.703808,0.03069 2.816356,0.181737 3.342436,0.453784 0.950177,0.491355 1.366399,1.704835 0.741489,2.16178 -0.226451,0.165586 -0.507758,0.765566 -0.625126,1.333289 -0.1614,0.780712 -0.355826,1.052825 -0.797934,1.116772 -0.625473,0.09047 -0.802438,0.724058 -0.253809,0.90871 0.257839,0.08678 0.250699,0.208264 -0.0324,0.551215 -0.416512,0.504576 -0.448577,0.506387 -1.41004,0.07966 z m -0.619383,-2.039287 c -0.196478,-0.317908 -0.914743,-0.320866 -0.914743,-0.0038 0,0.286731 0.57424,0.52922 0.864212,0.364937 0.111514,-0.06318 0.134253,-0.225706 0.05053,-0.361171 z m 0.706648,-0.808541 c -0.05412,-0.200091 -0.157303,-0.572161 -0.229296,-0.826823 -0.09509,-0.336364 0.0223,-0.463021 0.42913,-0.463021 0.77282,0 0.700837,-0.325545 -0.223011,-1.008576 -0.989531,-0.731591 -1.598214,-0.743751 -1.598214,-0.03193 0,0.426591 -0.116481,0.510027 -0.529167,0.379045 -0.80627,-0.2559 -0.640667,0.125144 0.595313,1.369788 1.081865,1.089449 1.761348,1.343511 1.555245,0.581514 z m 1.142768,-0.518692 c -0.08519,-0.137839 -0.267668,-0.180916 -0.405507,-0.09573 -0.137839,0.08519 -0.180917,0.267668 -0.09573,0.405507 0.08519,0.137839 0.267667,0.180916 0.405506,0.09573 0.13784,-0.08519 0.180917,-0.267667 0.09573,-0.405507 z m -25.552076,0.617911 c -0.329107,-0.419644 -0.319749,-0.429002 0.0999,-0.09989 0.254662,0.199719 0.463021,0.408079 0.463021,0.463021 0,0.217761 -0.217272,0.0776 -0.562916,-0.363126 z M 51.259377,94.962762 c 0.522901,-0.945117 1.560427,-1.897461 2.048104,-1.879952 0.162276,0.0058 -0.03237,0.188223 -0.432557,0.405325 -0.400182,0.217103 -0.731886,0.480226 -0.737119,0.58472 -0.0052,0.104493 -0.315511,0.547175 -0.689505,0.983737 l -0.67999,0.79375 z m 20.467111,0.629507 c 0,-0.0418 0.425871,-0.400824 0.946381,-0.797836 0.680642,-0.519151 0.859056,-0.58201 0.635387,-0.223859 -0.2585,0.413924 -1.581768,1.268648 -1.581768,1.021695 z M 61.275445,93.447285 c -0.582083,-0.348362 -1.199562,-0.581917 -1.372175,-0.519011 -0.172614,0.06291 -0.608112,-0.117097 -0.967775,-0.400008 -0.359662,-0.28291 -0.873277,-0.523782 -1.141366,-0.535271 -0.315362,-0.01351 -0.362739,-0.07065 -0.134206,-0.161839 0.194275,-0.07752 0.730056,0.03594 1.190625,0.252136 3.618983,1.69881 4.229287,2.014403 3.880106,2.006435 -0.218281,-0.005 -0.873125,-0.294081 -1.455209,-0.642442 z m 23.381877,0.220245 c -0.329107,-0.419644 -0.319749,-0.429003 0.0999,-0.0999 0.440729,0.345643 0.580887,0.562915 0.363126,0.562915 -0.05494,0 -0.263301,-0.208359 -0.463021,-0.46302 z M 74.566349,93.56855 c 0.179475,-0.180821 0.39297,-0.262115 0.474432,-0.180653 0.08146,0.08146 -0.06538,0.229406 -0.32632,0.328765 -0.377084,0.143586 -0.407475,0.113195 -0.148112,-0.148112 z m 0.864305,-0.335736 c 0,-0.05719 0.184778,-0.17489 0.410617,-0.261553 0.23546,-0.09035 0.341663,-0.046 0.248969,0.103985 -0.155379,0.251408 -0.659586,0.371858 -0.659586,0.157568 z m 1.322917,-0.425182 c -0.426888,-0.275876 -0.407015,-0.295991 0.396875,-0.401705 0.291042,-0.03827 0.767292,-0.160752 1.058333,-0.272177 0.388291,-0.148655 0.341962,-0.0507 -0.174024,0.367938 -0.807299,0.654994 -0.758937,0.643445 -1.281184,0.305944 z M 55.251765,92.245635 c 0.179475,-0.180821 0.39297,-0.262115 0.474432,-0.180653 0.08146,0.08146 -0.06538,0.229406 -0.32632,0.328766 -0.377084,0.143585 -0.407475,0.113194 -0.148112,-0.148113 z m 26.214697,-0.147909 c 0.190996,-0.07643 0.419199,-0.06703 0.507118,0.02089 0.08792,0.08792 -0.06835,0.150452 -0.347266,0.138964 -0.308224,-0.0127 -0.370919,-0.07539 -0.159852,-0.159854 z M 69.151835,91.83053 c 0.257431,-0.06708 0.614619,-0.06267 0.793751,0.0098 0.179131,0.07247 -0.03149,0.127362 -0.468057,0.121969 -0.436562,-0.0054 -0.583125,-0.06469 -0.325694,-0.131773 z m 10.184509,-0.0038 c 0.329118,-0.06329 0.805368,-0.06088 1.058333,0.0053 0.252965,0.06622 -0.01631,0.118003 -0.598397,0.115066 -0.582084,-0.0029 -0.789055,-0.05712 -0.459936,-0.120406 z m 2.900181,-0.238945 c -0.08882,-0.08882 -1.329055,-0.237648 -2.756077,-0.330729 l -2.594585,-0.169238 -0.08048,-0.827249 c -0.06369,-0.654713 0.151401,-1.095159 1.031288,-2.11179 0.61147,-0.706498 1.274359,-1.673689 1.473088,-2.149314 0.520645,-1.246078 1.438539,-1.18953 2.068198,0.127415 1.300124,2.719236 1.639391,3.313042 2.18863,3.830671 0.77903,0.734193 0.752852,1.215759 -0.08337,1.533691 -0.78955,0.300186 -1.024834,0.318406 -1.246697,0.09654 z m -1.022887,-1.588027 0.609059,-0.426602 -0.731981,-0.764023 c -0.894746,-0.933914 -0.996862,-0.940359 -1.385475,-0.08745 -0.217921,0.478284 -0.22764,0.827237 -0.03316,1.190625 0.334915,0.625795 0.740138,0.648781 1.541557,0.08745 z m 7.446184,1.462142 c -0.567863,-0.20143 -0.535806,-0.216558 0.226547,-0.106911 0.488404,0.07024 1.530201,0.05224 2.315105,-0.04001 1.398242,-0.164336 1.427098,-0.185061 1.427098,-1.024945 0,-0.471469 -0.178594,-1.005436 -0.396875,-1.186593 -0.218282,-0.181158 -0.396875,-0.433861 -0.396875,-0.561564 0,-0.127702 0.178593,-0.232186 0.396875,-0.232186 0.323872,0 0.40562,-0.498851 0.444419,-2.711979 0.05934,-3.384901 -0.01596,-4.496258 -0.326039,-4.811805 -0.148812,-0.151437 -0.08238,-0.425722 0.170904,-0.705594 0.319229,-0.352744 0.348988,-0.579985 0.129628,-0.989862 -0.156598,-0.292606 -0.21206,-0.721367 -0.123249,-0.952804 0.08881,-0.231437 0.01436,-0.775951 -0.165439,-1.210031 -0.248593,-0.600156 -0.253409,-0.877804 -0.0201,-1.158923 0.17849,-0.215067 0.260812,-0.90494 0.196827,-1.649459 -0.09236,-1.074724 -0.210549,-1.307975 -0.737634,-1.455785 -0.549859,-0.154197 -0.520928,-0.17928 0.233436,-0.202385 l 0.861086,-0.02637 -0.01928,2.976563 c -0.01061,1.637109 0.09813,3.571875 0.241626,4.299479 0.1435,0.727604 0.212423,1.799167 0.153164,2.38125 -0.05926,0.582084 -0.166181,2.903802 -0.237603,5.159375 l -0.129859,4.101042 -1.129691,0.178826 c -1.484614,0.235009 -2.307755,0.216683 -3.114066,-0.06933 z m -43.729818,-0.171989 -1.26419,-0.0994 0.06206,-3.49093 c 0.03413,-1.920011 -0.03252,-3.996945 -0.148128,-4.615408 -0.175528,-0.939058 -0.140909,-1.124479 0.209945,-1.124479 0.448478,0 0.57042,-0.405053 0.192295,-0.638747 -0.125309,-0.07745 -0.227835,-2.108535 -0.227835,-4.513532 v -4.372722 l 1.881481,0.05098 1.881482,0.05098 -1.653646,0.09394 -1.653646,0.09394 v 3.543635 c 0,2.07702 0.109504,3.611312 0.264583,3.707156 0.403065,0.249108 0.326028,2.241988 -0.09288,2.402739 -0.269024,0.103234 -0.322625,0.543038 -0.216648,1.777633 0.168395,1.961746 0.142494,3.834189 -0.07668,5.543066 l -0.161186,1.256771 1.0013,0.0041 c 0.550715,0.0022 1.179894,0.119467 1.398176,0.260532 0.218281,0.141064 0.277812,0.236842 0.132291,0.212841 -0.145521,-0.024 -0.833469,-0.08837 -1.528774,-0.14304 z m 8.687713,-0.04523 c -0.102175,-0.165324 0.349848,-1.051196 1.004497,-1.968604 0.654649,-0.917409 1.295211,-2.075696 1.423469,-2.573973 0.154187,-0.599004 0.484232,-1.027545 0.97411,-1.264816 0.964326,-0.467068 1.119057,-0.305535 2.624728,2.740108 1.415327,2.862896 1.338953,3.094253 -0.990602,3.000812 -0.886494,-0.03556 -2.340497,0.03248 -3.231117,0.151205 -1.134522,0.151233 -1.674928,0.125866 -1.805085,-0.08473 z m 4.453043,-1.961108 c 0.445036,-1.659371 -0.306243,-2.316869 -1.268466,-1.110126 l -0.585184,0.73389 0.532779,0.598141 c 0.613153,0.688377 1.098611,0.606821 1.320871,-0.221905 z m 15.698899,0.335697 c 0.32338,-0.340299 0.63914,-0.565809 0.701691,-0.501133 0.06255,0.06468 -0.202033,0.343103 -0.587963,0.618726 l -0.701691,0.501134 z M 61.733781,89.249228 c -0.890217,-0.491878 -0.948837,-0.619445 -0.220685,-0.48025 0.359062,0.06864 0.716634,0.291041 0.794604,0.494227 0.07797,0.203186 0.115734,0.357755 0.08392,0.343487 -0.03181,-0.01427 -0.327841,-0.175127 -0.65784,-0.357464 z m 15.01979,-1.568573 c 0,-0.05494 0.208359,-0.263301 0.463021,-0.463021 0.419644,-0.329107 0.429002,-0.319749 0.09989,0.09989 -0.345644,0.440729 -0.562916,0.580887 -0.562916,0.363126 z M 60.120852,87.160824 c -0.01982,-0.268088 -0.274157,-0.790161 -0.565198,-1.16016 -0.462167,-0.58755 -0.522957,-1.028334 -0.480124,-3.481316 l 0.04904,-2.80859 0.149395,2.99878 c 0.124139,2.491824 0.231257,3.058488 0.633631,3.351973 0.309993,0.226103 0.441964,0.575128 0.36676,0.96997 -0.0829,0.435227 -0.128081,0.473299 -0.153506,0.129343 z m 22.474441,-0.350822 c -0.01149,-0.169999 -0.08941,-0.527187 -0.173157,-0.79375 -0.144741,-0.460697 -0.137274,-0.461274 0.151017,-0.01167 0.166808,0.260144 0.244728,0.617332 0.173157,0.79375 -0.09392,0.23151 -0.135941,0.234757 -0.151017,0.01167 z m -27.49578,-0.881535 c 0,-0.363802 0.06005,-0.512631 0.133452,-0.330729 0.0734,0.181901 0.0734,0.479557 0,0.661458 -0.0734,0.181901 -0.133452,0.03307 -0.133452,-0.330729 z m 22.712391,-0.248969 c 0,-0.136932 0.117699,-0.32171 0.261553,-0.410617 0.149982,-0.09269 0.194339,0.01351 0.103984,0.248969 -0.175892,0.458369 -0.365537,0.542233 -0.365537,0.161648 z M 55.076333,84.936279 c 0.01023,-0.10914 0.120922,-0.436562 0.245987,-0.727604 0.201497,-0.468908 0.229509,-0.446311 0.245987,0.198437 0.01023,0.400183 -0.100466,0.727605 -0.245987,0.727605 -0.145521,0 -0.256215,-0.0893 -0.245987,-0.198438 z m 23.349424,-1.653646 c 0,-0.945885 0.04802,-1.332838 0.106713,-0.859896 0.05869,0.472943 0.05869,1.246849 0,1.719792 -0.05869,0.472943 -0.106713,0.08599 -0.106713,-0.859896 z m 3.705914,-1.1225 c 0.01487,-0.835657 0.105847,-1.371438 0.202171,-1.190625 0.09632,0.180812 0.08416,0.864531 -0.02704,1.519375 l -0.202171,1.190625 z m -3.98846,-1.655625 c 0.0029,-0.582083 0.05712,-0.789054 0.120406,-0.459936 0.06329,0.329119 0.06088,0.805369 -0.0053,1.058334 -0.06622,0.252964 -0.118003,-0.01631 -0.115067,-0.598398 z M 55.156767,79.98407 c -0.08192,-0.213481 -0.09789,-0.540903 -0.03548,-0.727604 0.06241,-0.186702 0.17619,-0.01204 0.252851,0.388146 0.149684,0.781374 0.0262,0.974207 -0.217371,0.339458 z m 24.432875,-0.38499 c -1.040898,-1.237038 -2.937811,-5.194687 -2.738623,-5.713762 0.115732,-0.301592 0.32161,-0.385698 0.632387,-0.258346 0.253434,0.103854 1.234696,0.162186 2.180582,0.129628 0.945885,-0.03256 1.86862,-0.04565 2.050521,-0.02908 0.181901,0.01656 0.479557,0.04526 0.661458,0.06377 0.181901,0.01851 0.502252,-0.01126 0.711891,-0.06615 0.650371,-0.170286 0.595521,0.677776 -0.111192,1.719175 -0.371369,0.547244 -0.981402,1.731066 -1.355628,2.630716 -0.975987,2.346301 -1.198834,2.513492 -2.031396,1.524049 z m 1.660532,-3.89491 c 0.0013,-0.307176 -0.580845,-0.62362 -1.147306,-0.62362 -0.171375,0 -0.466492,0.248036 -0.655816,0.551192 -0.290626,0.465366 -0.27395,0.658449 0.107098,1.240002 l 0.451325,0.688808 0.621692,-0.77698 c 0.341931,-0.42734 0.622284,-0.91307 0.623007,-1.079402 z m 0.867127,3.609713 c 0,-0.654844 0.0516,-0.922734 0.114662,-0.595312 0.06306,0.327421 0.06306,0.863203 0,1.190625 -0.06306,0.327422 -0.114662,0.05953 -0.114662,-0.595313 z m -25.88244,-0.388377 c -0.210856,-0.504649 -0.383374,-1.050162 -0.383374,-1.212251 0,-0.162089 -0.416719,-1.005729 -0.926042,-1.874757 -0.509323,-0.869027 -0.926041,-1.739526 -0.926041,-1.934441 0,-0.47825 0.728974,-0.728459 1.275937,-0.437946 0.24412,0.129661 1.54928,0.206764 2.900355,0.171341 1.351075,-0.03542 2.526676,0.04914 2.612445,0.187915 0.17186,0.278075 -2.456203,5.50415 -2.924316,5.815194 -0.662225,0.440024 -1.255076,0.179784 -1.628964,-0.715055 z m 1.784361,-2.19131 c 1.06992,-1.24576 0.489624,-2.093279 -1.214386,-1.773604 l -0.891319,0.167212 0.677442,1.034706 c 0.767674,1.172525 0.87525,1.215584 1.428263,0.571686 z m 1.294496,2.711979 c 0.02755,-0.50118 0.468513,-1.345102 0.483871,-0.926042 0.008,0.218281 -0.100871,0.575469 -0.241935,0.79375 -0.141064,0.218281 -0.249935,0.277813 -0.241936,0.132292 z m 18.00719,-1.653646 c -0.288714,-0.674699 -0.282183,-0.690261 0.08982,-0.214014 0.220646,0.282475 0.401174,0.609897 0.401174,0.727604 0,0.402143 -0.179475,0.214408 -0.490996,-0.51359 z m -17.499682,0.03562 c -0.0018,-0.532619 2.230292,-3.056242 3.04172,-3.439018 0.436562,-0.205941 0.558164,-0.223916 0.270226,-0.03995 -0.745924,0.476588 -2.229973,2.048516 -2.813709,2.980324 -0.273486,0.436563 -0.497693,0.66095 -0.498237,0.49864 z m 15.993854,-2.019994 -1.045884,-1.124479 1.124479,1.045884 c 1.045755,0.972662 1.246062,1.203074 1.045884,1.203074 -0.04323,0 -0.549243,-0.506016 -1.124479,-1.124479 z m -22.114009,0.132291 c -0.329107,-0.419643 -0.319749,-0.429002 0.0999,-0.09989 0.254662,0.199719 0.463021,0.408078 0.463021,0.46302 0,0.217762 -0.217272,0.0776 -0.562916,-0.363126 z m 29.4025,0.380231 c 0,-0.04554 0.386953,-0.432488 0.859896,-0.859896 l 0.859896,-0.777105 -0.777105,0.859895 c -0.724371,0.801544 -0.942687,0.981512 -0.942687,0.777106 z m -9.126252,-1.766262 c -0.09269,-0.149982 0.01351,-0.194339 0.248968,-0.103985 0.458369,0.175893 0.542234,0.365537 0.161649,0.365537 -0.136933,0 -0.32171,-0.117698 -0.410617,-0.261552 z m 12.101824,-0.902747 c 0.78172,-0.757549 1.480885,-1.207943 1.852083,-1.193089 0.463451,0.01855 0.406085,0.07883 -0.257485,0.270566 -0.469583,0.135687 -0.970764,0.465275 -1.113735,0.732418 -0.142971,0.267144 -0.592203,0.693017 -0.998295,0.946386 -0.466131,0.290829 -0.275362,0.012 0.517432,-0.756281 z m -21.401569,-0.17241 c 0.557173,-0.298626 1.150722,-0.48662 1.318998,-0.417763 0.168276,0.06886 0.112176,0.134595 -0.124667,0.146083 -0.236843,0.01149 -0.578844,0.199482 -0.760001,0.417763 -0.181157,0.218281 -0.580926,0.396875 -0.888374,0.396875 -0.421438,0 -0.309705,-0.133613 0.454044,-0.542958 z m 7.085748,0.005 c -0.343543,-0.2862 -0.499398,-0.520364 -0.346344,-0.520364 0.153054,0 0.357021,0.127406 0.45326,0.283125 0.09624,0.155718 0.430688,0.386296 0.74322,0.512395 0.328896,0.132702 0.401074,0.232628 0.171363,0.23724 -0.218281,0.0044 -0.677956,-0.226196 -1.021499,-0.512396 z M 47.831518,72.532579 c 0.103621,-0.270031 -0.133592,-0.362446 -0.930333,-0.362446 -1.362017,0 -2.394281,-0.391433 -2.60607,-0.988217 -0.09115,-0.256845 -0.354956,-0.686708 -0.586234,-0.95525 -0.38848,-0.451074 -0.375342,-0.524831 0.172508,-0.968453 0.326158,-0.264106 0.593014,-0.595358 0.593014,-0.736115 0,-0.140757 0.178594,-0.404141 0.396875,-0.585299 0.218281,-0.181157 0.396875,-0.552923 0.396875,-0.826147 0,-0.309626 0.187191,-0.496769 0.496895,-0.496769 0.273292,0 0.674003,-0.266739 0.890468,-0.592753 0.625677,-0.94232 1.749134,-0.400547 2.600819,1.254211 0.37449,0.727604 0.939592,1.739635 1.255782,2.248958 0.316191,0.509323 0.575337,1.179354 0.575881,1.488958 0.0013,0.727788 -0.645422,1.257123 -1.320255,1.080651 -0.291672,-0.07627 -0.596989,-0.03079 -0.678483,0.101064 -0.08149,0.131859 0.03042,0.239744 0.248705,0.239744 0.218281,0 0.451105,0.0893 0.517385,0.198438 0.06628,0.10914 -0.393261,0.21271 -1.021203,0.230154 -0.866395,0.02407 -1.108173,-0.05568 -1.002629,-0.330729 z m 0.509287,-1.156196 c 0.378317,0 0.716479,-0.19275 0.812327,-0.463021 0.09031,-0.254662 0.331461,-0.658459 0.535885,-0.897329 0.328377,-0.383707 0.269745,-0.50478 -0.503237,-1.039179 -0.481205,-0.33268 -1.09525,-0.829722 -1.364543,-1.10454 -0.635806,-0.648847 -0.930591,-0.363169 -0.320682,0.310774 0.546784,0.604189 0.359753,1.082241 -0.350721,0.896447 -0.781898,-0.20447 -0.939311,0.419514 -0.282267,1.118904 0.529429,0.563552 0.547047,0.653952 0.156642,0.803764 -0.241933,0.09284 -0.616955,0.02184 -0.833384,-0.157783 -0.216428,-0.17962 -0.393505,-0.211134 -0.393505,-0.07003 0,0.346469 1.104097,0.859184 1.542994,0.716528 0.193803,-0.06299 0.644024,-0.114532 1.000491,-0.114532 z m -2.014318,-3.278985 c 0,-0.397292 -0.642225,-0.753097 -0.897879,-0.497442 -0.18659,0.18659 0.335673,0.86601 0.665692,0.86601 0.127703,0 0.232187,-0.165855 0.232187,-0.368568 z m 20.769792,4.47892 C 67.532842,72.366043 68.128154,72.194 68.419196,72.194 c 0.291041,0 0.886354,0.172043 1.322916,0.382318 0.613633,0.295563 0.643653,0.339262 0.132292,0.192578 -0.363802,-0.104357 -1.018646,-0.18974 -1.455208,-0.18974 -0.436563,0 -1.091407,0.08538 -1.455209,0.18974 -0.51136,0.146684 -0.481341,0.102985 0.132292,-0.192578 z m 23.084897,0.212336 c 0.181901,-0.0734 0.479557,-0.0734 0.661458,0 0.181901,0.0734 0.03307,0.133453 -0.330729,0.133453 -0.363802,0 -0.51263,-0.06005 -0.330729,-0.133453 z M 57.438987,72.434716 c -0.238467,-0.154109 -0.271101,-0.258097 -0.08176,-0.260532 0.173313,-0.0022 0.388699,0.115011 0.478636,0.260532 0.203016,0.328487 0.111422,0.328487 -0.396876,0 z m 31.435809,0.08384 c 0.190996,-0.07643 0.419199,-0.06703 0.507118,0.02089 0.08792,0.08792 -0.06835,0.150453 -0.347266,0.138964 -0.308225,-0.01269 -0.370919,-0.07539 -0.159852,-0.159852 z M 54.662735,71.90858 c -0.09269,-0.149982 0.01351,-0.194338 0.248968,-0.103984 0.458369,0.175893 0.542234,0.365537 0.161649,0.365537 -0.136933,0 -0.32171,-0.117699 -0.410617,-0.261553 z m 4.914967,0.186684 c 0.06063,-0.04118 0.348368,-0.249537 0.63941,-0.463021 0.489481,-0.359042 0.501933,-0.353427 0.166041,0.07487 -0.19972,0.254661 -0.487454,0.463021 -0.63941,0.463021 -0.151956,0 -0.226674,-0.03369 -0.166041,-0.07487 z m 26.182769,-0.564357 c -0.265418,-0.717494 1.402033,-4.895393 2.252841,-5.644629 0.845496,-0.744558 1.707822,-0.773363 1.89352,-0.06325 0.07653,0.292633 0.422567,0.603197 0.76898,0.690141 0.66756,0.167547 0.883217,0.894465 0.265365,0.894465 -0.564559,0 -1.059465,0.700082 -0.666565,0.942908 0.179407,0.110879 0.456685,0.006 0.637329,-0.241028 0.175867,-0.240513 0.391961,-0.437297 0.480209,-0.437297 0.177324,0 2.030172,1.805298 2.030172,1.978071 0,0.05959 -0.245964,0.525226 -0.546587,1.034744 -0.705766,1.196184 -1.638273,1.484017 -4.578877,1.41334 -2.048874,-0.04924 -2.371376,-0.121397 -2.536387,-0.567464 z m 4.81758,-0.258253 c 0.762429,-0.578766 0.579421,-1.091733 -0.205911,-0.577163 -0.656112,0.429901 -1.183152,0.370146 -1.183152,-0.134145 0,-0.140053 0.297656,-0.390263 0.661459,-0.556022 0.833553,-0.379792 0.861072,-1.010191 0.0441,-1.010191 -0.877473,0 -1.031665,-0.263567 -0.568093,-0.971067 0.577145,-0.880834 -0.0053,-0.787277 -1.103928,0.177317 -0.497217,0.436562 -1.018951,0.79375 -1.159408,0.79375 -0.394783,0 -0.301566,0.741607 0.123088,0.979255 0.208156,0.11649 0.356985,0.441582 0.33073,0.722425 -0.07772,0.831378 2.167982,1.253828 3.061118,0.575841 z m -24.980599,0.432721 c -0.795473,-0.170714 -0.733822,-0.803423 0.197079,-2.022587 0.504197,-0.660328 1.147951,-1.740028 1.430562,-2.399334 0.434144,-1.012817 0.628147,-1.198534 1.250846,-1.197424 0.648139,0.0012 0.840565,0.216502 1.595846,1.785938 0.472362,0.981543 1.064064,2.109702 1.314894,2.507021 0.290947,0.460865 0.363171,0.809173 0.199494,0.962085 -0.258437,0.24144 -5.169226,0.540169 -5.988721,0.364301 z m 3.747785,-2.027529 c 0,-0.197729 -0.222765,-0.634611 -0.495035,-0.970849 l -0.495035,-0.611343 -0.431006,0.833475 c -0.237054,0.458412 -0.431007,0.879628 -0.431007,0.936036 0,0.05641 0.416719,0.118226 0.926042,0.137374 0.621059,0.02335 0.926041,-0.08359 0.926041,-0.324693 z m 13.758334,1.859136 c 0,-0.05719 0.184778,-0.17489 0.410617,-0.261553 0.23546,-0.09035 0.341662,-0.046 0.248969,0.103984 -0.155379,0.251408 -0.659586,0.371858 -0.659586,0.157569 z m -30.341946,-0.59408 c -0.171455,-0.06992 -0.755862,-0.685595 -1.298683,-1.368174 -0.632704,-0.795604 -0.711285,-0.956154 -0.218933,-0.447304 0.422408,0.436563 1.066347,1.06105 1.430975,1.387749 0.66121,0.592429 0.676577,0.668296 0.08664,0.427729 z m 22.025133,-0.333224 c -0.381483,-0.14939 -0.425496,-0.253564 -0.173048,-0.409586 0.200457,-0.123889 0.513216,-0.03458 0.766739,0.218942 0.453876,0.453877 0.247628,0.520106 -0.593691,0.190644 z m 10.064638,-0.331861 c 0.275624,-0.38593 0.55405,-0.650513 0.618726,-0.587963 0.06468,0.06255 -0.160834,0.378311 -0.501133,0.701691 l -0.618726,0.587963 z M 71.991071,68.995133 c -0.155761,-0.291042 -0.22367,-0.529167 -0.15091,-0.529167 0.07276,0 0.259732,0.238125 0.415493,0.529167 0.155761,0.291041 0.22367,0.529166 0.15091,0.529166 -0.07276,0 -0.259732,-0.238125 -0.415493,-0.529166 z m -7.672917,0.164688 c 0,-0.05494 0.208359,-0.263301 0.463021,-0.463021 0.419644,-0.329107 0.429002,-0.319749 0.09989,0.0999 -0.345644,0.440729 -0.562916,0.580887 -0.562916,0.363126 z m 1.058333,-1.322916 c 0,-0.05494 0.20836,-0.263302 0.463021,-0.463021 0.419644,-0.329108 0.429002,-0.319749 0.0999,0.09989 -0.345644,0.44073 -0.562916,0.580888 -0.562916,0.363127 z m 20.379879,0.06667 c -0.0038,-0.09103 0.268817,-0.805409 0.605879,-1.5875 0.725369,-1.683088 0.662816,-2.220349 -0.297564,-2.555731 -0.391683,-0.136782 -1.111696,-0.622256 -1.600028,-1.078829 -0.488333,-0.456573 -1.090055,-0.830134 -1.33716,-0.830134 -0.247106,0 -0.848693,-0.412085 -1.33686,-0.915746 -0.488167,-0.50366 -1.017467,-0.835469 -1.176222,-0.737353 -0.591663,0.365668 -1.890383,-0.0033 -2.537923,-0.721047 -0.848115,-0.940054 -3.192941,-2.12377 -4.206983,-2.12377 -0.644464,0 -1.00826,0.284187 -2.032201,1.5875 -0.685966,0.873125 -1.299109,1.5875 -1.36254,1.5875 -0.06343,0 0.134998,-0.327422 0.440953,-0.727604 0.305955,-0.400183 0.982307,-1.352683 1.503004,-2.116667 0.520697,-0.763985 1.035156,-1.389063 1.143243,-1.389063 0.329423,0 4.757552,2.544312 5.330418,3.062749 0.451716,0.408797 0.621228,0.432801 1.071332,0.151707 0.474053,-0.296051 0.666793,-0.212181 1.69908,0.739348 0.640404,0.590304 1.287315,1.07328 1.437579,1.07328 0.150265,0 0.846221,0.40276 1.546568,0.895023 0.700348,0.492263 1.681393,1.102718 2.180099,1.356566 0.498707,0.253848 0.933588,0.48317 0.966403,0.509604 0.03281,0.02643 -0.410538,0.934027 -0.985227,2.016873 -0.574689,1.082845 -1.048022,1.894327 -1.05185,1.803294 z m -15.59649,-2.502367 c 0.0127,-0.308225 0.07539,-0.370919 0.159852,-0.159852 0.07643,0.190996 0.06703,0.419199 -0.02089,0.507118 -0.08792,0.08792 -0.150453,-0.06835 -0.138964,-0.347266 z M 48.780451,65.133061 c -0.306337,-0.543785 -0.0418,-1.165012 0.496105,-1.165012 0.109121,0 0.728646,-0.357857 1.376722,-0.795238 0.648075,-0.437381 1.636577,-1.002928 2.196669,-1.256771 1.171,-0.530715 2.191232,-1.217244 3.315136,-2.230801 0.433584,-0.391015 0.955,-0.64698 1.158701,-0.568813 0.367178,0.1409 3.898827,-1.652108 5.111822,-2.595256 0.879486,-0.683833 1.189678,-0.616965 1.54856,0.333821 0.305076,0.808237 0.301015,0.815232 -0.206576,0.355868 -0.297424,-0.269164 -0.517769,-0.338525 -0.517769,-0.162984 0,0.168075 -0.267891,0.307346 -0.595313,0.309491 -0.327422,0.0021 -0.847058,0.150973 -1.154748,0.330729 -0.307689,0.179756 -1.081595,0.610714 -1.719791,0.957684 -0.638196,0.34697 -1.237467,0.750997 -1.331712,0.897837 -0.09425,0.14684 -0.421668,0.201523 -0.727604,0.121519 -0.325224,-0.08505 -0.562329,-0.01839 -0.570889,0.160497 -0.02047,0.427924 -1.539754,1.58682 -2.064829,1.575038 -0.23874,-0.0054 -0.672198,0.20007 -0.96324,0.456504 -0.291041,0.256435 -0.91002,0.546751 -1.375507,0.645147 -0.465487,0.0984 -1.292426,0.5875 -1.837642,1.086898 -0.545215,0.499399 -1.138347,0.907997 -1.31807,0.907997 -0.179723,0 -0.367432,0.267891 -0.417132,0.595312 l -0.09036,0.595313 z m 21.410117,-2.355637 c 0.0054,-0.436562 0.06469,-0.583125 0.131773,-0.325694 0.06708,0.257431 0.06267,0.614619 -0.0098,0.793751 -0.07248,0.179131 -0.127361,-0.03149 -0.121969,-0.468057 z m -3.759973,-0.979765 c -0.07044,-0.829913 -0.03157,-1.41207 0.08638,-1.293683 0.117943,0.118386 0.175572,0.797406 0.128066,1.508932 l -0.08638,1.293683 z m 1.479787,0.615822 c -0.0887,-0.143523 -0.03628,-0.338201 0.116488,-0.432618 0.165873,-0.102516 0.0077,-0.384069 -0.392559,-0.698945 -0.368678,-0.290002 -0.670324,-0.686537 -0.670324,-0.881188 0,-0.194652 -0.47625,-0.956415 -1.058333,-1.692805 -0.830944,-1.051223 -1.058333,-1.563894 -1.058333,-2.38611 0,-1.236133 0.63801,-2.072813 1.215287,-1.593715 0.20101,0.166824 0.534397,0.238494 0.740859,0.159268 0.430647,-0.165255 1.346231,0.723027 1.120956,1.08753 -0.08235,0.133252 0.02278,0.468176 0.233637,0.744276 0.325178,0.4258 0.421647,0.443674 0.635525,0.117758 0.138684,-0.211334 0.192793,-0.48029 0.120241,-0.597681 -0.223419,-0.361499 0.181473,-1.267035 0.56653,-1.267035 0.200223,0 0.549387,0.264617 0.77592,0.588038 l 0.411878,0.588038 v -0.56599 c 0,-0.311294 0.148828,-0.617904 0.330729,-0.681354 0.713371,-0.248839 0.992188,0.145205 0.992188,1.402226 0,1.028004 -0.166725,1.495629 -0.86249,2.419088 -1.299772,1.725132 -1.90016,2.675485 -2.059528,3.260023 -0.156574,0.574291 -0.899386,0.850727 -1.158671,0.431196 z m 0.258203,-2.987371 0.181923,-0.573189 0.479269,0.635382 c 0.263598,0.34946 0.535454,0.577629 0.604123,0.507043 0.06867,-0.07059 0.209594,-0.812948 0.313165,-1.649693 0.203823,-1.646671 -0.157796,-2.081845 -0.714553,-0.859896 -0.395958,0.869033 -0.642593,0.834388 -1.158204,-0.162692 -0.497308,-0.961688 -1.103826,-0.689272 -0.744737,0.334496 0.119982,0.34207 0.233244,0.80054 0.251692,1.018821 0.01845,0.218282 0.05117,0.605235 0.07272,0.859896 0.0547,0.646495 0.496044,0.578454 0.714605,-0.110168 z m -3.34129,-0.948165 -0.641433,-0.727604 0.727604,0.641433 c 0.680056,0.599516 0.84894,0.813775 0.641434,0.813775 -0.0474,0 -0.374816,-0.327422 -0.727605,-0.727604 z"
         id="path406" /><path
         style="fill:#585858"
         d="m 66.845823,107.16128 c 0.256237,-2.11294 0.800197,-3.00573 1.319442,-2.16558 0.113831,0.18419 0.350568,0.12219 0.683325,-0.17895 0.742661,-0.6721 1.101188,-0.15835 1.241304,1.77873 0.137145,1.89601 -0.285271,2.05661 -1.097968,0.41744 -0.267082,-0.53869 -0.580967,-0.9205 -0.697522,-0.84846 -0.116554,0.072 -0.37051,0.66809 -0.564346,1.32457 -0.532878,1.80475 -1.116606,1.58838 -0.884235,-0.32775 z m 4.149753,0.42003 c -0.397416,-0.39742 -0.430605,-1.01534 -0.05454,-1.01534 0.319603,0 0.612438,0.65132 0.476368,1.05952 -0.06312,0.18936 -0.202938,0.17471 -0.421833,-0.0442 z m -9.455547,-0.85581 c -0.873125,-0.48059 -1.622931,-1.05436 -1.666236,-1.27505 -0.05243,-0.2672 -0.518612,-0.45335 -1.395366,-0.55719 -1.646364,-0.19499 -1.83319,-0.31254 -1.83319,-1.15343 0,-0.57288 -0.06165,-0.62707 -0.396875,-0.34886 -0.269896,0.22399 -0.502691,0.24472 -0.727604,0.0648 -0.181901,-0.14553 -0.62166,-0.35404 -0.977241,-0.46336 -0.355581,-0.10931 -1.189019,-0.57988 -1.852083,-1.04572 -0.663065,-0.46583 -1.517939,-0.92523 -1.89972,-1.02089 -0.381782,-0.0957 -0.977094,-0.40518 -1.322917,-0.68781 -0.618687,-0.505645 -0.621144,-0.52585 -0.153239,-1.260131 0.261541,-0.410436 0.708483,-1.263202 0.993205,-1.895035 1.120924,-2.487473 2.007462,-3.377522 4.378973,-4.396312 2.370139,-1.018201 3.103487,-1.036383 4.303704,-0.1067 0.344526,0.266868 0.734157,0.418624 0.865848,0.337235 0.13169,-0.08139 0.787536,0.158358 1.457435,0.532771 0.669899,0.374414 1.394505,0.680752 1.610236,0.680752 0.466627,0 2.560869,2.181433 3.175101,3.307292 0.322955,0.591962 0.431546,1.486258 0.427152,3.517788 l -0.0059,2.72405 -1.072812,1.11241 c -0.590047,0.61183 -1.26741,1.49937 -1.505253,1.97232 -0.237842,0.47294 -0.51868,0.85426 -0.624083,0.84738 -0.105404,-0.007 -0.906018,-0.40571 -1.779143,-0.88629 z m 4.002884,-2.51932 c 0.58953,-0.82561 0.90611,-3.25408 0.636651,-4.883732 -0.260625,-1.576221 -0.854971,-2.810648 -1.353258,-2.810648 -0.150369,0 -0.618832,-0.378201 -1.041028,-0.840447 l -0.76763,-0.840446 -0.24386,0.642009 c -0.134123,0.353105 -0.29902,0.880134 -0.366437,1.171176 -0.108436,0.468116 -0.157908,0.443235 -0.428804,-0.215662 -0.168425,-0.409655 -0.306226,-1.030544 -0.306226,-1.379753 0,-0.359023 -0.224522,-0.755086 -0.516685,-0.911446 -0.460903,-0.246668 -0.53454,-0.169121 -0.682073,0.718295 -0.283232,1.703647 -0.463848,1.835706 -0.677881,0.49564 -0.302377,-1.893179 -0.522594,-1.974906 -2.140737,-0.794472 -1.1518,0.840237 -1.321607,0.906556 -0.937456,0.366125 1.765521,-2.48377 1.772193,-2.787762 0.05603,-2.552535 -2.351998,0.322377 -4.963525,2.322317 -5.990735,4.587779 -0.413671,0.912332 -0.752129,1.720931 -0.752129,1.796886 0,0.07596 0.416719,0.138102 0.926042,0.138102 0.891571,0 1.21248,0.320908 0.661458,0.661458 -0.600941,0.371402 -0.190781,0.661461 0.935351,0.661461 1.119827,0 1.180938,0.0355 0.915395,0.53166 -0.242183,0.45253 -0.184832,0.56958 0.385268,0.78633 0.368394,0.14007 0.866653,0.17913 1.107241,0.0868 0.269285,-0.10333 0.575665,0.0212 0.797039,0.32393 0.279068,0.38165 0.430492,0.42091 0.676115,0.17529 0.540829,-0.54083 1.533592,-0.39191 1.533592,0.23005 0,0.30061 0.124061,0.77837 0.275692,1.0617 0.217569,0.40653 0.381246,0.45864 0.776356,0.24718 0.704361,-0.37696 1.064618,-0.33333 1.064618,0.12893 0,0.21828 0.182331,0.39688 0.405179,0.39688 0.222849,0 0.474134,0.17969 0.558412,0.39932 0.08428,0.21962 0.638527,0.68871 1.231665,1.04241 l 1.078432,0.6431 0.942844,-0.82251 c 0.518564,-0.45239 1.077267,-1.01077 1.241561,-1.24086 z m -7.441,-4.521002 c 0.526425,-0.581692 0.815056,-0.519518 0.568689,0.122503 -0.08617,0.224559 -0.357458,0.408289 -0.60286,0.408289 -0.40717,0 -0.404182,-0.0464 0.03417,-0.530792 z m 1.19726,-1.321294 c 0,-0.218281 0.115417,-0.575469 0.256481,-0.79375 0.227982,-0.352778 0.25648,-0.352778 0.25648,0 0,0.218281 -0.115416,0.575469 -0.25648,0.79375 -0.227983,0.352778 -0.256481,0.352778 -0.256481,0 z m 6.237733,8.621066 c 0.08843,-0.23044 0.277026,-0.41898 0.419104,-0.41898 0.347766,0 0.129999,0.60134 -0.26551,0.73317 -0.193344,0.0645 -0.252475,-0.0565 -0.153594,-0.31419 z m 6.340124,-1.71543 c -1.45735,-2.11368 -1.772702,-3.34612 -1.505196,-5.882542 0.194302,-1.842324 1.183623,-3.790617 2.094655,-4.125057 0.247843,-0.09098 0.548742,-0.328423 0.668665,-0.527644 0.306566,-0.509279 3.397429,-1.966529 3.823925,-1.802867 0.193904,0.07441 0.696186,-0.118772 1.116182,-0.429289 0.643243,-0.47557 1.008552,-0.542366 2.317212,-0.423701 1.846798,0.167462 4.04125,1.202042 4.758181,2.243258 0.527727,0.766429 2.715418,5.130557 2.715418,5.416866 0,0.277266 -3.54316,2.151766 -4.01725,2.125316 -0.244956,-0.0137 -0.586956,0.14575 -0.760001,0.35426 -0.360215,0.43403 -1.043583,0.50902 -1.043583,0.11451 0,-0.14552 -0.119063,-0.26458 -0.264583,-0.26458 -0.145521,0 -0.264584,0.23199 -0.264584,0.51554 0,0.91635 -1.099429,1.79977 -2.501515,2.01003 -0.810262,0.12151 -1.502348,0.41442 -1.844973,0.78087 -0.707296,0.75646 -2.002195,1.41668 -3.130132,1.59594 -0.855947,0.13603 -0.943191,0.0674 -2.162421,-1.70091 z m 1.857475,0.10582 c 0.1903,-0.75821 0.433533,-0.82953 0.902399,-0.26458 0.456692,0.55028 0.650095,0.50684 1.649257,-0.37044 0.480655,-0.42202 1.169407,-0.8118 1.53056,-0.86617 0.37861,-0.057 0.624217,-0.2495 0.580062,-0.45462 -0.05589,-0.25965 0.110863,-0.3087 0.61732,-0.18159 0.556995,0.1398 0.721747,0.0677 0.835043,-0.36557 0.07763,-0.29686 0.30585,-0.53974 0.507159,-0.53974 0.201309,0 0.366016,-0.23812 0.366016,-0.52916 0,-0.29398 0.176389,-0.52917 0.396875,-0.52917 0.218282,0 0.396875,-0.13752 0.396875,-0.30559 0,-0.17299 0.230322,-0.0971 0.530789,0.17477 0.604229,0.54682 0.582887,0.55916 1.046749,-0.60548 0.33115,-0.831437 0.367378,-0.849202 0.846863,-0.41527 0.474366,0.42929 0.553105,0.42352 1.485653,-0.10892 0.844371,-0.482091 0.991597,-0.705755 1.032857,-1.569101 0.06972,-1.458931 -1.576984,-4.247878 -2.970757,-5.031427 -1.929554,-1.084753 -4.617987,-1.34236 -4.617987,-0.442498 0,0.201309 -0.224875,0.366016 -0.499721,0.366016 -0.359973,0 -0.547473,0.254539 -0.670476,0.9102 -0.221332,1.179804 0.02615,2.174445 0.826838,3.323134 0.529602,0.759778 0.45616,0.716569 -0.409052,-0.240665 -0.580001,-0.641688 -1.196064,-1.672156 -1.36903,-2.289929 l -0.314483,-1.123223 -1.097142,0.489784 c -0.603429,0.26938 -1.13468,0.669795 -1.18056,0.889811 -0.04588,0.220015 0.16248,0.955919 0.463021,1.635342 0.814367,1.84101 0.66526,1.95767 -0.454176,0.355341 -0.550338,-0.787739 -1.202584,-1.471147 -1.449437,-1.518687 -0.295766,-0.05696 -0.729171,0.348386 -1.270908,1.188624 -0.802892,1.245293 -0.819438,1.334681 -0.708734,3.828908 0.109003,2.45587 0.151332,2.60558 1.103431,3.9026 1.093324,1.48941 1.643307,1.68891 1.894696,0.6873 z M 47.266397,97.453809 c 0.232618,-0.355021 0.576903,-0.586412 0.765078,-0.514203 0.197505,0.07579 0.408321,-0.121807 0.498704,-0.467433 0.218021,-0.833714 -0.02211,-0.964547 -0.504989,-0.275139 -0.223186,0.318642 -0.63419,0.57935 -0.913342,0.57935 -0.422832,0 -0.481051,-0.132488 -0.348799,-0.79375 0.145933,-0.729666 0.09936,-0.79375 -0.576788,-0.79375 -0.71878,0 -0.724627,-0.01206 -0.256649,-0.529167 0.446396,-0.493262 0.449178,-0.561997 0.04101,-1.013021 -0.240835,-0.26612 -0.437882,-0.563776 -0.437882,-0.661458 0,-0.329871 2.391264,-0.180522 3.319509,0.207324 1.207261,0.504426 1.398011,1.067001 0.636594,1.877492 -0.507283,0.539977 -0.534915,0.647996 -0.165766,0.647996 1.100794,0 0.09024,1.528626 -1.339786,2.026646 -0.547439,0.19065 -1.027853,0.34843 -1.067588,0.350621 -0.03974,0.0022 0.118079,-0.286488 0.350697,-0.641508 z m 41.194987,-0.07372 c -0.454442,-0.163013 -0.417556,-0.603705 0.05053,-0.603705 0.438246,0 0.785104,0.436288 0.482952,0.607472 -0.111515,0.06318 -0.351582,0.06148 -0.533483,-0.0038 z M 67.841735,96.445655 c -0.481911,-0.533834 -1.406914,-2.194803 -1.406914,-2.526306 0,-0.239376 3.530855,0.19664 3.803955,0.46974 0.183075,0.183075 -0.002,0.549774 -0.576554,1.142605 -0.465383,0.480154 -0.846151,1.016167 -0.846151,1.19114 0,0.488403 -0.381084,0.379992 -0.974336,-0.277179 z M 88.196801,95.63263 c -1.23598,-1.244644 -1.401583,-1.625688 -0.595313,-1.369788 0.412686,0.130982 0.529167,0.04755 0.529167,-0.379045 0,-0.711824 0.608683,-0.699664 1.598214,0.03193 0.923848,0.683031 0.995831,1.008576 0.223011,1.008576 -0.406834,0 -0.52422,0.126657 -0.42913,0.463021 0.07199,0.254662 0.175176,0.626732 0.229296,0.826823 0.206103,0.761997 -0.47338,0.507935 -1.555245,-0.581514 z M 64.724438,90.722289 c -1.304512,-0.71378 -2.415762,-1.429548 -2.469444,-1.590594 -0.05368,-0.161046 -0.312114,-0.292812 -0.574292,-0.292812 -0.558555,0 -1.331298,-1.069626 -1.331298,-1.842774 0,-0.296162 -0.238125,-0.776601 -0.529167,-1.067642 -0.460427,-0.460427 -0.529167,-0.881945 -0.529167,-3.244881 0,-2.012899 0.13062,-3.073074 0.50472,-4.096567 0.803898,-2.199373 3.133863,-4.564803 4.496362,-4.564803 0.269706,0 0.622592,-0.159312 0.784191,-0.354026 0.161598,-0.194714 0.979849,-0.559921 1.818334,-0.811571 1.404497,-0.421523 1.647532,-0.425192 3.087032,-0.04661 0.859383,0.226016 1.761727,0.591223 2.005209,0.811571 0.243482,0.220348 0.593543,0.400633 0.777913,0.400633 0.54379,0 1.929683,0.847875 3.019412,1.847245 1.678382,1.539212 2.244715,2.967562 2.452807,6.186231 0.113908,1.761873 0.08218,2.925075 -0.08559,3.137824 -0.146627,0.185942 -0.340542,0.64849 -0.430923,1.027885 -0.201254,0.844809 -2.353917,2.882066 -3.045328,2.882066 -0.276475,0 -0.651295,0.179068 -0.832934,0.39793 -0.181639,0.218862 -0.99989,0.802871 -1.818335,1.297798 -1.128071,0.682164 -1.90415,0.938699 -3.207873,1.060372 -1.685922,0.157343 -1.766504,0.134945 -4.091633,-1.137278 z m 4.993736,0.07808 c 0.760094,-0.580374 1.405926,-0.88633 1.662829,-0.787747 0.794045,0.304703 1.630799,-0.544388 1.719139,-1.744487 0.09396,-1.276446 0.662045,-1.685872 0.79007,-0.569413 0.131921,1.150434 0.951691,1.067017 2.305241,-0.234573 l 1.161673,-1.11708 -1.029382,-0.905397 -1.029381,-0.905397 1.106745,0.139376 c 1.271457,0.160118 1.71483,-0.349515 0.995541,-1.14432 -0.389353,-0.43023 -0.387316,-0.524537 0.02492,-1.153686 0.537408,-0.820189 0.171557,-1.476258 -0.82322,-1.476258 -0.392687,0 -0.871524,-0.335538 -1.322375,-0.926633 -0.611299,-0.801455 -0.667904,-1.024845 -0.419021,-1.653646 0.496915,-1.255445 0.481194,-2.215575 -0.04164,-2.543352 -0.398831,-0.250035 -0.591144,-0.171352 -1.14842,0.469864 l -0.669367,0.770191 0.0837,-1.034774 0.0837,-1.034775 -1.308955,0.08555 c -1.296252,0.08472 -1.304284,0.08039 -0.827591,-0.446348 0.622593,-0.687957 0.352909,-1.094413 -0.726143,-1.094413 -1.079657,0 -1.887038,0.575916 -1.887038,1.346051 0,0.325374 -0.148828,0.641792 -0.330729,0.703151 -0.235543,0.07945 -0.33073,-0.271568 -0.33073,-1.21964 V 72.99141 l -0.814802,0.284041 c -0.448141,0.156223 -0.86486,0.447686 -0.926042,0.647695 -0.06118,0.20001 -0.169004,0.547382 -0.239605,0.771939 -0.09594,0.305162 -0.249434,0.343491 -0.6077,0.151753 -0.338161,-0.180978 -0.736533,-0.131967 -1.352618,0.166412 -1.041283,0.504309 -1.231711,0.888748 -0.82067,1.656786 0.425284,0.79465 0.21236,0.887466 -0.773103,0.337004 -0.832598,-0.465074 -0.850496,-0.463054 -1.358752,0.153342 -0.732676,0.888565 -0.639891,1.33483 0.557316,2.680496 1.154144,1.297264 1.013204,1.709163 -0.262182,0.766229 -0.442017,-0.326797 -0.854132,-0.543103 -0.915812,-0.480679 -0.06168,0.06242 -0.146736,1.244591 -0.189015,2.627039 -0.07664,2.505868 -0.07489,2.513629 0.571912,2.54223 1.281746,0.05668 1.32341,0.09043 0.781073,0.63277 -0.567948,0.567947 -0.667677,1.22348 -0.279479,1.83704 0.197008,0.311379 0.369425,0.323584 0.934439,0.06615 0.381071,-0.173627 1.05108,-0.315686 1.488911,-0.315686 h 0.796054 l -0.742358,0.679441 c -0.512582,0.46914 -0.636965,0.722656 -0.401854,0.819057 0.187278,0.07679 0.69542,0.438258 1.129206,0.803264 0.779725,0.656095 1.180225,0.681245 2.539888,0.159493 0.46733,-0.179331 0.468391,-0.158611 0.02642,0.515921 -0.43763,0.667909 -0.437595,0.716077 7.18e-4,0.971411 0.818751,0.476953 1.549519,0.304745 2.818492,-0.664189 z m 4.389564,-6.194815 c 0,-0.145521 0.112035,-0.264583 0.248968,-0.264583 0.136933,0 0.322553,0.119062 0.41249,0.264583 0.08994,0.145521 -0.0221,0.264583 -0.248968,0.264583 -0.22687,0 -0.41249,-0.119062 -0.41249,-0.264583 z m 3.341,-4.887227 c 0.165753,-0.431945 -0.697057,-2.388815 -1.05326,-2.388815 -0.12419,0 -0.47711,0.433328 -0.784266,0.96295 -0.473216,0.815959 -0.504482,1.027995 -0.204822,1.389063 0.443997,0.534984 1.841514,0.560167 2.042348,0.0368 z M 46.626839,91.342069 C 46.137189,91.129484 45.329416,90.95555 44.831788,90.95555 h -0.904777 l 0.161186,-1.256771 c 0.219171,-1.708877 0.245072,-3.58132 0.07668,-5.543066 -0.105977,-1.234595 -0.05238,-1.674399 0.216648,-1.777633 0.418909,-0.160751 0.495946,-2.153631 0.09288,-2.402739 -0.15516,-0.09589 -0.264583,-1.634642 -0.264583,-3.720674 v -3.557153 l 2.777404,0.04446 2.777404,0.04446 1.740154,1.268638 c 2.431303,1.772513 3.653265,3.504741 3.607512,5.113938 -0.01237,0.434917 0.102871,0.941802 0.256082,1.12641 0.169707,0.204484 0.219833,1.034684 0.128271,2.124454 -0.433133,5.155128 -0.790542,5.967281 -3.190868,7.250715 -4.348714,2.325221 -4.244097,2.294429 -5.67894,1.671481 z m 5.401316,-1.898891 c 1.138883,-0.655028 1.829413,-1.25461 2.098857,-1.822421 0.220857,-0.465422 0.401558,-0.902769 0.401558,-0.971883 0,-0.06911 -0.522586,0.06226 -1.161302,0.29194 -0.908688,0.326762 -1.297178,0.352302 -1.785938,0.117409 l -0.624635,-0.300192 0.741093,-0.01791 c 0.500944,-0.0121 1.041589,-0.339423 1.66841,-1.010095 1.283041,-1.372797 1.624839,-2.1131 1.650348,-3.574505 0.02164,-1.239628 0.01071,-1.256675 -0.696017,-1.085738 -0.3949,0.09552 -0.993642,0.275293 -1.330537,0.399506 -0.872507,0.321692 -3.952984,0.279977 -4.160843,-0.05634 -0.299271,-0.48423 0.05313,-0.559781 1.120053,-0.240124 1.417088,0.42457 2.900027,-0.0108 4.03883,-1.185749 0.938305,-0.968086 0.939188,-1.018771 0.04396,-2.525274 -0.129713,-0.218282 -0.394258,-0.734455 -0.587877,-1.147052 -0.19362,-0.412597 -0.682061,-0.920839 -1.085425,-1.129427 -0.403364,-0.208588 -1.135535,-0.732339 -1.627048,-1.163893 -0.722303,-0.63419 -1.116167,-0.777924 -2.054092,-0.749603 -0.638238,0.01927 -1.279496,0.0033 -1.425017,-0.03549 -0.145521,-0.03879 -0.502708,-0.05378 -0.79375,-0.03332 -0.495201,0.03483 -0.488056,0.06882 0.111308,0.529557 l 0.640475,0.492342 -0.838689,0.184207 c -0.71345,0.1567 -0.815766,0.275539 -0.685182,0.795827 0.08443,0.336391 0.0248,0.691168 -0.132515,0.788392 -0.157312,0.09722 -0.286022,0.481287 -0.286022,0.853473 0,0.546328 0.1019,0.650055 0.528903,0.538391 0.752936,-0.196897 0.851079,0.139976 0.373666,1.282586 -0.381973,0.914192 -0.380856,1.017759 0.01335,1.23837 0.274108,0.153399 0.371514,0.425612 0.26847,0.750275 -0.122998,0.38753 -0.03449,0.50953 0.369663,0.50953 0.941316,0 0.852845,0.465463 -0.123277,0.648584 -0.68725,0.128929 -0.9048,0.284394 -0.795725,0.568638 0.08256,0.215158 0.04687,0.594849 -0.07931,0.843758 -1.034825,2.041295 -1.050092,2.724484 -0.06607,2.95678 l 0.619185,0.146169 -0.551966,0.499522 c -0.499362,0.451917 -0.511287,0.529267 -0.125128,0.811633 0.444864,0.325293 0.301008,1.462416 -0.185009,1.462416 -0.135715,0 -0.246754,0.228203 -0.246754,0.507118 0,0.748444 1.188191,1.09127 3.258956,0.940298 1.451362,-0.105813 2.135337,-0.322218 3.501046,-1.107705 z m 36.234792,1.785353 c -1.474654,-0.313081 -4.524186,-2.340367 -4.987604,-3.315689 -0.765298,-1.610668 -1.060333,-2.950018 -0.990811,-4.497917 0.03922,-0.873125 0.06414,-1.825625 0.05538,-2.116667 -0.107828,-3.584688 0.273421,-4.622606 2.253153,-6.13401 0.53683,-0.409836 1.376584,-1.13092 1.866121,-1.602409 0.889887,-0.857079 0.890578,-0.857239 3.429499,-0.79375 l 2.539433,0.0635 0.110255,1.283721 c 0.06423,0.747812 -0.01783,1.438053 -0.196556,1.653407 -0.233308,0.281119 -0.228492,0.558767 0.0201,1.158923 0.179802,0.43408 0.254249,0.978594 0.165439,1.210031 -0.08881,0.231437 -0.03335,0.660198 0.123249,0.952804 0.21936,0.409877 0.189601,0.637118 -0.129628,0.989862 -0.25328,0.279872 -0.319716,0.554157 -0.170904,0.705594 0.310077,0.315547 0.385381,1.426904 0.326039,4.811805 -0.0388,2.213128 -0.120547,2.711979 -0.444419,2.711979 -0.218282,0 -0.396875,0.104484 -0.396875,0.232186 0,0.127703 0.178593,0.380406 0.396875,0.561564 0.218281,0.181157 0.396875,0.731517 0.396875,1.223022 0,0.694908 -0.109468,0.893645 -0.492239,0.893645 -0.270731,0 -1.014872,0.05244 -1.653646,0.116545 -0.638774,0.0641 -1.637657,0.01543 -2.21974,-0.108148 z m 2.291835,-1.374191 c 0.518904,-0.518904 0.529863,-0.593819 0.129673,-0.886445 -0.475221,-0.34749 -0.590512,-0.922762 -0.184931,-0.922762 0.416889,0 1.365475,-2.444739 1.28135,-3.302355 -0.06337,-0.646015 -0.189842,-0.787046 -0.661636,-0.73779 -0.582988,0.06087 -0.583037,0.06045 -0.09331,-0.79375 C 91.97071,81.5633 91.95662,81.2472 90.923182,80.906135 90.41051,80.736938 89.72129,80.672817 89.391584,80.763643 c -0.582116,0.16036 -0.584601,0.153256 -0.08588,-0.245435 0.282475,-0.225816 0.719221,-0.410575 0.970548,-0.410575 1.311649,0 1.591831,-0.613262 0.892674,-1.953883 -0.29113,-0.558239 -0.320772,-0.856374 -0.110351,-1.109916 0.474587,-0.571842 0.183056,-1.528718 -0.515642,-1.692459 -0.570212,-0.133629 -0.589166,-0.181987 -0.198437,-0.506264 0.72473,-0.601472 0.530658,-1.310863 -0.427904,-1.564121 -0.472942,-0.124955 -1.09802,-0.155772 -1.389062,-0.06848 -1.84047,0.551992 -5.688542,3.790034 -5.688542,4.786744 0,0.284019 0.238125,0.66511 0.529167,0.846868 0.717014,0.447783 0.66561,0.732347 -0.132292,0.732347 -0.491099,0 -0.661458,0.14012 -0.661458,0.544045 0,1.19458 3.251135,1.928789 5.136633,1.160014 0.349199,-0.142379 0.44891,-0.113424 0.321169,0.09326 -0.271559,0.439392 -1.953158,0.845344 -3.508714,0.847034 -1.527761,0.0017 -1.674103,0.203346 -1.680892,2.31658 l -0.0036,1.124479 h 2.132282 c 1.354146,0 2.072607,0.09655 1.96876,0.264584 -0.08994,0.145521 -0.627143,0.264583 -1.193791,0.264583 -1.291838,0 -2.378084,0.479719 -2.378084,1.050233 0,0.67319 0.5233,1.228634 2.248958,2.387102 1.473578,0.989242 1.68737,1.055854 2.979182,0.92824 0.936092,-0.09247 1.577234,-0.323032 1.958487,-0.704285 z m -10.882702,0.058 c -0.194479,-0.363388 -0.18476,-0.712341 0.03316,-1.190625 0.388613,-0.852914 0.490729,-0.846469 1.385475,0.08745 l 0.731981,0.764023 -0.609059,0.426602 c -0.80142,0.561336 -1.206643,0.53835 -1.541557,-0.08745 z m -22.922191,-0.40683 -0.532779,-0.598141 0.585184,-0.73389 c 0.962223,-1.206743 1.713502,-0.549245 1.268466,1.110126 -0.22226,0.828726 -0.707718,0.910282 -1.320871,0.221905 z M 79.55415,76.871744 c -0.381048,-0.581553 -0.397724,-0.774636 -0.107098,-1.240002 0.3578,-0.572929 0.676614,-0.66278 1.385921,-0.390593 0.577473,0.221597 0.522723,0.63192 -0.205806,1.542423 l -0.621692,0.77698 z M 56.590959,76.16251 55.913517,75.127804 56.804836,74.960592 c 1.70401,-0.319675 2.284306,0.527844 1.214386,1.773604 -0.553013,0.643898 -0.660589,0.600839 -1.428263,-0.571686 z m 21.264275,-4.056647 c -0.776533,-0.328454 -1.750877,-0.936533 -2.165209,-1.351287 -0.414332,-0.414754 -0.876819,-0.677779 -1.027747,-0.5845 -0.412857,0.25516 -1.886405,-0.597437 -2.987145,-1.728365 -1.148438,-1.179934 -1.393051,-2.118093 -1.381475,-5.298338 l 0.0083,-2.279884 1.396505,-1.755012 c 1.15438,-1.450728 1.531701,-1.755011 2.17627,-1.755011 1.009566,0 3.355453,1.185724 4.201756,2.12377 0.64754,0.717736 1.94626,1.086715 2.537923,0.721047 0.158755,-0.09812 0.688055,0.233693 1.176222,0.737353 0.488167,0.503661 1.089754,0.915746 1.33686,0.915746 0.247105,0 0.848827,0.373561 1.33716,0.830134 0.488332,0.456573 1.208345,0.942047 1.600028,1.078829 0.956142,0.333902 1.018946,0.862109 0.307827,2.588954 -0.329592,0.800365 -0.722348,1.939213 -0.872791,2.530774 -0.311565,1.225112 -0.913958,1.845085 -2.783026,2.86425 -1.831208,0.998519 -3.127572,1.094928 -4.861458,0.36154 z m 4.690465,-1.098325 c 0.609906,-0.595558 1.150929,-0.912947 1.395943,-0.818927 0.220036,0.08444 0.541605,-0.01702 0.714596,-0.225465 0.325991,-0.392795 1.152018,-3.907773 0.962801,-4.09699 -0.05896,-0.05896 -0.472289,0.02006 -0.918503,0.175614 l -0.811298,0.28282 0.702396,-0.920888 c 0.386318,-0.506489 0.656027,-0.956504 0.599354,-1.000033 -0.722537,-0.554962 -2.138788,-1.22937 -2.581667,-1.22937 -0.310246,0 -0.564083,-0.155837 -0.564083,-0.346305 0,-0.190468 -0.171232,-0.577421 -0.380516,-0.859896 -0.376014,-0.507515 -0.385405,-0.50733 -0.79375,0.01558 -0.37224,0.476672 -0.446043,0.487582 -0.743963,0.109973 -0.181901,-0.230557 -0.649455,-0.498534 -1.039008,-0.595503 -0.589032,-0.146626 -0.820543,-0.03286 -1.375083,0.675708 -0.837885,1.070619 -1.126951,0.840702 -0.526392,-0.418682 0.511896,-1.073458 0.327638,-1.498521 -0.441398,-1.018251 -0.729548,0.455611 -0.814889,0.409917 -0.729175,-0.390414 0.0657,-0.613499 -0.04338,-0.736349 -0.794572,-0.894841 -0.478903,-0.101043 -1.096479,-0.388012 -1.372391,-0.637708 -0.591479,-0.535282 -1.151381,-0.300001 -0.931877,0.391593 0.0846,0.266549 0.02991,0.561212 -0.12153,0.654807 -0.15144,0.0936 -0.275345,0.04408 -0.275345,-0.110025 0,-0.567865 -0.77486,-0.256124 -1.341562,0.539735 -0.537082,0.754262 -0.572757,1.037175 -0.445416,3.532234 0.11687,2.289901 0.384581,3.508679 0.899535,4.095211 0.05457,0.06215 0.455158,-0.228015 0.890202,-0.644814 0.855396,-0.819521 0.956871,-0.684455 0.49062,0.653033 -0.241092,0.691597 -0.228038,0.907455 0.06615,1.093764 0.742656,0.470331 0.947528,0.195221 1.390815,-1.867643 0.249127,-1.159325 0.537294,-2.159691 0.640372,-2.223035 0.103077,-0.06334 0.207659,0.875234 0.232402,2.085727 0.04784,2.340149 0.300803,3.115949 1.167227,3.579644 0.443587,0.237401 0.770704,0.139344 1.853859,-0.555715 0.723377,-0.464189 1.490296,-1.093922 1.704266,-1.399406 0.235347,-0.336007 0.389035,-0.41228 0.389035,-0.193076 0,0.199293 -0.395371,0.850864 -0.878602,1.447934 -0.483231,0.597071 -0.974735,1.247724 -1.09223,1.445894 -0.335368,0.565639 0.381649,0.864965 1.789271,0.746949 1.033725,-0.08667 1.461244,-0.289966 2.269522,-1.079229 z m -27.366071,0.949208 c -2.525021,-1.058626 -3.876432,-2.374591 -5.209192,-5.072564 -0.791944,-1.603172 -0.919468,-2.386966 -0.388362,-2.386966 0.189844,0 0.791257,-0.408598 1.336472,-0.907997 0.545216,-0.499398 1.372155,-0.988502 1.837642,-1.086898 0.465487,-0.0984 1.084466,-0.388712 1.375507,-0.645147 0.291042,-0.256434 0.7245,-0.461861 0.96324,-0.456504 0.525075,0.01178 2.044355,-1.147114 2.064829,-1.575038 0.0086,-0.178886 0.245665,-0.245545 0.570889,-0.160497 0.305936,0.08 0.633358,0.02532 0.727604,-0.121519 0.09424,-0.14684 0.693516,-0.550867 1.331712,-0.897837 0.638196,-0.34697 1.412102,-0.777928 1.719791,-0.957684 0.30769,-0.179756 0.827326,-0.328584 1.154748,-0.330729 0.327422,-0.0021 0.599783,-0.152729 0.605247,-0.33463 0.01122,-0.373431 1.55693,1.307774 2.493415,2.71198 0.709927,1.064494 1.100296,4.472314 0.702931,6.136414 -0.414759,1.736946 -1.998683,3.387461 -4.707755,4.90568 -2.891695,1.620565 -4.737921,1.951698 -6.578718,1.179936 z m 0.87752,-1.307967 c 0.278452,-0.400183 0.831082,-1.423317 1.228065,-2.273632 0.396983,-0.850316 0.791755,-1.476061 0.87727,-1.390546 0.08552,0.08552 0.0012,0.798548 -0.187339,1.584519 -0.188552,0.785971 -0.261042,1.754872 -0.16109,2.153114 l 0.181732,0.724076 1.308434,-1.424026 c 0.719638,-0.783215 1.738795,-2.297699 2.264793,-3.365521 0.676095,-1.37253 1.038884,-1.858971 1.237957,-1.659897 0.199074,0.199073 0.160787,0.419119 -0.130648,0.750869 -0.226734,0.2581 -0.501278,0.766929 -0.610097,1.130731 -0.108819,0.363802 -0.480089,1.223047 -0.825045,1.909433 -0.344956,0.686387 -0.627193,1.304867 -0.627193,1.3744 0,0.06953 0.625078,-0.12431 1.389063,-0.430764 2.05005,-0.822328 3.807991,-2.616366 4.156621,-4.24197 0.153476,-0.715636 0.211825,-1.409925 0.129663,-1.542866 -0.08216,-0.13294 -0.154228,-0.866976 -0.160148,-1.63119 -0.0123,-1.587494 -0.22557,-2.104043 -1.366314,-3.309221 l -0.814702,-0.860719 -0.85048,0.824318 c -0.467764,0.453374 -0.980524,0.743945 -1.139467,0.645713 -0.461243,-0.285064 -2.137986,0.437964 -2.137986,0.92192 0,0.645395 -0.264098,0.789483 -0.815671,0.44502 -0.37941,-0.236946 -0.569237,-0.233333 -0.818142,0.01557 -0.178257,0.178257 -0.525678,0.324104 -0.772046,0.324104 -0.778187,0 -0.859304,0.71257 -0.316252,2.778125 0.118412,0.450393 0.02238,0.419321 -0.645117,-0.208723 -0.712747,-0.670622 -0.816852,-0.698594 -1.141981,-0.306837 -0.321744,0.387677 -0.387902,0.389806 -0.657467,0.02115 -0.442186,-0.604726 -1.817597,-0.185177 -1.930716,0.588936 -0.05929,0.405738 -0.322779,0.635443 -0.849815,0.74085 -0.974614,0.194923 -1.645315,1.184721 -1.417593,2.092039 0.09398,0.374437 0.89426,1.388648 1.778403,2.253801 l 1.607534,1.573005 0.603758,-0.731279 c 0.52484,-0.635692 0.598856,-0.66211 0.56626,-0.202112 -0.114572,1.616822 0.250355,1.870726 1.045756,0.727605 z m 6.429811,-7.099653 c 0.0127,-0.308225 0.07539,-0.37092 0.159852,-0.159853 0.07643,0.190996 0.06703,0.419199 -0.02089,0.507118 -0.08792,0.08792 -0.150453,-0.06835 -0.138964,-0.347265 z M 46.392632,71.318191 C 46.065211,71.1602 45.79732,70.915489 45.79732,70.774387 c 0,-0.141101 0.177077,-0.109587 0.393505,0.07003 0.216429,0.179619 0.591451,0.250622 0.833384,0.157783 0.390405,-0.149812 0.372787,-0.240212 -0.156642,-0.803764 -0.657044,-0.69939 -0.499631,-1.323374 0.282267,-1.118904 0.710474,0.185794 0.897505,-0.292258 0.350721,-0.896447 -0.609909,-0.673943 -0.315124,-0.959621 0.320682,-0.310774 0.269293,0.274818 0.883338,0.77186 1.364543,1.10454 0.772982,0.534399 0.831614,0.655472 0.503237,1.039179 -0.204424,0.23887 -0.445572,0.642667 -0.535885,0.897329 -0.09585,0.270271 -0.43401,0.463021 -0.812327,0.463021 -0.356467,0 -0.806688,0.05154 -1.000491,0.114532 -0.193803,0.06299 -0.62026,-0.01473 -0.947682,-0.172724 z m 41.738023,0.07964 c -0.439686,-0.126557 -0.645454,-0.361592 -0.613722,-0.701016 0.02626,-0.280843 -0.122574,-0.605935 -0.33073,-0.722425 -0.424654,-0.237648 -0.517871,-0.979255 -0.123088,-0.979255 0.140457,0 0.662191,-0.357188 1.159408,-0.79375 1.098612,-0.964594 1.681073,-1.058151 1.103928,-0.177317 -0.463572,0.7075 -0.30938,0.971067 0.568093,0.971067 0.816975,0 0.789456,0.630399 -0.0441,1.010191 -0.363803,0.165759 -0.661459,0.415969 -0.661459,0.556022 0,0.504291 0.52704,0.564046 1.183152,0.134145 0.480017,-0.31452 0.668932,-0.344543 0.668932,-0.10631 0,0.847813 -1.411666,1.240039 -2.910417,0.808648 z M 67.493154,69.865165 c 0,-0.05641 0.193953,-0.477624 0.431007,-0.936036 l 0.431006,-0.833475 0.495035,0.611343 c 0.764359,0.943943 0.634067,1.335582 -0.431006,1.295542 -0.509323,-0.01915 -0.926042,-0.08097 -0.926042,-0.137374 z M 67.45398,59.536278 c -0.02155,-0.254661 -0.05427,-0.641614 -0.07272,-0.859896 -0.01845,-0.218281 -0.13171,-0.676751 -0.251692,-1.018821 -0.359089,-1.023768 0.247429,-1.296184 0.744737,-0.334496 0.515611,0.99708 0.762246,1.031725 1.158204,0.162692 0.556757,-1.221949 0.918376,-0.786775 0.714553,0.859896 -0.103571,0.836745 -0.244495,1.579107 -0.313165,1.649693 -0.06867,0.07059 -0.340525,-0.157583 -0.604123,-0.507043 l -0.479269,-0.635382 -0.181923,0.573189 c -0.218561,0.688622 -0.659908,0.756663 -0.714605,0.110168 z"
         id="path405" /><path
         style="fill:#2b2b2b"
         d="m 62.280076,105.62645 c -0.593138,-0.3537 -1.147387,-0.82279 -1.231665,-1.04241 -0.08428,-0.21963 -0.335563,-0.39932 -0.558412,-0.39932 -0.222848,0 -0.405179,-0.1786 -0.405179,-0.39688 0,-0.46226 -0.360257,-0.50589 -1.064618,-0.12893 -0.39511,0.21146 -0.558787,0.15935 -0.776356,-0.24718 -0.151631,-0.28333 -0.275692,-0.76109 -0.275692,-1.0617 0,-0.62196 -0.992763,-0.77088 -1.533592,-0.23005 -0.245623,0.24562 -0.397047,0.20636 -0.676115,-0.17529 -0.221374,-0.30274 -0.527754,-0.42726 -0.797039,-0.32393 -0.240588,0.0923 -0.738847,0.0533 -1.107241,-0.0868 -0.5701,-0.21675 -0.627451,-0.3338 -0.385268,-0.78633 0.265543,-0.49617 0.204432,-0.53166 -0.915395,-0.53166 -1.126132,0 -1.536292,-0.290059 -0.935351,-0.661461 0.551022,-0.34055 0.230113,-0.661458 -0.661458,-0.661458 -0.509323,0 -0.926042,-0.06215 -0.926042,-0.138102 0,-0.07595 0.338458,-0.884554 0.752129,-1.796886 1.02721,-2.265462 3.638737,-4.265402 5.990735,-4.587779 1.716165,-0.235227 1.709493,0.06876 -0.05603,2.552535 -0.384151,0.540431 -0.214344,0.474112 0.937456,-0.366125 1.618143,-1.180434 1.83836,-1.098707 2.140737,0.794472 0.214033,1.340066 0.394649,1.208007 0.677881,-0.49564 0.147533,-0.887416 0.22117,-0.964963 0.682073,-0.718295 0.292163,0.15636 0.516685,0.552423 0.516685,0.911446 0,0.349209 0.137801,0.970098 0.306226,1.379753 0.270896,0.658897 0.320368,0.683778 0.428804,0.215662 0.06742,-0.291042 0.232314,-0.818071 0.366437,-1.171176 l 0.24386,-0.642009 0.76763,0.840446 c 0.422196,0.462246 0.890659,0.840447 1.041028,0.840447 0.985418,0 1.781392,3.52915 1.312848,5.82083 -0.338077,1.65356 -0.523565,1.9679 -1.837802,3.11441 l -0.942844,0.82251 z m -3.609474,-5.818769 c 0.246367,-0.642021 -0.04226,-0.704195 -0.568689,-0.122503 -0.438353,0.484372 -0.441341,0.530792 -0.03417,0.530792 0.245402,0 0.516689,-0.18373 0.602859,-0.408289 z m 1.141532,-2.237547 c 0,-0.352778 -0.0285,-0.352778 -0.25648,0 -0.141064,0.218281 -0.256481,0.575469 -0.256481,0.79375 0,0.352778 0.0285,0.352778 0.256481,0 0.141064,-0.218281 0.25648,-0.575469 0.25648,-0.79375 z m 12.027675,7.117906 c -0.952099,-1.29702 -0.994428,-1.44673 -1.103431,-3.9026 -0.110704,-2.494227 -0.09416,-2.583615 0.708734,-3.828908 0.541737,-0.840238 0.975142,-1.245583 1.270908,-1.188624 0.246853,0.04754 0.899099,0.730948 1.449437,1.518687 1.119436,1.602329 1.268543,1.485669 0.454176,-0.355341 -0.300541,-0.679423 -0.5089,-1.415327 -0.463021,-1.635342 0.04588,-0.220016 0.577131,-0.620431 1.18056,-0.889811 l 1.097142,-0.489784 0.314483,1.123223 c 0.172966,0.617773 0.789029,1.648241 1.36903,2.289929 0.865212,0.957234 0.938654,1.000443 0.409052,0.240665 -0.800691,-1.148689 -1.04817,-2.14333 -0.826838,-3.323134 0.123003,-0.655661 0.310503,-0.9102 0.670476,-0.9102 0.274846,0 0.499721,-0.164707 0.499721,-0.366016 0,-0.899862 2.688433,-0.642255 4.617987,0.442498 1.393773,0.783549 3.04048,3.572496 2.970757,5.031427 -0.04126,0.863346 -0.188486,1.08701 -1.032857,1.569101 -0.932548,0.53244 -1.011287,0.53821 -1.485653,0.10892 -0.479485,-0.433932 -0.515713,-0.416167 -0.846863,0.41527 -0.463862,1.16464 -0.44252,1.1523 -1.046749,0.60548 -0.300467,-0.27192 -0.530789,-0.34776 -0.530789,-0.17477 0,0.16807 -0.178593,0.30559 -0.396875,0.30559 -0.220486,0 -0.396875,0.23519 -0.396875,0.52917 0,0.29104 -0.164707,0.52916 -0.366016,0.52916 -0.201309,0 -0.429531,0.24288 -0.507159,0.53974 -0.113296,0.43324 -0.278048,0.50537 -0.835043,0.36557 -0.506457,-0.12711 -0.673213,-0.0781 -0.61732,0.18159 0.04416,0.20512 -0.201452,0.39761 -0.580062,0.45462 -0.361153,0.0544 -1.049905,0.44415 -1.53056,0.86617 -0.999162,0.87728 -1.192565,0.92072 -1.649257,0.37044 -0.468866,-0.56495 -0.712099,-0.49363 -0.902399,0.26458 -0.251389,1.00161 -0.801372,0.80211 -1.894696,-0.6873 z M 66.899682,91.464554 c -0.438313,-0.255334 -0.438348,-0.303502 -7.18e-4,-0.971411 0.441971,-0.674532 0.44091,-0.695252 -0.02642,-0.515921 -1.359663,0.521752 -1.760163,0.496602 -2.539888,-0.159493 -0.433786,-0.365006 -0.941928,-0.726475 -1.129206,-0.803264 -0.235111,-0.0964 -0.110728,-0.349917 0.401854,-0.819057 l 0.742358,-0.679441 h -0.796054 c -0.437831,0 -1.10784,0.142059 -1.488911,0.315686 -0.565014,0.257438 -0.737431,0.245233 -0.934439,-0.06615 -0.388198,-0.61356 -0.288469,-1.269093 0.279479,-1.83704 0.542337,-0.542337 0.500673,-0.576091 -0.781073,-0.63277 -0.646801,-0.0286 -0.648547,-0.03636 -0.571912,-2.54223 0.04228,-1.382448 0.127335,-2.564616 0.189015,-2.627039 0.06168,-0.06242 0.473795,0.153882 0.915812,0.480679 1.275386,0.942934 1.416326,0.531035 0.262182,-0.766229 -1.197207,-1.345666 -1.289992,-1.791931 -0.557316,-2.680496 0.508256,-0.616396 0.526154,-0.618416 1.358752,-0.153342 0.985463,0.550462 1.198387,0.457646 0.773103,-0.337004 -0.411041,-0.768038 -0.220613,-1.152477 0.82067,-1.656786 0.616085,-0.298379 1.014457,-0.34739 1.352618,-0.166412 0.358266,0.191738 0.511756,0.153409 0.6077,-0.151753 0.0706,-0.224557 0.178424,-0.571929 0.239605,-0.771939 0.06118,-0.200009 0.477901,-0.491472 0.926042,-0.647695 l 0.814802,-0.284041 v 1.331202 c 0,0.948072 0.09519,1.299093 0.33073,1.21964 0.181901,-0.06136 0.330729,-0.377777 0.330729,-0.703151 0,-0.770135 0.807381,-1.346051 1.887038,-1.346051 1.079052,0 1.348736,0.406456 0.726143,1.094413 -0.476693,0.52674 -0.468661,0.531072 0.827591,0.446348 l 1.308955,-0.08555 -0.0837,1.034775 -0.0837,1.034774 0.669367,-0.770191 c 0.557276,-0.641216 0.749589,-0.719899 1.14842,-0.469864 0.522836,0.327777 0.538557,1.287907 0.04164,2.543352 -0.248883,0.628801 -0.192278,0.852191 0.419021,1.653646 0.450851,0.591095 0.929688,0.926633 1.322375,0.926633 0.994777,0 1.360628,0.656069 0.82322,1.476258 -0.412235,0.629149 -0.414272,0.723456 -0.02492,1.153686 0.719289,0.794805 0.275916,1.304438 -0.995541,1.14432 l -1.106745,-0.139376 1.029381,0.905397 1.029382,0.905397 -1.161673,1.11708 c -1.35355,1.30159 -2.17332,1.385007 -2.305241,0.234573 -0.128025,-1.116459 -0.69611,-0.707033 -0.79007,0.569413 -0.08834,1.200099 -0.925094,2.04919 -1.719139,1.744487 -0.256903,-0.09858 -0.902735,0.207373 -1.662829,0.787747 -1.268973,0.968934 -1.999741,1.141142 -2.818492,0.664189 z m 7.869514,-6.859004 c -0.08994,-0.145521 -0.275557,-0.264583 -0.41249,-0.264583 -0.136933,0 -0.248968,0.119062 -0.248968,0.264583 0,0.145521 0.18562,0.264583 0.41249,0.264583 0.226869,0 0.338905,-0.119062 0.248968,-0.264583 z m -28.773439,5.794495 c -0.683069,-0.265061 -1.065619,-1.296578 -0.48085,-1.296578 0.486017,0 0.629873,-1.137123 0.185009,-1.462416 -0.386159,-0.282366 -0.374234,-0.359716 0.125128,-0.811633 l 0.551966,-0.499522 -0.619185,-0.146169 c -0.984018,-0.232296 -0.968751,-0.915485 0.06607,-2.95678 0.126183,-0.248909 0.161872,-0.6286 0.07931,-0.843758 -0.109075,-0.284244 0.108475,-0.439709 0.795725,-0.568638 0.976122,-0.183121 1.064593,-0.648584 0.123277,-0.648584 -0.40415,0 -0.492661,-0.122 -0.369663,-0.50953 0.103044,-0.324663 0.0056,-0.596876 -0.26847,-0.750275 -0.39421,-0.220611 -0.395327,-0.324178 -0.01335,-1.23837 0.477413,-1.14261 0.37927,-1.479483 -0.373666,-1.282586 -0.427003,0.111664 -0.528903,0.0079 -0.528903,-0.538391 0,-0.372186 0.12871,-0.756249 0.286022,-0.853473 0.157312,-0.09722 0.216944,-0.452001 0.132515,-0.788392 -0.130584,-0.520288 -0.02827,-0.639127 0.685182,-0.795827 l 0.838689,-0.184207 -0.640475,-0.492342 c -0.599364,-0.460739 -0.606509,-0.49473 -0.111308,-0.529557 0.291042,-0.02047 0.648229,-0.0055 0.79375,0.03332 0.145521,0.03879 0.786779,0.05476 1.425017,0.03549 0.937925,-0.02832 1.331789,0.115413 2.054092,0.749603 0.491513,0.431554 1.223684,0.955305 1.627048,1.163893 0.403364,0.208588 0.891805,0.71683 1.085425,1.129427 0.193619,0.412597 0.458164,0.92877 0.587877,1.147052 0.895233,1.506503 0.89435,1.557188 -0.04396,2.525274 -1.138803,1.174947 -2.621742,1.610319 -4.03883,1.185749 -1.066919,-0.319657 -1.419324,-0.244106 -1.120053,0.240124 0.207859,0.336322 3.288336,0.378037 4.160843,0.05634 0.336895,-0.124213 0.935637,-0.30399 1.330537,-0.399506 0.706727,-0.170937 0.717655,-0.15389 0.696017,1.085738 -0.02551,1.461405 -0.367307,2.201708 -1.650348,3.574505 -0.626821,0.670672 -1.167466,0.99799 -1.66841,1.010095 l -0.741093,0.01791 0.624635,0.300192 c 0.48876,0.234893 0.87725,0.209353 1.785938,-0.117409 0.638716,-0.229681 1.161302,-0.361054 1.161302,-0.29194 0,0.06911 -0.180701,0.506461 -0.401558,0.971883 -0.640997,1.350802 -3.345154,2.765741 -5.599903,2.930126 -0.994371,0.0725 -2.130237,0.0048 -2.531352,-0.150838 z m 39.621356,-0.76966 c -1.725658,-1.158468 -2.248958,-1.713912 -2.248958,-2.387102 0,-0.570514 1.086246,-1.050233 2.378084,-1.050233 0.566648,0 1.103854,-0.119062 1.193791,-0.264583 0.103847,-0.168029 -0.614614,-0.264584 -1.96876,-0.264584 h -2.132282 l 0.0036,-1.124479 c 0.0068,-2.113234 0.153131,-2.31492 1.680892,-2.31658 1.555556,-0.0017 3.237155,-0.407642 3.508714,-0.847034 0.127741,-0.206689 0.02803,-0.235644 -0.321169,-0.09326 -1.885498,0.768775 -5.136633,0.03457 -5.136633,-1.160014 0,-0.403925 0.170359,-0.544045 0.661458,-0.544045 0.797902,0 0.849306,-0.284564 0.132292,-0.732347 -0.291042,-0.181758 -0.529167,-0.562849 -0.529167,-0.846868 0,-0.99671 3.848072,-4.234752 5.688542,-4.786744 0.291042,-0.08729 0.91612,-0.05647 1.389062,0.06848 0.958562,0.253258 1.152634,0.962649 0.427904,1.564121 -0.390729,0.324277 -0.371775,0.372635 0.198437,0.506264 0.698698,0.163741 0.990229,1.120617 0.515642,1.692459 -0.210421,0.253542 -0.180779,0.551677 0.110351,1.109916 0.699157,1.340621 0.418975,1.953883 -0.892674,1.953883 -0.251327,0 -0.688073,0.184759 -0.970548,0.410575 -0.498725,0.398691 -0.49624,0.405795 0.08588,0.245435 0.329706,-0.09083 1.018926,-0.02671 1.531598,0.142492 1.033438,0.341065 1.047528,0.657165 0.102746,2.305103 -0.489723,0.854201 -0.489674,0.854615 0.09331,0.79375 0.471794,-0.04926 0.598268,0.09177 0.661636,0.73779 0.08413,0.857616 -0.864461,3.302355 -1.28135,3.302355 -0.405581,0 -0.29029,0.575272 0.184931,0.922762 0.748275,0.547152 -0.403123,1.424271 -2.08816,1.59073 -1.291812,0.127614 -1.505604,0.061 -2.979182,-0.92824 z M 75.40639,79.681521 c -0.29966,-0.361068 -0.268394,-0.573104 0.204822,-1.389063 0.307156,-0.529622 0.660076,-0.96295 0.784266,-0.96295 0.356203,0 1.219013,1.95687 1.05326,2.388815 -0.200834,0.523365 -1.598351,0.498182 -2.042348,-0.0368 z m 3.231513,-7.734682 c -0.416325,-0.28169 -0.317065,-0.498186 0.941233,-2.052915 0.483231,-0.59707 0.878602,-1.248641 0.878602,-1.447934 0,-0.219204 -0.153688,-0.142931 -0.389035,0.193076 -0.21397,0.305484 -0.980889,0.935217 -1.704266,1.399406 -1.083155,0.695059 -1.410272,0.793116 -1.853859,0.555715 -0.866424,-0.463695 -1.119391,-1.239495 -1.167227,-3.579644 -0.02474,-1.210493 -0.129325,-2.14907 -0.232402,-2.085727 -0.103078,0.06334 -0.391245,1.06371 -0.640372,2.223035 -0.443287,2.062864 -0.648159,2.337974 -1.390815,1.867643 -0.294183,-0.186309 -0.307237,-0.402167 -0.06615,-1.093764 0.466251,-1.337488 0.364776,-1.472554 -0.49062,-0.653033 -0.435044,0.416799 -0.835635,0.706965 -0.890202,0.644814 -0.514954,-0.586532 -0.782665,-1.80531 -0.899535,-4.095211 -0.127341,-2.495059 -0.09167,-2.777972 0.445416,-3.532234 0.566702,-0.795859 1.341562,-1.1076 1.341562,-0.539735 0,0.154109 0.123905,0.20362 0.275345,0.110025 0.151441,-0.0936 0.206129,-0.388258 0.12153,-0.654807 -0.219504,-0.691594 0.340398,-0.926875 0.931877,-0.391593 0.275912,0.249696 0.893488,0.536665 1.372391,0.637708 0.751191,0.158492 0.860276,0.281342 0.794572,0.894841 -0.08571,0.800331 -3.73e-4,0.846025 0.729175,0.390414 0.769036,-0.48027 0.953294,-0.05521 0.441398,1.018251 -0.600559,1.259384 -0.311493,1.489301 0.526392,0.418682 0.55454,-0.70857 0.786051,-0.822334 1.375083,-0.675708 0.389553,0.09697 0.857107,0.364946 1.039008,0.595503 0.29792,0.377609 0.371723,0.366699 0.743963,-0.109973 0.408345,-0.522906 0.417736,-0.523091 0.79375,-0.01558 0.209284,0.282475 0.380516,0.669428 0.380516,0.859896 0,0.190468 0.253837,0.346305 0.564083,0.346305 0.442879,0 1.85913,0.674408 2.581667,1.22937 0.05667,0.04353 -0.213036,0.493544 -0.599354,1.000033 l -0.702396,0.920888 0.811298,-0.28282 c 0.446214,-0.155551 0.85954,-0.234577 0.918503,-0.175614 0.189217,0.189217 -0.63681,3.704195 -0.962801,4.09699 -0.172991,0.208442 -0.49456,0.309901 -0.714596,0.225465 -0.245014,-0.09402 -0.786037,0.223369 -1.395943,0.818927 -0.808278,0.789263 -1.235797,0.992561 -2.269522,1.079229 -0.700506,0.05873 -1.437729,-0.0042 -1.638274,-0.139928 z M 55.015815,70.913362 c -0.02306,-0.254662 -0.02505,-0.701146 -0.0044,-0.992188 0.0326,-0.459998 -0.04142,-0.43358 -0.56626,0.202112 L 53.841374,70.854565 52.23384,69.28156 c -0.884143,-0.865153 -1.684425,-1.879364 -1.778403,-2.253801 -0.227722,-0.907318 0.442979,-1.897116 1.417593,-2.092039 0.527036,-0.105407 0.790526,-0.335112 0.849815,-0.74085 0.113119,-0.774113 1.48853,-1.193662 1.930716,-0.588936 0.269565,0.368653 0.335723,0.366524 0.657467,-0.02115 0.325129,-0.391757 0.429234,-0.363785 1.141981,0.306837 0.667494,0.628044 0.763529,0.659116 0.645117,0.208723 -0.543052,-2.065555 -0.461935,-2.778125 0.316252,-2.778125 0.246368,0 0.593789,-0.145847 0.772046,-0.324104 0.248905,-0.248905 0.438732,-0.252518 0.818142,-0.01557 0.551573,0.344463 0.815671,0.200375 0.815671,-0.44502 0,-0.483956 1.676743,-1.206984 2.137986,-0.92192 0.158943,0.09823 0.671703,-0.192339 1.139467,-0.645713 l 0.85048,-0.824318 0.814702,0.860719 c 1.140744,1.205178 1.354017,1.721727 1.366314,3.309221 0.0059,0.764214 0.07799,1.49825 0.160148,1.63119 0.08216,0.132941 0.02381,0.82723 -0.129663,1.542866 -0.34863,1.625604 -2.106571,3.419642 -4.156621,4.24197 -0.763985,0.306454 -1.389063,0.500298 -1.389063,0.430764 0,-0.06953 0.282237,-0.688013 0.627193,-1.3744 0.344956,-0.686386 0.716226,-1.545631 0.825045,-1.909433 0.108819,-0.363802 0.383363,-0.872631 0.610097,-1.130731 0.291435,-0.33175 0.329722,-0.551796 0.130648,-0.750869 -0.199073,-0.199074 -0.561862,0.287367 -1.237957,1.659897 -0.525998,1.067822 -1.545155,2.582306 -2.264793,3.365521 l -1.308434,1.424026 -0.181732,-0.724076 c -0.09995,-0.398242 -0.02746,-1.367143 0.16109,-2.153114 0.188551,-0.785971 0.272854,-1.499004 0.187339,-1.584519 -0.08552,-0.08552 -0.480287,0.54023 -0.87727,1.390546 -1.225024,2.623931 -2.166318,3.676724 -2.269398,2.538215 z m 7.630996,-7.524089 c -0.08446,-0.211067 -0.147157,-0.148372 -0.159852,0.159853 -0.01149,0.278915 0.05105,0.435184 0.138964,0.347265 0.08792,-0.08792 0.09732,-0.316122 0.02089,-0.507118 z"
         id="path404" /></g></g></svg>
