<?xml version="1.0" encoding="UTF-8" standalone="no"?>
<!-- Created with Inkscape (http://www.inkscape.org/) -->

<svg
   width="103.63733mm"
   height="176.88454mm"
   viewBox="0 0 103.63733 176.88454"
   version="1.1"
   id="svg1"
   xml:space="preserve"
   xmlns="http://www.w3.org/2000/svg"
   xmlns:svg="http://www.w3.org/2000/svg"><defs
     id="defs1" /><g
     id="layer1"
     transform="translate(-53.350031,-85.028097)"><path
       style="fill:#a9a9a9"
       d="m 104.32043,142.9068 c -1.89177,-0.0728 -3.59175,-0.23068 -3.77774,-0.35094 -0.18599,-0.12025 -0.543178,-0.64668 -0.793748,-1.16984 -0.45559,-0.95119 -0.45559,-0.95119 -22.575512,-0.99845 -12.165957,-0.026 -22.266877,-0.13807 -22.446488,-0.24908 -0.179611,-0.11101 -0.269963,-0.39675 -0.200783,-0.63499 0.639218,-2.20128 3.189565,-10.46242 4.544507,-14.72066 0.926074,-2.91042 2.412473,-7.61338 3.303109,-10.45104 0.890636,-2.83766 1.783273,-5.63563 1.983637,-6.21771 0.200364,-0.58208 0.631938,-1.9513 0.959052,-3.04271 0.731626,-2.44104 0.883354,-2.64583 1.960316,-2.64583 0.79374,0 0.884906,-0.0916 1.195608,-1.20132 0.354919,-1.267647 0.858172,-1.709097 1.948372,-1.709097 0.36478,0 0.7162,-0.0893 0.780933,-0.19844 0.06473,-0.10914 0.492148,-2.0439 0.949811,-4.29948 1.422878,-7.01259 1.616,-7.2523 5.227056,-6.48803 1.139073,0.24109 2.401252,0.48453 2.804842,0.54098 0.40359,0.0564 0.850397,0.17471 0.992904,0.26278 0.259465,0.16036 2.454042,0.60725 3.697255,0.75289 0.363802,0.0426 0.900166,0.20569 1.191921,0.36237 0.291754,0.15669 1.23821,0.41572 2.103234,0.57563 0.865025,0.15991 2.013513,0.52047 2.552196,0.80125 0.538683,0.28077 1.041947,0.44798 1.118364,0.37156 0.07642,-0.0764 0.809914,0.22929 1.629993,0.67936 0.820078,0.45006 1.59487,0.8183 1.721758,0.8183 0.240553,0 2.068655,1.05533 4.416975,2.54984 1.574558,1.00208 4.175608,1.98517 4.709888,1.78015 0.69213,-0.2656 0.92874,-1.787 0.9573,-6.15541 0.0158,-2.41576 0.10737,-5.10667 0.2035,-5.97979 0.15757,-1.43114 0.19372,-1.24871 0.36709,1.85208 0.10576,1.89177 0.19278,4.95061 0.19337,6.79741 6.1e-4,1.9104 0.11305,3.42703 0.26084,3.51837 0.51897,0.32074 4.13746,-0.98718 5.82565,-2.1057 3.8521,-2.55225 7.76549,-4.27535 11.48851,-5.05852 1.00842,-0.21212 1.96441,-0.49433 2.12442,-0.62713 0.16001,-0.1328 0.94279,-0.32556 1.73952,-0.42836 0.79673,-0.1028 1.74625,-0.29848 2.11005,-0.43485 0.36381,-0.13637 1.13791,-0.29355 1.72023,-0.34929 0.58232,-0.0557 1.81822,-0.34395 2.74644,-0.64049 1.87985,-0.60053 2.67708,-0.67765 2.67708,-0.25895 0,0.15411 0.0999,0.21848 0.22191,0.14305 0.38831,-0.23998 1.28008,1.75376 1.76336,3.94238 1.65024,7.47333 1.5288,7.1353 2.59579,7.22563 1.09048,0.0923 1.6727,0.723547 1.92939,2.091817 0.1499,0.799 0.24304,0.86901 1.15621,0.86901 0.98458,0 0.99784,0.0143 1.53068,1.65364 1.29164,3.97384 4.35926,13.62209 5.48903,17.26407 0.67712,2.18281 1.80917,5.75468 2.51565,7.9375 3.03166,9.3669 3.26468,10.19851 2.94675,10.51644 -0.34923,0.34923 0.13446,0.33848 -25.96866,0.57679 -18.65218,0.17028 -18.65218,0.17028 -19.09821,1.03968 -0.24531,0.47817 -0.60292,0.99517 -0.79469,1.1489 -0.48394,0.38794 -2.65776,0.49965 -6.69867,0.34423 z m -3.847,-3.05542 c -0.45677,-0.55037 0.0268,-0.4632 0.8043,0.145 0.57687,0.45124 1.09449,0.51816 4.04803,0.52329 3.41919,0.006 4.32701,-0.19411 5.49029,-1.20986 0.33169,-0.28962 3.12782,-0.37213 14.60894,-0.43111 13.03683,-0.067 14.23609,-0.11032 14.6553,-0.52966 0.25111,-0.2512 0.38434,-0.52895 0.29606,-0.61723 -0.0883,-0.0883 -1.56947,-0.33411 -3.29154,-0.5463 -1.72207,-0.21219 -5.17905,-0.79264 -7.68218,-1.28987 -2.50312,-0.49724 -5.76825,-1.02897 -7.25583,-1.18163 -1.48758,-0.15265 -2.7634,-0.33626 -2.83515,-0.40801 -0.0717,-0.0718 0.0155,-0.13045 0.19384,-0.13045 0.17837,0 0.24884,-0.12209 0.15662,-0.27131 -0.36232,-0.58625 6.53161,0.14859 12.57187,1.34007 7.19224,1.41871 16.01697,2.19491 18.1901,1.59995 1.39096,-0.38081 1.39175,-0.3976 0.21376,-4.58823 -1.19615,-4.25522 -3.38406,-12.5913 -4.56556,-17.39506 -0.51897,-2.11006 -1.04576,-4.07459 -1.17064,-4.36563 -0.12488,-0.29104 -0.3949,-1.24354 -0.60006,-2.11667 -0.53313,-2.26892 -1.11123,-4.31926 -1.59465,-5.65566 -0.23033,-0.63676 -0.41879,-1.36078 -0.41879,-1.60893 0,-0.49651 -1.20922,-1.271667 -1.51177,-0.96912 -0.10431,0.10431 0.0183,1.16613 0.2725,2.3596 0.63968,3.00353 1.42645,6.46399 1.75662,7.7262 0.15226,0.58208 0.57499,2.42755 0.93939,4.10104 1.3607,6.24888 2.082,8.97516 3.46892,13.11141 1.54976,4.62189 1.65902,5.25272 0.96132,5.55029 -0.25466,0.10862 -2.20768,0.25483 -4.34005,0.32491 -3.76527,0.12375 -8.16873,-0.20037 -15.17297,-1.11682 -3.78326,-0.49501 -1.04216,-0.52474 3.30892,-0.0359 1.81811,0.20427 4.1391,0.4448 5.15775,0.53453 2.27088,0.20002 9.18037,-0.2445 9.91546,-0.63791 0.35284,-0.18884 0.53558,-0.55429 0.53558,-1.07108 0,-0.84327 -0.22754,-0.98015 -0.7542,-0.45371 -0.25261,0.25251 -2.81831,0.3374 -10.84821,0.35894 -11.00099,0.0295 -11.6586,0.0694 -15.51738,0.94013 -6.51978,1.47125 -8.13699,2.27291 -11.1125,5.50851 -2.07006,2.251 -2.92175,2.91586 -3.73523,2.91586 -0.22167,0 -1.19833,-0.86121 -2.17036,-1.91379 -2.80799,-3.04068 -3.2471,-3.40408 -5.206908,-4.30909 -2.895434,-1.33707 -6.557708,-2.28965 -10.741598,-2.79393 -1.48067,-0.17847 -6.149476,-0.28267 -11.534384,-0.25744 -9.204098,0.0431 -11.193813,-0.12083 -11.193813,-0.92241 0,-0.62936 -0.505556,-0.44058 -0.679848,0.25385 -0.305563,1.21746 -0.04817,1.58988 1.344385,1.94516 1.987364,0.50702 9.675555,0.48866 13.615063,-0.0325 1.814665,-0.24008 3.838728,-0.42089 4.497917,-0.40181 1.198525,0.0347 1.198525,0.0347 -0.256683,0.23727 -6.600459,0.91883 -11.044446,1.31219 -14.508867,1.28423 -4.95278,-0.04 -5.440998,-0.13924 -5.554285,-1.12955 -0.04922,-0.43028 0.490116,-2.44358 1.240038,-4.62895 1.490605,-4.34382 2.068265,-6.41652 3.068814,-11.01123 0.380266,-1.74625 0.91765,-4.1275 1.194188,-5.29167 1.108659,-4.66722 2.15165,-9.99494 2.074309,-10.59581 -0.07486,-0.5816 -0.137367,-0.60843 -0.726713,-0.31193 -0.492534,0.2478 -0.764119,0.76178 -1.150038,2.17649 -0.751684,2.75554 -1.892012,7.02052 -2.794293,10.45104 -0.440154,1.67349 -1.287288,4.88818 -1.882521,7.14375 -3.600421,13.64343 -4.17877,16.1289 -3.821974,16.42502 0.568058,0.47144 4.215296,0.59787 7.780091,0.26968 4.555307,-0.41937 6.561759,-0.71787 11.796203,-1.75492 5.833817,-1.1558 10.82573,-1.5923 12.063203,-1.05483 0.629939,0.27361 0.728681,0.38478 0.348349,0.3922 -1.77037,0.0345 -7.78764,0.92509 -11.640046,1.72272 -2.473854,0.5122 -5.410138,1.00754 -6.525076,1.10076 -2.374396,0.1985 -3.001749,0.47207 -2.206174,0.96203 0.291041,0.17923 0.826823,0.40109 1.190625,0.49302 0.363802,0.0919 6.614583,0.18304 13.890625,0.20249 7.276042,0.0194 13.074701,0.13334 12.885911,0.25309 -0.274158,0.17392 -0.260848,0.28613 0.0662,0.55752 0.22517,0.18687 0.42321,0.59308 0.44009,0.90268 0.0254,0.46561 0.052,0.48068 0.15414,0.0872 0.0679,-0.26166 -0.02,-0.64861 -0.19538,-0.8599 z m 0.70691,-2.34676 c -0.41737,-0.34135 -1.267508,-0.87468 -1.889208,-1.18518 -0.6217,-0.31049 -1.27597,-0.73998 -1.45395,-0.95442 -0.17797,-0.21444 -0.40554,-0.33924 -0.50571,-0.27733 -0.10017,0.0619 -1.128474,-0.0463 -2.285122,-0.24037 -1.156648,-0.19412 -1.805341,-0.37701 -1.441539,-0.40644 0.661459,-0.0535 0.661459,-0.0535 0,-0.26533 -1.011227,-0.32385 0.02977,-0.30936 1.574477,0.0219 0.734767,0.15758 1.33594,0.37586 1.33594,0.48507 0,0.10921 0.344734,0.19856 0.766074,0.19856 0.82075,0 3.169258,1.42616 4.240978,2.57538 0.79143,0.84865 0.65952,0.86722 -0.34194,0.0481 z m 9.33111,-0.49686 c 0.75249,-0.83142 3.1165,-2.12234 3.47773,-1.89909 0.13922,0.086 0.25313,0.0105 0.25313,-0.16785 0,-0.17837 0.0783,-0.24596 0.17409,-0.15021 0.0957,0.0958 0.33236,0.0428 0.5258,-0.11779 0.19344,-0.16054 0.538,-0.2204 0.76569,-0.13303 0.22769,0.0874 0.35064,0.0564 0.27321,-0.0689 -0.14969,-0.24221 1.39031,-0.56979 2.49454,-0.53062 0.66146,0.0235 0.66146,0.0235 0,0.2353 -0.36438,0.1167 -0.48321,0.23586 -0.26458,0.26533 0.21828,0.0294 -0.55562,0.22405 -1.71979,0.43249 -2.76673,0.49538 -2.5237,0.42271 -3.66402,1.09552 -0.54804,0.32335 -1.06055,0.58791 -1.13891,0.58791 -0.0784,0 -0.51803,0.25927 -0.97706,0.57615 -0.8346,0.57615 -0.8346,0.57615 -0.19983,-0.12519 z m -47.466015,-1.96418 c -0.682391,-0.16624 -1.455208,-0.85339 -1.455208,-1.29389 0,-0.20311 0.25474,-0.0891 0.622429,0.27859 0.515624,0.51563 1.003686,0.65279 2.844271,0.79933 2.029242,0.16156 7.748052,-0.11585 11.349967,-0.55057 0.800364,-0.0966 1.395677,-0.10975 1.322917,-0.0292 -0.525445,0.58149 -12.827427,1.24816 -14.684376,0.79577 z m 74.744795,-0.0941 c -4.15277,-0.50396 -13.32299,-2.28548 -12.03854,-2.33874 0.58056,-0.0241 4.14525,0.6043 5.82083,1.02609 3.22371,0.81149 12.36694,1.52897 15.37681,1.20664 1.33801,-0.14328 1.91342,-0.33929 2.38733,-0.81319 0.36829,-0.3683 0.6244,-0.48338 0.6244,-0.28057 0,0.18912 -0.2505,0.57066 -0.55667,0.84787 -0.49733,0.45029 -1.04037,0.50876 -5.09323,0.54838 -2.49511,0.0244 -5.42953,-0.064 -6.52093,-0.19648 z m -59.266669,-1.03849 c 0.363802,-0.11651 0.959114,-0.21184 1.322916,-0.21184 0.661459,0 0.661459,0 0,0.21184 -0.363802,0.11651 -0.959114,0.21183 -1.322916,0.21183 -0.661459,0 -0.661459,0 0,-0.21183 z m 2.513541,-0.48909 c 0.82058,-0.36715 5.843912,-1.15394 6.530687,-1.02288 0.503714,0.0961 0.471486,0.12347 -0.180686,0.15333 -0.436563,0.02 -1.686719,0.21848 -2.778126,0.4411 -2.686122,0.54788 -4.261038,0.7368 -3.571875,0.42845 z m 30.370468,6.31368 c 0.0768,-0.29351 0.046,-0.47582 -0.0684,-0.40512 -0.11439,0.0707 -0.27078,0.36867 -0.34753,0.66218 -0.0767,0.29351 -0.046,0.47582 0.0684,0.40513 0.11438,-0.0707 0.27077,-0.36868 0.34752,-0.66219 z m -52.572823,-3.11261 c 0.103049,-0.69123 0.658102,-2.86412 1.233453,-4.82865 0.575351,-1.96453 1.153177,-3.95883 1.284059,-4.43177 0.130882,-0.47294 0.354066,-1.24685 0.495964,-1.71979 0.141897,-0.47295 0.48653,-1.69334 0.765849,-2.71198 0.27932,-1.01865 0.863077,-3.10224 1.297239,-4.63021 1.694358,-5.96304 1.73122,-6.31397 0.603742,-5.74769 -0.510458,0.25639 -0.836482,0.91131 -1.544423,3.10249 -1.116837,3.45676 -2.766436,8.98469 -4.421271,14.81603 -0.185834,0.65485 -0.649224,2.2088 -1.029756,3.45324 -0.380532,1.24444 -0.691877,2.50055 -0.691877,2.79135 0,0.69595 0.493353,1.16375 1.22733,1.16375 0.503954,0 0.620285,-0.18751 0.779691,-1.25677 z m 95.731163,0.64657 c 0.45141,-0.33008 0.45218,-0.42815 0.017,-2.18281 -0.25059,-1.01046 -0.59795,-2.13486 -0.77192,-2.49866 -0.17397,-0.3638 -0.64435,-1.91162 -1.04529,-3.43958 -0.7271,-2.77095 -2.5214,-8.67368 -3.7801,-12.43542 -0.84686,-2.53095 -1.70211,-3.56055 -2.09884,-2.5267 -0.081,0.21104 0.28435,2.02674 0.81185,4.03489 0.96262,3.66461 1.39389,5.16513 3.84708,13.38511 0.72917,2.44324 1.32576,4.79473 1.32576,5.22552 0,0.6418 0.11033,0.78326 0.61089,0.78326 0.33599,0 0.82358,-0.15552 1.08354,-0.34561 z m -43.57945,-3.7543 c 1.33798,-0.80099 2.50013,-1.45634 2.58257,-1.45634 0.0824,0 0.6546,-0.23469 1.27148,-0.52154 3.44129,-1.60022 13.77856,-3.42511 19.51013,-3.44423 3.11976,-0.0104 8.18651,-0.47531 9.06535,-0.83179 1.35698,-0.55044 1.33366,-0.7976 -1.15735,-12.26806 -0.44244,-2.03729 -0.91797,-4.29948 -1.05674,-5.02709 -0.13877,-0.7276 -0.48964,-2.39448 -0.77972,-3.70416 -0.29007,-1.30969 -0.75906,-3.63141 -1.04219,-5.15938 -0.28312,-1.527967 -0.70275,-3.611557 -0.9325,-4.630207 -0.22975,-1.01864 -0.54758,-2.55773 -0.70629,-3.42018 -0.35888,-1.9502 -1.11935,-3.27782 -2.00484,-3.50007 -0.84078,-0.21102 -4.30839,0.30009 -6.94197,1.02321 -1.0914,0.29968 -2.46062,0.63018 -3.0427,0.73445 -1.36099,0.2438 -3.52581,0.9985 -7.05123,2.45819 -3.45551,1.43075 -8.16232,4.49326 -8.16232,5.31085 0,0.14588 -0.43653,0.89907 -0.97007,1.673737 -1.10173,1.59967 -1.0954,2.18963 0.007,0.67695 1.42206,-1.950817 1.50747,-2.030257 0.92048,-0.8561 -0.32737,0.65485 -0.6006,1.25867 -0.60718,1.34182 -0.0216,0.27327 -0.89409,1.03944 -1.18368,1.03944 -0.32945,0 -0.3049,-0.12212 -0.44516,2.21448 -0.10301,1.71592 -0.0793,1.80982 0.42316,1.67841 0.34697,-0.0907 0.53227,-0.01 0.53227,0.23292 0,0.23219 -0.28187,0.3721 -0.74966,0.3721 -0.91805,0 -1.08361,0.14711 -0.9105,0.80907 0.19583,0.74886 0.91176,0.62997 1.87451,-0.3113 0.55276,-0.54042 0.84398,-0.68949 0.84398,-0.43203 0,0.21621 -0.47625,0.70828 -1.05833,1.09348 -1.05834,0.70037 -1.05834,0.70037 -1.1068,2.87943 -0.0267,1.19848 -0.034,2.44695 -0.0163,2.77437 0.0177,0.32742 -0.0796,0.59532 -0.21611,0.59532 -0.3292,0 -0.32122,2.30492 0.009,2.50881 0.14962,0.0925 0.24242,-0.22748 0.22217,-0.76606 -0.0191,-0.50867 0.13315,-1.12696 0.33838,-1.37397 0.22642,-0.27251 0.42855,-1.34526 0.51405,-2.7282 0.13889,-2.24651 0.16321,-2.31297 1.70063,-4.64752 1.47832,-2.2448 1.99978,-2.56928 1.6057,-0.99916 -0.12511,0.49846 -0.23838,0.60201 -0.39007,0.35657 -0.15316,-0.24781 -0.45229,7.8e-4 -1.05488,0.87662 -0.74243,1.07908 -1.60541,2.79522 -1.60541,3.19253 0,0.85655 1.94745,-1.60643 2.2624,-2.8613 0.0969,-0.38614 0.28237,-0.70207 0.41211,-0.70207 0.12975,0 0.2359,0.0553 0.2359,0.1229 0,0.2902 -1.47358,2.73515 -2.18043,3.61774 -0.54188,0.67661 -0.7438,1.18745 -0.67976,1.71979 0.0911,0.75727 0.0911,0.75727 0.68376,-0.30106 0.32597,-0.58208 1.24667,-2.10678 2.04601,-3.38822 0.79934,-1.28144 1.46274,-2.5316 1.47423,-2.77813 0.0141,-0.30195 0.0663,-0.33472 0.16004,-0.1004 0.0765,0.1913 -0.25181,1.08427 -0.72965,1.98437 -0.95235,1.79395 -0.8766,1.76422 1.67704,-0.65818 1.53053,-1.45187 2.6931,-2.16539 1.64981,-1.01256 -0.55278,0.6108 -0.38226,0.6538 0.84002,0.21182 0.89369,-0.32316 1.42735,-1.19631 0.92205,-1.50861 -0.16111,-0.0996 -0.18613,-0.32255 -0.0592,-0.52788 0.17415,-0.28178 0.27931,-0.2529 0.50716,0.13928 0.23986,0.41286 0.29382,0.29768 0.32596,-0.69586 0.0435,-1.34546 -0.0225,-2.19545 -0.18335,-2.36197 -0.0601,-0.0622 -0.49034,0.23551 -0.95621,0.66146 -0.46586,0.42596 -0.70069,0.58119 -0.52184,0.34498 0.33691,-0.44496 0.1689,-1.27804 -0.3261,-1.61699 -0.15613,-0.10691 0.0435,-0.19621 0.44372,-0.19843 0.76786,-0.004 0.9549,-0.46468 0.41011,-1.00947 -0.44711,-0.447107 -1.40585,-0.394547 -1.81591,0.0995 -0.25486,0.3071 -0.26619,0.46643 -0.043,0.6044 0.20718,0.12804 0.14811,0.2842 -0.18654,0.4932 -0.42312,0.26424 -0.47112,0.23472 -0.35298,-0.21706 0.12626,-0.48279 0.0784,-0.4979 -0.62421,-0.19705 -1.15175,0.49315 -1.38633,0.72708 -1.91625,1.91098 -0.26822,0.59924 -0.75995,1.32766 -1.09273,1.6187 -0.60506,0.52916 -0.60506,0.52916 -0.23935,-0.0661 0.20114,-0.32742 0.4432,-0.59532 0.53792,-0.59532 0.0947,0 0.35617,-0.44648 0.58101,-0.99218 0.22484,-0.54571 0.71361,-1.33766 1.08616,-1.75991 0.49351,-0.55933 0.60231,-0.85816 0.40084,-1.10092 -0.19434,-0.234157 -0.18508,-0.389727 0.0311,-0.523357 0.1878,-0.11607 0.2556,-0.57833 0.17402,-1.18653 -0.108,-0.8052 -0.0531,-0.98456 0.28615,-0.93476 0.51107,0.075 0.71276,0.56403 0.33015,0.80049 -0.32941,0.20359 -0.36335,1.44967 -0.0528,1.939187 0.17421,0.27461 0.37365,0.2535 0.99974,-0.10583 0.81706,-0.468927 2.74329,-0.348407 2.74329,0.17164 0,0.13892 0.11907,0.25259 0.26459,0.25259 0.14552,0 0.26458,-0.17859 0.26458,-0.39687 0,-0.218287 0.11906,-0.396877 0.26458,-0.396877 0.14552,0 0.23482,0.13014 0.19844,0.289207 -0.0364,0.15906 0.13525,0.42194 0.38139,0.58419 0.34743,0.229 0.55922,0.1939 0.94687,-0.15692 0.56202,-0.508617 0.97946,-0.603457 0.70558,-0.16032 -0.0991,0.16037 -0.58239,0.45963 -1.07395,0.66501 -0.88234,0.36867 -1.20554,0.88756 -0.56301,0.90391 0.21998,0.006 0.19106,0.11634 -0.0864,0.33073 -0.56272,0.43484 -0.73654,1.22797 -0.53749,2.45256 0.16567,1.01923 0.16567,1.01923 1.03228,0.1721 0.47663,-0.46593 0.97981,-0.84714 1.11818,-0.84714 0.13836,0 -0.19316,0.42329 -0.73673,0.94063 -0.9883,0.94063 -0.9883,0.94063 0.33462,0.79806 2.4776,-0.26701 3.93115,-0.26397 4.02194,0.008 0.0578,0.17343 -0.46342,0.23181 -1.4394,0.16122 -1.73591,-0.12557 -3.8612,0.34116 -3.70379,0.81337 0.057,0.17094 0.57069,0.41818 1.14159,0.54941 1.23979,0.28501 1.27716,0.31067 1.03141,0.70831 -0.14406,0.2331 -0.23876,0.23455 -0.38011,0.006 -0.10354,-0.16753 -0.74233,-0.33724 -1.41954,-0.37713 -1.36099,-0.0802 -1.70342,0.31213 -1.38385,1.5854 0.13331,0.53116 0.27762,0.62385 0.7515,0.48271 0.57624,-0.17164 0.57726,-0.16766 0.0581,0.22767 -0.73676,0.56101 -1.19138,0.10578 -1.19138,-1.19298 0,-1.04514 0,-1.04514 -0.69714,-0.49677 -1.07956,0.84919 -1.38245,0.64684 -0.3512,-0.23463 0.99009,-0.84628 0.74333,-1.0223 -0.6138,-0.43784 -1.07076,0.46112 -2.97462,2.42287 -3.36743,3.4698 -0.24984,0.66587 -0.0618,0.5403 1.1675,-0.77946 0.80593,-0.86526 1.52978,-1.50874 1.60857,-1.42995 0.0788,0.0788 -0.0899,0.67038 -0.3749,1.31463 -0.28499,0.64426 -0.69012,2.00211 -0.90031,3.01745 -0.38215,1.84608 -0.38215,1.84608 0.39743,2.50754 0.77959,0.66145 0.77959,0.66145 0.35786,1.84775 -0.23195,0.65246 -0.6053,1.46646 -0.82967,1.80889 -0.60194,0.91868 -0.26803,0.98465 0.67074,0.13251 0.50441,-0.45787 1.00005,-1.30904 1.28203,-2.20165 0.4522,-1.43147 0.4776,-1.45652 1.55695,-1.53524 0.82619,-0.0603 1.13061,-0.20759 1.23229,-0.59641 0.0869,-0.33223 0.27966,-0.46087 0.54058,-0.36075 0.32092,0.12315 0.34754,0.28296 0.12757,0.76575 -0.23955,0.52575 -0.41995,0.59108 -1.30458,0.47243 -1.27597,-0.17115 -1.73188,0.1822 -1.9574,1.51705 -0.19278,1.14107 -0.53865,1.59668 -2.18311,2.87575 -1.23214,0.95837 -1.53621,1.79026 -0.53866,1.47364 1.59284,-0.50554 2.74318,-1.40974 3.38293,-2.65906 0.51728,-1.01014 0.82007,-1.30996 1.38907,-1.37543 0.47035,-0.0541 0.72903,-0.24121 0.73165,-0.52916 0.003,-0.28632 0.0735,-0.33823 0.19844,-0.14533 0.10691,0.16507 0.43251,0.35962 0.72355,0.43233 0.49108,0.12269 0.48744,0.13442 -0.0505,0.1629 -0.31883,0.0169 -0.6568,0.15545 -0.75104,0.30794 -0.0942,0.15248 -0.41338,0.24178 -0.7092,0.19843 -0.38137,-0.0559 -0.67777,0.18066 -1.01874,0.81299 -0.99148,1.83867 -2.53984,2.90982 -4.47573,3.09628 -0.98483,0.0949 -0.98483,0.0949 -0.71509,-1.26936 0.17726,-0.89652 0.3256,-1.20498 0.43268,-0.89973 0.15402,0.43908 0.18696,0.43796 0.60189,-0.0205 0.53917,-0.59578 1.51265,-2.70039 1.52058,-3.2874 0.003,-0.23684 -0.18186,-0.58637 -0.41123,-0.77673 -0.34563,-0.28685 -0.45821,-0.28107 -0.65741,0.0337 -0.17351,0.2742 -0.24149,0.14503 -0.24442,-0.46442 -0.002,-0.46436 -0.14115,-0.92902 -0.30872,-1.03258 -0.21732,-0.13431 -0.18813,-0.2735 0.10181,-0.48551 0.35844,-0.26209 1.39852,-3.54163 1.1895,-3.75065 -0.0445,-0.0445 -0.70146,0.63825 -1.45985,1.51729 -1.13727,1.31821 -1.37887,1.77358 -1.37887,2.59881 0,0.87794 -0.13268,1.08836 -1.08261,1.71699 -1.36347,0.9023 -1.18132,1.16225 0.28886,0.41222 0.61028,-0.31135 1.16965,-0.50604 1.24303,-0.43266 0.0734,0.0734 -0.60504,0.50621 -1.50762,0.96183 -0.90257,0.45561 -1.58526,0.88417 -1.51709,0.95235 0.24953,0.24953 2.72911,-0.45702 3.45612,-0.9848 0.86357,-0.62692 1.0121,-0.57725 0.7919,0.2648 -0.0959,0.36656 -0.23079,0.48917 -0.34139,0.31022 -0.39171,-0.63381 -1.00007,0.066 -1.3224,1.52124 -0.3409,1.53905 -0.7568,2.56805 -0.95703,2.36782 -0.0614,-0.0614 0.11887,-0.81024 0.40057,-1.66413 0.56314,-1.70697 0.50526,-2.11128 -0.24476,-1.70989 -0.27264,0.14592 -0.8012,0.2653 -1.17456,0.2653 -0.92368,0 -0.85697,0.5079 0.11489,0.87474 0.56236,0.21227 0.79375,0.47553 0.79375,0.90306 0,0.3319 -0.11906,0.60345 -0.26458,0.60345 -0.14552,0 -0.26458,-0.22648 -0.26458,-0.50328 0,-0.41875 -1.10011,-1.08422 -1.79235,-1.08422 -0.29183,0 0.24257,1.68429 0.73169,2.3061 0.63436,0.80646 0.67558,1.36662 0.12992,1.76578 -0.22685,0.16594 -0.47626,0.92472 -0.57327,1.74403 -0.1717,1.45028 -0.1717,1.45028 0.49805,0.7276 0.65945,-0.71155 1.27054,-0.94672 1.27054,-0.48895 0,0.12855 -0.22448,0.29242 -0.49885,0.36417 -0.27437,0.0717 -0.82824,0.69251 -1.23082,1.37947 -0.60096,1.02545 -0.66558,1.29104 -0.36105,1.48385 0.2967,0.18785 0.27661,0.23566 -0.1004,0.2389 -0.25923,0.002 -0.53985,0.18264 -0.62362,0.40092 -0.20413,0.53197 -1.15401,0.51158 -1.15401,-0.0248 0,-0.2319 0.21426,-0.47767 0.47613,-0.54615 0.8149,-0.2131 1.15702,-1.13489 1.49769,-4.03535 0.26513,-2.25727 0.26378,-2.90956 -0.007,-3.355 -0.18483,-0.30412 -0.37557,-0.89943 -0.42386,-1.32291 -0.0878,-0.76998 -0.0878,-0.76998 -0.68312,0.18729 -0.32743,0.5265 -0.59532,1.37474 -0.59532,1.88497 0,0.51023 -0.17859,1.43388 -0.39687,2.05255 -0.49071,1.39083 -0.50819,1.26994 0.19844,1.37262 0.59229,0.0861 0.59162,0.09 -0.1323,0.77634 -0.7276,0.68984 -0.7276,0.68984 -0.7276,5.78699 0,5.09715 0,5.09715 1.12448,4.13798 0.61846,-0.52754 2.21919,-1.61452 3.55717,-2.41551 z m -3.70543,-0.86103 c -0.0623,-0.10914 0.31214,-0.61515 0.83217,-1.12447 0.8129,-0.79617 0.88227,-0.82531 0.4946,-0.20775 -0.248,0.39506 -0.45091,0.90108 -0.45091,1.12448 0,0.41239 -0.66841,0.57094 -0.87586,0.20774 z m 4.87718,-2.61387 c -0.17433,-0.38261 -0.28274,-0.71003 -0.24091,-0.72761 1.17639,-0.49428 1.67489,-0.93982 1.74727,-1.56165 0.0472,-0.40568 0.24754,-0.71926 0.45947,-0.71926 0.20666,0 0.55738,-0.44649 0.77936,-0.99219 0.22199,-0.5457 0.8467,-1.37269 1.38824,-1.83776 0.98462,-0.84557 0.98462,-0.84557 0.32754,-1.10771 -0.65708,-0.26213 -0.65708,-0.26213 0.11153,-0.2789 0.75166,-0.0164 0.75805,-0.0284 0.28973,-0.54594 -0.54191,-0.5988 -0.3754,-0.68547 0.3939,-0.20504 0.43691,0.27286 0.58165,0.24147 0.915,-0.19844 0.21779,-0.28741 0.34274,-0.67349 0.27766,-0.85797 -0.0651,-0.18447 0.0794,-0.75002 0.32103,-1.25677 0.34365,-0.72063 0.58722,-0.91351 1.11797,-0.88533 0.62346,0.0331 0.63018,0.0454 0.0827,0.15077 -0.57231,0.11019 -1.30699,1.04122 -1.03571,1.3125 0.0721,0.0721 0.40916,-0.008 0.74905,-0.17845 0.56354,-0.28226 0.55608,-0.25502 -0.0847,0.30929 -0.38648,0.34035 -0.84647,0.90412 -1.02222,1.25284 -0.28836,0.57218 -0.26892,0.62079 0.1993,0.49834 0.44826,-0.11722 0.50609,-0.0201 0.42518,0.71409 -0.0843,0.76504 0.005,0.89161 0.90026,1.26963 0.54665,0.23093 1.1725,0.47809 1.39078,0.54924 0.21828,0.0711 0.096,0.13876 -0.27185,0.15024 -0.36781,0.0115 -0.90359,-0.13792 -1.19063,-0.33202 -1.29056,-0.87269 -1.44793,-0.79177 -1.44793,0.74459 0,1.4334 0,1.4334 0.91754,1.05003 1.07132,-0.44763 3.20642,-0.50981 3.45923,-0.10075 0.0961,0.15544 0.33741,0.22017 0.53631,0.14384 0.47999,-0.18419 0.78128,0.33501 0.40991,0.70638 -0.21426,0.21426 -0.44655,0.12816 -0.86448,-0.32044 -0.50664,-0.54381 -0.73822,-0.59621 -2.04069,-0.46178 -1.11265,0.11483 -1.58033,0.29895 -1.9271,0.75867 -0.55245,0.7324 -0.70331,0.45697 -0.81363,-1.48549 -0.0407,-0.71623 -0.2061,-1.34566 -0.3676,-1.39874 -0.35651,-0.11718 -0.86308,1.68871 -0.98032,3.49473 -0.0841,1.29631 -0.0868,1.29095 -0.13357,-0.26633 -0.0262,-0.87409 0.0693,-1.9973 0.21237,-2.49602 0.14303,-0.49872 0.21507,-0.95176 0.16008,-1.00675 -0.28848,-0.28848 -2.00956,1.65818 -2.15595,2.43853 -0.19306,1.02908 0.2581,2.04113 0.86229,1.9343 0.51469,-0.091 0.6868,0.31775 0.35495,0.84299 -0.20708,0.32776 -0.31999,0.30027 -0.7233,-0.17607 -0.26286,-0.31045 -0.60503,-0.77506 -0.76038,-1.03248 -0.25494,-0.42241 -0.37599,-0.36657 -1.242,0.57294 -0.70627,0.76621 -0.92095,1.1981 -0.81333,1.63628 0.20193,0.82225 -0.28511,0.74957 -0.67235,-0.10033 z m -1.36642,-1.10417 c 1.94295,-1.34147 3.24226,-3.0122 2.73615,-3.51831 -0.33542,-0.33542 -1.8604,0.82363 -2.22382,1.69022 -0.31354,0.74762 -0.97425,1.25536 -1.60848,1.23606 -0.19147,-0.006 -0.0152,-0.19109 0.39167,-0.41171 0.40689,-0.22061 0.84598,-0.6804 0.97576,-1.02174 0.31004,-0.81547 2.0051,-2.09659 2.51508,-1.90089 0.97866,0.37554 -0.0666,2.37864 -1.87979,3.60235 -0.65271,0.4405 -1.27007,0.79467 -1.37192,0.78704 -0.10184,-0.008 0.10756,-0.21599 0.46535,-0.46302 z m 19.32552,-2.83039 c 0,-0.21828 0.16586,-0.39688 0.36857,-0.39688 0.20271,0 0.4371,0.1786 0.52086,0.39688 0.10359,0.26995 -0.0143,0.39687 -0.36857,0.39687 -0.2866,0 -0.52086,-0.1785 -0.52086,-0.39687 z m 3.48727,-0.16758 c -0.0262,-0.23769 -0.29785,-0.49758 -0.6036,-0.57754 -0.53395,-0.13963 -0.52173,-0.18792 0.30886,-1.22148 0.47563,-0.59186 1.04994,-1.07611 1.27625,-1.07611 0.301,0 0.25743,0.10789 -0.16228,0.40187 -0.418,0.29277 -0.60059,0.74168 -0.67264,1.65364 -0.0544,0.68848 -0.12036,1.05731 -0.14659,0.81962 z m -6.95387,-0.20205 c -1.22305,-0.13164 -1.67424,-0.33302 -2.58045,-1.15173 -0.75438,-0.68154 -1.3465,-0.99218 -1.89121,-0.99218 -0.43615,0 -0.79299,-0.11907 -0.79299,-0.26459 0,-0.14552 -0.25797,-0.26458 -0.57326,-0.26458 -0.3153,0 -0.49731,-0.076 -0.40447,-0.1688 0.29251,-0.29251 2.66835,0.48515 3.35898,1.09945 1.49793,1.33237 2.04691,1.53327 3.71373,1.35906 1.29304,-0.13515 1.57794,-0.094 1.57794,0.22789 0,0.21605 -0.20836,0.37531 -0.46302,0.35392 -0.25467,-0.0214 -1.13002,-0.1107 -1.94525,-0.19844 z m -18.80375,-1.87935 c -0.0555,-0.58208 -0.008,-1.05833 0.1045,-1.05833 0.11299,0 0.20543,0.47625 0.20543,1.05833 0,0.58208 -0.047,1.05833 -0.1045,1.05833 -0.0575,0 -0.14992,-0.47625 -0.20543,-1.05833 z m 30.80316,0.86829 c -0.1819,-0.0653 -0.33073,-0.27808 -0.33073,-0.47295 0,-0.19486 -0.42469,-0.49447 -0.94377,-0.66577 -0.51907,-0.17131 -0.88729,-0.36796 -0.81826,-0.43698 0.23019,-0.23019 2.82037,0.82667 2.82037,1.15077 0,0.40289 -0.30024,0.57823 -0.72761,0.42493 z m -13.34457,-1.09205 c -0.97846,-0.73324 -1.9131,-1.05215 -2.74705,-0.93733 -0.73751,0.10154 -0.73013,0.0882 0.15048,-0.27198 1.12535,-0.46028 1.60933,-0.5079 1.52135,-0.14969 -0.0364,0.14812 0.38243,0.52991 0.93068,0.8484 0.99683,0.57909 0.99683,0.57909 1.85208,-0.46076 0.4704,-0.57192 1.20034,-1.37042 1.62211,-1.77445 0.76684,-0.7346 0.76684,-0.7346 0.13229,-0.75137 -0.63455,-0.0168 -0.63455,-0.0168 -0.0392,-0.25606 0.32742,-0.1316 0.59531,-0.29089 0.59531,-0.35397 0,-0.0631 -0.43075,-0.36883 -0.95722,-0.67945 -0.8653,-0.51054 -0.94103,-0.64575 -0.78857,-1.408 0.0927,-0.46378 0.57006,-1.62038 1.06068,-2.57022 0.78703,-1.52367 0.84536,-1.77028 0.49549,-2.09478 -0.3349,-0.3106 -0.68273,-0.31379 -2.23717,-0.0205 -1.46529,0.27648 -2.09542,0.282 -3.0902,0.027 -1.11706,-0.28629 -1.38418,-0.26072 -2.5185,0.24104 -0.6979,0.30871 -1.33558,0.49462 -1.41708,0.41313 -0.0815,-0.0815 0.0772,-0.22326 0.35272,-0.31502 0.27549,-0.0918 0.903,-0.34547 1.39448,-0.5638 0.7057,-0.31348 1.17461,-0.34138 2.23022,-0.13265 1.35121,0.26716 4.94598,-0.0653 4.94598,-0.45738 0,-0.10227 -0.44648,-0.31391 -0.99218,-0.4703 -0.99219,-0.28434 -0.99219,-0.28434 0.13229,-0.14513 0.61846,0.0766 1.12448,0.0868 1.12448,0.0227 0,-0.0641 -0.70585,-0.69977 -1.56856,-1.41266 -1.54202,-1.27422 -1.76038,-1.71348 -0.85179,-1.71348 0.2864,0 0.55397,0.31678 0.71199,0.84293 0.17716,0.58989 0.59069,1.02904 1.37763,1.46293 1.12448,0.62 1.12448,0.62 1.12448,-0.33116 0,-0.52313 -0.12325,-1.18145 -0.2739,-1.46293 -0.15758,-0.29445 -0.1696,-0.51177 -0.0283,-0.51177 0.31928,0 0.48297,0.45109 0.70783,1.95055 0.10099,0.67345 0.2594,1.22628 0.35201,1.2285 0.0926,0.002 0.32979,0.10632 0.52704,0.2313 0.2962,0.18769 0.28187,0.34441 -0.0824,0.90029 -0.34092,0.5203 -0.43881,1.28688 -0.4314,3.37805 0.005,1.48776 0.0697,2.76509 0.14309,2.83852 0.0734,0.0734 0.66905,-0.36016 1.32362,-0.96352 0.65457,-0.60336 1.40115,-1.09658 1.65906,-1.09603 0.33366,7e-4 0.23996,0.14368 -0.32482,0.49564 -0.43656,0.27206 -1.15094,0.8826 -1.5875,1.35676 -0.8823,0.95828 -0.97379,0.92647 1.19063,0.41395 0.3638,-0.0861 0.0959,0.0977 -0.59532,0.40855 -0.69122,0.31085 -1.25677,0.72891 -1.25677,0.92902 0,0.23622 -0.31044,0.36384 -0.88503,0.36384 -1.5797,0 -2.37697,1.58268 -1.09216,2.16808 0.50702,0.23102 0.74364,0.22964 0.97895,-0.006 0.17068,-0.17068 0.592,-0.31033 0.93626,-0.31033 0.34427,0 0.85624,-0.12325 1.13771,-0.27389 0.28148,-0.15064 0.51177,-0.20409 0.51177,-0.11879 0,0.0853 -0.38695,0.3294 -0.85989,0.54242 -0.47294,0.21303 -1.05039,0.5225 -1.28322,0.68771 -0.59678,0.42348 -2.02563,-0.2468 -2.30357,-1.08061 -0.21177,-0.63532 -0.2247,-0.62943 -0.99279,0.45284 -0.95696,1.34837 -1.23956,1.47293 -2.01812,0.88948 z m 3.72119,-5.61925 c -0.70434,-0.91333 -1.11203,-1.02393 -1.2533,-0.34002 -0.11016,0.5333 0.62779,1.15595 1.37002,1.15595 0.48172,0 0.47471,-0.049 -0.11672,-0.81593 z m 1.31142,-1.9622 c -0.0125,-1.52797 -0.12448,-2.77812 -0.24876,-2.77812 -0.2689,0 -1.81812,2.6368 -1.82169,3.10055 -0.001,0.17932 0.17499,0.25432 0.39739,0.16897 0.27476,-0.10543 0.35314,-0.0316 0.25049,0.23584 -0.12291,0.32031 1.01376,2.05089 1.34706,2.05089 0.0541,0 0.088,-1.25016 0.0755,-2.77813 z m -18.14637,7.53238 c -0.32742,-0.13161 -0.59531,-0.36218 -0.59531,-0.51239 0,-0.3983 0.23026,-0.33851 0.98613,0.25605 0.71441,0.56196 0.58336,0.64791 -0.39082,0.25634 z m 2.05052,-0.25634 c 0.21828,-0.14106 0.69453,-0.24993 1.05833,-0.24193 0.60579,0.0133 0.61692,0.0337 0.1323,0.24193 -0.29105,0.12507 -0.7673,0.23394 -1.05834,0.24194 -0.43675,0.012 -0.45986,-0.0302 -0.13229,-0.24194 z m 22.75417,-1.33642 c 0,-0.15294 -0.42959,-0.45757 -0.95464,-0.67695 -0.52505,-0.21938 -0.8951,-0.45842 -0.82232,-0.5312 0.20473,-0.20473 2.12212,0.78307 2.24294,1.15551 0.059,0.1819 -0.0217,0.33073 -0.17935,0.33073 -0.15765,0 -0.28663,-0.12514 -0.28663,-0.27809 z m -12.41337,-0.0816 c 0.31172,-0.26881 1.59365,-0.42919 1.43971,-0.18011 -0.0935,0.15135 -0.48055,0.27519 -0.86001,0.27519 -0.37947,0 -0.64033,-0.0428 -0.5797,-0.0951 z m -3.96875,-0.26815 c 0.27227,-0.24362 1.83003,-0.95949 1.83003,-0.84099 0,0.1524 -1.4668,0.93963 -1.75075,0.93963 -0.10424,0 -0.13991,-0.0444 -0.0793,-0.0986 z m 2.55764,-0.61594 c -0.54722,-0.13942 -0.58514,-0.37918 -0.13229,-0.83648 0.26489,-0.2675 0.23856,-0.38598 -0.1323,-0.59523 -0.25466,-0.14369 -0.46302,-0.39285 -0.46302,-0.5537 0,-0.16084 0.23981,-0.0754 0.53291,0.18984 0.33005,0.29868 0.47434,0.66681 0.37905,0.96704 -0.19191,0.60466 0.41927,0.62364 2.65992,0.0826 1.73111,-0.41799 2.15196,-0.47097 1.92309,-0.2421 -0.12641,0.12641 -0.91676,0.33177 -3.90747,1.01528 -0.21828,0.0499 -0.60523,0.0376 -0.85989,-0.0273 z m 14.17218,-0.49505 c -0.31473,-0.35335 -0.4313,-0.64245 -0.25904,-0.64245 0.30615,0 1.09204,1.02416 0.91881,1.19738 -0.0481,0.0481 -0.34503,-0.20158 -0.65977,-0.55493 z m -4.3826,-0.0354 c 0.32742,-0.0631 0.8632,-0.0631 1.19063,0 0.32742,0.0631 0.0595,0.11467 -0.59532,0.11467 -0.65484,0 -0.92273,-0.0516 -0.59531,-0.11467 z m 5.06464,-0.67317 c -0.32659,-0.47294 -0.61591,-0.89306 -0.64294,-0.9336 -0.027,-0.0405 -0.5716,-0.17632 -1.21016,-0.30174 -1.16102,-0.22803 -1.16102,-0.22803 -0.18115,-0.25702 0.82926,-0.0245 1.16029,0.15401 2.15365,1.16163 0.64558,0.65485 1.01642,1.19063 0.82409,1.19063 -0.19234,0 -0.61691,-0.38696 -0.94349,-0.8599 z m -17.30162,-0.19844 c 0.0899,-0.14552 0.21603,-0.26458 0.2802,-0.26458 0.0642,0 0.11668,0.11906 0.11668,0.26458 0,0.14553 -0.12609,0.26459 -0.2802,0.26459 -0.15411,0 -0.20661,-0.11906 -0.11668,-0.26459 z m 4.10104,-0.38314 c 0,-0.23207 -0.29765,-0.55757 -0.66145,-0.72333 -0.36381,-0.16576 -0.66146,-0.39424 -0.66146,-0.50773 0,-0.1135 0.53537,0.0545 1.18972,0.3732 1.18847,0.57894 1.40673,1.03282 0.57429,1.19426 -0.26311,0.051 -0.4411,-0.0847 -0.4411,-0.3364 z m -11.3255,-0.5429 c 0.005,-0.43656 0.0647,-0.58312 0.13177,-0.32569 0.0671,0.25743 0.0627,0.61462 -0.01,0.79375 -0.0725,0.17913 -0.12736,-0.0315 -0.12197,-0.46806 z m 7.69252,-0.0511 c 0.25743,-0.0671 0.61462,-0.0627 0.79375,0.01 0.17913,0.0725 -0.0315,0.12737 -0.46806,0.12197 -0.43656,-0.005 -0.58312,-0.0647 -0.32569,-0.13177 z m 0.39184,-1.31479 c 0.1819,-0.0734 0.47956,-0.0734 0.66146,0 0.1819,0.0734 0.0331,0.13345 -0.33073,0.13345 -0.36381,0 -0.51263,-0.06 -0.33073,-0.13345 z m 3.50573,-0.049 c 0,-0.37979 3.43541,-4.27371 3.77049,-4.27371 0.17339,0 -0.42544,0.74735 -1.33074,1.66077 -1.02664,1.03585 -1.646,1.88209 -1.646,2.24896 0,0.34645 -0.16312,0.58819 -0.39688,0.58819 -0.21828,0 -0.39687,-0.10089 -0.39687,-0.22421 z m 12.36824,-0.20575 c -0.39962,-0.20938 -0.72604,-0.40665 -0.72539,-0.43839 6.5e-4,-0.0317 0.41737,-0.079 0.92604,-0.10503 0.6297,-0.0322 0.92486,0.0683 0.92486,0.31512 0,0.57088 -0.34003,0.63985 -1.12551,0.2283 z m -13.95574,-0.59906 c 0,-0.1294 0.23436,-0.51635 0.52079,-0.8599 0.5208,-0.62462 0.5208,-0.62462 0.20658,0.23527 -0.29075,0.79568 -0.72737,1.17063 -0.72737,0.62463 z m 10.39652,-0.98533 c -0.0271,-0.95667 0.30535,-1.21852 0.51743,-0.40753 0.10179,0.38924 0.30973,0.46204 1.02305,0.35818 0.49241,-0.0717 1.13341,-0.27858 1.42446,-0.45974 0.66719,-0.41529 3.27127,-0.65931 3.47736,-0.32585 0.32111,0.51958 -0.39724,0.84207 -1.07168,0.48112 -0.35624,-0.19066 -0.9242,-0.27992 -1.26212,-0.19836 -0.92291,0.22276 -3.20402,0.98897 -3.67166,1.23329 -0.33173,0.17331 -0.41636,0.0413 -0.43684,-0.68111 z m -20.83627,-0.87778 c -0.0837,-0.13547 -0.0312,-0.32109 0.11668,-0.41249 0.1479,-0.0914 0.2689,0.0194 0.2689,0.2463 0,0.46474 -0.15876,0.53317 -0.38558,0.16619 z m 2.66285,-0.17222 c -0.43673,-1.13808 -0.0451,-3.28763 0.59786,-3.2816 0.27898,0.003 0.32642,0.0729 0.13384,0.19844 -0.16408,0.10691 -0.37946,0.68 -0.47862,1.27352 -0.13663,0.81781 -0.0804,1.16204 0.23218,1.42146 0.22686,0.18828 0.41247,0.44681 0.41247,0.57451 0,0.4028 -0.72979,0.25133 -0.89773,-0.18633 z m 8.47497,0.0216 c -0.0928,-0.24175 -4.2e-4,-0.39687 0.23627,-0.39687 0.21372,0 0.38857,0.17859 0.38857,0.39687 0,0.21828 -0.10632,0.39688 -0.23627,0.39688 -0.12995,0 -0.30481,-0.1786 -0.38857,-0.39688 z m 7.83347,-0.46302 c 0.11736,-0.35618 3.37481,-0.73926 3.37475,-0.39687 -3e-5,0.10914 -0.58833,0.19843 -1.30734,0.19843 -0.71902,0 -1.38089,0.11907 -1.47083,0.26459 -0.23541,0.38091 -0.72596,0.32652 -0.59658,-0.0661 z m -9.5187,-0.11721 c 0.25744,-0.0671 0.61462,-0.0627 0.79375,0.01 0.17914,0.0725 -0.0315,0.12736 -0.46805,0.12197 -0.43656,-0.005 -0.58313,-0.0647 -0.3257,-0.13177 z m -4.5784,-1.01848 c -0.25653,-0.3091 -0.26439,-0.48238 -0.0324,-0.71438 0.232,-0.23199 0.30629,-0.17044 0.30629,0.25375 0,0.30802 0.14883,0.62009 0.33073,0.69349 0.20781,0.0839 0.21985,0.14121 0.0324,0.15434 -0.16409,0.0115 -0.45074,-0.16275 -0.63702,-0.3872 z m 1.7732,-0.56205 c -0.37402,-0.37402 -0.15074,-0.88195 0.38769,-0.88195 0.75076,0 2.34633,-1.00426 2.34633,-1.47678 0,-0.20642 0.24686,-0.3753 0.54857,-0.3753 0.74002,0 0.57087,0.89755 -0.18969,1.00655 -0.30897,0.0443 -1.04106,0.49076 -1.62686,0.99218 -1.14121,0.97684 -1.19668,1.00466 -1.46604,0.7353 z m 13.23375,-0.83929 c 0.48854,-0.31478 1.15541,-0.506 1.5875,-0.45519 0.40978,0.0482 0.98319,0.11748 1.27423,0.15398 0.29104,0.0365 -0.18521,0.15445 -1.05833,0.26211 -0.87313,0.10766 -1.82563,0.28263 -2.11667,0.38883 -0.29104,0.10619 -0.15007,-0.0512 0.31327,-0.34973 z m -15.79139,-0.49595 c 0.21828,-0.0808 0.54843,-0.26684 0.73366,-0.41341 0.25194,-0.19935 0.2948,-0.15707 0.17013,0.16782 -0.0917,0.23887 -0.42181,0.4249 -0.73366,0.41341 -0.38702,-0.0143 -0.44103,-0.0675 -0.17013,-0.16782 z m 7.7441,0.005 c 0.25743,-0.0671 0.61461,-0.0627 0.79375,0.01 0.17913,0.0725 -0.0315,0.12737 -0.46806,0.12197 -0.43656,-0.005 -0.58313,-0.0647 -0.32569,-0.13177 z m 8.52777,-0.87498 c 0.0899,-0.14552 0.28259,-0.26458 0.42811,-0.26458 0.14552,0 0.191,0.11906 0.10106,0.26458 -0.0899,0.14553 -0.28258,0.26459 -0.42811,0.26459 -0.14552,0 -0.19099,-0.11906 -0.10106,-0.26459 z m 2.18127,-0.91068 c 0.15969,-0.83537 1.12602,-0.96207 1.12602,-0.14765 0,0.29104 -0.10932,0.52917 -0.24294,0.52917 -0.13362,0 -0.41609,0.0664 -0.6277,0.14764 -0.29236,0.11219 -0.35369,-0.0149 -0.25538,-0.52916 z m -10.46714,-0.99873 c -0.37062,-0.37062 -0.40878,-0.73642 -0.0768,-0.73642 0.24248,0 0.64155,0.79787 0.47992,0.9595 -0.0495,0.0495 -0.23091,-0.0509 -0.40311,-0.22308 z m 7.82285,-0.64706 c 0.1819,-0.0734 0.47956,-0.0734 0.66146,0 0.1819,0.0734 0.0331,0.13345 -0.33073,0.13345 -0.3638,0 -0.51263,-0.0601 -0.33073,-0.13345 z m -2.91669,-0.50856 c -0.40363,-0.21892 -0.85533,-0.32296 -1.00378,-0.23122 -0.14844,0.0917 -0.42879,0.0349 -0.623,-0.12624 -0.24468,-0.20306 -0.56609,-0.21207 -1.04674,-0.0293 -0.3815,0.14505 -0.69364,0.20419 -0.69364,0.13143 0,-0.0728 0.29347,-0.24387 0.65217,-0.38024 0.62914,-0.2392 0.63885,-0.27983 0.27507,-1.15047 -0.35217,-0.84287 -0.3064,-1.23432 0.14433,-1.23432 0.10429,0 0.28512,0.2679 0.40183,0.59532 0.15757,0.44206 0.23688,0.16961 0.30807,-1.05834 0.0527,-0.9095 0.18033,-1.65364 0.28358,-1.65364 0.10325,0 0.14498,0.5374 0.0927,1.19422 -0.16168,2.03281 0.0551,2.17391 1.45158,0.94472 0.67519,-0.59434 1.35969,-1.08142 1.52111,-1.08242 0.16141,-9.9e-4 0.57854,-0.42038 0.92696,-0.93197 0.71597,-1.05128 1.137,-1.04201 0.44778,0.01 -0.24509,0.37406 -1.02358,1.03573 -1.72997,1.47038 -0.7064,0.43464 -1.3517,0.96575 -1.434,1.18023 -0.19437,0.50653 -0.12063,0.49561 1.15994,-0.17187 0.59285,-0.30901 1.13463,-0.50511 1.20396,-0.43578 0.0693,0.0693 -0.47885,0.41145 -1.21817,0.76027 -1.34423,0.63423 -1.34423,0.63423 -0.0713,0.78184 1.27289,0.14762 1.27289,0.14762 -0.1328,0.36702 -1.57276,0.24549 -1.52376,0.58529 0.15991,1.10904 0.80016,0.2489 0.85915,0.30838 0.31974,0.32237 -0.3638,0.009 -0.99171,-0.16196 -1.39534,-0.38087 z m -15.23164,-0.63913 c 0,-0.3638 0.0601,-0.51263 0.13346,-0.33073 0.0734,0.1819 0.0734,0.47956 0,0.66146 -0.0734,0.1819 -0.13346,0.0331 -0.13346,-0.33073 z m 8.42489,0.24897 c 0,-0.15411 0.11907,-0.20662 0.26459,-0.11668 0.14552,0.0899 0.26458,0.21603 0.26458,0.2802 0,0.0642 -0.11906,0.11667 -0.26458,0.11667 -0.14552,0 -0.26459,-0.12609 -0.26459,-0.28019 z m -6.35,-0.51356 c 0,-0.14552 0.12609,-0.26458 0.2802,-0.26458 0.15411,0 0.20662,0.11906 0.11668,0.26458 -0.0899,0.14553 -0.21603,0.26459 -0.2802,0.26459 -0.0642,0 -0.11668,-0.11906 -0.11668,-0.26459 z m 20.54519,0.0772 c -0.4198,-0.10816 -0.38524,-0.17996 0.24361,-0.50622 0.75521,-0.3918 1.39442,-0.14548 1.05358,0.40601 -0.18332,0.29662 -0.4538,0.31751 -1.29719,0.10021 z m -28.31157,-0.46831 c -0.0844,-0.21992 0.16285,-0.40329 0.68439,-0.5076 1.07423,-0.21485 1.12532,-0.1109 0.20507,0.41725 -0.59842,0.34345 -0.78506,0.36241 -0.88946,0.0904 z m 24.08885,0.0193 c -0.74316,-0.32884 -0.74316,-0.32884 0.35649,-0.6583 0.6048,-0.18121 1.15656,-0.27255 1.22612,-0.20299 0.0696,0.0696 -0.12063,0.20489 -0.42264,0.30075 -0.61518,0.19525 -0.71898,0.55514 -0.21837,0.75714 0.1819,0.0734 0.21166,0.13318 0.0661,0.13285 -0.14552,-3.3e-4 -0.599,-0.14858 -1.00774,-0.32945 z m -19.74116,-0.57626 c 0.0127,-0.30823 0.0754,-0.37092 0.15985,-0.15985 0.0764,0.19099 0.067,0.41919 -0.0209,0.50711 -0.0879,0.0879 -0.15045,-0.0684 -0.13896,-0.34726 z m 1.4288,-0.39093 c 0.0934,-0.37207 0.20276,-0.90115 0.24306,-1.17574 0.0403,-0.2746 0.19983,-0.54145 0.35451,-0.59301 0.17277,-0.0576 0.13017,0.34471 -0.11046,1.04314 -0.447,1.29743 -0.74028,1.7343 -0.48711,0.72561 z m 1.19614,-0.0838 c 0,-0.0549 0.18132,-0.25038 0.40294,-0.4343 0.3369,-0.27961 0.37562,-0.26324 0.23627,0.0999 -0.14232,0.37088 -0.63921,0.63083 -0.63921,0.3344 z m -2.28911,-1.17148 c 0.0173,-0.42311 0.20489,-0.93132 0.41689,-1.12935 0.33052,-0.30875 0.35814,-0.2889 0.19383,0.13928 -0.10679,0.27829 -0.0678,0.57589 0.0882,0.67227 0.17694,0.10936 0.0941,0.34095 -0.22528,0.63 -0.48632,0.44012 -0.5039,0.42853 -0.47363,-0.3122 z m -5.11922,0.37619 c 0,-0.23488 1.07042,-0.35764 1.20598,-0.13831 0.0815,0.13186 -0.15652,0.23974 -0.52891,0.23974 -0.37239,0 -0.67707,-0.0456 -0.67707,-0.10143 z m 13.75833,-0.10398 c 0,-0.4238 0.68368,-0.57413 1.49897,-0.3296 0.55001,0.16496 0.60889,0.23197 0.22083,0.2513 -0.29105,0.0145 -0.79706,0.0982 -1.12448,0.18589 -0.32962,0.0883 -0.59532,0.0403 -0.59532,-0.10759 z m 10.31875,-0.0592 c 0,-0.14553 0.12609,-0.26459 0.2802,-0.26459 0.15411,0 0.20662,0.11906 0.11668,0.26459 -0.0899,0.14552 -0.21603,0.26458 -0.2802,0.26458 -0.0642,0 -0.11668,-0.11906 -0.11668,-0.26458 z m 2.71859,-0.26459 c -0.0228,-0.3023 0.12324,-0.52916 0.34057,-0.52916 0.42826,0 0.44578,0.051 0.21983,0.63981 -0.22278,0.58057 -0.51265,0.52333 -0.5604,-0.11065 z m -9.73197,0.003 c 0.11221,-0.18156 0.29366,-0.70302 0.40321,-1.1588 0.10955,-0.45578 0.28518,-1.03705 0.39028,-1.29171 0.26435,-0.64054 -0.40702,-0.60531 -1.26064,0.0661 -0.79271,0.62354 -1.18965,0.69632 -0.72155,0.13229 0.27255,-0.3284 0.2439,-0.39993 -0.16604,-0.41458 -0.27248,-0.01 -0.0192,-0.16754 0.56292,-0.35068 1.54128,-0.484927 2.1597,-0.866627 3.17759,-1.961247 0.50002,-0.53771 0.91235,-0.84728 0.91629,-0.68794 0.004,0.15935 -0.23097,0.50523 -0.52201,0.76862 -0.58659,0.53085 -0.70388,1.19062 -0.21167,1.19062 0.24103,0 0.23838,0.0791 -0.011,0.328517 -0.258,0.258 -0.37139,0.25915 -0.52822,0.005 -0.28259,-0.457227 -1.0802,0.96903 -1.31672,2.35451 -0.10389,0.60855 -0.35259,1.16103 -0.55267,1.22772 -0.23698,0.079 -0.29267,0.006 -0.15976,-0.20885 z m 0.93202,-0.33385 c -0.002,-0.40018 0.11501,-0.7276 0.26053,-0.7276 0.33454,0 0.33454,0.54067 0,1.05833 -0.19986,0.30927 -0.25737,0.23626 -0.26053,-0.33073 z m -6.13955,-0.33072 c 0.26267,-0.5224 1.63758,-1.93434 1.63758,-1.68169 0,0.0717 -0.42832,0.59846 -0.95182,1.1706 -0.52351,0.57214 -0.83209,0.80213 -0.68576,0.51109 z m 13.41452,-0.23201 c 0.25012,-0.38172 0.50478,-0.69404 0.56592,-0.69404 0.1914,0 -0.42463,1.0197 -0.73006,1.20847 -0.15983,0.0988 -0.086,-0.13271 0.16414,-0.51443 z m -17.86236,0.12802 c 0,-0.12995 0.19544,-0.31127 0.4343,-0.40293 0.36314,-0.13935 0.3795,-0.10063 0.0999,0.23628 -0.38104,0.45911 -0.5342,0.50689 -0.5342,0.16665 z m 7.67292,-0.0127 c 0,-0.13693 0.1177,-0.32171 0.26155,-0.41062 0.14998,-0.0927 0.19434,0.0135 0.10399,0.24897 -0.1759,0.45837 -0.36554,0.54224 -0.36554,0.16165 z m -13.22917,-0.56067 c -0.31383,-0.21538 -0.25847,-0.25606 0.26459,-0.19439 0.54717,0.0645 0.65057,-0.0249 0.59843,-0.51732 -0.0401,-0.37892 0.0801,-0.59532 0.33073,-0.59532 0.46152,0 0.50185,0.36197 0.11986,1.07573 -0.30424,0.56849 -0.71651,0.64108 -1.31361,0.2313 z m 20.55962,-0.3346 c -0.21445,-0.55884 0.3981,-2.824497 0.76364,-2.824497 0.25031,0 0.23217,0.20016 -0.0737,0.81335 -0.242,0.485087 -0.34326,1.125777 -0.25092,1.587497 0.1539,0.76948 -0.18192,1.09356 -0.43899,0.42365 z m -1.25082,-1.65237 c 0.36699,-0.786677 0.75855,-1.431767 0.87014,-1.433517 0.2288,-0.004 -1.00369,2.534007 -1.32813,2.734517 -0.11509,0.0711 0.091,-0.51432 0.45799,-1.301 z m 6.28574,0.39007 c 0.14772,-0.564857 0.656,-0.795807 1.12013,-0.50896 0.46021,0.28442 0.15617,0.70888 -0.61312,0.85594 -0.49959,0.0955 -0.60403,0.024 -0.50701,-0.34698 z m -16.03579,-0.955437 c 0.85455,-1.06268 1.28917,-1.40939 1.28917,-1.0284 0,0.24816 0.1983,0.32864 0.59531,0.24163 0.47828,-0.10482 0.51729,-0.0747 0.19844,0.15301 -0.21828,0.15592 -0.6685,0.28531 -1.00049,0.28754 -0.33199,0.002 -0.67215,0.18264 -0.75591,0.40092 -0.0838,0.21828 -0.2732,0.396877 -0.42097,0.396877 -0.14777,0 -0.10527,-0.203207 0.0944,-0.451577 z m -5.03056,-0.34217 c 0.22991,-0.3638 0.58392,-0.92935 0.78668,-1.25677 0.20277,-0.32742 0.45508,-0.59532 0.56069,-0.59532 0.27433,0 -0.7899,1.74204 -1.32068,2.16184 -0.41357,0.32709 -0.41544,0.3054 -0.0267,-0.30975 z m 8.83327,0.38 c 2.32549,-0.58285 2.78217,-0.75762 2.8112,-1.07585 0.0182,-0.19936 0.0611,-0.45178 0.0953,-0.56092 0.0342,-0.10914 0.16128,-0.61516 0.2823,-1.12448 0.22006,-0.92604 0.22006,-0.92604 0.40111,-0.13229 0.0996,0.43656 0.2652,0.99465 0.36803,1.24019 0.24936,0.59543 -1.51136,1.50422 -3.22952,1.6669 -0.69169,0.0655 -1.01949,0.0594 -0.72845,-0.0136 z m -4.63021,-0.56278 c 0,-0.13978 0.26789,-0.49528 0.59532,-0.79001 0.66175,-0.59567 1.64534,-1.02938 1.38719,-0.61168 -0.0889,0.14385 -0.32458,0.26155 -0.52371,0.26155 -0.19913,0 -0.60882,0.31371 -0.91043,0.69714 -0.3016,0.38343 -0.54837,0.58278 -0.54837,0.443 z m 3.84236,-0.33795 c -0.51063,-0.18534 -0.50946,-0.19731 0.0488,-0.49605 0.74214,-0.39719 0.87138,-0.38605 0.87138,0.0751 0,0.51495 -0.29247,0.64875 -0.92014,0.42093 z m 10.82644,-0.42041 c 0.61404,-0.45644 1.29073,-0.50305 1.14943,-0.0792 -0.0555,0.16643 -0.45235,0.33822 -0.88194,0.38177 -0.73645,0.0746 -0.75174,0.0574 -0.26749,-0.3026 z m -15.06567,-0.64636 c 0.0899,-0.14552 0.28258,-0.26459 0.4281,-0.26459 0.14552,0 0.191,0.11907 0.10107,0.26459 -0.0899,0.14552 -0.28259,0.26458 -0.42811,0.26458 -0.14552,0 -0.191,-0.11906 -0.10106,-0.26458 z m 3.19201,-0.34214 c 0.0994,-0.26094 0.2473,-0.40778 0.32877,-0.32632 0.0815,0.0815 1.6e-4,0.29495 -0.18066,0.47443 -0.2613,0.25936 -0.2917,0.22897 -0.14811,-0.14811 z m -2.53055,-0.34205 c 0,-0.15505 0.29765,-0.56154 0.66146,-0.90331 0.3638,-0.34178 0.66145,-0.53593 0.66145,-0.43145 0,0.10448 -0.29765,0.51097 -0.66145,0.90331 -0.36381,0.39235 -0.66146,0.5865 -0.66146,0.43145 z m 10.38489,-0.22303 c 0.10914,-0.14132 0.19844,-0.47126 0.19844,-0.7332 0,-0.26194 0.11906,-0.47625 0.26458,-0.47625 0.40207,0 0.31726,0.4139 -0.19843,0.96847 -0.25467,0.27387 -0.37373,0.38231 -0.26459,0.24098 z m 3.63802,-0.14281 c 0,-0.14095 0.1786,-0.18775 0.39688,-0.10399 0.21828,0.0838 0.39687,0.19909 0.39687,0.25628 0,0.0572 -0.17859,0.10399 -0.39687,0.10399 -0.21828,0 -0.39688,-0.11533 -0.39688,-0.25628 z m -16.51898,-0.66976 c 0.24277,-1.05223 0.58175,-1.39609 0.80436,-0.81596 0.11542,0.30077 -0.0265,0.66414 -0.40488,1.03643 -0.58261,0.57328 -0.58261,0.57328 -0.39948,-0.22047 z m 1.65435,0.19843 c 1.12563,-1.0831 1.69499,-1.43133 0.85596,-0.52352 -0.50149,0.5426 -1.0075,0.98654 -1.12448,0.98654 -0.11697,0 0.004,-0.20835 0.26852,-0.46302 z m 3.75213,0.20348 c 0,-0.14275 -0.29765,-0.33425 -0.66145,-0.42556 -0.7618,-0.19119 -0.85376,-0.67801 -0.22642,-1.19865 0.38686,-0.32107 0.41409,-0.29505 0.24584,0.23505 -0.16208,0.51067 -0.0755,0.61884 0.6038,0.7547 0.53242,0.10649 0.74662,0.27943 0.65189,0.5263 -0.16102,0.4196 -0.61366,0.49938 -0.61366,0.10816 z m 2.65521,-0.45244 c -0.005,-0.31884 0.11761,-0.65818 0.27281,-0.7541 0.45635,-0.28204 0.49399,-0.0348 0.10242,0.67273 -0.35282,0.63751 -0.36619,0.64041 -0.37523,0.0814 z m 1.85113,-0.52315 c -0.005,-0.17 -0.0772,-0.48829 -0.16123,-0.70731 -0.0925,-0.24098 0.0642,-0.51438 0.39687,-0.69241 0.46416,-0.24841 0.54969,-0.21826 0.54969,0.19373 0,0.52942 -0.7715,1.71417 -0.78533,1.20599 z m -3.71259,-0.8074 c 0,-0.69676 0.11002,-0.82397 0.80027,-0.92528 0.80026,-0.11745 0.80026,-0.11745 0.0661,0.69626 -0.40376,0.44753 -0.76388,0.86391 -0.80026,0.92527 -0.0364,0.0614 -0.0662,-0.25196 -0.0662,-0.69625 z m 6.90986,-0.008 c -0.0259,-0.72673 0.0615,-0.8586 0.56462,-0.85149 0.53025,0.007 0.54808,0.0444 0.16316,0.33733 -0.23768,0.1809 -0.49176,0.56407 -0.56462,0.85148 -0.0866,0.34175 -0.14309,0.22503 -0.16316,-0.33732 z m 1.95369,0.19843 c 0.0899,-0.14552 0.21602,-0.26458 0.28019,-0.26458 0.0642,0 0.11668,0.11906 0.11668,0.26458 0,0.14552 -0.12609,0.26459 -0.2802,0.26459 -0.15411,0 -0.20661,-0.11907 -0.11667,-0.26459 z m -11.60506,-0.66145 c 0.0838,-0.21829 0.2732,-0.39688 0.42097,-0.39688 0.15486,0 0.12914,0.16812 -0.0607,0.39688 -0.18115,0.21828 -0.37059,0.39687 -0.42096,0.39687 -0.0504,0 -0.0231,-0.17859 0.0607,-0.39687 z m 13.98631,-0.92605 c 0.0899,-0.14552 0.33508,-0.26458 0.54478,-0.26458 0.20969,0 0.38126,0.11906 0.38126,0.26458 0,0.14552 -0.24515,0.26459 -0.54478,0.26459 -0.29963,0 -0.4712,-0.11907 -0.38126,-0.26459 z m -7.84461,-0.67089 c 0.18518,-0.69239 0.65552,-0.89638 0.77306,-0.33527 0.0397,0.18959 -0.1566,0.48702 -0.43627,0.66097 -0.45962,0.28588 -0.49198,0.25458 -0.33679,-0.3257 z m 2.43851,-0.15624 c 0.1503,-0.28083 0.38636,-0.44071 0.52458,-0.35529 0.41059,0.25376 0.28747,0.58208 -0.27327,0.72872 -0.4485,0.11729 -0.48495,0.0631 -0.25131,-0.37343 z m 5.081,-0.63972 c 0.681,-0.68101 1.51572,-0.74745 1.51572,-0.12065 0,0.29641 -0.17974,0.37834 -1.44396,0.65818 -0.7825,0.17321 -0.7825,0.17321 -0.0718,-0.53753 z m -28.95519,39.795897 c -0.0731,-3.79466 -0.16706,-4.71017 -0.53988,-5.2581 -0.24827,-0.36489 -0.44828,-0.90067 -0.44445,-1.19062 0.0281,-2.12985 -0.1622,-4.08582 -0.46891,-4.81988 -0.41742,-0.99904 -0.88032,-1.13977 -0.8926,-0.27137 -0.005,0.32743 -0.17861,0.82012 -0.38662,1.09489 -0.27413,0.3621 -0.30486,0.63663 -0.11164,0.99765 0.14661,0.27395 0.19813,0.60882 0.11449,0.74416 -0.0837,0.13533 0.0456,1.32656 0.28721,2.64717 0.38529,2.10598 0.53391,2.46848 1.20914,2.94929 0.62074,0.44201 0.70913,0.62134 0.45636,0.92591 -0.2703,0.32569 -0.37735,0.31992 -0.77717,-0.0419 -0.25503,-0.2308 -1.03542,-0.62418 -1.73421,-0.87419 -1.00521,-0.35964 -1.38391,-0.67212 -1.81348,-1.49638 -0.557768,-1.07025 -1.804608,-2.00281 -2.178238,-1.62919 -0.35581,0.35582 0.84307,2.11077 2.06398,3.0213 1.667298,1.24345 4.466098,4.00745 4.466098,4.41058 0,0.082 -0.22522,0.14916 -0.50049,0.14916 -0.30391,0 -0.56145,-0.24291 -0.65571,-0.61847 -0.23259,-0.92672 -1.11545,-1.92991 -2.77658,-3.15501 -1.689508,-1.24604 -2.255338,-1.85698 -2.708668,-2.92464 -0.26178,-0.61653 -0.24547,-0.81585 0.0946,-1.15591 0.3715,-0.37151 0.50179,-0.33841 1.35832,0.34503 0.52107,0.41577 1.063448,1.08884 1.205278,1.49571 0.24568,0.70474 1.82853,1.66035 2.42232,1.46242 0.36415,-0.12138 -1.56811,-2.85746 -2.01797,-2.85746 -0.21441,0 -0.38984,-0.11906 -0.38984,-0.26458 0,-0.55132 0.78243,-0.23141 1.45599,0.59531 0.50398,0.61856 0.66411,0.71138 0.57059,0.33073 -0.0715,-0.29104 -0.20527,-1.08417 -0.29725,-1.76251 -0.0961,-0.70863 -0.33067,-1.29605 -0.55141,-1.38075 -0.55646,-0.21354 -0.47424,-0.7329 0.27728,-1.75153 0.36381,-0.49311 0.66146,-1.17109 0.66146,-1.50662 0,-0.70958 0.0526,-0.69309 -1.01885,-0.31958 -0.61488,0.21434 -0.83323,0.45293 -0.83323,0.91042 0,0.74652 -0.49981,1.12648 -0.814168,0.61894 -0.12422,-0.20054 -0.4311,-1.04923 -0.68195,-1.88598 -0.25086,-0.83674 -0.55264,-1.52135 -0.67062,-1.52135 -0.11798,0 -0.21451,-0.10786 -0.21451,-0.23969 0,-0.13183 0.28014,-0.10748 0.62254,0.0541 0.36035,0.17006 0.57843,0.46601 0.51781,0.70271 -0.0576,0.22491 0.0706,0.88517 0.28486,1.46725 0.214268,0.58209 0.397978,0.85303 0.408228,0.60211 0.0102,-0.25093 0.37972,-0.64295 0.82104,-0.87116 0.89388,-0.46224 0.82363,-0.92157 -0.14094,-0.92157 -0.34662,0 -0.7027,-0.11727 -0.79129,-0.2606 -0.0997,-0.16128 0.17167,-0.20463 0.71199,-0.11374 0.87305,0.14687 0.87305,0.14687 0.11667,-0.49989 -0.41602,-0.35572 -1.197048,-0.77878 -1.735638,-0.94015 -1.40458,-0.42082 -2.01019,-1.22429 -2.620982,-3.47729 -0.295884,-1.09141 -0.661027,-2.30782 -0.81143,-2.70314 -0.295166,-0.77582 -2.327895,-2.40588 -2.707579,-2.17122 -0.127341,0.0787 -0.23153,0.54576 -0.23153,1.0379 0,1.03697 -0.326489,1.35677 -0.801194,0.78478 -0.276629,-0.33332 -0.259569,-0.37223 0.102312,-0.23336 0.359561,0.13798 0.434299,-0.0218 0.434299,-0.92829 0,-1.26835 -0.388686,-1.53904 -1.668511,-1.16198 -0.524549,0.15454 -0.832417,0.41037 -0.81177,0.67455 0.02027,0.25938 -0.108885,0.37103 -0.33073,0.2859 -0.63351,-0.2431 -0.393982,-0.82817 0.411479,-1.00508 0.787659,-0.173 1.539135,-0.82032 1.267571,-1.09188 -0.342447,-0.34245 -2.193531,-0.57801 -3.652776,-0.46484 -1.292393,0.10023 -1.565263,0.0496 -1.565263,-0.29056 0,-0.32204 0.216541,-0.38445 0.992187,-0.28595 2.420008,0.30734 4.299479,0.42195 4.299479,0.2622 0,-0.21351 -1.268313,-1.24213 -1.834518,-1.48783 -0.357956,-0.15533 -0.35259,-0.18238 0.03937,-0.19844 0.249598,-0.0102 0.844911,0.32093 1.322917,0.73591 0.960856,0.83415 1.770983,0.9593 2.224637,0.34365 0.257633,-0.34963 0.320449,-0.33008 0.471819,0.14685 0.09604,0.30259 0.547741,0.70472 1.00378,0.89362 0.456039,0.1889 1.583174,1.04879 2.504739,1.91087 1.71991,1.6089 2.07619,1.64742 1.14741,0.12409 -0.2905,-0.47646 -0.52862,-0.97165 -0.52917,-1.10041 -0.002,-0.40644 0.92298,0.93679 2.568782,3.73145 0.87569,1.48697 1.66776,2.62798 1.76016,2.53559 0.39997,-0.39997 0.0955,-1.24544 -0.90387,-2.5097 -0.58952,-0.7458 -1.25874,-1.7841 -1.487162,-2.30732 -0.50211,-1.15019 -0.89198,-2.98733 -0.61126,-2.88042 0.32109,0.12229 2.265832,2.67043 2.799162,3.66767 0.34514,0.64535 0.49583,1.5353 0.52199,3.08276 0.0233,1.37986 0.16641,2.33169 0.39123,2.60259 0.19495,0.2349 0.44277,0.9228 0.55072,1.52867 0.12835,0.72033 0.15478,0.36902 0.0764,-1.01509 -0.066,-1.16416 -0.10881,-3.03807 -0.0952,-4.16423 0.0247,-2.04756 0.0247,-2.04756 -0.92836,-2.60985 -0.52416,-0.30926 -1.07319,-0.78685 -1.22007,-1.06129 -0.37533,-0.70132 -0.15248,-0.6232 0.85971,0.30137 0.98817,0.90263 1.6302,0.92781 1.75296,0.0687 0.0663,-0.46374 -0.0936,-0.62612 -0.79375,-0.80634 -0.67379,-0.17342 -0.89556,-0.38478 -0.95805,-0.91309 -0.0571,-0.4829 -0.2829,-0.73803 -0.75883,-0.85748 -0.37262,-0.0935 -0.60947,-0.23808 -0.52631,-0.32124 0.0832,-0.0832 0.45439,-0.0751 0.82497,0.0179 0.53348,0.1339 0.67378,0.33334 0.67378,0.95782 0,0.48087 0.13769,0.78871 0.35278,0.78871 0.55792,0 0.60871,-0.16789 0.45412,-1.50125 -0.12337,-1.06411 -0.2456,-1.278 -0.80551,-1.40956 -0.36304,-0.0853 -0.7033,-0.37958 -0.75614,-0.65395 -0.09,-0.4671 -0.0678,-0.47057 0.34824,-0.0546 0.65583,0.65583 1.14956,0.56296 1.00578,-0.18918 -0.12424,-0.64994 -0.89583,-0.95401 -2.42078,-0.95401 -0.41512,0 -0.833412,-0.21838 -1.034232,-0.53993 -0.42082,-0.67385 -0.21816,-1.04079 0.47475,-0.85958 0.540262,0.14128 0.742942,0.60576 0.264322,0.60576 -0.14552,0 -0.264582,0.11906 -0.264582,0.26458 0,0.14552 0.412702,0.26458 0.917122,0.26458 0.91712,0 0.91712,0 0.34124,-0.97604 -0.31673,-0.53682 -0.43178,-0.88698 -0.25566,-0.77813 0.20985,0.12969 0.32022,0.0153 0.32022,-0.331937 0,-0.29301 -0.4435,-0.88904 -0.99219,-1.33345 -0.545702,-0.44198 -1.527972,-1.24167 -2.182812,-1.77708 -2.318549,-1.89567 -7.75118,-4.10798 -14.022921,-5.71051 -3.6831,-0.94108 -7.981043,-1.6697 -8.553468,-1.45004 -0.858772,0.32954 -1.495067,2.35837 -2.679793,8.54453 -1.611847,8.416407 -3.022889,15.375497 -5.029068,24.802737 -0.694526,3.26365 -0.650007,3.85476 0.329817,4.37914 0.584795,0.31298 6.511562,0.82453 9.552795,0.82453 1.277491,0 2.967647,0.11468 3.755902,0.25484 0.788254,0.14016 2.921471,0.44567 4.740482,0.67892 6.823235,0.87493 13.047574,3.14925 16.977036,6.20327 0.92185,0.71647 1.77543,1.20345 1.89685,1.08217 0.12142,-0.12128 0.18095,-2.28811 0.13229,-4.81517 z m -6.340288,-0.69205 c -0.21907,-1.27419 -0.0984,-1.65364 0.52585,-1.65364 0.627748,0 0.633498,0.0167 0.17864,0.51931 -0.25848,0.28562 -0.39973,0.70234 -0.31389,0.92604 0.0858,0.2237 0.0408,0.40673 -0.1002,0.40673 -0.14096,0 -0.27164,-0.0893 -0.2904,-0.19844 z m -3.637179,-1.85681 c -0.400403,-0.74816 -0.37803,-0.85517 0.178795,-0.85517 1.09953,0 1.435449,-1.25143 0.711636,-2.65113 -0.346601,-0.67025 -1.112605,-1.31762 -1.559085,-1.31762 -0.07777,0 -0.09258,0.98227 -0.0329,2.18281 0.105947,2.13148 0.103459,2.14237 -0.105792,0.46303 -0.437598,-3.51196 -1.094678,-3.58339 -1.404614,-0.1527 -0.07175,0.7942 -0.731324,1.31736 -0.731324,0.58007 0,-0.22576 -0.327421,-0.5881 -0.727604,-0.80521 -0.858239,-0.4656 -0.767516,-0.50424 0.398622,-0.1698 0.858149,0.24611 0.858149,0.24611 0.858149,-1.06371 0,-1.30983 0,-1.30983 -1.047793,-0.77528 -0.576286,0.294 -1.260895,0.52615 -1.521354,0.5159 -0.260459,-0.0103 0.0024,-0.19283 0.584161,-0.40571 0.581747,-0.21289 1.227964,-0.55732 1.436037,-0.76539 0.433906,-0.43391 0.236708,-0.55915 -1.170843,-0.74361 -0.702688,-0.0921 -0.679923,-0.10858 0.198438,-0.14367 1.100071,-0.0439 1.218094,-0.2067 0.529167,-0.72967 -0.255635,-0.19405 -0.321882,-0.35525 -0.147907,-0.35989 0.173313,-0.005 0.388699,0.11064 0.478636,0.25617 0.08994,0.14552 0.328895,0.26458 0.531018,0.26458 0.557275,0 -0.04782,-1.52444 -0.685424,-1.72681 -0.278879,-0.0885 -0.507053,-0.27616 -0.507053,-0.417 0,-0.15598 0.206823,-0.14537 0.529167,0.0271 0.763834,0.4088 0.713506,-0.37004 -0.05887,-0.91104 -0.441079,-0.30894 -0.482237,-0.41187 -0.164689,-0.41187 0.616499,0 0.982926,0.55711 1.126202,1.71228 0.15326,1.23565 0.786864,1.99571 1.265052,1.51752 0.541723,-0.54172 0.854341,-0.3521 0.345848,0.20978 -0.469815,0.51914 -0.461818,0.52957 0.422014,0.55066 0.900903,0.0215 0.900903,0.0215 0.129313,0.36195 -0.771589,0.34047 -0.771589,0.34047 0,0.83477 0.983107,0.6298 1.367936,1.1197 1.567938,1.99602 0.08795,0.38539 0.37439,0.75679 0.636524,0.82534 0.26763,0.07 0.54039,0.45834 0.62209,0.88572 0.14549,0.76108 0.14549,0.76108 -0.36604,0.12937 -0.571828,-0.70618 -0.610172,-0.68811 -1.433114,0.67545 -0.563734,0.93407 -0.5987,0.95055 -0.884395,0.41672 z m -7.639643,-1.57438 c -0.354337,-0.1271 -0.462813,-0.8552 -0.132292,-0.88795 0.109141,-0.0108 0.496094,-0.0628 0.859896,-0.11554 0.363802,-0.0527 0.512631,-0.034 0.330729,0.0417 -0.181901,0.0757 -0.330729,0.29923 -0.330729,0.4968 0,0.43979 -0.286833,0.62309 -0.727604,0.46498 z m -7.024198,-0.77078 c -0.09189,-0.0919 -0.04118,-0.40234 0.112706,-0.68987 0.330104,-0.6168 0.926621,-0.22366 0.671074,0.44229 -0.165386,0.43098 -0.495953,0.5354 -0.78378,0.24758 z m -2.688237,-1.21828 c 0.184884,-1.27022 -0.232746,-2.05423 -1.09426,-2.05423 -0.377802,0 -0.596759,-0.11489 -0.504243,-0.26458 0.257879,-0.41726 0.884125,-0.31006 1.389063,0.23777 1.592849,1.72814 1.666563,1.83968 1.346521,2.03748 -0.18466,0.11413 -0.373522,0.0484 -0.440771,-0.15331 -0.07168,-0.21505 -0.258851,-0.0524 -0.478926,0.41617 -0.36126,0.76918 -0.36126,0.76918 -0.217384,-0.2193 z m 11.569554,0.67283 c 0.257431,-0.0671 0.614619,-0.0627 0.79375,0.01 0.179132,0.0725 -0.03149,0.12736 -0.468056,0.12197 -0.436563,-0.005 -0.583125,-0.0647 -0.325694,-0.13178 z m -6.850983,-0.39908 c -0.270233,-0.43725 0.379263,-0.89685 0.747301,-0.52881 0.174625,0.17462 0.817514,0.3175 1.428642,0.3175 0.885191,0 1.397561,-0.21521 2.51965,-1.05833 0.77468,-0.58209 1.550804,-1.05834 1.724719,-1.05834 0.173916,0 0.504542,-0.0723 0.734725,-0.1606 0.230183,-0.0883 0.418515,-0.0288 0.418515,0.1323 0,0.16108 -0.359848,0.29289 -0.799662,0.29289 -0.558699,0 -1.13672,0.3079 -1.918229,1.02182 -1.011683,0.92418 -1.289516,1.03507 -2.907568,1.1604 -1.033719,0.0801 -1.856166,0.0299 -1.948093,-0.11883 z m -10.259957,-0.9351 c -0.405233,-0.40523 -0.05385,-0.77655 1.134123,-1.19848 0.710755,-0.25244 1.514427,-0.45069 1.785938,-0.44055 0.27151,0.0101 -0.07189,0.19233 -0.763115,0.40488 -0.69543,0.21384 -1.256771,0.5475 -1.256771,0.74701 0,0.3929 -0.64524,0.74208 -0.900175,0.48714 z m 12.674283,-1.03365 c -0.238411,-0.23841 -0.619911,-0.71801 -0.847777,-1.06578 -0.411826,-0.62853 -0.41655,-0.6291 -0.790528,-0.0952 -0.206924,0.29543 -0.518302,0.53531 -0.691952,0.53309 -0.219384,-0.003 -0.227908,-0.0634 -0.02793,-0.19844 0.158285,-0.10691 0.353729,-0.45551 0.434319,-0.77467 0.187787,-0.74367 -0.423099,-1.28349 -1.714298,-1.51486 -0.545704,-0.0978 -0.992188,-0.29634 -0.992188,-0.44124 0,-0.14489 -0.506016,-0.49935 -1.124479,-0.78768 -0.993275,-0.46306 -0.692093,-0.49374 0.661458,-0.0674 0.567036,0.17862 0.60792,-0.25998 0.06615,-0.70961 -0.218281,-0.18116 -0.396875,-0.45461 -0.396875,-0.60768 0,-0.15307 0.275564,-0.0194 0.612365,0.29698 0.336801,0.3164 0.675124,0.57528 0.751829,0.57528 0.0767,0 0.16259,-1.17566 0.190857,-2.61259 0.04867,-2.47409 -0.258198,-4.00199 -0.803771,-4.00199 -0.463981,0 -0.194922,-0.45662 0.439345,-0.74561 0.501834,-0.22865 0.665946,-0.51026 0.680055,-1.16695 0.01023,-0.47606 0.131428,-1.10369 0.269334,-1.39473 0.17987,-0.37961 0.215528,-0.13657 0.126161,0.85989 -0.06852,0.76399 -0.04089,1.38511 0.0614,1.38028 0.102284,-0.005 0.662222,-0.3387 1.244305,-0.74193 0.676454,-0.46859 1.061088,-0.94075 1.065968,-1.30853 0.01046,-0.78834 0.423919,-1.16161 0.920619,-0.83112 0.322092,0.21431 0.102753,0.53514 -1.192837,1.74482 -1.5875,1.48222 -1.5875,1.48222 -0.396875,1.31013 0.832287,-0.1203 1.071179,-0.0925 0.79375,0.0922 -0.218281,0.14536 -0.688578,0.26611 -1.045104,0.26834 -0.496982,0.003 -0.5756,0.0767 -0.336949,0.31533 0.171204,0.1712 1.474938,0.38572 2.897187,0.47671 1.983693,0.12691 2.410982,0.21652 1.834777,0.38477 -0.727984,0.21257 -2.506603,0.10731 -4.408244,-0.2609 -0.926042,-0.1793 -0.926042,-0.1793 -0.264584,0.48859 2.991868,3.02097 3.4957,3.62793 3.342624,4.02684 -0.200158,0.52161 -0.69679,0.2695 -0.69679,-0.35372 0,-0.46357 -3.102345,-3.9115 -3.321901,-3.69195 -0.06717,0.0672 0.295591,0.92353 0.806137,1.90302 1.166283,2.23754 1.196448,3.10295 0.134514,3.85911 -1.018013,0.72489 -1.001991,0.99896 0.06615,1.13152 0.859895,0.10671 0.859895,0.10671 -0.0337,0.14905 -0.893593,0.0423 -0.893593,0.0423 0.132292,1.18082 0.564237,0.62616 1.26401,1.46465 1.555051,1.86331 0.529167,0.72484 0.529167,0.72484 1.527578,0.006 0.728169,-0.52466 0.907207,-0.78101 0.661458,-0.94709 -0.457624,-0.30926 1.66836,0.0547 2.17659,0.37263 0.273085,0.17083 0.120241,0.20189 -0.490027,0.0996 -0.622741,-0.10441 -1.095573,-0.003 -1.5875,0.34175 -1.46128,1.02294 -1.821259,1.1268 -2.287949,0.66011 z M 83.815227,117.764 c 0,-0.67063 -0.217526,-0.65882 -0.975134,0.0529 -0.92814,0.87194 -0.819774,1.39764 0.181384,0.87992 0.475319,-0.2458 0.79375,-0.62003 0.79375,-0.93284 z m -0.922525,-0.98222 c -0.06422,-0.18016 -0.03175,-0.29922 0.07215,-0.26458 0.663143,0.22104 0.255365,-1.1598 -0.750625,-2.54181 -0.740494,-1.01728 -0.740494,-1.01728 -0.745942,1.98437 -0.0054,3.00166 -0.0054,3.00166 0.767866,2.07562 0.425322,-0.50933 0.72077,-1.07345 0.65655,-1.2536 z m 16.17002,6.40615 c 0.80324,-0.64193 1.049958,-0.65392 0.81422,-0.0396 -0.0788,0.20531 -0.46517,0.43483 -0.85863,0.51004 -0.71539,0.13676 -0.71539,0.13676 0.0444,-0.47045 z m -18.279715,0.0472 c -0.312597,-0.22857 -0.385324,-0.41965 -0.202688,-0.53253 0.362182,-0.22384 1.677803,0.3612 1.491205,0.66313 -0.203913,0.32993 -0.731882,0.27642 -1.288517,-0.1306 z m 15.732221,0.0919 c -0.327567,-0.21169 -0.304465,-0.25394 0.132292,-0.24193 0.291041,0.008 0.767292,0.11687 1.058332,0.24193 0.48463,0.20825 0.47349,0.22862 -0.13229,0.24194 -0.3638,0.008 -0.840053,-0.10087 -1.058334,-0.24194 z m -17.065626,-0.79315 c -0.08994,-0.14552 -0.04446,-0.26458 0.101062,-0.26458 0.145521,0 0.338168,0.11906 0.428105,0.26458 0.08994,0.14552 0.04446,0.26459 -0.101062,0.26459 -0.145521,0 -0.338168,-0.11907 -0.428105,-0.26459 z m 18.44126,-0.2763 c -1.134019,-0.24869 -1.390433,-0.51745 -0.49369,-0.51745 1.00228,0 0.88031,-0.26841 -0.601189,-1.32291 -1.288161,-0.9169 -1.753038,-1.56704 -2.518425,-3.5221 -0.371105,-0.94793 -0.454885,-1.0036 -1.39369,-0.92604 -0.91325,0.0754 -1.005954,0.1562 -1.081758,0.94241 -0.07357,0.76302 -0.0084,0.85989 0.578799,0.85989 0.519181,0 0.81256,0.27717 1.362059,1.28678 0.456829,0.83934 1.066612,1.49262 1.753698,1.87878 0.579341,0.32561 1.000273,0.64509 0.935403,0.70996 -0.309517,0.30952 -1.986881,-0.99787 -2.694966,-2.10054 -0.626458,-0.97555 -0.947101,-1.23709 -1.521354,-1.24094 -0.400183,-0.003 -0.727605,-0.11565 -0.727605,-0.25105 0,-0.1354 -0.26789,-0.29778 -0.595312,-0.36085 -0.595313,-0.11466 -0.595313,-0.11466 0,-0.15069 0.507343,-0.0307 0.595312,-0.18561 0.595312,-1.04824 0,-1.49562 -0.923032,-2.27028 -2.721835,-2.28432 -1.370254,-0.0107 -1.378827,-0.006 -1.320686,0.78045 0.03219,0.43516 0.181014,0.83203 0.330729,0.88194 0.385533,0.12851 0.338733,0.57581 -0.06025,0.57581 -0.335342,0 -1.125423,-2.0699 -0.88272,-2.31261 0.07189,-0.0719 0.679134,-0.19252 1.349439,-0.26807 0.942182,-0.1062 1.513187,0.006 2.516332,0.49405 0.713678,0.34728 1.302221,0.7734 1.307875,0.94693 0.0058,0.1792 0.491126,0.35067 1.123182,0.39688 1.078561,0.0788 1.129588,0.12477 1.653646,1.48822 0.47679,1.24046 1.648468,2.86527 1.89118,2.62256 0.04854,-0.0485 -0.199958,-0.79642 -0.552219,-1.66196 -0.542314,-1.33252 -0.588266,-1.65259 -0.299828,-2.08838 0.187356,-0.28306 0.509051,-0.55844 0.714879,-0.61193 0.245559,-0.0638 0.215031,0.0322 -0.08879,0.27925 -0.254661,0.20708 -0.463021,0.6079 -0.463021,0.89071 0,0.65195 1.215351,3.10987 1.762071,3.5636 0.36772,0.30518 0.39571,0.21236 0.2528,-0.83814 -0.0884,-0.64973 -0.2742,-1.57618 -0.4129,-2.05879 -0.18839,-0.65546 -0.17191,-0.85076 0.0651,-0.77192 0.17452,0.058 0.4057,0.8101 0.51374,1.67122 0.10804,0.86112 0.31498,1.90677 0.45985,2.32366 0.14488,0.4169 0.19006,0.8767 0.1004,1.02177 -0.0897,0.14508 -0.016,0.35464 0.16371,0.4657 0.51899,0.32076 -0.0459,0.46558 -0.99997,0.25636 z m -23.865218,-0.24356 c 0,-0.24978 0.836566,-0.80305 1.214238,-0.80305 0.104881,0 -0.02481,0.23812 -0.288197,0.52916 -0.513064,0.56693 -0.926041,0.68908 -0.926041,0.27389 z m 11.494024,-0.24905 c 0.08149,-0.13186 0.386176,-0.1775 0.677073,-0.10143 0.728014,0.19038 0.662524,0.34118 -0.14817,0.34118 -0.37239,0 -0.610397,-0.10789 -0.528903,-0.23975 z m 4.380976,-0.45362 c -0.363802,-0.20729 -0.959114,-0.32447 -1.322916,-0.26039 -0.727913,0.12822 -4.233334,-0.62924 -4.233334,-0.91475 0,-0.0983 0.68461,-0.0176 1.521354,0.17932 2.106093,0.4956 2.517689,0.47539 2.330476,-0.11447 -0.215969,-0.68045 0.9394,-1.7145 1.744673,-1.56146 0.618067,0.11746 0.617864,0.11828 -0.04025,0.1624 -0.363802,0.0244 -0.872799,0.33484 -1.131104,0.6899 -0.469647,0.64555 -0.469647,0.64555 1.058333,1.43416 0.840389,0.43374 1.349386,0.78267 1.131105,0.7754 -0.218282,-0.007 -0.694532,-0.18282 -1.058334,-0.39011 z M 73.76106,120.54951 c 0.341775,-0.3638 0.740471,-0.66146 0.885992,-0.66146 0.14552,0 -0.01505,0.29766 -0.356825,0.66146 -0.341774,0.3638 -0.74047,0.66146 -0.885991,0.66146 -0.145521,0 0.01505,-0.29766 0.356824,-0.66146 z m 1.984375,0.39687 c 0.08994,-0.14552 0.282584,-0.26458 0.428105,-0.26458 0.145521,0 0.190999,0.11906 0.101062,0.26458 -0.08994,0.14552 -0.282584,0.26459 -0.428105,0.26459 -0.145521,0 -0.190998,-0.11907 -0.101062,-0.26459 z M 73.13149,119.6237 c 1.134964,-1.16996 1.308359,-1.2837 0.907924,-0.59555 -0.486697,0.8364 -1.283262,1.65365 -1.611794,1.65365 -0.177417,0 0.139324,-0.47615 0.70387,-1.0581 z m 17.298321,0.008 c 0,-0.14095 0.178594,-0.18775 0.396875,-0.10398 0.218281,0.0838 0.396875,0.19908 0.396875,0.25628 0,0.0572 -0.178594,0.10398 -0.396875,0.10398 -0.218281,0 -0.396875,-0.11533 -0.396875,-0.25628 z M 85.8437,119.44701 c -0.329821,-0.32982 -0.177722,-0.56507 0.551215,-0.85256 0.400182,-0.15782 1.142465,-0.52666 1.649518,-0.81963 0.507053,-0.29297 1.221428,-0.52049 1.5875,-0.50559 0.614903,0.025 0.605143,0.0418 -0.128164,0.22032 -1.284231,0.31264 -2.564887,1.08242 -2.70739,1.62735 -0.131342,0.50225 -0.613474,0.66931 -0.952679,0.33011 z m -8.428082,-0.7981 c 0.190996,-0.0764 0.419199,-0.067 0.507118,0.0209 0.08792,0.0879 -0.06835,0.15045 -0.347266,0.13896 -0.308224,-0.0127 -0.370919,-0.0754 -0.159852,-0.15985 z m -2.26046,-0.2672 c 0.257431,-0.0671 0.614619,-0.0627 0.793751,0.01 0.179131,0.0725 -0.03149,0.12736 -0.468057,0.12197 -0.436562,-0.005 -0.583125,-0.0647 -0.325694,-0.13177 z m -2.082927,-1.24778 c -0.209467,-0.54586 0.141137,-1.07448 0.484747,-0.73087 0.145947,0.14595 0.93618,0.22198 1.756074,0.16895 1.398559,-0.0905 1.417111,-0.0842 0.300092,0.10056 -0.654844,0.10834 -1.460282,0.34548 -1.789863,0.52698 -0.498389,0.27446 -0.624788,0.26342 -0.75105,-0.0656 z m 4.525288,-0.42095 c -0.348917,-0.14993 -0.393979,-0.23235 -0.132292,-0.24194 0.218281,-0.008 0.575469,0.10088 0.79375,0.24194 0.48365,0.31256 0.0659,0.31256 -0.661458,0 z m -1.455209,-1.02922 c -0.800364,-0.21022 -2.159646,-0.39207 -3.020626,-0.40411 -0.933107,-0.013 -1.606697,-0.14567 -1.667612,-0.32836 -0.150078,-0.45009 0.422351,-0.71137 0.825492,-0.37679 0.191074,0.15857 0.70515,0.21677 1.142391,0.12932 0.495402,-0.0991 1.102958,2.6e-4 1.612239,0.26362 1.047821,0.54185 1.866854,0.53632 2.477968,-0.0167 0.633736,-0.57352 0.844199,-0.33678 0.420818,0.47337 -0.333078,0.63735 -0.345801,0.63919 -1.79067,0.25968 z m 18.940754,-1.28588 c 0.116573,-0.25467 0.218608,-0.98799 0.226745,-1.62961 0.01447,-1.14104 -0.0098,-1.17484 -1.109685,-1.54341 -0.618464,-0.20724 -1.12448,-0.48595 -1.12448,-0.61935 0,-0.31013 0.4527,-0.31573 0.642922,-0.008 0.07974,0.12903 0.554935,0.3115 1.055986,0.4055 0.875991,0.16434 0.917928,0.22633 1.091207,1.61321 0.206118,1.64971 0.05739,2.24462 -0.56116,2.24462 -0.317198,0 -0.376628,-0.12421 -0.221535,-0.46302 z m -16.030337,-0.29422 c 0,-0.14967 -0.565547,-0.32013 -1.256771,-0.3788 -1.081341,-0.0918 -1.043984,-0.10304 0.267627,-0.0806 1.351158,0.0231 2.056577,0.37577 1.273571,0.63677 -0.156435,0.0521 -0.284427,-0.0276 -0.284427,-0.17733 z m 11.906251,-0.83029 c -0.523765,-0.16774 -0.551304,-0.21184 -0.132292,-0.21184 0.291042,0 0.826823,0.0953 1.190625,0.21184 0.523765,0.16773 0.551304,0.21183 0.132292,0.21183 -0.291042,0 -0.826823,-0.0953 -1.190625,-0.21183 z m 2.250426,-0.53079 c 0.264197,-0.29194 0.537741,-0.47341 0.607877,-0.40327 0.177783,0.17778 -0.482129,0.93406 -0.81504,0.93406 -0.150257,0 -0.05703,-0.23886 0.207163,-0.53079 z m -4.10251,-0.15109 c -0.661458,-0.39853 -0.661458,-0.39853 0,-0.22547 0.363802,0.0952 0.774568,0.27875 0.912813,0.40792 0.404141,0.37759 -0.175628,0.26172 -0.912813,-0.18245 z m 1.190625,-1.05572 c -1.058333,-0.92397 -1.058333,-0.92397 0.324974,-0.22007 0.760819,0.38715 1.31934,0.80741 1.241156,0.93391 -0.226199,0.366 -0.441863,0.2677 -1.56613,-0.71384 z m -14.857617,-0.18063 c -0.06741,-0.10914 0.353679,-0.19844 0.935762,-0.19844 0.582083,0 1.133118,-0.12101 1.224522,-0.2689 0.180354,-0.29182 0.658791,-0.10374 0.658791,0.25898 0,0.2813 -2.652906,0.47738 -2.819075,0.20836 z m 12.462119,-1.01525 c -0.250038,-0.40457 0.292602,-0.87279 0.790214,-0.68184 0.228062,0.0875 0.414659,0.34145 0.414659,0.5643 0,0.46241 -0.93534,0.55366 -1.204873,0.11754 z m -11.574557,-0.44716 c -1.155462,-0.29142 -1.514262,-0.49286 -1.45217,-0.81527 0.124449,-0.64621 1.002433,-0.72111 1.002433,-0.0855 0,0.58669 0.869267,0.91092 1.793915,0.66912 0.333315,-0.0872 0.587335,-0.0326 0.587335,0.12624 0,0.48429 -0.352953,0.50356 -1.931513,0.10542 z m 14.374593,-0.57778 c -0.214067,-0.13538 -0.32033,-0.31503 -0.236141,-0.39922 0.08419,-0.0842 0.303679,0.0284 0.487755,0.2502 0.381686,0.4599 0.308501,0.50325 -0.251614,0.14902 z m -10.590996,-0.27492 c 0,-0.14552 0.112035,-0.26458 0.248968,-0.26458 0.136933,0 0.322553,0.11906 0.41249,0.26458 0.08994,0.14552 -0.0221,0.26459 -0.248968,0.26459 -0.22687,0 -0.41249,-0.11907 -0.41249,-0.26459 z m 5.685086,-0.96829 c 0.129785,-0.47467 -0.0017,-0.62352 -0.776365,-0.87919 -0.512931,-0.16929 -0.991783,-0.40355 -1.064116,-0.52059 -0.151221,-0.24468 2.006698,0.45392 2.307949,0.74717 0.109686,0.10677 0.01422,0.42586 -0.212138,0.70908 -0.402458,0.50355 -0.408108,0.5023 -0.25533,-0.0565 z m -7.471024,-0.53701 c 0.254662,-0.0665 0.67138,-0.0665 0.926042,0 0.254661,0.0666 0.0463,0.121 -0.463021,0.121 -0.509323,0 -0.717682,-0.0545 -0.463021,-0.121 z m 2.38125,-0.54069 c 0.545703,-0.22388 0.992188,-0.49605 0.992188,-0.6048 0,-0.10876 -0.803672,-0.30682 -1.785938,-0.44014 -1.646033,-0.22342 -1.875397,-0.19198 -2.927929,0.40133 -0.851179,0.47981 -1.218385,0.56735 -1.441979,0.34376 -0.223595,-0.2236 -0.130947,-0.29999 0.363817,-0.29999 0.643107,0 1.825096,-0.64641 1.558279,-0.8522 -0.07253,-0.0559 -0.459297,-0.30654 -0.85948,-0.5569 -0.400182,-0.25035 -0.723983,-0.60127 -0.719558,-0.77981 0.0045,-0.18124 0.12204,-0.12928 0.266115,0.11763 0.30608,0.52454 2.265739,1.18425 4.025318,1.35509 1.502744,0.1459 1.599098,-0.0809 0.297973,-0.70136 -0.52734,-0.25147 -0.896121,-0.51989 -0.819515,-0.5965 0.07661,-0.0766 0.383588,0.0133 0.682182,0.19976 0.840349,0.52481 1.001106,0.0394 0.196548,-0.59342 -0.393681,-0.30967 -0.653161,-0.62566 -0.576621,-0.7022 0.07654,-0.0765 0.585353,0.29422 1.130698,0.82392 1.21286,1.17804 1.746564,1.21156 2.264465,0.14221 0.556405,-1.14885 0.743415,-0.62207 0.338847,0.95448 -0.29999,1.16902 -0.419344,1.32039 -1.03389,1.31116 -0.382112,-0.006 -0.694749,0.0719 -0.694749,0.17255 0,0.20713 -1.512627,0.7775 -1.957711,0.73821 -0.160186,-0.0141 0.155237,-0.20889 0.70094,-0.43278 z m 15.72066,-0.24706 c -0.09701,-0.097 -0.176388,-0.49885 -0.176388,-0.89297 0,-1.48313 -0.342151,-2.38943 -1.107931,-2.93471 -0.781565,-0.55652 -1.372733,-0.48743 -0.79266,0.0926 0.1722,0.1722 0.313091,0.4244 0.313091,0.56044 0,0.13604 -0.246767,-0.0664 -0.548371,-0.44979 -0.542826,-0.6901 -1.568296,-0.96058 -1.568296,-0.41366 0,0.15591 -0.188193,0.0953 -0.418206,-0.13472 -0.230013,-0.23002 -0.557435,-0.34012 -0.727604,-0.24467 -0.201761,0.11316 -0.19434,0.0496 0.02133,-0.18278 0.512276,-0.55191 0.412364,-0.72724 -0.753244,-1.32189 -0.596185,-0.30415 -1.015781,-0.6212 -0.932436,-0.70454 0.08335,-0.0833 0.323768,-0.009 0.534272,0.1661 0.429882,0.35677 2.020894,0.25322 3.153007,-0.20521 1.026173,-0.415527 1.07439,-0.386197 0.456103,0.27745 -0.683809,0.73398 -0.682365,1.00844 0.0053,1.00844 0.29963,0 0.476824,0.10996 0.393764,0.24435 -0.215084,0.34802 1.205192,1.29376 2.208301,1.47048 0.765668,0.1349 0.821368,0.10147 0.580568,-0.34846 -0.146486,-0.27372 -0.576802,-0.7011 -0.956251,-0.94972 -0.533255,-0.34941 -0.622947,-0.53273 -0.395006,-0.80739 0.226472,-0.27288 0.155524,-0.45296 -0.305749,-0.77604 -0.330358,-0.231397 -0.477853,-0.420717 -0.327766,-0.420717 0.150087,0 0.504001,0.17481 0.786476,0.388457 0.909118,0.68763 0.977745,0.43456 0.230906,-0.851477 -0.401413,-0.69122 -0.79968,-1.3163 -0.885037,-1.38906 -0.444972,-0.3793 -1.81026,-2.62237 -1.677168,-2.75546 0.306146,-0.30614 0.471525,-0.13201 0.985958,1.03817 0.287276,0.65347 0.612278,1.18812 0.722227,1.18812 0.109949,0 0.442872,0.47625 0.739829,1.05834 0.633533,1.24182 0.921201,1.36485 0.708863,0.30316 -0.13394,-0.66969 0.174902,-1.3615 0.607818,-1.3615 0.0839,0 0.1084,0.4626 0.0545,1.02799 -0.0885,0.92743 -0.0244,1.05479 0.65446,1.30203 0.64772,0.23588 0.67178,0.276947 0.17281,0.294927 -0.92141,0.0332 -0.96908,0.49286 -0.13255,1.27807 0.42609,0.39996 0.85013,1.04629 0.94231,1.43629 0.0922,0.39001 0.31625,0.86673 0.49794,1.05938 0.18168,0.19264 0.50197,0.58792 0.711747,0.87839 0.32958,0.45635 0.29725,0.44985 -0.237857,-0.0478 -0.34061,-0.31677 -0.92897,-1.1351 -1.30747,-1.81852 -0.52376,-0.9457 -0.92523,-1.32216 -1.680363,-1.57569 -1.223698,-0.41084 -1.258295,-0.16497 -0.116456,0.82763 0.832869,0.72402 0.876209,0.85192 0.885549,2.61336 0.005,1.01865 -0.0377,1.35889 -0.0958,0.7561 -0.0984,-1.02158 -0.931823,-2.23941 -1.288425,-1.88281 -0.08188,0.0819 -0.02193,0.83553 0.133212,1.67478 0.281059,1.52038 0.265647,1.85944 -0.0693,1.5245 z m -23.870846,-0.64042 c -0.332653,-0.53824 0.326738,-0.85981 0.91631,-0.44685 0.302379,0.21179 0.471163,0.46369 0.375075,0.55978 -0.2755,0.2755 -1.095647,0.20378 -1.291385,-0.11293 z m 19.767484,-1.82903 c 0,-0.3638 0.06005,-0.51263 0.133452,-0.33073 0.0734,0.1819 0.0734,0.47956 0,0.66146 -0.0734,0.1819 -0.133452,0.0331 -0.133452,-0.33073 z m -14.363026,-0.7276 c -0.329108,-0.41965 -0.319749,-0.429 0.0999,-0.0999 0.254661,0.19972 0.463021,0.40808 0.463021,0.46302 0,0.21776 -0.217272,0.0776 -0.562916,-0.36313 z m 7.323646,-0.0508 c -0.255769,-0.28262 -0.41462,-0.6651 -0.353004,-0.84995 0.0621,-0.1863 0.301001,0.0427 0.53604,0.51386 0.491183,0.9846 0.458375,1.04484 -0.183036,0.33609 z m 2.367395,0.24927 c -0.306545,-0.13173 -0.372776,-0.23521 -0.15743,-0.24599 0.286798,-0.0144 0.262314,-0.1395 -0.107153,-0.54776 -0.26339,-0.29104 -0.37114,-0.5254 -0.239445,-0.5208 0.272366,0.009 1.694653,1.21316 1.694653,1.43415 0,0.20494 -0.56821,0.14786 -1.190625,-0.1196 z m -12.41347,-0.22907 c -0.113975,-0.18442 -0.135774,-0.40676 -0.04844,-0.49409 0.236791,-0.23679 0.494973,0.11147 0.367079,0.49516 -0.08962,0.26886 -0.151942,0.26865 -0.318638,-10e-4 z m 15.80847,-0.23395 c -0.275046,-0.25466 -0.853783,-0.86636 -1.286083,-1.35933 -0.786,-0.89631 -0.786,-0.89631 -0.0584,-0.43259 0.400182,0.25504 0.727604,0.55285 0.727604,0.66179 0,0.10894 0.313892,0.51197 0.697538,0.89561 0.77384,0.77384 0.708138,0.96486 -0.08066,0.23452 z m -6.966875,-0.0662 c 0,-0.14552 0.119062,-0.26458 0.264583,-0.26458 0.145521,0 0.264583,0.11906 0.264583,0.26458 0,0.14552 -0.119062,0.26458 -0.264583,0.26458 -0.145521,0 -0.264583,-0.11906 -0.264583,-0.26458 z m -7.672917,-1.23696 c -0.661459,-0.67581 -0.661459,-0.67581 0.06615,-0.21816 0.400182,0.2517 0.727604,0.56302 0.727604,0.6918 0,0.32044 -0.03974,0.29673 -0.79375,-0.47364 z m 1.624225,-0.21825 c -0.480407,-0.50932 -0.714965,-0.921 -0.521242,-0.91484 0.271951,0.009 1.721707,1.84088 1.456597,1.84088 -0.03404,0 -0.454949,-0.41672 -0.935355,-0.92604 z m 1.799737,0.66146 c -0.02704,-0.0728 -0.07898,-0.69717 -0.115429,-1.38757 -0.03645,-0.69041 -0.215043,-1.434547 -0.39688,-1.653647 -0.267558,-0.32239 -0.260215,-0.39836 0.0385,-0.39836 0.469941,0 1.031884,2.317757 0.737704,3.042707 -0.118104,0.29104 -0.236858,0.46963 -0.263898,0.39687 z m 2.211187,-0.58892 c -0.600133,-0.7749 -0.637099,-1.08914 -0.06387,-0.54291 0.339364,0.32338 0.55131,0.65368 0.470991,0.734 -0.08032,0.0803 -0.263526,-0.006 -0.407126,-0.19109 z m 4.003084,-0.75506 c -0.362695,-0.40077 -0.697231,-0.51037 -1.231632,-0.40349 -0.54816,0.10964 -0.733684,0.0435 -0.733684,-0.26135 0,-0.29366 -0.155197,-0.35883 -0.553487,-0.23242 -0.443793,0.14086 -0.53179,0.0788 -0.444008,-0.312897 0.06389,-0.2851 -0.278452,-0.97459 -0.822044,-1.65564 -1.052367,-1.31847 -0.491508,-1.15608 0.624601,0.18085 0.88383,1.05869 1.407445,1.35426 3.443896,1.943997 1.070871,0.31012 1.353414,0.46587 0.8682,0.47858 -0.526647,0.0138 -0.67851,0.12515 -0.567005,0.41573 0.21123,0.55045 0.0026,0.49574 -0.584837,-0.15336 z M 74.09179,100.90921 c -0.443337,-0.15465 -0.421205,-0.77369 0.03391,-0.948327 0.353858,-0.13579 0.958282,0.266037 0.958282,0.637077 0,0.25985 -0.59998,0.44806 -0.992187,0.31125 z m 6.636293,-1.239237 c -0.378227,-0.57699 -0.48879,-0.98964 -0.331662,-1.23784 0.189083,-0.29868 0.236505,-0.27889 0.239755,0.10001 0.0022,0.25978 0.198773,0.76952 0.436766,1.13274 0.237994,0.363217 0.385418,0.707697 0.327611,0.765507 -0.05781,0.0578 -0.360419,-0.28438 -0.67247,-0.760417 z m 4.420218,-0.42908 c -0.794779,-0.28579 -1.486598,-0.51962 -1.537375,-0.51962 -0.05078,0 -0.0102,-0.83344 0.09018,-1.85208 0.13723,-1.39267 0.101367,-1.85209 -0.144578,-1.85209 -0.179893,0 -0.263557,-0.16553 -0.18592,-0.36785 0.148282,-0.38641 -0.453226,-1.15649 -1.447079,-1.85262 -0.324452,-0.22725 -0.515016,-0.48808 -0.423474,-0.57963 0.09154,-0.0915 0.479047,0.14617 0.861124,0.52825 0.382077,0.38208 0.972776,0.8769 1.312665,1.0996 0.56184,0.36813 0.60531,0.54463 0.478518,1.94292 -0.09037,0.99664 -0.03455,1.60284 0.158579,1.7222 0.163922,0.10131 0.29804,0.39138 0.29804,0.6446 0,0.46654 1.192443,1.06376 2.778126,1.39138 0.79375,0.16399 0.79375,0.16399 0,0.18928 -0.436563,0.0139 -1.444024,-0.20854 -2.238802,-0.49434 z m 4.88486,0.0539 c -0.05812,-0.0581 -0.498659,-0.20857 -0.978986,-0.33435 -0.829035,-0.21709 -0.81726,-0.22365 0.232217,-0.12934 0.935676,0.0841 1.081646,0.0325 0.950031,-0.33595 -0.08553,-0.23942 -0.105503,-0.37577 -0.04439,-0.30301 0.06112,0.0728 0.330829,0.39373 0.59936,0.71327 0.478926,0.5699 0.477359,0.58016 -0.08217,0.53801 -0.313723,-0.0236 -0.617954,-0.0905 -0.676069,-0.14863 z m 2.005038,-0.0135 c -0.01149,-0.20135 -0.34831,-0.64769 -0.748492,-0.99186 -0.400182,-0.34418 -0.59953,-0.62592 -0.442996,-0.6261 0.464368,-5.2e-4 1.503549,1.2556 1.352133,1.63441 -0.111674,0.27939 -0.143954,0.27608 -0.160645,-0.0164 z m 1.154577,-0.40602 c -0.282246,-0.20639 -0.443179,-0.44524 -0.357628,-0.53079 0.08555,-0.0856 0.371707,0.0833 0.635904,0.37524 0.56209,0.6211 0.446653,0.68563 -0.278276,0.15555 z m -6.084505,-0.17698 c -0.09777,-0.1582 -0.07404,-0.39137 0.05274,-0.51815 0.312918,-0.31292 1.001613,0.14259 0.773538,0.51162 -0.231126,0.37397 -0.597401,0.37686 -0.826281,0.007 z m -10.701377,-0.35821 c 0,-0.63152 0.429299,-0.6968 0.931688,-0.14167 0.46007,0.50838 0.45369,0.52293 -0.229223,0.52293 -0.435238,0 -0.702465,-0.14503 -0.702465,-0.38126 z m 3.439583,-0.67707 c -0.238467,-0.15411 -0.2711,-0.2581 -0.08176,-0.26053 0.173312,-0.002 0.388698,0.11501 0.478635,0.26053 0.203016,0.32849 0.111423,0.32849 -0.396875,0 z m 12.435417,-0.0841 c -0.818684,-0.68465 -1.941421,-2.03252 -1.69303,-2.03252 0.141931,0 0.705914,0.53578 1.253295,1.19062 1.026912,1.22852 1.123758,1.41393 0.439735,0.8419 z m -2.695442,-0.0966 c 0.190996,-0.0764 0.419199,-0.067 0.507118,0.0209 0.08792,0.0879 -0.06835,0.15045 -0.347266,0.13896 -0.308224,-0.0127 -0.370919,-0.0754 -0.159852,-0.15985 z m -11.922787,-0.27659 c -0.545703,-0.0571 -0.992188,-0.21566 -0.992188,-0.35239 0,-0.38642 1.163553,-0.29265 1.735368,0.13985 0.282475,0.21365 0.454059,0.37223 0.381299,0.35239 -0.07276,-0.0198 -0.578776,-0.0828 -1.124479,-0.13985 z m 10.709627,-0.64669 c -0.5719,-0.5719 -0.348576,-0.8793 0.668643,-0.92036 0.669566,-0.027 0.825767,0.0223 0.481575,0.15203 -0.280185,0.10562 -0.58054,0.39477 -0.667457,0.64255 -0.124868,0.35597 -0.226176,0.38236 -0.482761,0.12578 z m -7.654166,-0.27865 c -0.514547,-0.66439 -0.634726,-0.99858 -0.359097,-0.99858 0.154109,0 0.280198,0.16867 0.280198,0.37482 0,0.20616 0.148828,0.42798 0.33073,0.49295 0.181901,0.065 0.258398,0.19682 0.169994,0.29302 -0.0884,0.0962 -0.278225,0.0232 -0.421825,-0.16221 z m 11.413832,-0.5346 c -0.777105,-0.85893 -0.777105,-0.85893 0.01664,-0.2024 0.436562,0.36109 0.906859,0.74761 1.045104,0.85893 0.1561,0.1257 0.149793,0.2024 -0.01665,0.2024 -0.147399,0 -0.617696,-0.38652 -1.045104,-0.85893 z m -6.558076,-0.0586 c -0.08197,-0.21362 -0.03518,-0.45877 0.103984,-0.54478 0.139166,-0.086 0.253028,0.0888 0.253028,0.3884 0,0.63885 -0.147138,0.7033 -0.357012,0.15638 z m -6.720592,-0.72827 c -0.327422,-0.15791 -0.595313,-0.39217 -0.595313,-0.52057 0,-0.27148 0.951467,0.19194 1.191505,0.58033 0.193207,0.31262 0.171392,0.31043 -0.596192,-0.0598 z m 8.439325,-0.47493 c -0.512838,-0.69365 -0.535124,-0.81886 -0.170638,-0.95873 0.230582,-0.0885 0.456533,-0.1164 0.502115,-0.062 0.117525,0.14016 0.42608,1.81863 0.33432,1.81863 -0.04176,0 -0.341365,-0.35904 -0.665797,-0.79785 z m 3.507932,-0.32663 c -0.504028,-0.59531 -0.504028,-0.59531 0.09128,-0.0913 0.327422,0.27722 0.595312,0.54511 0.595312,0.59531 0,0.21174 -0.212935,0.0554 -0.686597,-0.50402 z m -10.695513,-0.0722 c -0.279608,-0.3369 -0.263239,-0.37562 0.09989,-0.23627 0.238864,0.0917 0.434298,0.27298 0.434298,0.40293 0,0.34024 -0.15316,0.29246 -0.534193,-0.16666 z m -3.963724,-0.6554 c 0,-0.14552 0.119063,-0.26458 0.264584,-0.26458 0.145521,0 0.264583,0.11906 0.264583,0.26458 0,0.14552 -0.119062,0.26458 -0.264583,0.26458 -0.145521,0 -0.264584,-0.11906 -0.264584,-0.26458 z m 8.614209,-0.23991 c -0.08155,-0.13195 0.09002,-0.17759 0.38126,-0.10143 0.617799,0.16156 0.695893,0.34134 0.148272,0.34134 -0.209693,0 -0.447983,-0.10796 -0.529532,-0.23991 z m -6.762125,-0.55384 c -0.218281,-0.14106 -0.277813,-0.25648 -0.132292,-0.25648 0.145521,0 0.443177,0.11542 0.661459,0.25648 0.218281,0.14106 0.277812,0.25648 0.132291,0.25648 -0.145521,0 -0.443177,-0.11542 -0.661458,-0.25648 z m 5.357813,-0.33073 c 0.06063,-0.1819 0.268993,-0.33073 0.46302,-0.33073 0.194028,0 0.402388,0.14883 0.463021,0.33073 0.06558,0.19674 -0.122002,0.33073 -0.463021,0.33073 -0.341018,0 -0.528601,-0.13399 -0.46302,-0.33073 z m -7.188602,-0.22327 c -0.492069,-0.19669 -0.567899,-0.32814 -0.327789,-0.56825 0.24011,-0.24011 0.447712,-0.17704 0.897397,0.27264 0.624128,0.62413 0.462351,0.70809 -0.569608,0.29561 z m 5.138081,38.160397 c 2.38125,-0.17298 2.38125,-0.17298 -0.926042,-0.50089 -1.81901,-0.18036 -5.619628,-0.45381 -8.445817,-0.60769 -2.826189,-0.15387 -5.356267,-0.39629 -5.622396,-0.53872 -0.547585,-0.29306 -0.656586,-1.03198 -0.153142,-1.03815 0.220789,-0.003 0.199536,-0.087 -0.06393,-0.25356 -0.504649,-0.31905 -0.693457,-0.0965 -0.891789,1.05137 -0.237438,1.37415 0.107481,1.69728 2.004314,1.87773 2.269057,0.21586 11.177621,0.22212 14.098806,0.01 z m 64.756774,-0.26289 c 0.72432,-0.28744 0.90608,-0.85177 0.56262,-1.74683 -0.15203,-0.39617 -0.20264,-0.39585 -0.64456,0.004 -0.60958,0.55166 -2.94862,0.81109 -10.56754,1.17208 -3.27422,0.15514 -6.48891,0.36839 -7.14375,0.47389 -1.02724,0.16549 -0.8094,0.21437 1.5875,0.35618 4.25248,0.25158 15.36636,0.0737 16.20573,-0.2594 z m -37.99785,-11.33424 c -0.10839,-0.10839 -0.30784,-0.0219 -0.44322,0.19214 -0.40737,0.64415 -0.28518,0.93041 0.19302,0.45221 0.246,-0.246 0.35859,-0.53596 0.2502,-0.64435 z m 1.02914,-2.39521 c 0.22593,-0.54571 0.65346,-1.17824 0.95005,-1.40564 0.39341,-0.30162 0.51584,-0.65116 0.45266,-1.29236 -0.0866,-0.87892 -0.0866,-0.87892 -1.0788,0.8043 -0.5457,0.92577 -0.99218,1.95382 -0.99218,2.28455 0,0.86099 0.19789,0.74525 0.66827,-0.39085 z m -8.64908,-0.1516 c -0.669098,-0.59168 -1.029638,-1.1786 -1.164018,-1.8949 -0.12188,-0.6497 -0.53812,-1.38861 -1.11315,-1.97608 -0.50517,-0.5161 -1.09638,-1.20625 -1.313806,-1.53367 -0.483667,-0.72834 -0.992014,-0.80041 -0.609925,-0.0865 0.149781,0.27986 0.403719,1.1215 0.564307,1.8703 0.160588,0.74879 0.444064,1.41981 0.629954,1.49114 0.18588,0.0713 0.33797,0.44512 0.33797,0.83065 0,0.38553 0.10418,0.73956 0.23151,0.78673 0.12733,0.0472 0.88635,0.36625 1.68672,0.70907 1.886578,0.80809 1.886748,0.80804 0.750438,-0.19678 z m -2.188638,-1.68907 c -0.14359,-0.37709 -0.1132,-0.40748 0.14811,-0.14812 0.18082,0.17948 0.26212,0.39297 0.18065,0.47444 -0.0815,0.0815 -0.2294,-0.0654 -0.32876,-0.32632 z m 4.084028,2.43239 c 0,-0.33103 -0.71408,-1.34313 -1.27333,-1.80476 -0.38998,-0.3219 -0.5957,-0.75725 -0.56728,-1.20044 0.10016,-1.56177 -0.0353,-2.34407 -0.47449,-2.73989 -0.254668,-0.22951 -0.928038,-0.85229 -1.496398,-1.38394 -1.761972,-1.64817 -3.775984,-3.31842 -4.001401,-3.31842 -0.118374,0 -0.433689,-0.19771 -0.700701,-0.43935 -0.267012,-0.24164 -0.539555,-0.38527 -0.605652,-0.31918 -0.270284,0.27029 0.207663,1.24659 0.741698,1.51506 0.510392,0.25659 0.486426,0.27208 -0.221403,0.14306 -0.79375,-0.14469 -0.79375,-0.14469 -0.05139,0.53619 0.408297,0.37449 0.892286,0.68089 1.07553,0.68089 0.326624,0 2.427681,1.99869 3.198531,3.0427 0.49279,0.66742 0.51275,0.36484 0.0486,-0.7361 -0.19743,-0.46827 -0.966239,-1.41694 -1.708457,-2.10817 -0.742218,-0.69122 -1.193265,-1.25677 -1.002327,-1.25677 0.489856,0 3.069754,2.78749 3.069754,3.31676 0,0.24091 0.24012,0.77523 0.53359,1.18737 0.29348,0.41215 0.63176,1.27481 0.75173,1.91701 0.1605,0.8591 0.491426,1.42157 1.252346,2.12859 0.96086,0.8928 1.43108,1.16861 1.43108,0.83939 z m 0.13421,-1.76581 c -0.40276,-0.77308 -0.89538,-1.64045 -1.09471,-1.92749 -0.33567,-0.48337 -0.36242,-0.44988 -0.36242,0.45371 0,0.69125 0.14806,1.05484 0.50798,1.24747 0.27939,0.14952 0.64943,0.70045 0.82231,1.22429 0.21557,0.65318 0.39992,0.86684 0.58673,0.68003 0.18682,-0.18682 0.0423,-0.71404 -0.45989,-1.67801 z m 8.14953,1.0418 c 1.43664,-1.11398 1.49699,-1.20905 1.50179,-2.36564 0.002,-0.53711 0.11374,-1.04436 0.2478,-1.12721 0.13406,-0.0829 0.45061,-0.71496 0.70345,-1.40468 0.25284,-0.68972 1.00188,-1.81958 1.66454,-2.51081 1.66787,-1.73976 1.02946,-1.58339 -0.81011,0.19844 -0.82631,0.80036 -1.62618,1.45521 -1.7775,1.45521 -0.45606,0 -1.10118,1.52887 -1.26198,2.99079 -0.0872,0.79271 -0.3397,1.54287 -0.59635,1.77171 -0.45746,0.40786 -1.17699,1.85208 -0.92273,1.85208 0.0782,0 0.64116,-0.38695 1.25109,-0.85989 z m -8.64689,-5.7845 c -0.13215,-0.66074 -0.83868,-1.8336 -2.200158,-3.65231 -0.0454,-0.0606 -0.14903,-0.0437 -0.23032,0.0375 -0.32104,0.32105 1.944808,4.43832 2.442538,4.43832 0.084,0 0.0785,-0.3706 -0.0121,-0.82356 z m 4.06732,-5.44707 c 0,-0.53207 -0.0765,-0.63789 -0.29972,-0.41466 -0.16484,0.16485 -0.22811,0.48632 -0.14059,0.71438 0.2422,0.63118 0.44031,0.49634 0.44031,-0.29972 z m 0.47974,-2.21201 c -0.0545,-0.16358 -0.27264,-0.13263 -0.56334,0.0799 -0.30589,0.22367 -0.41059,0.51307 -0.2948,0.81483 0.16614,0.43294 0.20831,0.42695 0.56335,-0.0799 0.21107,-0.30135 0.34373,-0.66802 0.29479,-0.81483 z m 3.77327,-9.112147 c 3.6e-4,-0.14552 0.5445,-0.8599 1.2092,-1.5875 0.6647,-0.72761 0.96384,-0.96573 0.66477,-0.52917 -0.86873,1.26808 -1.87468,2.40431 -1.87397,2.11667 z"
       id="path9" /></g></svg>
