<?xml version="1.0" encoding="UTF-8" standalone="no"?>
<!-- Created with Inkscape (http://www.inkscape.org/) -->

<svg
   width="106.8534mm"
   height="98.474625mm"
   viewBox="0 0 106.8534 98.474625"
   version="1.1"
   id="svg1"
   xml:space="preserve"
   xmlns="http://www.w3.org/2000/svg"
   xmlns:svg="http://www.w3.org/2000/svg"><defs
     id="defs1" /><g
     id="layer1"
     transform="translate(-83.820375,-185.92856)"><g
       id="g392"
       transform="translate(-121.7906,46.842538)"><path
         style="fill:#e6e6e6"
         d="m 253.31001,237.21999 c -0.0868,-0.22621 -0.0266,-0.78773 0.13379,-1.24783 0.16039,-0.4601 0.29265,-2.0987 0.29392,-3.64133 l 0.002,-2.80479 0.87536,-0.92604 c 0.48144,-0.50932 1.43291,-1.55509 2.11437,-2.32394 l 1.23902,-1.39789 v -2.20773 c 0,-1.52413 0.10994,-2.29898 0.35507,-2.50241 0.58677,-0.48699 0.70326,-0.064 0.70326,2.55368 v 2.50018 l -1.53521,1.7552 c -2.96972,3.39528 -2.76585,2.86526 -2.65958,6.91458 l 0.0937,3.57187 -0.72911,0.0839 c -0.47336,0.0544 -0.78447,-0.0604 -0.88693,-0.32742 z m 1.43937,-0.51519 c 0.0517,-0.26845 -0.0442,-0.62427 -0.21321,-0.79072 -0.3871,-0.38133 -1.10387,0.4797 -0.88158,1.059 0.20119,0.52429 0.97886,0.33371 1.09479,-0.26828 z m -0.22021,-6.66521 c 0,-0.22687 -0.11906,-0.3389 -0.26458,-0.24896 -0.14552,0.0899 -0.26458,0.27555 -0.26458,0.41248 0,0.13694 0.11906,0.24897 0.26458,0.24897 0.14552,0 0.26458,-0.18562 0.26458,-0.41249 z m -10.91733,4.74595 c -0.0785,-0.12783 -0.22931,-3.09239 -0.33523,-6.58792 -0.16933,-5.58817 -0.14278,-6.39684 0.21987,-6.69782 0.89321,-0.7413 1.04031,0.44916 0.8401,6.79918 -0.17386,5.5142 -0.35061,7.09614 -0.72474,6.48656 z m 34.1539,0.0295 c -0.0803,-0.0803 -0.087,-0.96999 -0.015,-1.97711 0.0919,-1.28405 0.002,-2.22525 -0.30049,-3.15038 -0.3101,-0.94808 -0.43151,-2.29711 -0.43151,-4.79469 0,-3.16724 0.0411,-3.46756 0.46302,-3.38691 0.4041,0.0772 0.48884,0.57631 0.66592,3.922 0.43552,8.22872 0.35827,10.12732 -0.38196,9.38709 z m -12.60287,-1.12181 c 0.0491,-0.25466 0.26451,-0.46302 0.4788,-0.46302 0.2143,0 0.42976,0.20836 0.4788,0.46302 0.0626,0.32487 -0.0803,0.46302 -0.4788,0.46302 -0.3985,0 -0.54136,-0.13815 -0.4788,-0.46302 z M 240.10938,231.775 c -0.10561,-0.17088 -0.073,-0.42975 0.0726,-0.57527 0.17638,-0.17639 0.32858,-0.16102 0.4566,0.0461 0.10561,0.17088 0.0729,0.42976 -0.0726,0.57528 -0.17639,0.17639 -0.32859,0.16102 -0.4566,-0.0461 z m 29.31496,-0.69344 c -0.26146,-0.38139 -1.21952,-1.50777 -2.12902,-2.50307 l -1.65365,-1.80963 v -2.7886 c 0,-2.6122 0.0335,-2.78859 0.52917,-2.78859 0.49404,0 0.52917,0.17639 0.52917,2.65716 v 2.65717 l 1.20861,1.29211 c 0.77322,0.82663 1.60722,1.41826 2.3151,1.64231 0.82337,0.2606 1.12862,0.50626 1.19295,0.96008 0.19381,1.36718 -1.19623,1.84235 -1.99233,0.68106 z m 1.60959,-0.2454 c 0.16644,-0.43373 -0.49933,-1.17783 -1.05384,-1.17783 -0.60399,0 -0.74561,0.76133 -0.24461,1.31493 0.48243,0.53307 1.06488,0.47157 1.29845,-0.1371 z m -50.01743,-0.13713 c -0.64534,-0.23993 -0.99568,-1.06314 -0.76361,-1.79429 0.18087,-0.5699 1.2975,-1.14729 1.82632,-0.94436 0.22632,0.0868 1.64999,-1.22062 3.75302,-3.44669 3.17076,-3.35626 4.09069,-4.0844 4.09069,-3.23786 0,0.19181 -1.54596,1.94799 -3.43547,3.90261 -2.12056,2.19362 -3.43705,3.76235 -3.43959,4.09859 -0.008,1.08932 -1.0204,1.79787 -2.03136,1.422 z m 1.71071,-1.49918 c 0.0647,-0.64004 -0.0375,-0.82611 -0.52323,-0.95313 -0.75962,-0.19865 -1.80606,0.46079 -1.80606,1.13813 0,0.27943 0.26237,0.69183 0.58304,0.91644 0.49584,0.34729 0.66403,0.35494 1.12448,0.0511 0.30029,-0.19814 0.57722,-0.71147 0.62177,-1.15256 z m 64.66917,0.0466 c -0.32342,-0.22654 -0.58804,-0.52419 -0.58804,-0.66146 0,-0.13727 0.23812,-0.0115 0.52917,0.27958 0.66822,0.66823 1.63503,0.67838 2.22778,0.0234 1.15214,-1.2731 -0.31857,-3.10806 -1.88587,-2.35294 -0.39402,0.18984 -0.79887,0.64282 -0.89966,1.00663 -0.10079,0.3638 -0.19512,0.47717 -0.20963,0.25193 -0.0145,-0.22523 -1.46198,-1.39528 -3.21661,-2.60011 -2.87975,-1.97739 -3.49407,-2.61674 -2.74635,-2.85824 0.13642,-0.0441 1.31961,0.69832 2.62929,1.64974 3.80302,2.76269 3.46558,2.58716 4.36856,2.27239 1.96977,-0.68667 3.53951,1.44602 2.11374,2.87179 -0.63434,0.63434 -1.52031,0.67908 -2.32238,0.11729 z m -36.51249,-4.41677 c 0.0717,-3.68305 0.0872,-3.77227 0.66872,-3.85486 0.59399,-0.0844 0.59531,-0.076 0.59531,3.77031 V 228.6 h -0.66872 -0.66872 z m 0.85319,2.95396 c -0.0852,-0.13784 -0.26767,-0.18091 -0.40551,-0.0957 -0.13784,0.0852 -0.18091,0.26767 -0.0957,0.40551 0.0852,0.13784 0.26766,0.18092 0.4055,0.0957 0.13784,-0.0852 0.18092,-0.26767 0.0957,-0.40551 z m -0.20052,-5.99667 c -0.0666,-0.25466 -0.121,-0.0463 -0.121,0.46302 0,0.50932 0.0545,0.71768 0.121,0.46302 0.0665,-0.25466 0.0665,-0.67138 0,-0.92604 z m 30.42109,6.63663 c -0.36422,-0.36421 -0.15713,-0.88194 0.35277,-0.88194 0.35278,0 0.52917,0.17639 0.52917,0.52916 0,0.50991 -0.51773,0.717 -0.88194,0.35278 z m 9.4587,-1.44703 c -0.16253,-0.26298 0.23158,-0.28287 6.50449,-0.32825 3.95283,-0.0286 4.76082,-0.10466 5.523,-0.51993 0.81435,-0.44369 0.92958,-0.44963 1.31157,-0.0676 0.94122,0.94122 0.0891,1.08247 -6.72203,1.11425 -3.56164,0.0166 -6.53931,-0.0727 -6.61703,-0.19843 z m -61.49343,-0.34534 c 0,-0.20969 0.095,-0.43996 0.21107,-0.51171 0.33848,-0.20919 0.93271,0.27608 0.73326,0.59881 -0.26252,0.42476 -0.94433,0.36188 -0.94433,-0.0871 z m 60.24037,-3.91822 c -0.36524,-0.61846 -1.09093,-1.53479 -1.61264,-2.03628 -1.05977,-1.01869 -1.17277,-1.33716 -0.47448,-1.33716 0.26074,0 0.99991,0.53578 1.64259,1.19063 0.64268,0.65484 1.30912,1.19062 1.48098,1.19062 0.17186,0 0.57892,0.21575 0.90457,0.47945 0.82918,0.67143 0.51881,1.63722 -0.52616,1.63722 -0.60271,0 -0.88175,-0.22177 -1.41486,-1.12448 z m 2.00798,0.52917 c 0.21469,-0.61545 -0.12451,-0.99219 -0.89332,-0.99219 -0.84703,0 -0.88879,0.0689 -0.49155,0.81114 0.30649,0.5727 1.20719,0.69044 1.38487,0.18105 z m -21.93114,-0.31806 c -0.2019,-0.52614 0.0972,-0.93871 0.68052,-0.93871 0.52012,0 0.80079,0.45419 0.61312,0.99218 -0.15915,0.45626 -1.11317,0.41683 -1.29364,-0.0535 z m 0.8142,-0.12668 c 0.0837,-0.13547 0.0312,-0.32109 -0.11667,-0.41249 -0.1479,-0.0914 -0.2689,0.0194 -0.2689,0.2463 0,0.46475 0.15876,0.53318 0.38557,0.16619 z m -49.50172,-1.20714 c -0.0916,-0.23882 -0.0397,-0.56108 0.11531,-0.71614 0.40312,-0.40313 1.16692,-0.0347 1.06162,0.5121 -0.11729,0.60903 -0.96511,0.75602 -1.17693,0.20404 z m -8.02331,-0.51822 c -0.50774,-0.61179 -0.21396,-1.29933 0.76395,-1.78788 0.49789,-0.24874 1.48276,-1.02108 2.18862,-1.71633 l 1.28338,-1.26408 3.79403,-0.0981 c 2.61794,-0.0677 3.97797,3.4e-4 4.38745,0.21948 1.22136,0.65366 0.12941,0.87687 -4.04928,0.82774 l -4.08453,-0.048 -1.08875,1.23688 c -0.59881,0.68029 -1.08875,1.49397 -1.08875,1.80818 0,1.10908 -1.41089,1.65982 -2.10612,0.82213 z m 1.52404,-0.19792 c 0.54746,-0.54747 0.38188,-1.27 -0.29104,-1.27 -0.85771,0 -1.28367,0.48897 -0.95727,1.09886 0.30075,0.56196 0.79036,0.62908 1.24831,0.17114 z m 78.49567,-3.42313 c -2.05693,-1.97474 -2.76376,-3.13854 -1.90618,-3.13854 0.18511,0 1.33336,1.002 2.55167,2.22666 1.61805,1.62651 2.45442,2.27157 3.10301,2.39324 1.28701,0.24145 1.08913,0.67177 -0.30892,0.67177 -1.13761,0 -1.30781,-0.10655 -3.43958,-2.15313 z m -63.22921,1.69824 c -0.70866,-0.17264 -1.42421,-0.83435 -1.90259,-1.75944 -0.75101,-1.4523 0.0732,-3.17891 1.83644,-3.84692 l 0.7276,-0.27566 v -6.07474 c 0,-3.34111 0.11612,-6.38015 0.25804,-6.75342 0.28943,-0.76126 1.17919,-0.92275 1.43345,-0.26017 0.0883,0.23018 0.1606,3.39016 0.1606,7.02217 0,6.37788 0.0198,6.63043 0.57892,7.3867 0.4457,0.60283 0.79581,0.78731 1.52136,0.80163 0.51833,0.0102 1.18055,0.12884 1.47159,0.26359 0.36072,0.167 0.0659,0.19629 -0.92604,0.092 -1.20765,-0.12696 -1.57778,-0.29559 -2.17569,-0.9912 l -0.72049,-0.83821 -0.007,-6.82132 c -0.006,-5.8997 -0.0623,-6.84249 -0.4154,-6.978 -0.22456,-0.0862 -0.49245,-0.0727 -0.59531,0.0299 -0.10287,0.1026 -0.22257,3.14608 -0.26601,6.76328 l -0.079,6.57672 -0.93368,0.30815 c -0.9596,0.31669 -1.94823,1.55854 -1.95008,2.44954 -0.002,0.97253 0.82808,2.07415 1.93314,2.56546 1.08688,0.48322 1.10363,0.59658 0.0502,0.33995 z m 27.99657,-0.31206 c -1.06539,-0.66685 -1.40595,-1.30509 -1.40595,-2.63489 0,-0.81597 0.17712,-1.23249 0.78078,-1.83615 0.70227,-0.70227 2.31671,-1.36418 1.97373,-0.80921 -0.077,0.1245 -0.34873,0.22636 -0.60395,0.22636 -0.8364,0 -1.88597,1.37976 -1.88597,2.47927 0,1.28539 0.35109,1.91297 1.3629,2.4362 1.12303,0.58074 2.39899,0.30155 3.25135,-0.71143 0.37258,-0.44278 0.67741,-0.69913 0.67741,-0.56967 0,0.12946 -0.3386,0.55978 -0.75245,0.95627 -1.00924,0.96692 -2.30987,1.14424 -3.39785,0.46325 z m -26.12312,-0.13785 c 0.44831,-0.19521 1.07555,-0.79632 1.39386,-1.33582 l 0.57874,-0.9809 1.64885,0.17452 c 0.90687,0.096 5.38848,0.2304 9.95914,0.29869 8.54941,0.12775 9.55078,0.0271 8.37403,-0.84138 -0.41479,-0.30614 -0.43296,-0.37906 -0.0945,-0.37906 0.55808,0 0.82838,0.76573 0.43683,1.23752 -0.2627,0.31653 -1.66852,0.35627 -8.80196,0.24881 -4.66913,-0.0703 -9.16544,-0.20594 -9.99179,-0.30133 -1.47461,-0.17024 -1.51014,-0.1586 -1.91672,0.62763 -0.45992,0.88938 -1.37809,1.63247 -1.9975,1.61659 -0.22228,-0.006 -0.0373,-0.17007 0.41097,-0.36527 z m 32.6825,-1.83979 c -0.50686,-0.61073 -0.0619,-1.22758 0.86038,-1.19286 l 0.83158,0.0313 -0.79375,0.16974 c -0.4509,0.0964 -0.79375,0.34003 -0.79375,0.564 0,0.34084 1.32689,0.40461 9.78959,0.47049 5.38427,0.0419 10.1719,0.008 10.63918,-0.0762 1.04243,-0.18701 2.36739,-1.46362 2.69532,-2.59696 0.17204,-0.59458 0.25084,-0.67891 0.26768,-0.28645 0.0356,0.82987 -1.05344,2.292 -2.09808,2.81684 -0.82842,0.41622 -1.93254,0.46266 -11.00868,0.46303 -8.23082,3.3e-4 -10.14343,-0.0665 -10.38947,-0.36293 z m -2.37839,-0.37741 c -0.0521,-1.03216 -0.81806,-2.19194 -1.70146,-2.57616 -0.46352,-0.2016 -0.65047,-0.37121 -0.41543,-0.3769 1.06351,-0.0258 2.55319,1.99155 2.27262,3.07757 -0.0987,0.38219 -0.13149,0.35601 -0.15573,-0.12451 z m 34.91125,-0.69406 c -0.41073,-0.49489 -0.15011,-0.94644 0.54625,-0.94644 0.39553,0 0.51027,0.14735 0.4474,0.57458 -0.10565,0.71801 -0.56401,0.88955 -0.99365,0.37186 z m -57.88951,-0.0715 c 0.25743,-0.0671 0.61462,-0.0627 0.79375,0.01 0.17913,0.0725 -0.0315,0.12736 -0.46805,0.12197 -0.43657,-0.005 -0.58313,-0.0647 -0.3257,-0.13177 z m 28.575,0 c 0.25743,-0.0671 0.61462,-0.0627 0.79375,0.01 0.17914,0.0725 -0.0315,0.12736 -0.46805,0.12197 -0.43656,-0.005 -0.58313,-0.0647 -0.3257,-0.13177 z m 12.8438,0.003 c 0.19099,-0.0764 0.4192,-0.067 0.50712,0.0209 0.0879,0.0879 -0.0684,0.15045 -0.34727,0.13896 -0.30823,-0.0127 -0.37092,-0.0754 -0.15985,-0.15985 z m 1.85208,0 c 0.191,-0.0764 0.4192,-0.067 0.50712,0.0209 0.0879,0.0879 -0.0684,0.15045 -0.34727,0.13896 -0.30822,-0.0127 -0.37092,-0.0754 -0.15985,-0.15985 z m -35.06879,-0.2672 c 0.25743,-0.0671 0.61462,-0.0627 0.79375,0.01 0.17913,0.0725 -0.0315,0.12736 -0.46806,0.12197 -0.43656,-0.005 -0.58312,-0.0647 -0.32569,-0.13178 z m 36.97048,-0.0464 c 0.90337,-0.22825 1.44636,-0.59765 1.80136,-1.22546 0.16457,-0.29104 0.30284,-0.37493 0.30726,-0.18641 0.0149,0.63505 -1.25612,1.64308 -2.03044,1.61031 -0.73613,-0.0311 -0.7365,-0.0321 -0.0782,-0.19844 z m 2.24462,-17.10046 0.004,-15.34584 h 0.65784 c 0.39542,0 0.66944,0.15832 0.68693,0.39688 0.019,0.25858 -0.0106,0.27637 -0.0848,0.051 -0.0627,-0.19021 -0.31225,-0.30766 -0.55464,-0.26101 -0.40323,0.0776 -0.45234,1.37844 -0.57735,15.29479 l -0.13663,15.20997 z m 1.58305,0.52916 c -4e-5,-8.00364 0.0336,-11.31606 0.0747,-7.36091 0.0411,3.95514 0.0412,10.50357 8e-5,14.55208 -0.0411,4.0485 -0.0748,0.81248 -0.0748,-7.19117 z m -70.6784,12.68222 c -0.22052,-0.57467 0.33931,-1.11509 0.74003,-0.71438 0.33868,0.33868 0.12887,1.12904 -0.29972,1.12904 -0.15465,0 -0.35279,-0.1866 -0.44031,-0.41466 z m 84.22997,-1.63408 c -0.4107,-0.4107 -0.96477,-0.4513 -5.05699,-0.37054 -4.78135,0.0944 -5.70766,-0.009 -5.70766,-0.63622 0,-0.61192 1.14035,-0.72711 5.85178,-0.5911 3.45778,0.0998 4.57679,0.0498 4.93269,-0.2204 0.78744,-0.59788 1.88777,-0.45215 2.22825,0.29512 0.69465,1.52459 -1.05868,2.71253 -2.24807,1.52314 z m 2.0396,-0.39866 c 0.67985,-1.08578 -1.14519,-2.03467 -2.03093,-1.05594 -0.40603,0.44865 -0.40831,0.54123 -0.0268,1.08597 0.49203,0.70246 1.60925,0.68616 2.05769,-0.03 z m -93.49164,0.21114 c -0.17923,-0.21597 -0.24033,-0.63153 -0.13954,-0.9491 0.16449,-0.51824 0.30295,-0.55057 1.67551,-0.39124 1.94772,0.22611 1.9796,0.22749 4.10822,0.1787 l 1.81827,-0.0417 2.17779,-2.1257 2.1778,-2.12569 3.0154,0.0752 c 2.47055,0.0616 3.01539,0.14688 3.01539,0.47205 0,0.32457 -0.53711,0.41045 -2.94836,0.47142 l -2.94836,0.0746 -1.94643,2.07886 -1.94643,2.07887 -3.04806,-0.13712 c -2.60472,-0.11717 -3.10009,-0.0744 -3.40583,0.29399 -0.44349,0.53437 -1.18288,0.55598 -1.60537,0.0469 z m 1.26579,-0.49845 c 0.10905,-0.56227 -0.7242,-0.90554 -1.02331,-0.42157 -0.2576,0.4168 0.20692,1.10673 0.64659,0.96035 0.16006,-0.0533 0.32959,-0.29573 0.37672,-0.53878 z m 81.98475,-2.72783 c -0.40759,-0.40759 -0.17129,-1.15204 0.36567,-1.15204 0.41156,0 0.52656,0.14271 0.46302,0.57458 -0.0878,0.59672 -0.51308,0.89306 -0.82869,0.57746 z m -76.64649,-6.576 c 0,-0.24254 0.12799,-0.39831 0.28443,-0.34617 0.15643,0.0522 0.28442,0.20792 0.28442,0.34617 0,0.13824 -0.12799,0.29402 -0.28442,0.34616 -0.15644,0.0522 -0.28443,-0.10363 -0.28443,-0.34616 z m 74.39954,-0.20239 c -0.17139,-0.20651 -0.23327,-0.45381 -0.13752,-0.54956 0.0958,-0.0958 1.43745,-0.17409 2.98154,-0.17409 2.24816,0 2.93778,-0.0923 3.46163,-0.46303 0.49456,-0.35003 1.42894,-0.50338 3.82919,-0.62844 1.74625,-0.091 3.52103,-0.25725 3.94396,-0.36948 0.95644,-0.25381 1.62347,0.4339 1.19585,1.23291 -0.27899,0.5213 -1.42406,0.67488 -1.70023,0.22804 -0.0927,-0.14998 -1.40196,-0.26459 -3.02264,-0.26459 -2.52472,0 -2.94368,0.0665 -3.58209,0.56869 -0.61672,0.48511 -1.15905,0.58531 -3.69052,0.68185 -2.34406,0.0894 -3.03303,0.0343 -3.27917,-0.2623 z m 14.98,-1.32281 c 0.1053,-0.54678 -0.6585,-0.91522 -1.06162,-0.51209 -0.40312,0.40312 -0.0347,1.16692 0.5121,1.06162 0.25343,-0.0488 0.50071,-0.2961 0.54952,-0.54953 z m -86.82499,0.64447 c -0.24084,-0.26612 -0.43788,-0.66439 -0.43788,-0.88504 0,-0.60967 0.88092,-1.27694 1.68581,-1.27694 0.48613,0 1.1293,-0.38463 1.99098,-1.19063 l 1.27288,-1.19062 h 2.17255 2.17255 l 1.29266,-1.32713 c 1.19755,-1.22948 1.29968,-1.43875 1.388,-2.84427 l 0.0953,-1.51714 0.05,1.63563 c 0.0468,1.52842 -2.4e-4,1.67142 -0.71698,2.18179 -0.42186,0.30039 -1.00076,0.94234 -1.28646,1.42655 -0.50853,0.86189 -0.50913,0.9005 -0.0289,1.8366 0.26981,0.52591 0.75615,1.14223 1.08075,1.36959 0.3246,0.22736 0.45522,0.41338 0.29025,0.41338 -0.337,0 -1.66989,-1.49451 -1.66989,-1.87238 0,-0.13436 -1.10693,-0.24429 -2.45984,-0.24429 h -2.45985 l -0.97974,1.00335 c -0.53885,0.55183 -0.97974,1.24776 -0.97974,1.54649 0,1.22063 -1.64954,1.84445 -2.47253,0.93506 z m 1.98382,-0.42532 c 0.42383,-0.93019 0.11772,-1.47208 -0.83157,-1.47208 -0.99006,0 -1.63279,1.03078 -1.06747,1.71196 0.52706,0.63507 1.55983,0.50462 1.89904,-0.23988 z m 22.42878,-0.92256 c -0.86326,-0.86325 -0.983,-1.75797 -0.389,-2.90664 0.42057,-0.8133 1.67541,-1.46614 2.43894,-1.26888 0.31465,0.0813 0.22229,0.13577 -0.264,0.15573 -1.05141,0.0431 -2.29476,1.34547 -2.29476,2.40361 0,1.09907 1.0245,2.125 2.12204,2.125 1.14385,0 1.82739,-0.42742 2.25477,-1.4099 0.26292,-0.60444 0.36553,-0.6911 0.36692,-0.3099 0.007,1.84365 -2.79972,2.64617 -4.23491,1.21098 z m 14.12239,0.3757 c -0.76767,-0.53769 -1.22589,-1.98108 -0.90057,-2.83674 0.34976,-0.91994 1.53784,-1.79264 2.44046,-1.79264 0.96572,0 2.28416,1.19803 2.47498,2.24895 0.13956,0.76865 0.13318,0.7655 -0.20165,-0.0998 -0.71608,-1.85041 -2.44385,-2.42241 -3.79821,-1.25743 -1.55035,1.33355 -0.55666,3.87075 1.51597,3.87075 0.77922,0 1.13382,-0.17248 1.67367,-0.81405 0.37674,-0.44773 0.68498,-0.68045 0.68498,-0.51714 0,0.1633 -0.29225,0.58915 -0.64943,0.94634 -0.76029,0.76029 -2.33903,0.88294 -3.2402,0.25173 z m 13.65886,-0.3757 c -0.567,-0.56699 -0.76528,-1.00831 -0.74297,-1.65364 l 0.0304,-0.88025 0.20059,1.04195 c 0.25194,1.30866 1.08024,2.00076 2.39449,2.00076 1.95676,0 2.86821,-2.4944 1.40647,-3.8491 -0.38505,-0.35685 -0.57229,-0.64882 -0.41608,-0.64882 0.5067,0 1.38076,1.3735 1.38076,2.16974 0,1.59782 -0.92982,2.57156 -2.46775,2.58434 -0.77306,0.006 -1.19546,-0.1745 -1.78594,-0.76498 z m -39.93173,0.0199 c 1.97682,-0.44154 2.64583,-1.16005 2.64583,-2.8416 0,-0.80887 -0.18844,-1.15805 -1.05833,-1.96113 l -1.05834,-0.97705 v -14.9693 -14.9693 l 0.68498,-0.81405 c 0.46666,-0.55459 0.90939,-0.80645 1.38907,-0.79019 0.67284,0.0228 0.66645,0.0347 -0.14396,0.26908 -1.7303,0.50032 -1.6655,-0.13431 -1.6655,16.31299 v 14.90068 l 1.05833,1.00677 c 0.9021,0.85815 1.05833,1.16843 1.05833,2.10189 0,1.57481 -1.0387,2.68615 -2.64583,2.83085 -1.06714,0.0961 -1.09458,0.0857 -0.26458,-0.0996 z m 16.16047,-2.23568 c -0.0115,-0.26161 -0.34831,-0.78434 -0.74849,-1.16161 -0.40018,-0.37728 -0.55626,-0.63198 -0.34683,-0.566 0.56623,0.17839 1.42261,1.43366 1.2588,1.84512 -0.0963,0.24181 -0.14938,0.20364 -0.16348,-0.11751 z m 23.26245,-0.62407 c 0,-0.52892 1.0036,-1.17316 2.0177,-1.29523 1.08503,-0.13061 0.97699,-0.006 -0.22444,0.25835 -0.39616,0.0872 -0.96171,0.41777 -1.25677,0.73449 -0.29507,0.31672 -0.53649,0.4528 -0.53649,0.30239 z m 21.33203,-0.56655 c -0.233,-0.37701 0.29868,-0.92887 0.73397,-0.76183 0.59786,0.22942 0.5291,0.9729 -0.09,0.9729 -0.28246,0 -0.57226,-0.095 -0.644,-0.21107 z m -77.55333,-2.43045 c -0.19514,-0.31575 0.0525,-0.79806 0.40983,-0.79806 0.32194,0 0.32403,0.71612 0.003,0.91474 -0.13546,0.0837 -0.32108,0.0312 -0.41249,-0.11668 z m 5.2006,-2.32684 c -0.44649,-0.14883 -0.37876,-1.25851 0.10111,-1.65677 0.33657,-0.27933 0.57399,-0.26152 1.33189,0.0999 0.67846,0.32353 1.65667,0.43982 3.69977,0.43982 2.25927,0 2.80668,0.0762 2.93412,0.40829 0.0862,0.22456 0.1122,0.44878 0.0578,0.49827 -0.1463,0.13322 -7.76445,0.33059 -8.12473,0.2105 z m 1.77975,-0.48207 c 0.22878,-0.20495 -0.59791,-0.89957 -1.07059,-0.89957 -0.63058,0 -0.95811,0.76682 -0.46087,1.07899 0.32106,0.20157 1.22429,0.0957 1.53146,-0.17942 z m 5.32011,-0.10582 c 0,-0.14552 -0.59531,-0.26458 -1.32292,-0.26458 -0.7276,0 -1.32291,0.11906 -1.32291,0.26458 0,0.14552 0.59531,0.26458 1.32291,0.26458 0.72761,0 1.32292,-0.11906 1.32292,-0.26458 z m 3.5622,-13.22917 c 0,-7.20328 0.034,-10.15008 0.0756,-6.54844 0.0416,3.60164 0.0416,9.49524 0,13.09688 -0.0416,3.60164 -0.0756,0.65484 -0.0756,-6.54844 z m 78.5801,12.45105 c -0.1741,-0.1741 -3.52934,-0.29831 -9.25923,-0.34277 -5.76792,-0.0448 -8.98619,-0.16449 -8.98619,-0.33432 0,-0.16861 3.26319,-0.31257 8.99583,-0.39687 6.73369,-0.099 9.14883,-0.21957 9.60423,-0.47934 1.28388,-0.73234 2.9386,0.14602 2.27372,1.20694 -0.33153,0.52902 -2.19954,0.77518 -2.62836,0.34636 z m 2.25979,-0.41251 c 0.39998,-0.48194 -0.0617,-1.19062 -0.77558,-1.19062 -0.71838,0 -1.4467,0.66606 -1.26009,1.15236 0.21212,0.55278 1.5872,0.57863 2.03567,0.0383 z m -66.8369,-0.92076 c -1.01698,-0.41091 -1.75416,-1.62522 -1.59227,-2.62282 0.17529,-1.08018 1.10972,-2.14887 1.86643,-2.1346 0.43645,0.008 0.38493,0.0819 -0.25097,0.35898 -1.42636,0.62147 -1.8471,2.32353 -0.85348,3.45265 0.91148,1.03578 2.03913,1.13856 3.06069,0.27897 0.46305,-0.38963 0.84191,-0.89627 0.84191,-1.12587 0,-0.2296 0.0704,-0.34705 0.15645,-0.261 0.32907,0.32907 -0.23882,1.31259 -1.03997,1.80109 -0.90598,0.55243 -1.32657,0.60097 -2.18879,0.2526 z m 29.13027,-0.13954 c 1.3043,-0.46445 1.72329,-1.01186 1.72329,-2.25144 0,-0.95295 -0.64764,-1.84637 -1.5875,-2.18994 -0.33376,-0.12201 -0.32898,-0.1484 0.0301,-0.16597 0.23482,-0.0115 0.74083,0.293 1.12448,0.67665 0.74696,0.74696 0.93335,2.07163 0.42511,3.02128 -0.31465,0.58794 -1.59857,1.31362 -2.29412,1.29665 -0.26189,-0.006 -10e-4,-0.18064 0.57867,-0.38723 z m -16.14811,-0.51517 c -0.47785,-0.47785 -0.64943,-0.9354 -0.64943,-1.73182 0,-1.19308 0.90594,-2.39853 1.77391,-2.36036 0.36844,0.0162 0.38598,0.0535 0.0782,0.16597 -1.9406,0.7094 -2.18085,3.29436 -0.39687,4.27012 0.29104,0.15919 0.37492,0.29305 0.18641,0.29748 -0.18852,0.004 -0.635,-0.2842 -0.99219,-0.64139 z m 2.76103,0.2802 c 0.69048,-0.3827 1.32788,-1.35962 1.34266,-2.05786 0.0126,-0.59632 -1.25185,-2.06566 -1.80008,-2.09171 -0.25076,-0.0119 -0.30377,-0.0761 -0.12344,-0.14945 0.9635,-0.39192 2.35112,1.51436 2.06166,2.83226 -0.16728,0.76161 -1.24543,1.84481 -1.81809,1.82662 -0.16227,-0.005 -0.0105,-0.16709 0.33729,-0.35986 z m 11.46679,0.19215 c -0.4817,-0.19381 -1.11892,-1.52852 -1.11892,-2.34367 0,-0.73958 1.28452,-2.24966 1.89788,-2.23116 0.19309,0.006 0.0267,0.18666 -0.36987,0.40184 -1.47058,0.79806 -1.68724,2.37946 -0.49003,3.57667 0.7537,0.7537 0.76996,0.87355 0.0809,0.59632 z m -51.78663,-0.78784 c -0.7276,-0.21365 -1.69764,-0.41136 -2.15564,-0.43937 -0.69118,-0.0423 -1.60923,-0.80629 -5.40062,-4.49457 -3.32682,-3.23633 -4.68207,-4.39431 -4.98811,-4.26206 -0.23112,0.0999 -0.74425,0.2373 -1.14031,0.30539 -0.58682,0.10089 -0.78093,-0.01 -1.04882,-0.59766 -0.29368,-0.64456 -0.26466,-0.77334 0.2722,-1.20807 0.57002,-0.46157 0.65115,-0.46373 1.57799,-0.0419 0.53738,0.24458 1.46342,0.86448 2.05786,1.37757 0.59444,0.51309 1.77902,1.46867 2.6324,2.12352 0.85338,0.65484 2.68874,2.23595 4.07857,3.51358 3.09893,2.84872 3.83843,3.13426 8.54625,3.29998 2.65808,0.0936 3.37344,0.19727 3.37344,0.48905 0,0.5235 -5.96992,0.47343 -7.80521,-0.0654 z m -13.09687,-9.48612 c 0.26278,-0.31663 0.26278,-0.47712 0,-0.79375 -0.66119,-0.79668 -1.60364,-0.18712 -1.22724,0.79375 0.0838,0.21828 0.32005,0.39687 0.52508,0.39687 0.20503,0 0.521,-0.17859 0.70216,-0.39687 z m 3.82221,8.04674 c -0.27266,-0.44117 0.34057,-0.94708 0.70557,-0.58209 0.30531,0.30531 0.11422,0.86972 -0.29445,0.86972 -0.12834,0 -0.31335,-0.12943 -0.41112,-0.28763 z m 36.94451,-0.52614 c -0.026,-0.51973 -1.03511,-1.47197 -1.74068,-1.64266 -0.51549,-0.12471 -0.51506,-0.12881 0.0166,-0.15871 0.65903,-0.037 2.08275,1.37218 1.88547,1.86628 -0.1023,0.25622 -0.14623,0.23855 -0.16143,-0.0649 z m 37.60731,-3.03874 c -0.71881,-0.50348 -1.38063,-1.72726 -1.37929,-2.55049 10e-4,-0.85171 0.93001,-2.28157 1.71366,-2.63863 l 0.65753,-0.29959 0.0755,-6.50803 0.0755,-6.50804 0.0613,6.54165 0.0613,6.54164 -0.78927,0.40815 c -0.84761,0.43831 -1.59198,1.61466 -1.59198,2.51585 0,0.77642 0.70121,2.04852 1.30826,2.37341 1.43372,0.7673 3.16162,0.0699 4.20399,-1.69679 l 0.54042,-0.91594 -1.29782,-1.38235 -1.29783,-1.38235 0.23687,-6.23705 0.23686,-6.23705 -0.10273,6.28821 c -0.0993,6.07848 -0.0849,6.29909 0.4309,6.61458 0.2935,0.17951 0.77471,0.71333 1.06936,1.18627 l 0.53572,0.8599 h 5.94225 c 5.64696,0 5.98012,-0.028 6.70402,-0.56319 0.91671,-0.67776 1.90865,-0.5239 2.31063,0.35841 0.63718,1.39851 -0.84058,2.55393 -2.16039,1.68915 -0.55005,-0.3604 -1.58582,-0.42604 -6.72337,-0.42604 h -6.07314 l -0.54425,0.88061 c -0.89577,1.44939 -2.93457,1.97688 -4.20405,1.08771 z m 19.2043,-1.75665 c 0.67633,-0.67632 0.19863,-2.06375 -0.71055,-2.06375 -0.21618,0 -0.66928,0.2595 -1.0069,0.57668 l -0.61385,0.57668 0.57677,0.61394 c 0.63566,0.67663 1.26759,0.7834 1.75453,0.29645 z m -83.66939,-1.20759 c -0.0828,-0.0828 -0.15061,-0.48376 -0.15061,-0.89095 0,-1.06943 0.80352,-1.43243 1.6671,-0.75314 0.5448,0.42854 1.07433,0.52334 2.92308,0.52334 2.13224,0 2.94828,0.2684 2.385,0.78443 -0.268,0.24551 -6.60318,0.55772 -6.82457,0.33632 z m 1.66265,-0.2974 c 0.27927,-0.17697 0.29177,-0.3507 0.0568,-0.7897 -0.56067,-1.04762 -1.93367,-0.47671 -1.50983,0.62781 0.16734,0.43606 0.89277,0.51689 1.453,0.16189 z m 68.45505,-6.6095 c -0.4715,-0.7629 0.31129,-0.8366 8.71966,-0.82098 7.97508,0.0148 9.33855,0.12507 8.75567,0.70794 -0.0831,0.0831 -4.00737,0.20981 -8.72069,0.28166 -6.21593,0.0948 -8.62048,0.0485 -8.75464,-0.16862 z m -80.7855,-0.33568 c -0.44929,-0.45374 -0.41618,-1.15078 0.074,-1.55759 0.32599,-0.27054 0.54472,-0.27105 1.12448,-0.003 0.53313,0.24685 2.67726,0.32195 8.26874,0.28961 4.15193,-0.024 7.75357,0.0348 8.00364,0.13081 0.25008,0.096 0.45468,0.33701 0.45468,0.53567 0,0.29537 -1.48251,0.37792 -8.13593,0.45303 -4.47477,0.0505 -8.4336,0.18032 -8.7974,0.28846 -0.42107,0.12517 -0.78165,0.0752 -0.99219,-0.13738 z m 1.25677,-0.75733 c 0,-0.35278 -0.17639,-0.52917 -0.52916,-0.52917 -0.35278,0 -0.52917,0.17639 -0.52917,0.52917 0,0.35278 0.17639,0.52916 0.52917,0.52916 0.35277,0 0.52916,-0.17638 0.52916,-0.52916 z m 79.5073,-2.91042 c -0.34647,-0.56059 0.23032,-0.79375 1.96361,-0.79375 1.6062,0 1.90887,-0.0865 2.81014,-0.80269 l 1.01006,-0.80269 4.93969,0.0743 c 3.7979,0.0571 5.03726,-0.007 5.36176,-0.27595 0.93942,-0.77965 2.49655,0.225 1.87803,1.21169 -0.35866,0.57216 -1.32763,0.74243 -1.8339,0.32227 -0.26484,-0.2198 -1.85449,-0.3041 -5.31196,-0.2817 l -4.93402,0.032 -0.90039,0.79055 c -0.82627,0.72547 -1.06171,0.79055 -2.85995,0.79055 -1.07775,0 -2.03313,-0.11906 -2.12307,-0.26458 z m 17.5472,-1.78982 c 0.10852,-0.76076 -0.63957,-1.07599 -1.20697,-0.5086 -0.35131,0.35132 -0.36272,0.48852 -0.07,0.84128 0.47613,0.5737 1.17356,0.392 1.27693,-0.33268 z m -90.79275,1.14771 c -0.17285,-0.45045 0.47735,-1.06319 0.87041,-0.82026 0.1519,0.0939 0.27618,0.40178 0.27618,0.68424 0,0.60634 -0.92405,0.71596 -1.14659,0.13602 z m 5.33912,-0.73313 c -0.34136,-0.47666 -1.22129,-1.76122 -1.95539,-2.85456 l -1.33473,-1.98791 h -3.29548 -3.29547 l -0.0795,-0.6841 c -0.1026,-0.88265 0.59814,-1.51677 1.23596,-1.11844 0.24861,0.15526 1.65024,0.36805 3.11473,0.47286 l 2.66272,0.19059 1.00633,1.49559 c 0.55348,0.82257 1.46381,2.11545 2.02294,2.87305 l 1.01661,1.37747 1.91845,0.0777 c 1.49435,0.0606 1.91845,0.16548 1.91845,0.47462 0,0.31408 -0.45008,0.41282 -2.15747,0.47331 l -2.15746,0.0764 z m -8.42587,-5.67283 c 0,-0.49824 -0.75247,-0.77196 -1.11782,-0.40661 -0.20828,0.20828 -0.19795,0.3976 0.0371,0.68087 0.37797,0.45541 1.08069,0.27708 1.08069,-0.27426 z m 25.64424,3.89342 -0.7734,-0.77339 v -4.00946 -4.00945 l 0.7734,-0.7734 c 0.82548,-0.82548 1.55338,-0.96186 2.48514,-0.4656 1.13949,0.6069 1.22218,0.96471 1.23096,5.32662 0.008,4.08969 -0.005,4.19313 -0.64102,4.82865 -0.91032,0.91032 -2.08829,0.86283 -3.07508,-0.12397 z m 2.84757,-0.0665 c 0.58983,-0.55412 0.61236,-0.72862 0.61236,-4.7433 v -4.16801 l -0.69714,-0.54837 c -0.92478,-0.72743 -1.82851,-0.6926 -2.62218,0.10107 -0.63214,0.63214 -0.64943,0.75574 -0.64943,4.64223 0,3.8865 0.0173,4.01009 0.64943,4.64224 0.8075,0.80749 1.89464,0.83727 2.70696,0.0741 z m 32.25359,0.0258 c -0.67029,-0.7966 -0.68498,-0.89914 -0.68498,-4.78285 v -3.9688 l 0.7734,-0.7734 c 0.82548,-0.82548 1.55338,-0.96186 2.48514,-0.4656 1.13748,0.60582 1.22218,0.96813 1.23097,5.2651 l 0.008,4.11768 -0.74208,0.71096 c -1.03883,0.99526 -2.17886,0.95699 -3.07086,-0.10309 z m 2.99999,-0.14767 c 0.50047,-0.63625 0.54837,-1.05054 0.54837,-4.7433 v -4.04616 l -0.69714,-0.54837 c -0.92479,-0.72743 -1.82851,-0.6926 -2.62218,0.10107 -0.63214,0.63214 -0.64943,0.75574 -0.64943,4.64223 0,3.8865 0.0173,4.01009 0.64943,4.64224 0.88377,0.88376 2.0541,0.86362 2.77095,-0.0477 z m 9.31565,-1.3883 c -0.0561,-0.98199 -1.01293,-2.31354 -1.99842,-2.78119 -1.06168,-0.5038 -4.51884,-0.59029 -4.8093,-0.12032 -0.10358,0.1676 0.0382,0.47595 0.31512,0.68523 0.49125,0.3713 0.49063,0.37825 -0.0257,0.28697 -0.36219,-0.064 -0.52916,-0.30111 -0.52916,-0.75138 0,-0.65295 0.018,-0.65783 2.4289,-0.65783 2.05639,0 2.54334,0.0854 3.175,0.55682 0.98834,0.73761 1.73904,2.05907 1.59537,2.80829 l -0.11575,0.60364 z m -56.89437,-0.26458 c -0.0386,-0.89951 0.87304,-2.24511 1.8849,-2.78199 0.66399,-0.3523 1.36015,-0.44 2.98281,-0.37576 2.05904,0.0815 2.11667,0.10182 2.11667,0.74527 0,0.58843 -0.11685,0.66601 -1.05834,0.70274 l -1.05833,0.0413 0.92604,-0.17357 c 0.56962,-0.10677 0.92604,-0.32633 0.92604,-0.57045 0,-0.32248 -0.43312,-0.39688 -2.31061,-0.39688 -2.23423,0 -2.33786,0.0273 -3.13516,0.82515 -0.45351,0.45383 -0.91959,1.22774 -1.03575,1.71979 -0.16256,0.68865 -0.21742,0.74953 -0.23827,0.26442 z m 55.05906,-0.41786 c -0.17562,-0.38545 -0.65186,-0.75364 -1.16695,-0.90218 -0.68371,-0.19718 -0.74006,-0.25608 -0.26289,-0.27483 0.60866,-0.0239 1.9062,1.03225 1.9062,1.55161 0,0.44673 -0.15916,0.32157 -0.47636,-0.3746 z m -63.00313,-0.25012 c -0.42725,-0.5148 -0.18054,-1.62648 0.41136,-1.85361 0.24004,-0.0921 0.70343,0.007 1.02975,0.22127 0.32632,0.21382 1.29181,0.42488 2.14553,0.46903 1.16769,0.0604 1.55222,0.17858 1.55222,0.47714 0,0.29437 -0.4442,0.44146 -1.71979,0.5695 -0.94588,0.0949 -2.02469,0.25335 -2.39734,0.35201 -0.46505,0.12312 -0.7855,0.0493 -1.02173,-0.23534 z m 1.44028,-0.26066 c 0.42789,-0.31288 0.45051,-0.43223 0.15047,-0.79375 -0.44573,-0.53707 -1.31492,-0.55155 -1.51688,-0.0253 -0.14847,0.38691 0.31073,1.18725 0.68119,1.18725 0.0999,0 0.40824,-0.16571 0.68522,-0.36824 z m 31.69478,-0.62353 c 2.30104,-0.0441 5.99198,-0.044 8.20209,2.1e-4 2.21011,0.0442 0.32744,0.0803 -4.1837,0.0802 -4.51115,-1.2e-4 -6.31942,-0.0363 -4.01839,-0.0804 z m -10.04243,-0.46681 c -0.0845,-0.22013 -0.007,-0.57732 0.17299,-0.79375 0.49417,-0.59543 25.96126,-0.59219 26.45554,0.003 0.54262,0.65382 -0.13439,1.19888 -1.42146,1.1444 l -1.09209,-0.0462 1.12448,-0.10128 c 0.90224,-0.0813 1.12448,-0.20286 1.12448,-0.61524 0,-0.50188 -0.30415,-0.51395 -12.94897,-0.51395 -13.19934,0 -14.06952,0.0655 -12.83776,0.96618 0.44467,0.32515 0.44752,0.35674 0.0321,0.35674 -0.25066,0 -0.52486,-0.18011 -0.60933,-0.40025 z m 36.89767,0.21951 c 0.19099,-0.0764 0.4192,-0.067 0.50712,0.0209 0.0879,0.0879 -0.0684,0.15046 -0.34727,0.13897 -0.30822,-0.0127 -0.37092,-0.0754 -0.15985,-0.15985 z m 18.83502,-0.0783 c -0.22677,-0.14973 -2.5731,-0.26378 -5.47449,-0.2661 -3.436,-0.003 -5.13639,-0.0991 -5.25941,-0.29821 -0.40329,-0.65254 0.6794,-0.79484 5.16544,-0.67892 3.8024,0.0983 4.76978,0.047 5.4774,-0.29049 0.71786,-0.34232 0.92905,-0.35201 1.28236,-0.0588 0.59148,0.49089 0.41195,1.70031 -0.26525,1.7869 -0.29105,0.0372 -0.70776,-0.0503 -0.92605,-0.19439 z m 1.26673,-0.76342 c -0.10532,-0.54685 -1.00173,-0.7269 -1.29623,-0.26037 -0.14424,0.2285 -0.075,0.46913 0.19245,0.66932 0.53306,0.39892 1.21099,0.14775 1.10378,-0.40895 z m -72.1841,-3.08652 -1.44617,-1.46312 -0.13229,-2.70407 c -0.1255,-2.56516 -0.1632,-2.70845 -0.7339,-2.78943 -0.33088,-0.047 -0.85929,-0.43391 -1.17424,-0.8599 -0.54655,-0.73925 -0.66507,-0.77452 -2.60261,-0.77452 -1.69819,0 -2.18073,-0.10229 -2.95219,-0.62583 -0.50721,-0.3442 -1.08937,-0.68752 -1.2937,-0.76294 -0.28391,-0.1048 -0.25537,-0.18492 0.12103,-0.33985 0.30302,-0.12472 0.7611,-0.0451 1.19062,0.207 0.38396,0.22535 1.6274,0.49591 2.76319,0.60124 1.86645,0.1731 2.12093,0.1394 2.64583,-0.35048 0.92873,-0.86675 1.81561,-0.96301 2.67129,-0.28993 0.69847,0.54942 0.73321,0.66945 0.5595,1.93318 -0.10187,0.74107 -0.1695,2.47849 -0.15028,3.86094 l 0.0349,2.51354 1.31235,1.33124 c 0.7218,0.73218 1.31235,1.47632 1.31235,1.65364 0,0.66571 -0.7245,0.27692 -2.1257,-1.14071 z m -0.70927,-7.89133 c 0.53428,-1.60284 -0.51101,-2.87395 -1.89272,-2.30163 -0.39101,0.16196 -0.84725,0.51276 -1.01387,0.77955 -0.4405,0.70536 0.43835,2.07098 1.4266,2.21677 1.08769,0.16045 1.21484,0.10077 1.47999,-0.69469 z m 33.17938,7.59608 c -0.10005,-0.10005 -0.1819,-1.38572 -0.1819,-2.85706 0,-2.01673 0.10351,-2.82295 0.42058,-3.27563 0.23133,-0.33026 0.50069,-1.16042 0.59858,-1.84481 0.15508,-1.08409 0.25905,-1.24433 0.80735,-1.24433 1.14437,0 1.2199,0.67217 0.25066,2.23059 -0.8232,1.32363 -0.896,1.6242 -1.01884,4.20662 -0.12153,2.55497 -0.35723,3.30382 -0.87643,2.78462 z m 0.61185,-2.07808 c 0,-0.80037 -0.11907,-1.45521 -0.26459,-1.45521 -0.14552,0 -0.26458,0.65484 -0.26458,1.45521 0,0.80036 0.11906,1.4552 0.26458,1.4552 0.14552,0 0.26459,-0.65484 0.26459,-1.4552 z m 0,-2.64584 c 0,-0.21828 -0.11907,-0.39687 -0.26459,-0.39687 -0.14552,0 -0.26458,0.17859 -0.26458,0.39687 0,0.21828 0.11906,0.39688 0.26458,0.39688 0.14552,0 0.26459,-0.1786 0.26459,-0.39688 z m 1.49182,-3.175 c 0.0838,-0.21828 0.0845,-0.57346 0.002,-0.78929 -0.19786,-0.51559 -0.96437,-0.21624 -0.96437,0.37663 0,0.82452 0.69095,1.12071 0.96266,0.41266 z m 5.02307,7.66246 c -0.0907,-0.23633 -0.16489,-1.44803 -0.16489,-2.69265 v -2.26296 l 2.38125,-2.4282 2.38125,-2.4282 v -1.61998 c 0,-0.89099 -0.11144,-1.91306 -0.24763,-2.27128 -0.48575,-1.27762 0.94903,-2.05431 1.67255,-0.90542 0.21536,0.34199 0.20554,0.59897 -0.0378,0.9886 -0.18084,0.28957 -0.3288,1.32943 -0.3288,2.31079 v 1.78429 l -2.31425,2.32502 -2.31425,2.32503 -0.13315,2.55402 c -0.12626,2.42202 -0.49163,3.37026 -0.89429,2.32094 z m 5.64107,-13.85238 c 0.19804,-0.37005 0.16886,-0.58394 -0.11139,-0.81653 -0.46509,-0.386 -0.93207,-0.13765 -0.93207,0.49568 0,0.90954 0.62547,1.10186 1.04346,0.32085 z m -28.37823,13.82425 c -0.10005,-0.10004 -0.1819,-1.24895 -0.1819,-2.55312 v -2.37122 l -2.24896,-2.29825 c -2.12632,-2.17293 -2.24896,-2.3611 -2.24896,-3.45083 0,-0.71559 -0.17133,-1.3419 -0.4519,-1.65192 -0.57535,-0.63575 -0.16984,-1.3944 0.74532,-1.3944 0.61303,0 0.63005,0.0555 0.54953,1.79225 l -0.0831,1.79225 2.40795,2.49345 2.40795,2.49345 -0.0759,2.57202 c -0.0699,2.36987 -0.30088,3.09547 -0.82003,2.57632 z m -3.93281,-12.88177 c 0.0577,-0.29742 -0.0932,-0.4411 -0.46302,-0.4411 -0.30172,0 -0.54857,0.15875 -0.54857,0.35278 0,0.81035 0.85704,0.88517 1.01159,0.0883 z m 11.68841,6.2458 c 0,-4.56722 -0.0955,-6.94117 -0.28699,-7.13263 -0.15784,-0.15785 -0.24713,-0.56861 -0.19843,-0.91282 0.0706,-0.4993 0.24902,-0.62583 0.88229,-0.62583 0.73008,0 0.7849,0.0637 0.68339,0.79375 -0.0607,0.43657 -0.12023,3.88762 -0.13229,7.66901 -0.0202,6.32728 -0.0588,6.88238 -0.48495,6.96471 -0.43135,0.0833 -0.46302,-0.37883 -0.46302,-6.75619 z m 0.70489,-7.63073 c 0.22052,-0.57466 -0.33931,-1.11509 -0.74002,-0.71437 -0.33868,0.33867 -0.12887,1.12903 0.29971,1.12903 0.15466,0 0.3528,-0.18659 0.44031,-0.41466 z m 27.07636,14.09279 c 0,-0.18963 0.66336,-0.96354 1.47413,-1.71979 l 1.47412,-1.375 h 3.18545 3.18546 l 1.96677,-2.05052 c 1.08173,-1.12779 2.134,-2.43748 2.33838,-2.91042 0.43509,-1.00679 1.52134,-1.19915 1.97585,-0.3499 0.39342,0.73511 0.0607,1.34523 -0.83081,1.52353 -0.50956,0.10191 -1.53016,0.92968 -2.98532,2.42128 l -2.21107,2.26644 -3.30673,0.11008 -3.30673,0.11009 -1.13796,1.1595 c -1.13716,1.15868 -1.82154,1.46478 -1.82154,0.81471 z m 15.04114,-7.29774 c 0.48035,-0.30441 0.27962,-1.19312 -0.29446,-1.30367 -0.51425,-0.099 -0.86171,0.53217 -0.62808,1.14099 0.17226,0.44891 0.40588,0.4901 0.92254,0.16268 z m -83.28942,4.49411 c -0.40115,-0.74956 0.0704,-1.61408 0.88048,-1.61408 0.33632,0 0.98569,0.18667 1.44304,0.41483 0.59702,0.29783 1.41067,0.39111 2.88492,0.33073 1.68621,-0.0691 2.05338,-0.0131 2.05338,0.31277 0,0.31486 -0.54678,0.43241 -2.64583,0.56879 -1.45521,0.0946 -3.0222,0.25534 -3.4822,0.35731 -0.68838,0.15259 -0.88899,0.0871 -1.13379,-0.37035 z m 1.71116,-0.13024 c 0.42788,-0.31287 0.4505,-0.43222 0.15046,-0.79375 -0.7234,-0.87165 -1.91318,-0.27101 -1.51558,0.76512 0.19046,0.49634 0.71057,0.50724 1.36512,0.0286 z m 18.30027,0.46195 c -0.37452,-0.37452 -0.1626,-0.88746 0.36667,-0.88746 0.36987,0 0.5207,0.14369 0.46302,0.4411 -0.0944,0.48696 -0.5461,0.72995 -0.82969,0.44636 z m 44.53268,-0.12166 c 0,-0.16089 0.29766,-0.64628 0.66146,-1.07863 0.58871,-0.69965 0.66146,-1.02643 0.66146,-2.97135 v -2.18525 l 1.85419,-1.79007 1.85418,-1.79006 4.54772,0.15763 c 4.25432,0.14746 4.62154,0.1219 5.69187,-0.39624 1.32148,-0.63972 2.00264,-0.51022 1.87945,0.3573 -0.0801,0.56402 -0.23127,0.6037 -2.77627,0.72879 -2.24873,0.11053 -2.82377,0.23024 -3.49502,0.7276 -0.99188,0.73494 -1.51543,0.75333 -1.8832,0.0661 -0.24152,-0.45127 -0.55399,-0.52917 -2.12271,-0.52917 h -1.83951 l -1.26004,1.33272 -1.26004,1.33271 -0.13531,2.35724 c -0.12373,2.15533 -0.20162,2.42644 -0.9094,3.1652 -0.78027,0.81443 -1.46883,1.05605 -1.46883,0.51543 z m 10.07401,-8.51147 c -0.0327,-0.31637 -0.39562,-0.2551 -0.50932,0.086 -0.0582,0.17462 0.037,0.26987 0.21167,0.21166 0.17462,-0.0582 0.30857,-0.19215 0.29765,-0.29765 z m 6.59474,-1.26577 c 0,-0.13694 -0.17859,-0.24897 -0.39687,-0.24897 -0.40916,0 -0.52565,0.3122 -0.22768,0.61016 0.21138,0.21139 0.62455,-0.0276 0.62455,-0.36119 z m -57.87067,8.41613 c -0.45347,-0.47294 -1.10983,-1.57427 -1.45859,-2.44739 l -0.63411,-1.5875 -1.76393,-0.0177 c -1.82626,-0.0183 -2.21337,-0.14482 -1.91587,-0.62619 0.25154,-0.40701 3.98418,-0.36486 4.29896,0.0485 0.13851,0.1819 0.52629,0.98558 0.86173,1.78594 0.33544,0.80036 0.94551,1.86254 1.3557,2.36038 0.67998,0.82529 0.78711,1.34379 0.27765,1.34379 -0.10838,0 -0.56808,-0.38696 -1.02154,-0.8599 z m 29.13163,-0.84722 c -0.2019,-0.52614 0.0972,-0.93872 0.68052,-0.93872 0.52012,0 0.80079,0.4542 0.61312,0.99219 -0.15915,0.45626 -1.11317,0.41683 -1.29364,-0.0535 z m 20.53976,-1.86139 c -0.42964,-0.51767 -0.15222,-1.19399 0.48976,-1.19399 0.6258,0 0.9471,0.73116 0.53794,1.22416 -0.38615,0.46528 -0.62227,0.45835 -1.0277,-0.0302 z m 0.79095,-0.40024 c 0,-0.14552 -0.11906,-0.26459 -0.26458,-0.26459 -0.14552,0 -0.26459,0.11907 -0.26459,0.26459 0,0.14552 0.11907,0.26458 0.26459,0.26458 0.14552,0 0.26458,-0.11906 0.26458,-0.26458 z m -48.63355,0.0692 c 0.13282,-0.6897 1.00855,-0.76662 1.00855,-0.0886 0,0.37864 -0.16992,0.54856 -0.54857,0.54856 -0.37864,0 -0.52113,-0.14248 -0.45998,-0.45998 z m 11.92261,-0.25525 c -0.54668,-0.20268 -0.39645,-1.13685 0.18282,-1.13685 0.28246,0 0.5942,0.13049 0.69277,0.28997 0.22736,0.36788 -0.43627,1.00976 -0.87559,0.84688 z m 8.40332,-0.47202 c -0.42963,-0.51768 -0.15222,-1.194 0.48976,-1.194 0.6258,0 0.9471,0.73116 0.53794,1.22416 -0.38615,0.46529 -0.62226,0.45836 -1.0277,-0.0302 z m 0.79095,-0.40025 c 0,-0.14552 -0.11906,-0.26458 -0.26458,-0.26458 -0.14552,0 -0.26458,0.11906 -0.26458,0.26458 0,0.14552 0.11906,0.26459 0.26458,0.26459 0.14552,0 0.26458,-0.11907 0.26458,-0.26459 z m -48.24236,-0.44097 c -0.36346,-0.36346 -0.15802,-1.40232 0.32884,-1.66288 0.36506,-0.19538 0.76645,-0.16125 1.44671,0.12298 0.51782,0.21635 1.53359,0.39337 2.25728,0.39337 1.9663,0 1.85282,0.43013 -0.16316,0.61838 -0.96777,0.0904 -1.88113,0.28586 -2.0297,0.43443 -0.30203,0.30203 -1.56722,0.36647 -1.83997,0.0937 z m 1.38352,-0.33012 c 0.51245,-0.32448 0.16143,-1.08099 -0.50158,-1.08099 -0.663,0 -1.01402,0.75651 -0.50157,1.08099 0.2031,0.1286 0.42881,0.23382 0.50157,0.23382 0.0728,0 0.29847,-0.10522 0.50158,-0.23382 z m 56.11266,-1.7504 c -0.51275,-0.61782 0.11537,-1.1873 0.68323,-0.61944 0.35089,0.35089 0.35555,0.45201 0.0332,0.71953 -0.29274,0.24295 -0.44997,0.22098 -0.71644,-0.10009 z m -21.6038,-5.04583 c -0.22556,-0.58781 0.47907,-0.97713 0.93806,-0.51829 0.19912,0.19905 0.28139,0.4924 0.18282,0.65189 -0.26618,0.43069 -0.93493,0.35097 -1.12088,-0.1336 z"
         id="path395" /><path
         style="fill:#dedede"
         d="m 220.71542,230.13458 c -0.44798,-0.44798 -0.39405,-1.14194 0.12188,-1.56833 0.40218,-0.33238 0.40799,-0.31272 0.0686,0.23219 -0.30046,0.48247 -0.30809,0.69561 -0.0403,1.12448 0.3742,0.59917 0.31734,0.67926 -0.15026,0.21166 z m 1.56115,-0.13348 c 0.19265,-0.32081 0.40723,-0.52633 0.47684,-0.45673 0.0696,0.0696 -0.088,0.33209 -0.35029,0.58328 -0.45559,0.43638 -0.46123,0.43074 -0.12655,-0.12655 z m 31.72344,0.20201 c 0,-0.13693 0.11906,-0.32255 0.26458,-0.41248 0.14552,-0.0899 0.26458,0.0221 0.26458,0.24896 0,0.22687 -0.11906,0.41249 -0.26458,0.41249 -0.14552,0 -0.26458,-0.11203 -0.26458,-0.24897 z m 15.82539,-0.46093 c 0.19099,-0.0764 0.4192,-0.067 0.50711,0.0209 0.0879,0.0879 -0.0684,0.15046 -0.34726,0.13897 -0.30823,-0.0127 -0.37092,-0.0754 -0.15985,-0.15985 z m 17.51211,-0.8776 c -0.82147,-0.82146 -0.56617,-2.40071 0.38364,-2.3732 0.1528,0.004 0.0695,0.1294 -0.18521,0.27773 -0.25466,0.14833 -0.46302,0.55292 -0.46302,0.8991 0,1.37503 1.72478,1.97762 2.49854,0.87292 0.22654,-0.32342 0.41188,-0.46094 0.41188,-0.30559 0,0.46318 -0.92546,1.15821 -1.54219,1.15821 -0.31596,0 -0.8126,-0.23812 -1.10364,-0.52917 z m -64.9186,-0.13229 c -0.0838,-0.21828 -0.037,-0.39687 0.10398,-0.39687 0.14096,0 0.25628,0.17859 0.25628,0.39687 0,0.21828 -0.0468,0.39688 -0.10398,0.39688 -0.0572,0 -0.17252,-0.1786 -0.25628,-0.39688 z m 28.81694,-0.63886 c -0.0852,-0.13784 -0.0421,-0.32032 0.0957,-0.40551 0.13784,-0.0852 0.32032,-0.0421 0.40551,0.0957 0.0852,0.13784 0.0421,0.32032 -0.0957,0.40551 -0.13784,0.0852 -0.32031,0.0421 -0.4055,-0.0957 z m 37.01949,-0.0359 c -0.25142,-0.4068 0.093,-0.66926 0.43255,-0.32967 0.19002,0.19002 0.19458,0.33801 0.0139,0.4497 -0.14815,0.0916 -0.34904,0.0375 -0.44642,-0.12003 z m 1.4843,-0.56888 c -0.0115,-0.24743 -0.22924,-0.57123 -0.4839,-0.71956 -0.25467,-0.14833 -0.32878,-0.27331 -0.16469,-0.27773 0.43661,-0.0118 0.96424,0.71334 0.8059,1.10754 -0.0879,0.21872 -0.14385,0.17948 -0.15731,-0.11025 z M 251.41556,222.25 c 0,-0.50932 0.0545,-0.71768 0.121,-0.46302 0.0665,0.25466 0.0665,0.67138 0,0.92604 -0.0666,0.25466 -0.121,0.0463 -0.121,-0.46302 z m 19.34139,0.40851 c 0,-0.21188 0.10116,-0.32271 0.2248,-0.2463 0.12364,0.0764 0.1563,0.24977 0.0726,0.38524 -0.21395,0.34617 -0.29738,0.3072 -0.29738,-0.13894 z m -55.60892,-2.52518 c 0,-0.3638 0.06,-0.51263 0.13345,-0.33073 0.0734,0.1819 0.0734,0.47956 0,0.66146 -0.0734,0.1819 -0.13345,0.0331 -0.13345,-0.33073 z m 15.78362,-1.23907 c 0.19099,-0.0764 0.41919,-0.067 0.50711,0.0209 0.0879,0.0879 -0.0684,0.15045 -0.34726,0.13896 -0.30823,-0.0127 -0.37092,-0.0754 -0.15985,-0.15985 z m 28.4312,-0.003 c 0.25743,-0.0671 0.61462,-0.0627 0.79375,0.01 0.17914,0.0725 -0.0315,0.12736 -0.46805,0.12197 -0.43657,-0.005 -0.58313,-0.0647 -0.3257,-0.13177 z m -27.14406,-0.42134 c 0.31684,-0.17674 0.88825,-0.78175 1.26979,-1.34447 0.67325,-0.99295 0.67967,-1.03962 0.21767,-1.58294 -0.46066,-0.54174 -0.46019,-0.5475 0.0147,-0.17826 0.35282,0.27433 1.20795,0.37818 3.04271,0.36951 1.40359,-0.007 2.25432,0.0338 1.89052,0.0899 -2.27454,0.35049 -1.56058,0.70613 1.80675,0.89998 l 2.82346,0.16255 -2.91042,-0.0924 c -1.60073,-0.0508 -3.65239,-0.16422 -4.55926,-0.25195 l -1.64885,-0.15951 -0.56413,0.95614 c -0.52487,0.88959 -1.23392,1.48437 -1.74318,1.46225 -0.1187,-0.005 0.0434,-0.15398 0.36025,-0.33073 z m 25.60565,-0.30933 c -0.35719,-0.35718 -0.64581,-0.80367 -0.64139,-0.99218 0.004,-0.18852 0.139,-0.10463 0.29905,0.18641 0.16006,0.29104 0.54339,0.73488 0.85185,0.9863 0.30847,0.25143 0.46614,0.45979 0.35038,0.46302 -0.11575,0.003 -0.50271,-0.28636 -0.85989,-0.64355 z m 3.47019,0.0391 c 0.42658,-0.36693 0.78964,-1.02643 0.91037,-1.65365 0.19086,-0.99156 0.20233,-1.00166 0.23125,-0.20372 0.03,0.82918 -1.02924,2.4677 -1.59535,2.4677 -0.1407,0 0.0635,-0.27465 0.45373,-0.61033 z m -32.09187,0.015 c -0.39666,-0.51288 -0.64617,-0.99218 -0.51651,-0.99218 0.0646,0 0.31251,0.29765 0.55088,0.66145 0.44605,0.68075 0.42121,0.91979 -0.0344,0.33073 z m -0.81576,-1.91823 c 0.005,-0.43656 0.0647,-0.58312 0.13177,-0.32569 0.0671,0.25743 0.0627,0.61462 -0.01,0.79375 -0.0725,0.17913 -0.12736,-0.0315 -0.12197,-0.46806 z m 25.08384,0.41323 c 0.37508,-0.11085 0.62464,-0.35717 0.57641,-0.56894 -0.0648,-0.28472 -0.0106,-0.30035 0.2283,-0.0658 0.45551,0.44727 0.0683,0.88705 -0.75418,0.85658 l -0.71199,-0.0264 z m 11.50937,-0.0164 c -0.20861,-0.33754 0.0686,-0.79497 0.47864,-0.7897 0.19225,0.002 0.16326,0.10008 -0.0743,0.25035 -0.53392,0.33766 -0.0559,0.49713 1.84467,0.61545 1.4364,0.0894 1.43232,0.0912 -0.31511,0.13954 -0.97368,0.0269 -1.84391,-0.0701 -1.93385,-0.21564 z m 4.96598,0.0812 c 0.25743,-0.0671 0.61462,-0.0627 0.79375,0.01 0.17913,0.0725 -0.0315,0.12736 -0.46806,0.12197 -0.43656,-0.005 -0.58312,-0.0647 -0.32569,-0.13177 z m 5.27101,-0.0142 c 1.8468,-0.0454 4.94243,-0.0455 6.87917,-2.7e-4 1.93674,0.0453 0.42572,0.0824 -3.35782,0.0826 -3.78354,1.5e-4 -5.36815,-0.0369 -3.52135,-0.0823 z m 10.53281,-0.17098 c 0,-0.0572 0.18477,-0.17489 0.41061,-0.26156 0.23546,-0.0904 0.34167,-0.046 0.24897,0.10399 -0.15538,0.2514 -0.65958,0.37185 -0.65958,0.15757 z M 243.7474,215.7023 c 1.85539,-0.0455 4.89149,-0.0455 6.74688,0 1.85539,0.0455 0.33734,0.0827 -3.37344,0.0827 -3.71078,0 -5.22883,-0.0372 -3.37344,-0.0827 z m 13.44849,-0.0835 c -0.0283,-0.55974 1.4366,-1.92864 1.87609,-1.75317 0.25621,0.1023 0.23855,0.14622 -0.0649,0.16143 -0.4486,0.0225 -1.40851,0.9609 -1.6452,1.60839 -0.125,0.34195 -0.14797,0.33964 -0.16597,-0.0166 z m 9.5753,0.0979 c 0.25743,-0.0671 0.61462,-0.0627 0.79375,0.01 0.17913,0.0725 -0.0315,0.12736 -0.46806,0.12197 -0.43656,-0.005 -0.58312,-0.0647 -0.32569,-0.13177 z m 5.15434,-0.0142 c 1.63711,-0.0464 4.31601,-0.0464 5.95312,0 1.63711,0.0464 0.29766,0.0844 -2.97656,0.0844 -3.27422,0 -4.61367,-0.038 -2.97656,-0.0844 z m 9.78958,0.0223 c 0.1819,-0.0734 0.47956,-0.0734 0.66146,0 0.1819,0.0734 0.0331,0.13345 -0.33073,0.13345 -0.3638,0 -0.51263,-0.06 -0.33073,-0.13345 z m 1.78594,0.0412 c 0.60478,-0.21082 2.20194,-0.26855 2.08249,-0.0753 -0.0711,0.11511 -0.62834,0.19989 -1.23821,0.1884 -0.60988,-0.0115 -0.9898,-0.0624 -0.84428,-0.11311 z m -21.81854,-0.90642 c -0.15048,-0.28118 -0.52083,-0.58971 -0.823,-0.68561 -0.30216,-0.0959 -0.49108,-0.23268 -0.41981,-0.30394 0.21846,-0.21846 1.20466,0.42389 1.50105,0.9777 0.15398,0.28771 0.22043,0.5231 0.14767,0.5231 -0.0728,0 -0.25542,-0.23006 -0.40591,-0.51125 z m 24.65214,0.11259 c 0.10327,-0.16021 0.30408,-0.58254 0.44625,-0.93851 0.16342,-0.40917 0.26465,-0.48769 0.27525,-0.21349 0.009,0.23854 -0.19159,0.66087 -0.44625,0.93851 -0.25466,0.27764 -0.37852,0.37371 -0.27525,0.21349 z m 1.21709,0.002 c 0.13389,-0.29104 0.30965,-0.70776 0.39058,-0.92604 0.12712,-0.34284 0.15,-0.34072 0.16805,0.0156 0.0115,0.22685 -0.16428,0.64357 -0.39058,0.92604 -0.40489,0.50538 -0.40758,0.50513 -0.16805,-0.0156 z m -58.19482,-0.64576 c 0.34354,-0.29968 0.75034,-0.54487 0.90399,-0.54487 0.32537,0 0.30982,0.0132 -0.73486,0.62495 l -0.79375,0.46479 z m 3.38978,0.0348 c -0.37312,-0.4123 -0.44305,-1.41261 -0.50403,-7.2099 -0.0548,-5.21398 -0.14534,-6.71627 -0.40152,-6.66503 -0.1819,0.0364 -0.33073,-0.0617 -0.33073,-0.21784 0,-0.15619 0.20836,-0.24391 0.46302,-0.19493 0.42458,0.0816 0.46889,0.65862 0.53374,6.94893 0.061,5.91718 0.13026,6.92567 0.50403,7.33868 0.23832,0.26334 0.37378,0.47881 0.30102,0.47881 -0.0728,0 -0.32725,-0.21543 -0.56553,-0.47872 z m -1.83651,-0.77049 c 0.23863,-0.1693 0.34683,-1.92714 0.40433,-6.56858 l 0.0785,-6.33742 -0.007,6.46038 c -0.006,5.51381 -0.0656,6.47624 -0.40433,6.56858 -0.28872,0.0787 -0.30808,0.0452 -0.0711,-0.12296 z m 57.34478,-14.89038 c 0,-8.22193 0.0335,-11.58544 0.0746,-7.47448 0.041,4.11097 0.041,10.838 0,14.94896 -0.041,4.11097 -0.0746,0.74745 -0.0746,-7.47448 z m 13.78727,10.79669 c -0.36744,-0.52458 -0.36494,-0.62635 0.026,-1.05833 0.23789,-0.26287 0.56291,-0.47432 0.72225,-0.4699 0.15935,0.004 0.0814,0.12941 -0.1733,0.27774 -0.25466,0.14832 -0.46302,0.49597 -0.46302,0.77255 0,0.27658 0.20836,0.62423 0.46302,0.77256 0.25467,0.14833 0.32095,0.27331 0.1473,0.27773 -0.17365,0.004 -0.49866,-0.25313 -0.72225,-0.57235 z m 1.501,0.29462 c 0.54144,-0.31536 0.60257,-1.03939 0.13229,-1.56678 -0.28136,-0.31552 -0.26162,-0.31858 0.13229,-0.0205 0.74294,0.56218 0.42263,1.8903 -0.44979,1.86503 -0.1528,-0.004 -0.0695,-0.1294 0.18521,-0.27773 z m -83.62157,-10.87964 c -0.17462,-0.17463 -0.30995,-0.50205 -0.30073,-0.72761 0.01,-0.23862 0.12142,-0.14876 0.26703,0.21488 0.20165,0.50358 0.40126,0.60283 1.02759,0.5109 0.42753,-0.0628 0.71706,-0.0166 0.6434,0.10262 -0.20169,0.32634 -1.27631,0.26018 -1.63729,-0.10079 z m 1.82006,-0.91722 c -0.0115,-0.3153 -0.16972,-0.63332 -0.35162,-0.70672 -0.25904,-0.10453 -0.25724,-0.13798 0.008,-0.15434 0.40162,-0.0247 0.69369,0.6141 0.50057,1.09486 -0.075,0.1867 -0.14577,0.0815 -0.15725,-0.2338 z m 36.53773,-0.43598 c -0.31641,-0.3368 -0.57529,-0.72048 -0.57529,-0.85262 0,-0.13214 0.19134,0.0329 0.42519,0.36678 0.23385,0.33387 0.68033,0.71 0.99218,0.83585 0.37876,0.15285 0.4286,0.23438 0.15011,0.24558 -0.2293,0.009 -0.67578,-0.25879 -0.99219,-0.59559 z m 2.69307,0.0666 c 0.38164,-0.30019 0.80368,-0.92527 0.93786,-1.38906 0.18148,-0.62726 0.25009,-0.69596 0.26784,-0.26824 0.0251,0.60619 -1.15116,2.20312 -1.62284,2.20312 -0.15221,0 0.0355,-0.24562 0.41714,-0.54582 z m 13.40039,0.35811 c 0.21828,-0.0803 0.635,-0.33875 0.92604,-0.57442 0.52466,-0.42485 0.52488,-0.42343 0.0251,0.16681 -0.27721,0.32742 -0.69393,0.58592 -0.92604,0.57443 -0.35819,-0.0177 -0.36199,-0.043 -0.0251,-0.16682 z m -30.27979,-0.66492 c -0.22653,-0.32342 -0.39818,-0.9485 -0.38145,-1.38906 0.0289,-0.75935 0.0403,-0.75012 0.22068,0.1773 0.10464,0.53808 0.34365,1.16315 0.53114,1.38906 0.18748,0.22591 0.27352,0.41074 0.1912,0.41074 -0.0823,0 -0.33503,-0.26462 -0.56157,-0.58804 z m 3.02771,0.48815 c 0,-0.0549 0.20836,-0.2633 0.46302,-0.46302 0.41964,-0.32911 0.429,-0.31975 0.0999,0.0999 -0.34564,0.44073 -0.56291,0.58089 -0.56291,0.36313 z m 24.75354,-0.48815 c -0.57431,-0.81994 -0.51549,-2.11137 0.1276,-2.80165 0.29671,-0.31848 0.61512,-0.57906 0.70758,-0.57906 0.0925,0 -0.0908,0.27557 -0.40718,0.61237 -0.67621,0.71979 -0.74788,1.9339 -0.16341,2.76834 0.22653,0.32342 0.35234,0.58804 0.27958,0.58804 -0.0728,0 -0.31763,-0.26462 -0.54417,-0.58804 z m -51.8116,0.026 c 0.17948,-0.18082 0.39297,-0.26211 0.47443,-0.18065 0.0815,0.0815 -0.0654,0.22941 -0.32632,0.32877 -0.37708,0.14358 -0.40747,0.11319 -0.14811,-0.14812 z m 10.44603,-0.11596 c -0.3246,-0.22736 -0.81094,-0.84368 -1.08075,-1.36959 -0.48024,-0.9361 -0.47964,-0.97471 0.0289,-1.8366 0.2857,-0.48421 0.85878,-1.12202 1.27352,-1.41734 0.65152,-0.46392 0.76702,-0.74265 0.84927,-2.0495 l 0.0952,-1.51255 0.05,1.50789 c 0.0474,1.42802 0.002,1.54418 -0.84811,2.19293 -1.21852,0.92941 -1.65055,2.00307 -1.22217,3.03728 0.43905,1.05996 0.90655,1.4016 2.20935,1.61456 l 1.10158,0.18006 -0.93332,0.0331 c -0.51332,0.0182 -1.1989,-0.1529 -1.5235,-0.38026 z m 3.49395,-0.63768 c 0.58817,-0.92033 0.52623,-2.43301 -0.13695,-3.34503 l -0.55503,-0.76329 0.68732,0.74236 c 0.8752,0.94529 0.93739,2.48709 0.13695,3.39552 l -0.55036,0.62462 z m 23.45772,-0.69078 c 0.0127,-0.30823 0.0754,-0.37092 0.15985,-0.15985 0.0764,0.19099 0.067,0.4192 -0.0209,0.50711 -0.0879,0.0879 -0.15045,-0.0683 -0.13896,-0.34726 z m 18.23536,-0.50971 c 0,-0.57595 -0.93061,-1.29424 -1.92258,-1.48393 l -0.85555,-0.16361 0.82127,-0.0348 c 0.89773,-0.0381 2.22144,0.95843 2.22144,1.67233 0,0.22523 -0.0595,0.40951 -0.13229,0.40951 -0.0728,0 -0.13229,-0.17976 -0.13229,-0.39947 z m -28.00766,-0.59272 c -0.28872,-0.6747 -0.28219,-0.69026 0.0898,-0.21402 0.22064,0.28248 0.40117,0.6099 0.40117,0.72761 0,0.40214 -0.17947,0.21441 -0.49099,-0.51359 z m 10.01599,0.20561 c 0,-0.4496 1.40118,-1.33009 2.11667,-1.33009 0.71549,0 2.11667,0.88049 2.11667,1.33009 0,0.12835 -0.29225,-0.0589 -0.64944,-0.41608 -0.40937,-0.40937 -0.95172,-0.64943 -1.46723,-0.64943 -0.51551,0 -1.05786,0.24006 -1.46724,0.64943 -0.35718,0.35719 -0.64943,0.54443 -0.64943,0.41608 z m -13.36146,-0.53634 c 0.26339,-0.29104 0.53842,-0.52917 0.61118,-0.52917 0.0728,0 -0.0832,0.23813 -0.34659,0.52917 -0.26339,0.29104 -0.53842,0.52917 -0.61118,0.52917 -0.0728,0 0.0832,-0.23813 0.34659,-0.52917 z m 1.7198,-0.52917 -0.92605,-0.19492 0.84428,-0.0348 c 0.46436,-0.0192 0.91787,0.0842 1.00781,0.22975 0.0899,0.14552 0.12673,0.24891 0.0818,0.22976 -0.045,-0.0192 -0.49848,-0.12255 -1.0078,-0.22976 z m -13.46358,-1.68343 c -0.21662,-0.26101 -0.27971,-4.4783 -0.22858,-15.27969 l 0.0706,-14.91917 0.0639,14.96219 c 0.0479,11.21166 0.14348,15.04177 0.38139,15.27969 0.17463,0.17462 0.24874,0.3175 0.16469,0.3175 -0.084,0 -0.28745,-0.16224 -0.45201,-0.36052 z m -7.70309,-3.34365 c 0,-0.14552 0.59531,-0.26458 1.32291,-0.26458 0.72761,0 1.32292,0.11906 1.32292,0.26458 0,0.14552 -0.59531,0.26458 -1.32292,0.26458 -0.7276,0 -1.32291,-0.11906 -1.32291,-0.26458 z m 6.47279,-13.22917 c 0,-7.3488 0.0339,-10.35513 0.0754,-6.68073 0.0415,3.6744 0.0415,9.68706 0,13.36146 -0.0415,3.6744 -0.0754,0.66807 -0.0754,-6.68073 z m 14.73929,10.8536 c 0.38878,-0.11738 0.86503,-0.29457 1.05834,-0.39375 0.1933,-0.0992 0.12034,0.007 -0.16214,0.23616 -0.28247,0.22907 -0.75872,0.40626 -1.05833,0.39375 -0.43713,-0.0182 -0.40509,-0.0649 0.16213,-0.23616 z m 13.38219,0.0837 c 0.1819,-0.0734 0.47956,-0.0734 0.66146,0 0.1819,0.0734 0.0331,0.13346 -0.33073,0.13346 -0.3638,0 -0.51263,-0.0601 -0.33073,-0.13346 z m 12.84705,-0.51209 -0.74236,-0.68732 0.76328,0.55503 c 0.41981,0.30527 0.97975,0.55503 1.24432,0.55503 0.79036,0 1.8076,-0.57454 1.98022,-1.11843 0.0888,-0.27992 0.213,-0.45749 0.2759,-0.39459 0.26127,0.26128 -0.27779,1.02979 -0.97535,1.39051 -1.07403,0.5554 -1.70183,0.48137 -2.54601,-0.30023 z m -28.10753,-0.2744 c -0.30161,-0.38343 -0.53619,-1.00851 -0.52129,-1.38906 0.0232,-0.59319 0.058,-0.56069 0.24339,0.22775 0.11897,0.50582 0.47716,1.1309 0.79598,1.38906 0.31882,0.25816 0.45606,0.46939 0.30498,0.46939 -0.15108,0 -0.52146,-0.31371 -0.82306,-0.69714 z m 13.727,-0.11927 c -0.16243,-0.30351 -0.24549,-0.60167 -0.18458,-0.66258 0.0609,-0.0609 0.2466,0.18741 0.41264,0.55183 0.36461,0.80024 0.18708,0.88645 -0.22806,0.11075 z m -10.15732,-0.31948 c 0.0994,-0.26094 0.2473,-0.40778 0.32876,-0.32632 0.0815,0.0815 1.7e-4,0.29495 -0.18065,0.47443 -0.26131,0.25936 -0.2917,0.22897 -0.14811,-0.14811 z m 23.69362,-0.88532 c -0.0168,-0.4598 0.17628,-1.05594 0.4326,-1.33539 0.25466,-0.27764 0.35396,-0.34412 0.22068,-0.14774 -0.13329,0.19639 -0.32796,0.79731 -0.4326,1.33539 -0.18783,0.96588 -0.19064,0.96776 -0.22068,0.14774 z m -9.51365,-0.0955 c 0,-0.3638 0.0601,-0.51263 0.13345,-0.33073 0.0734,0.1819 0.0734,0.47956 0,0.66146 -0.0734,0.1819 -0.13345,0.0331 -0.13345,-0.33073 z m 13.73745,-0.57611 c -0.0115,-0.2441 -0.3346,-0.69058 -0.71803,-0.99218 -0.38343,-0.30161 -0.58278,-0.54838 -0.443,-0.54838 0.44125,0 1.46765,1.26953 1.32167,1.63474 -0.0957,0.23951 -0.14633,0.20985 -0.16064,-0.0942 z m -28.02043,-0.50642 c -0.18181,-0.29112 -0.59402,-0.63534 -0.91603,-0.76495 -0.3783,-0.15226 -0.43795,-0.24158 -0.16857,-0.25241 0.43005,-0.0173 1.75239,1.20942 1.53645,1.42536 -0.0667,0.0667 -0.27005,-0.11689 -0.45185,-0.408 z m 10.00787,0.31803 c 0,-0.25106 1.29289,-1.48369 1.39624,-1.33116 0.0415,0.0612 -0.25572,0.43112 -0.66042,0.82202 -0.4047,0.3909 -0.73582,0.62001 -0.73582,0.50914 z m 29.43668,-0.0292 c 0.128,-0.46942 0.99041,-0.7031 0.99041,-0.26837 0,0.16478 -0.13238,0.21779 -0.29417,0.1178 -0.16179,-0.1 -0.40898,-0.0177 -0.54931,0.18282 -0.20971,0.2997 -0.23587,0.29396 -0.14693,-0.0322 z m -26.07799,-0.66982 c -0.4083,-0.3592 -0.63742,-0.6531 -0.50915,-0.6531 0.12827,0 0.51285,0.29766 0.85463,0.66146 0.79074,0.84171 0.61595,0.83748 -0.34548,-0.008 z m 12.4667,-0.83384 c 0.191,-0.0764 0.4192,-0.067 0.50712,0.0209 0.0879,0.0879 -0.0684,0.15046 -0.34726,0.13897 -0.30823,-0.0127 -0.37092,-0.0754 -0.15986,-0.15986 z m 12.41888,-1.42795 c -0.64646,-0.37653 -1.26364,-1.6634 -1.22074,-2.54535 0.0344,-0.70707 0.041,-0.71068 0.1446,-0.0793 0.22269,1.35678 0.72023,2.1875 1.51829,2.535 0.44805,0.19509 0.63603,0.35575 0.41775,0.35702 -0.21828,0.001 -0.60524,-0.11905 -0.8599,-0.26738 z m 3.14194,-0.50986 c 1.05799,-1.24111 1.21371,-1.76787 0.77398,-2.61819 -0.21979,-0.42503 -0.71571,-1.02142 -1.10204,-1.32531 -0.38633,-0.30389 -0.57657,-0.55253 -0.42275,-0.55253 0.15383,0 0.75157,0.55207 1.32833,1.22681 l 1.04864,1.22681 -0.50305,0.85262 c -0.27668,0.46894 -0.76907,1.07688 -1.09421,1.35098 l -0.59115,0.49837 z m 14.16676,-1.40581 -0.57677,-0.61394 0.61385,-0.57668 c 0.33762,-0.31718 0.79072,-0.57668 1.0069,-0.57668 0.45878,0 1.0316,0.51262 1.02001,0.91281 -0.004,0.1528 -0.12941,0.0694 -0.27773,-0.18521 -0.32986,-0.56633 -1.12196,-0.60155 -1.56351,-0.0695 -0.71182,0.85769 0.42603,1.81295 1.42131,1.19324 0.50911,-0.31699 0.52711,-0.30873 0.19714,0.0905 -0.50477,0.61077 -1.16194,0.54847 -1.8412,-0.17457 z m -17.91679,-2.27579 c 0.0983,-0.15896 0.52327,-0.46724 0.94449,-0.68507 0.72569,-0.37527 0.77085,-0.50012 0.86099,-2.38024 l 0.0951,-1.98419 -0.0179,2.02364 -0.0179,2.02365 -1.02174,0.64561 c -0.56196,0.35509 -0.94136,0.51556 -0.84312,0.3566 z m 2.61101,-2.66651 c 0,-0.94589 0.048,-1.33284 0.10671,-0.8599 0.0587,0.47294 0.0587,1.24685 0,1.71979 -0.0587,0.47295 -0.10671,0.086 -0.10671,-0.85989 z m 0.28871,-6.61459 c 0,-2.54661 0.0397,-3.58841 0.0882,-2.3151 0.0485,1.27331 0.0485,3.3569 0,4.63021 -0.0485,1.27331 -0.0882,0.23151 -0.0882,-2.31511 z m 19.45933,-1.73307 c -0.28273,-0.34066 -0.25705,-0.48634 0.15155,-0.85989 0.46451,-0.42466 0.47251,-0.42392 0.14332,0.0133 -0.27898,0.37051 -0.28283,0.54231 -0.0193,0.85989 0.18115,0.21828 0.26984,0.39688 0.19708,0.39688 -0.0728,0 -0.28547,-0.18457 -0.47269,-0.41016 z m -66.8083,-1.82677 c -0.63214,-0.63215 -0.64943,-0.75574 -0.64943,-4.64224 0,-3.88649 0.0173,-4.01009 0.64943,-4.64223 0.40317,-0.40317 0.9299,-0.63917 1.38907,-0.62235 0.6911,0.0253 0.67972,0.0412 -0.17349,0.24205 -1.48547,0.34971 -1.60043,0.71409 -1.60043,5.0731 0,3.5654 0.0477,3.96582 0.52917,4.44735 1.00598,1.00597 2.63734,0.49982 2.9847,-0.92604 0.12496,-0.51293 0.12986,-0.51231 0.15961,0.02 0.0417,0.74675 -1.03287,1.69977 -1.91662,1.69977 -0.4144,0 -0.99955,-0.27698 -1.37201,-0.64943 z m 36.52453,0.45536 c 0.43656,-0.0631 1.03188,-0.31319 1.32292,-0.55567 0.52495,-0.43737 0.52515,-0.43614 0.0251,0.15443 -0.34293,0.40503 -0.76577,0.58264 -1.32292,0.55566 l -0.81889,-0.0396 z m -1.5725,-0.65855 c -0.25752,-0.36767 -0.3973,-1.08654 -0.37297,-1.91823 l 0.0389,-1.33019 0.15954,1.48071 c 0.0878,0.8144 0.32295,1.6776 0.52267,1.91823 0.19972,0.24063 0.29576,0.43751 0.21344,0.43751 -0.0823,0 -0.33503,-0.26461 -0.56157,-0.58803 z m 3.31318,-0.88922 c 0.0127,-0.30823 0.0754,-0.37092 0.15985,-0.15986 0.0764,0.191 0.067,0.4192 -0.0209,0.50712 -0.0879,0.0879 -0.15046,-0.0683 -0.13897,-0.34726 z m 7.65203,-0.47781 c 0,-0.70624 -0.96714,-1.55325 -2.00076,-1.75224 l -1.04195,-0.20059 0.88025,-0.0304 c 0.64533,-0.0223 1.08665,0.17598 1.65365,0.74297 0.66892,0.66892 1.0433,1.60785 0.6411,1.60785 -0.0728,0 -0.13229,-0.1654 -0.13229,-0.36756 z m 0.72703,-0.93927 c -0.25498,-0.54209 -0.76082,-1.14468 -1.12408,-1.3391 -0.36327,-0.19441 -0.61273,-0.40123 -0.55436,-0.4596 0.39029,-0.39029 2.44893,1.96236 2.23007,2.54854 -0.0484,0.12968 -0.29665,-0.20775 -0.55163,-0.74984 z m -56.01459,0.45614 c -0.0115,-0.50607 1.47853,-2.32431 1.90481,-2.32431 0.15008,0 -0.0549,0.2578 -0.45543,0.57288 -0.40056,0.31508 -0.8882,0.94015 -1.08366,1.38906 -0.20492,0.47065 -0.35975,0.62406 -0.36572,0.36237 z m 1.04797,0.14716 c 0,-0.14441 0.32743,-0.5512 0.72761,-0.90399 l 0.7276,-0.64143 -0.66146,0.79375 c -0.3638,0.43656 -0.69122,0.84336 -0.7276,0.90399 -0.0364,0.0606 -0.0661,-0.008 -0.0661,-0.15232 z m -7.78819,-0.96152 c 0.0994,-0.26094 0.2473,-0.40778 0.32876,-0.32632 0.0815,0.0815 1.7e-4,0.29495 -0.18065,0.47443 -0.26131,0.25936 -0.2917,0.22897 -0.14811,-0.14811 z m -1.47222,-0.30371 c 0,-0.20969 0.10796,-0.44798 0.23991,-0.52953 0.13195,-0.0815 0.17759,0.09 0.10143,0.38126 -0.16156,0.6178 -0.34134,0.6959 -0.34134,0.14827 z m 11.31094,-0.33463 c 0.32742,-0.0631 0.8632,-0.0631 1.19062,0 0.32742,0.0631 0.0595,0.11466 -0.59531,0.11466 -0.65485,0 -0.92274,-0.0516 -0.59531,-0.11466 z m 12.35369,-0.19234 c -0.96127,-0.70948 -0.12716,-0.96922 2.81666,-0.87709 l 2.75517,0.0862 -2.84427,0.0558 c -3.44726,0.0676 -3.89678,0.55682 -0.8599,0.9358 0.63289,0.079 0.57611,0.10709 -0.28016,0.13869 -0.59065,0.0218 -1.30502,-0.13093 -1.5875,-0.33942 z m 7.86931,0.18102 c 2.86434,-0.0427 7.62684,-0.0427 10.58333,-1.3e-4 2.95649,0.0426 0.61294,0.0775 -5.2079,0.0776 -5.82083,8e-5 -8.23978,-0.0348 -5.37543,-0.0775 z m 27.402,0.0228 c 0.1819,-0.0734 0.47955,-0.0734 0.66146,0 0.1819,0.0734 0.0331,0.13345 -0.33073,0.13345 -0.36381,0 -0.51263,-0.06 -0.33073,-0.13345 z m -44.65506,-0.26354 c 0.48139,-0.23874 0.28888,-0.58133 -0.39353,-0.70037 -0.6088,-0.10619 -0.60324,-0.11324 0.0661,-0.0837 0.73746,0.0325 1.054,0.71641 0.39353,0.85024 -0.18554,0.0376 -0.21531,0.008 -0.0661,-0.0661 z m 34.82706,-0.19955 c 0.0843,-0.21975 -0.0554,-0.42513 -0.33903,-0.49847 -0.38693,-0.10005 -0.36458,-0.13082 0.11286,-0.15544 0.42915,-0.0221 0.59531,0.11701 0.59531,0.49848 0,0.29104 -0.11532,0.52916 -0.25628,0.52916 -0.14095,0 -0.19174,-0.16818 -0.11286,-0.37373 z m 8.9681,0.10915 c -0.20861,-0.33754 0.0686,-0.79497 0.47864,-0.7897 0.20717,0.003 0.19022,0.0832 -0.0495,0.235 -0.20055,0.12703 -0.28282,0.36333 -0.18283,0.52512 0.1,0.16179 0.12228,0.29416 0.0495,0.29416 -0.0728,0 -0.20587,-0.11906 -0.29581,-0.26458 z m -47.29427,-0.70439 c 0.1819,-0.0734 0.47956,-0.0734 0.66146,0 0.1819,0.0734 0.0331,0.13345 -0.33073,0.13345 -0.3638,0 -0.51263,-0.0601 -0.33073,-0.13345 z m 34.66516,-0.0165 c 0.47554,-0.0589 1.18992,-0.0577 1.5875,0.003 0.39757,0.0604 0.008,0.10855 -0.86464,0.10707 -0.87312,-0.001 -1.19841,-0.0509 -0.72286,-0.10977 z m 15.87026,0.0165 c 0.1819,-0.0734 0.47955,-0.0734 0.66146,0 0.1819,0.0734 0.0331,0.13345 -0.33073,0.13345 -0.36381,0 -0.51263,-0.0601 -0.33073,-0.13345 z m -9.15045,-2.15191 c -0.0392,-1.72773 0.0243,-1.99839 0.60561,-2.57968 0.35719,-0.35719 0.93644,-0.64944 1.28723,-0.64944 0.79705,0 2.03769,0.94838 2.01532,1.54056 -0.0123,0.32595 -0.0786,0.29031 -0.24966,-0.1342 -0.43346,-1.07581 -1.83955,-1.46203 -2.79186,-0.76686 -0.40434,0.29517 -0.54648,0.81575 -0.66821,2.4474 l -0.15461,2.07248 z m -31.49855,-1.48849 c -0.0169,-0.27958 -0.23463,-0.75583 -0.48389,-1.05833 -0.43692,-0.53025 -0.43124,-0.52981 0.15805,0.0123 0.37139,0.34164 0.56128,0.75694 0.48389,1.05834 -0.12196,0.47503 -0.12866,0.47451 -0.15805,-0.0123 z m 19.81306,-1.60833 c 0,-0.80037 0.11906,-1.45521 0.26458,-1.45521 0.14552,0 0.26459,0.65484 0.26459,1.45521 0,0.80036 -0.11907,1.4552 -0.26459,1.4552 -0.14552,0 -0.26458,-0.65484 -0.26458,-1.4552 z m 0,-2.64584 c 0,-0.21828 0.11906,-0.39687 0.26458,-0.39687 0.14552,0 0.26459,0.17859 0.26459,0.39687 0,0.21828 -0.11907,0.39688 -0.26459,0.39688 -0.14552,0 -0.26458,-0.1786 -0.26458,-0.39688 z m -33.86136,-2.38764 c 0.18407,-0.2218 0.38917,-0.34878 0.45576,-0.28219 0.18349,0.18349 -0.18932,0.68546 -0.50908,0.68546 -0.17544,0 -0.15537,-0.15182 0.0533,-0.40327 z m -1.89114,-0.32434 c -0.31582,-0.40269 -0.31142,-0.42364 0.0337,-0.16076 0.21828,0.16624 0.635,0.36079 0.92604,0.43233 0.50261,0.12354 0.50092,0.13161 -0.0337,0.16076 -0.3096,0.0169 -0.72632,-0.17767 -0.92604,-0.43233 z m 60.62333,-0.0661 c 0,-0.14552 0.11907,-0.26459 0.26459,-0.26459 0.14552,0 0.26458,0.11907 0.26458,0.26459 0,0.14552 -0.11906,0.26458 -0.26458,0.26458 -0.14552,0 -0.26459,-0.11906 -0.26459,-0.26458 z m -23.54791,-0.10399 c 0,-0.0572 0.18477,-0.17489 0.41061,-0.26155 0.23546,-0.0904 0.34166,-0.046 0.24897,0.10398 -0.15538,0.25141 -0.65958,0.37186 -0.65958,0.15757 z m -34.60884,-0.82205 c 0.005,-0.43657 0.0647,-0.58313 0.13177,-0.3257 0.0671,0.25743 0.0627,0.61462 -0.01,0.79375 -0.0725,0.17913 -0.12736,-0.0315 -0.12197,-0.46805 z m -3.04654,0.029 c -0.13123,-0.34198 0.68993,-1.48423 1.06701,-1.48423 0.0925,0 -0.0756,0.26789 -0.37351,0.59531 -0.29788,0.32742 -0.48731,0.74414 -0.42094,0.92604 0.0664,0.1819 0.064,0.33073 -0.005,0.33073 -0.0693,0 -0.18956,-0.16553 -0.26719,-0.36785 z m 33.68663,-0.16132 c 0,-0.14552 0.11906,-0.26458 0.26458,-0.26458 0.14552,0 0.26458,0.11906 0.26458,0.26458 0,0.14552 -0.11906,0.26459 -0.26458,0.26459 -0.14552,0 -0.26458,-0.11907 -0.26458,-0.26459 z m -31.61771,-1.20018 c -0.43657,-0.1999 -0.60815,-0.36882 -0.3813,-0.37538 0.22685,-0.007 0.64356,0.16287 0.92604,0.37652 0.62717,0.47437 0.49311,0.47409 -0.54474,-0.001 z m 13.89062,-2.87255 c 0,-0.0572 0.18478,-0.17489 0.41062,-0.26155 0.23546,-0.0904 0.34166,-0.046 0.24897,0.10398 -0.15538,0.25141 -0.65959,0.37186 -0.65959,0.15757 z m 32.14875,-1.2159 c -0.0927,-0.14998 0.0135,-0.19434 0.24897,-0.10399 0.45837,0.1759 0.54223,0.36554 0.16165,0.36554 -0.13693,0 -0.32171,-0.1177 -0.41062,-0.26155 z"
         id="path394" /><path
         style="fill:#d3d3d3"
         d="m 254.00001,237.22727 c 0,-0.0572 0.18477,-0.17489 0.41061,-0.26156 0.23546,-0.0904 0.34166,-0.046 0.24897,0.10399 -0.15538,0.25141 -0.65958,0.37186 -0.65958,0.15757 z m -0.0706,-1.25177 c 0.17948,-0.18082 0.39297,-0.26211 0.47443,-0.18065 0.0815,0.0815 -0.0654,0.22941 -0.32632,0.32876 -0.37708,0.14359 -0.40747,0.1132 -0.14811,-0.14811 z m -32.94172,-5.83319 c -0.66924,-0.66924 -0.18417,-1.80689 0.77041,-1.80689 0.25335,0 0.54559,0.13746 0.64942,0.30546 0.11749,0.1901 0.0725,0.23361 -0.11904,0.11521 -0.50523,-0.31224 -1.36143,0.10521 -1.36143,0.66379 0,0.82009 0.78622,0.94097 1.38925,0.21361 l 0.52779,-0.63661 -0.39482,0.66145 c -0.45786,0.76707 -0.99923,0.94633 -1.46158,0.48398 z m 66.51533,-1.41455 c -1.11874,-1.11875 0.0895,-2.69534 1.55424,-2.02799 0.3638,0.16576 0.66146,0.4315 0.66146,0.59054 0,0.15903 -0.19344,0.0957 -0.42986,-0.1407 -0.87054,-0.87055 -2.42791,0.1032 -1.79073,1.11966 0.45434,0.72477 1.44313,0.73667 2.03501,0.0245 l 0.51512,-0.61981 -0.39322,0.66146 c -0.47107,0.79241 -1.55443,0.98992 -2.15202,0.39234 z m 0.45997,-0.52287 c -0.0916,-0.23881 -0.0398,-0.56108 0.11531,-0.71614 0.40312,-0.40312 1.16692,-0.0347 1.06162,0.5121 -0.11729,0.60904 -0.96511,0.75603 -1.17693,0.20404 z m 0.72486,-0.47701 c -0.33959,-0.33959 -0.68397,-0.0771 -0.43255,0.32967 0.0974,0.15757 0.29827,0.21159 0.44642,0.12003 0.18071,-0.11169 0.17615,-0.25968 -0.0139,-0.4497 z m 2.26559,-4.33135 c -0.26234,-0.26234 -0.21343,-1.14653 0.0634,-1.14653 0.1319,0 0.17263,0.25693 0.0905,0.57095 -0.12597,0.48171 -0.06,0.5476 0.42201,0.42155 0.31422,-0.0822 0.50459,-0.0414 0.42305,0.0905 -0.17349,0.2807 -0.74544,0.31707 -0.99899,0.0635 z m -60.91687,-4.84136 c -0.72787,-0.29459 -1.43661,-1.41268 -1.43661,-2.26638 0,-1.08732 0.48429,-1.72161 1.73782,-2.27611 l 1.1634,-0.51462 0.0708,-6.47222 c 0.0447,-4.09126 0.16808,-6.47221 0.33533,-6.4722 0.16748,1e-5 0.29054,2.43759 0.33533,6.64208 l 0.0707,6.64208 0.93152,1.13679 0.93152,1.1368 -0.69077,1.01878 c -1.04049,1.53458 -2.09838,1.97165 -3.44903,1.425 z m 2.08609,-0.29965 c 0.35044,-0.15968 0.83276,-0.70047 1.07181,-1.20177 0.38384,-0.80491 0.39017,-0.99746 0.0542,-1.64718 -0.20925,-0.40466 -0.5669,-0.89047 -0.79478,-1.07959 -0.22788,-0.18912 -0.41432,-0.52633 -0.41432,-0.74934 0,-0.35245 -0.0633,-0.34821 -0.48386,0.0324 -0.26612,0.24084 -0.61417,0.43789 -0.77345,0.43789 -0.59394,0 -1.91769,1.37742 -1.91769,1.99544 0,1.88144 1.59987,2.9677 3.25811,2.21216 z m -0.15018,-14.32792 c -0.0464,-1.63711 -0.0844,-0.29765 -0.0844,2.97657 0,3.27421 0.038,4.61367 0.0844,2.97656 0.0464,-1.63711 0.0464,-4.31602 0,-5.95313 z m 26.35793,14.41391 c -0.82722,-0.67007 -1.22461,-1.59962 -1.02604,-2.40001 0.18145,-0.73134 1.11376,-1.89358 1.51897,-1.89358 0.12827,0 -0.0712,0.26789 -0.44328,0.59531 -1.03578,0.91148 -1.13856,2.03913 -0.27897,3.06069 0.54453,0.64715 0.91998,0.84191 1.62296,0.84191 2.08939,0 2.99576,-2.46966 1.39937,-3.81294 -0.44773,-0.37673 -1.06289,-0.68497 -1.36702,-0.68497 -0.30413,0 -0.47913,-0.0738 -0.3889,-0.16407 0.31043,-0.31043 1.55776,0.18658 2.19564,0.87486 1.91151,2.06256 -1.05318,5.3483 -3.23273,3.5828 z m -17.42732,-1.5603 c -2.75809,-0.10118 -3.65714,-0.26461 -3.43479,-0.62438 0.20845,-0.33729 16.44437,-0.34755 16.65266,-0.0105 0.0837,0.13547 0.001,0.34383 -0.18282,0.46302 -0.34084,0.22047 -8.70472,0.33076 -13.03505,0.17189 z m 12.43542,-0.35204 c 0.31014,-0.13328 -2.37291,-0.21258 -6.48229,-0.19161 -5.66864,0.0289 -6.32738,0.0656 -3.43959,0.19161 5.64879,0.24642 9.34842,0.24642 9.92188,0 z m 13.89062,0.32348 c -0.80036,-0.0404 -1.63046,-0.13607 -1.84467,-0.21267 -1.307,-0.46741 1.34169,-0.63227 10.21721,-0.63593 l 9.82775,-0.004 0.82173,-0.76761 0.82173,-0.76761 0.004,-15.17354 c 0.002,-8.34544 0.10798,-15.33762 0.23501,-15.53816 0.74771,-1.1805 0.81829,0.23318 0.75536,15.13076 l -0.0639,15.13178 -0.0706,-15.0151 c -0.0456,-9.70291 -0.16339,-15.01511 -0.33295,-15.01511 -0.17044,0 -0.2624,5.33061 -0.2624,15.20937 v 15.20937 l -0.77179,0.86407 -0.77178,0.86407 -9.8777,0.13865 -9.87769,0.13865 9.65729,0.0559 c 10.57181,0.0612 10.50963,0.0692 11.56758,-1.50065 0.68978,-1.02356 0.79386,-0.89464 0.2019,0.25008 -0.75949,1.46869 -1.09219,1.52092 -10.31924,1.62014 -4.65393,0.05 -9.11654,0.058 -9.91691,0.0176 z m 35.38119,-6.97365 c -0.62358,-0.34897 -0.57426,-1.20553 0.0899,-1.56097 0.40534,-0.21693 0.64401,-0.21098 0.92605,0.0231 0.89066,0.73918 -0.009,2.1013 -1.01594,1.53788 z m 1.13131,-0.77086 c 0,-0.59708 -0.34541,-0.83496 -0.90216,-0.62132 -0.49125,0.18851 -0.54576,0.66775 -0.12393,1.08959 0.40647,0.40647 1.02609,0.1237 1.02609,-0.46827 z m -92.33958,-0.25189 c -0.23847,-0.15411 -0.2711,-0.2581 -0.0818,-0.26053 0.17331,-0.002 0.3887,0.11501 0.47863,0.26053 0.20302,0.32849 0.11142,0.32849 -0.39687,0 z m 8.6552,-9.95383 c -0.36202,-0.36202 -0.18453,-1.1422 0.32146,-1.413 0.77502,-0.41477 1.38433,-0.06 1.29025,0.75115 -0.0602,0.5192 -0.24941,0.71351 -0.75181,0.7721 -0.36925,0.0431 -0.75621,-0.007 -0.8599,-0.11025 z m 1.31011,-0.515 c 0.23995,-0.6253 -0.32304,-1.07038 -0.82597,-0.65298 -0.22445,0.18628 -0.40809,0.5027 -0.40809,0.70316 0,0.50289 1.03802,0.46068 1.23406,-0.0502 z m 84.49094,0.57526 c 0,-0.0572 0.18478,-0.17489 0.41062,-0.26155 0.23546,-0.0904 0.34166,-0.046 0.24897,0.10398 -0.15538,0.25141 -0.65959,0.37186 -0.65959,0.15757 z m -0.50828,-0.57952 c 0.0127,-0.30823 0.0754,-0.37092 0.15985,-0.15985 0.0764,0.19099 0.067,0.4192 -0.0209,0.50711 -0.0879,0.0879 -0.15046,-0.0683 -0.13897,-0.34726 z m -59.05953,-0.44988 c 0.48922,-0.18943 1.05477,-0.57045 1.25677,-0.84671 0.20201,-0.27626 0.36729,-0.37893 0.36729,-0.22815 0,0.45491 -0.87629,1.09895 -1.71979,1.26398 -0.76345,0.14936 -0.7598,0.14215 0.0957,-0.18912 z m 13.9725,-0.0461 c 2.0485,-0.89109 1.83798,-3.16904 -0.33151,-3.58704 -1.03118,-0.19868 -1.03206,-0.19991 -0.1648,-0.23017 1.07332,-0.0375 2.17079,0.95459 2.17079,1.96227 0,0.8103 -1.30669,2.24578 -2.03017,2.23028 -0.30779,-0.007 -0.17859,-0.14294 0.35569,-0.37534 z m 13.26653,0.20495 c 0.191,-0.0764 0.4192,-0.067 0.50712,0.0209 0.0879,0.0879 -0.0684,0.15046 -0.34726,0.13897 -0.30823,-0.0127 -0.37092,-0.0754 -0.15986,-0.15986 z m 32.59336,-0.0838 c -0.23846,-0.15411 -0.2711,-0.2581 -0.0818,-0.26053 0.17332,-0.002 0.3887,0.11501 0.47864,0.26053 0.20302,0.32849 0.11142,0.32849 -0.39688,0 z m -61.7652,-0.58804 c -0.22654,-0.32342 -0.41188,-0.95751 -0.41188,-1.40908 0,-1.93524 2.87823,-2.76592 3.74417,-1.0806 0.27984,0.54463 0.27006,0.54356 -0.28224,-0.0311 -0.71142,-0.74025 -2.13826,-0.79788 -2.75947,-0.11146 -0.60246,0.66572 -0.55571,2.04415 0.0913,2.69115 0.29104,0.29104 0.41685,0.52916 0.27958,0.52916 -0.13726,0 -0.43492,-0.26462 -0.66145,-0.58804 z m 13.89482,-0.1091 c -0.69728,-0.88645 -0.69662,-1.72181 0.002,-2.51469 l 0.55037,-0.62463 -0.41808,0.65419 c -0.59571,0.93213 -0.51794,1.78354 0.23136,2.53284 0.35718,0.35719 0.54442,0.64943 0.41608,0.64943 -0.12835,0 -0.48012,-0.31371 -0.78173,-0.69714 z m 13.88643,0.1091 c -0.99158,-1.41567 -0.0582,-3.38071 1.6058,-3.38071 0.78873,0 1.95107,0.81552 1.95107,1.36891 0,0.15947 -0.24677,-0.0238 -0.54837,-0.40718 -0.66475,-0.8451 -2.0479,-0.95364 -2.71792,-0.21329 -0.60246,0.66572 -0.55571,2.04415 0.0913,2.69115 0.29104,0.29104 0.41685,0.52916 0.27959,0.52916 -0.13727,0 -0.43493,-0.26462 -0.66146,-0.58804 z m 2.57065,0.29893 c 0.25795,-0.15017 0.64367,-0.65256 0.85717,-1.11644 0.28616,-0.62174 0.3459,-0.66956 0.22732,-0.18195 -0.1868,0.76813 -0.84526,1.59108 -1.26376,1.57946 -0.15934,-0.004 -0.0787,-0.13091 0.17927,-0.28107 z m -44.0591,-0.52583 c -0.71778,-0.41807 -1.32338,-1.79405 -1.12953,-2.5664 0.0937,-0.37318 0.60109,-1.0731 1.12761,-1.55538 l 0.95732,-0.87687 -0.0592,-15.01872 c -0.0551,-13.99507 -0.0268,-15.08057 0.41527,-15.92596 0.79435,-1.51896 1.67316,-1.97984 3.77513,-1.97984 1.01086,0 1.92845,0.0905 2.03909,0.20115 0.37681,0.37681 -0.57394,0.69343 -2.09446,0.69749 -1.2993,0.003 -1.64126,0.11491 -2.38125,0.77598 l -0.86407,0.77192 -0.0725,15.13783 -0.0725,15.13782 1.06472,0.98294 c 0.58559,0.54062 1.06006,1.2096 1.05436,1.48661 -0.007,0.34255 -0.12761,0.23407 -0.3769,-0.33911 -0.2016,-0.46353 -0.73858,-1.03516 -1.19329,-1.2703 -0.77941,-0.40305 -0.87643,-0.39682 -1.69434,0.10867 -0.8374,0.51754 -1.48761,1.50585 -1.48761,2.26114 0,0.20027 0.30824,0.73044 0.68498,1.17817 0.5123,0.60885 0.90703,0.81405 1.56586,0.81405 1.28485,0 1.73369,-0.24485 2.13385,-1.16407 0.22412,-0.51483 0.36095,-0.6434 0.36745,-0.34526 0.0185,0.84947 -1.18284,1.77476 -2.29272,1.76587 -0.55232,-0.004 -1.21258,-0.12941 -1.46724,-0.27773 z m 1.32267,-27.16475 c -0.042,-3.3106 -0.0763,-0.60192 -0.0763,6.01927 0,6.6212 0.0343,9.32987 0.0763,6.01928 0.042,-3.3106 0.042,-8.72795 0,-12.03855 z m 3.45922,-10.18995 1.50197,-0.0949 -1.674,-0.05 c -1.52982,-0.0457 -1.74061,0.0166 -2.44739,0.72336 -0.42537,0.42537 -0.7734,0.9615 -0.7734,1.19139 0,0.26368 0.34903,0.0316 0.94542,-0.62848 0.85676,-0.94832 1.08629,-1.05537 2.4474,-1.14136 z m 12.50307,36.16322 c 0.0127,-0.30823 0.0754,-0.37092 0.15985,-0.15985 0.0764,0.19099 0.067,0.4192 -0.0209,0.50711 -0.0879,0.0879 -0.15045,-0.0683 -0.13896,-0.34726 z m -26.19375,-7.14375 c 0.0127,-0.30823 0.0754,-0.37092 0.15985,-0.15985 0.0764,0.19099 0.067,0.41919 -0.0209,0.50711 -0.0879,0.0879 -0.15045,-0.0684 -0.13896,-0.34726 z m -1.34381,-0.0946 c 0,-0.13693 0.1177,-0.32171 0.26155,-0.41062 0.14999,-0.0927 0.19434,0.0135 0.10399,0.24897 -0.17589,0.45837 -0.36554,0.54224 -0.36554,0.16165 z m 90.15678,-0.72001 c 0.1819,-0.0734 0.47955,-0.0734 0.66145,0 0.1819,0.0734 0.0331,0.13345 -0.33073,0.13345 -0.3638,0 -0.51263,-0.06 -0.33072,-0.13345 z m -0.72761,-0.47062 c 0,-0.20969 0.10796,-0.44798 0.23991,-0.52953 0.13195,-0.0815 0.17759,0.09 0.10143,0.38126 -0.16156,0.6178 -0.34134,0.6959 -0.34134,0.14827 z m 1.45521,-0.67707 c -0.43138,-0.18537 -0.44649,-0.23083 -0.0818,-0.24599 0.24607,-0.0102 0.52099,0.10047 0.61093,0.24599 0.18803,0.30424 0.17883,0.30424 -0.52917,0 z m -66.57955,-0.79757 -0.62462,-0.53298 0.83839,0.45933 c 1.05276,0.57678 2.1381,0.26379 2.7253,-0.78592 0.36085,-0.64507 0.36174,-0.80108 0.008,-1.42927 -0.21829,-0.38784 -0.8136,-0.86517 -1.32292,-1.06072 -0.85665,-0.32892 -0.86656,-0.34472 -0.13229,-0.21092 0.83634,0.1524 1.98437,1.22085 1.98437,1.84681 0,0.71882 -0.59567,1.66286 -1.23225,1.9529 -0.93737,0.4271 -1.53836,0.36303 -2.24417,-0.23923 z m 14.12033,0.3559 c -0.40827,-0.16427 -1.11891,-1.48472 -1.11891,-2.07908 0,-0.60523 1.44053,-1.97717 2.07602,-1.97717 0.89007,0 2.15732,1.26425 2.15732,2.15222 0,1.44816 -1.68585,2.47882 -3.11443,1.90403 z m 2.28574,-0.6409 c 0.80119,-0.74642 0.67522,-1.99149 -0.27276,-2.69605 -1.81793,-1.35109 -3.80117,1.21946 -2.18655,2.83408 0.58267,0.58267 1.75644,0.51679 2.45931,-0.13803 z m 11.31541,0.26962 c -1.36685,-1.07516 -0.48898,-3.68497 1.23953,-3.68497 0.64885,0 2.03208,0.9054 2.03208,1.3301 0,0.12834 -0.29224,-0.0589 -0.64943,-0.41608 -1.23228,-1.23228 -3.05474,-0.44903 -3.05474,1.31285 0,1.00684 0.42586,1.45669 1.65528,1.74855 0.77822,0.18475 0.79373,0.20628 0.16634,0.23084 -0.38056,0.0149 -1.00563,-0.21969 -1.38906,-0.52129 z m 2.72429,-0.41469 c 0.30103,-0.38269 0.54732,-0.87819 0.54732,-1.1011 0,-0.22291 0.0756,-0.32973 0.1679,-0.23738 0.25203,0.25202 -0.42355,1.71233 -0.87173,1.88431 -0.26604,0.10209 -0.21607,-0.0722 0.15651,-0.54583 z m -31.16304,-1.02859 c -0.0417,-0.84274 0.57784,-1.9771 1.07982,-1.9771 0.16263,0 0.0463,0.26789 -0.2584,0.59531 -0.30476,0.32742 -0.60533,0.9525 -0.66794,1.38906 l -0.11384,0.79375 z m 43.7489,-3.86313 c 1.05454,-0.40081 1.41495,-0.70823 1.87633,-1.60043 0.33561,-0.64901 0.3367,-0.84222 0.008,-1.47448 -0.20784,-0.40018 -0.7633,-1.01135 -1.23436,-1.35814 -0.8454,-0.6224 -0.8671,-0.62432 -1.67943,-0.14893 -1.13063,0.66167 -1.46616,1.15925 -1.47601,2.18888 -0.006,0.63539 0.21598,1.10464 0.79825,1.68691 0.44366,0.44366 0.61252,0.73216 0.37523,0.6411 -0.23728,-0.091 -0.47816,-0.16555 -0.53528,-0.16555 -0.25336,0 -0.91119,-1.62669 -0.91119,-2.25321 0,-0.99217 0.38474,-1.57806 1.44837,-2.20561 0.92803,-0.54756 0.93288,-0.56017 0.93288,-2.42704 0,-1.1837 0.0977,-1.81624 0.26458,-1.7131 0.39859,0.24634 0.32584,-9.32535 -0.0781,-10.27271 -0.26231,-0.61523 -0.31523,0.18176 -0.2987,4.49792 l 0.0201,5.24563 -0.15238,-4.9845 -0.15239,-4.9845 -0.74236,-0.6379 c -0.629,-0.5405 -1.02051,-0.6379 -2.56407,-0.6379 -1.80728,0 -2.54742,-0.34058 -1.82069,-0.8378 0.54615,-0.37368 3.57948,-0.0405 4.48134,0.49228 0.43412,0.25644 1.04251,0.98929 1.35198,1.62856 0.5405,1.11654 0.55693,1.41711 0.41725,7.63367 l -0.14542,6.47137 0.79436,0.70648 c 0.43689,0.38857 0.96403,1.03391 1.17142,1.43409 0.3262,0.62944 0.32627,0.82585 4.9e-4,1.45583 -0.52415,1.0136 -1.2201,1.58519 -2.15055,1.76629 l -0.79375,0.15448 z m -0.79287,-20.07297 c -0.0894,-0.14473 -0.4239,-0.39085 -0.74322,-0.54692 -0.50017,-0.24446 -0.48897,-0.20883 0.0809,0.25728 0.74076,0.6059 0.90115,0.67604 0.66234,0.28964 z m -4.03577,-0.9704 c -0.18191,-0.0734 -0.47956,-0.0734 -0.66146,0 -0.1819,0.0734 -0.0331,0.13345 0.33073,0.13345 0.3638,0 0.51263,-0.06 0.33073,-0.13345 z m 1.94081,-0.10086 c -0.45476,-0.13599 -0.94327,-0.12997 -1.19063,0.0147 -0.30003,0.17547 -0.0805,0.24113 0.77117,0.23061 1.09919,-0.0136 1.1314,-0.0324 0.41946,-0.2453 z m 18.61213,19.17162 c -0.43811,-0.5279 -0.0357,-1.26482 0.75513,-1.38294 0.72256,-0.10791 1.29669,0.86783 0.83674,1.42203 -0.4159,0.50114 -1.15865,0.4829 -1.59187,-0.0391 z m 1.42958,-0.22306 c 0.18567,-0.48385 -0.48858,-1.05144 -1.01092,-0.851 -0.41209,0.15813 -0.53591,0.74009 -0.22386,1.05214 0.31321,0.31321 1.0857,0.18738 1.23478,-0.20114 z m -83.16463,-1.07431 c -0.38828,-0.46785 -0.17337,-1.19399 0.35338,-1.19399 0.20503,0 0.53045,0.20836 0.72315,0.46302 0.29807,0.3939 0.295,0.41365 -0.0205,0.13229 -0.20399,-0.1819 -0.52567,-0.33073 -0.71484,-0.33073 -0.50306,0 -0.42004,0.72315 0.11906,1.03714 0.25466,0.14833 0.32877,0.27331 0.16469,0.27773 -0.16409,0.004 -0.4453,-0.16903 -0.62492,-0.38546 z m -14.62102,-1.14989 c 0.25466,-0.26679 0.50975,-0.44826 0.56687,-0.40327 0.1563,0.12311 -0.53086,0.88833 -0.79771,0.88833 -0.1277,0 -0.0238,-0.21828 0.23084,-0.48506 z m -0.78887,-0.88242 c 0.15375,-0.15375 0.43572,-0.22749 0.6266,-0.16386 0.19816,0.066 0.0782,0.18599 -0.27954,0.27954 -0.4401,0.11509 -0.5434,0.0807 -0.34706,-0.11568 z m 34.72168,-11.86168 c -0.42995,-0.42995 -0.51979,-0.83921 -0.47914,-2.18282 l 0.05,-1.65364 0.0973,1.5833 c 0.11073,1.80166 0.58381,2.51774 1.66332,2.51774 1.18871,0 1.43122,-0.59012 1.53922,-3.74549 0.13405,-3.91617 -0.0775,-5.19452 -0.92334,-5.57991 -0.4971,-0.2265 -0.87114,-0.22499 -1.50304,0.006 -0.76298,0.27897 -0.79346,0.27141 -0.32765,-0.0813 0.73465,-0.55631 1.83557,-0.47993 2.42196,0.16803 0.44783,0.49484 0.50403,0.9933 0.50403,4.47014 0,3.47684 -0.0562,3.9753 -0.50403,4.47014 -0.63942,0.70655 -1.84669,0.71976 -2.53868,0.0278 z m 35.0723,-0.0589 c -0.22654,-0.32342 -0.39567,-1.00803 -0.37585,-1.52136 0.0264,-0.6841 0.0639,-0.75669 0.14022,-0.27186 0.24276,1.54124 0.39951,1.88737 0.95614,2.11135 0.43184,0.17377 0.46875,0.2408 0.13938,0.25313 -0.24641,0.009 -0.63336,-0.24784 -0.85989,-0.57126 z m 2.17508,0.17616 c 0.32342,-0.22654 0.59744,-0.61349 0.60893,-0.8599 0.014,-0.29926 0.0669,-0.33312 0.15944,-0.10198 0.15225,0.38024 -0.62445,1.37375 -1.07396,1.37375 -0.15535,0 -0.0178,-0.18534 0.30559,-0.41187 z m 0.85262,-4.96783 c -0.1167,-3.22873 -0.1928,-3.70409 -0.64588,-4.0349 -1.1465,-0.83708 -2.25228,-0.34922 -2.53586,1.11882 -0.19551,1.01209 -0.19722,1.01329 -0.22741,0.15985 -0.0828,-2.33998 3.12005,-2.57222 3.54415,-0.25698 0.0859,0.46876 0.12038,2.16198 0.0767,3.76271 l -0.0794,2.91041 z m -64.36487,1.16758 c -0.11508,-0.44009 -0.0806,-0.5434 0.11569,-0.34706 0.15375,0.15375 0.22749,0.43572 0.16386,0.62661 -0.066,0.19815 -0.18599,0.0782 -0.27955,-0.27955 z m 8.97554,0.17723 c 0.0675,-0.10914 0.28718,-0.19844 0.48829,-0.19844 0.2011,0 0.42083,0.0893 0.48829,0.19844 0.0675,0.10914 -0.15228,0.19844 -0.48829,0.19844 -0.33601,0 -0.55574,-0.0893 -0.48829,-0.19844 z m 51.74655,-0.46302 c 0,-0.50933 0.0545,-0.71768 0.121,-0.46302 0.0666,0.25466 0.0666,0.67138 0,0.92604 -0.0665,0.25466 -0.121,0.0463 -0.121,-0.46302 z m -28.36414,0.27492 c -0.21407,-0.13538 -0.2937,-0.34166 -0.17697,-0.45839 0.25718,-0.25718 25.18441,-0.2891 25.44124,-0.0326 0.66608,0.66526 -0.68166,0.74504 -12.5214,0.74115 -7.15583,-0.002 -12.51742,-0.10762 -12.74287,-0.25019 z m 1.11682,-0.18557 c -0.1819,-0.0734 -0.47956,-0.0734 -0.66146,0 -0.1819,0.0734 -0.0331,0.13345 0.33073,0.13345 0.3638,0 0.51263,-0.06 0.33073,-0.13345 z m 11.90625,-0.0221 c -1.49159,-0.0472 -3.93237,-0.0472 -5.42396,0 -1.49159,0.0472 -0.2712,0.0857 2.71198,0.0857 2.98318,0 4.20357,-0.0386 2.71198,-0.0857 z m 8.21309,0.002 c -0.90346,-0.0515 -2.45127,-0.0519 -3.43959,-8.4e-4 -0.98832,0.051 -0.24913,0.0932 1.64264,0.0936 1.89178,4.6e-4 2.7004,-0.0413 1.79695,-0.0928 z m 33.89755,-0.39309 c 0.0376,-0.18554 0.28663,-0.33734 0.55342,-0.33734 0.26679,0 0.51583,0.1518 0.55342,0.33734 0.0376,0.18554 0.008,0.21531 -0.0661,0.0661 -0.074,-0.14916 -0.29325,-0.2712 -0.48728,-0.2712 -0.19403,0 -0.4133,0.12204 -0.48727,0.2712 -0.074,0.14916 -0.10374,0.11939 -0.0661,-0.0661 z M 240.54803,155.575 c 0,-0.3638 0.06,-0.51263 0.13345,-0.33073 0.0734,0.1819 0.0734,0.47956 0,0.66146 -0.0734,0.1819 -0.13345,0.0331 -0.13345,-0.33073 z m -11.68133,-6.85083 c -0.36263,-0.10092 -0.80565,-0.476 -0.98447,-0.83352 -0.28634,-0.57246 -0.24792,-0.72744 0.32191,-1.29877 0.54767,-0.54911 0.75983,-0.60933 1.38135,-0.3921 0.57156,0.19976 0.75297,0.45 0.8185,1.12905 0.0463,0.47982 -0.0576,1.04322 -0.23083,1.25199 -0.34228,0.41242 -0.34037,0.41221 -1.30646,0.14335 z m 1.27378,-0.92464 c 0.0986,-0.83641 -0.34307,-1.48495 -1.01131,-1.48495 -1.19187,0 -1.36983,1.97068 -0.198,2.19267 0.93154,0.17647 1.11792,0.0674 1.20931,-0.70772 z m 34.70744,-0.0141 c 0,-0.20969 0.10796,-0.44798 0.23991,-0.52953 0.13195,-0.0815 0.1776,0.09 0.10143,0.38126 -0.16155,0.6178 -0.34134,0.69589 -0.34134,0.14827 z m 0.72264,-0.16911 c 0.0936,-0.35777 0.21349,-0.47771 0.27954,-0.27955 0.0636,0.19088 -0.0101,0.47285 -0.16386,0.6266 -0.19634,0.19634 -0.23077,0.093 -0.11568,-0.34705 z m 32.16913,0.0419 c 0.0269,-0.3524 0.22745,-0.68889 0.44573,-0.74775 0.26223,-0.0707 0.29506,-0.0328 0.0968,0.11157 -0.16507,0.12022 -0.36565,0.45671 -0.44573,0.74775 -0.11481,0.41725 -0.13528,0.39365 -0.0968,-0.11157 z m 0.99579,-0.17506 c 0.0127,-0.30823 0.0754,-0.37092 0.15985,-0.15986 0.0764,0.191 0.067,0.4192 -0.0209,0.50712 -0.0879,0.0879 -0.15045,-0.0684 -0.13896,-0.34726 z m -85.21673,-1.41755 c 0,-0.13693 0.1177,-0.32171 0.26156,-0.41062 0.14998,-0.0927 0.19433,0.0135 0.10398,0.24897 -0.17589,0.45837 -0.36554,0.54224 -0.36554,0.16165 z m 75.93542,-1.60311 c 0,-0.14552 0.11907,-0.26459 0.26459,-0.26459 0.14552,0 0.26458,0.11907 0.26458,0.26459 0,0.14552 -0.11906,0.26458 -0.26458,0.26458 -0.14552,0 -0.26459,-0.11906 -0.26459,-0.26458 z m 6.47142,-1.07594 c -0.0959,-0.1552 -0.10295,-0.35364 -0.0156,-0.44097 0.0873,-0.0873 0.15879,-0.0129 0.15879,0.16551 0,0.17836 0.13746,0.23934 0.30546,0.13551 0.18926,-0.11697 0.23364,-0.0726 0.11668,0.11667 -0.23393,0.3785 -0.343,0.38299 -0.56531,0.0233 z m -52.75261,-0.6659 c 0.0127,-0.30823 0.0754,-0.37092 0.15985,-0.15986 0.0764,0.191 0.067,0.4192 -0.0209,0.50712 -0.0879,0.0879 -0.15045,-0.0683 -0.13896,-0.34726 z m 32.34958,-1.0477 c -0.0862,-0.22456 -0.0976,-0.4674 -0.0253,-0.53966 0.0722,-0.0723 0.19488,0.11147 0.2725,0.40829 0.16487,0.63048 -0.0183,0.72784 -0.2472,0.13137 z m -19.931,-0.56829 c -0.006,-0.49527 0.53963,-0.70487 0.8789,-0.33739 0.23801,0.25781 0.22609,0.28685 -0.0526,0.12826 -0.2134,-0.12142 -0.45448,-0.0563 -0.59126,0.15962 -0.15184,0.23973 -0.23234,0.25669 -0.235,0.0495 z"
         id="path393" /><path
         style="fill:#c4c4c4"
         d="m 253.73542,236.68541 c 0,-0.54349 0.54776,-0.81052 0.80588,-0.39288 0.11964,0.1936 0.15884,0.44698 0.0871,0.56307 -0.22236,0.35979 -0.89297,0.23198 -0.89297,-0.17019 z m 16.19581,-5.75377 c -0.53093,-0.53093 -0.38148,-1.05414 0.27451,-0.96098 0.38088,0.0541 0.59531,0.26721 0.59531,0.59167 0,0.61897 -0.43532,0.80381 -0.86982,0.36931 z m -48.82775,-0.92053 c -0.37208,-0.37207 -0.15205,-1.11859 0.37941,-1.28727 0.77014,-0.24443 1.15778,0.20453 0.78232,0.90609 -0.29497,0.55115 -0.81962,0.72329 -1.16173,0.38118 z m 66.55153,-1.46403 c -0.78408,-0.78407 -0.007,-1.97792 1.10509,-1.6987 0.77009,0.19328 1.05299,0.8164 0.68382,1.5062 -0.30536,0.57057 -1.30345,0.67797 -1.78891,0.1925 z m 1.48495,-0.54623 c 0.1053,-0.54678 -0.6585,-0.91522 -1.06162,-0.5121 -0.40312,0.40312 -0.0347,1.16692 0.5121,1.06162 0.25343,-0.0488 0.50071,-0.29609 0.54952,-0.54952 z m 1.90171,-5.07378 c 0,-0.20969 0.10558,-0.4465 0.23461,-0.52625 0.29134,-0.18006 0.88431,0.49415 0.64504,0.73342 -0.31479,0.31479 -0.87965,0.18176 -0.87965,-0.20717 z m -77.14173,-2.28996 c -0.27961,-0.45241 0.60259,-1.21334 0.97497,-0.84095 0.16589,0.16588 0.23,0.4882 0.14249,0.71626 -0.18312,0.47719 -0.85338,0.55198 -1.11746,0.12469 z m 16.11931,-2.40073 c -0.64636,-0.31297 -1.15466,-1.27838 -1.15466,-2.19302 0,-0.61802 1.32375,-1.99544 1.91769,-1.99544 0.15928,0 0.50733,-0.19705 0.77345,-0.43789 0.42057,-0.3806 0.48386,-0.38484 0.48386,-0.0324 0,0.22301 0.18644,0.56022 0.41432,0.74934 0.22788,0.18912 0.58553,0.67493 0.79478,1.07959 0.33599,0.64972 0.32966,0.84227 -0.0542,1.64718 -0.63548,1.33263 -1.89594,1.80209 -3.17526,1.18263 z m 28.08188,-0.53246 c -0.85959,-1.02156 -0.75681,-2.14921 0.27897,-3.06069 0.88699,-0.78055 1.7424,-0.75259 2.74336,0.0897 1.59639,1.34328 0.69002,3.81294 -1.39937,3.81294 -0.70298,0 -1.07843,-0.19476 -1.62296,-0.84191 z m -14.68446,-1.27475 c -2.88779,-0.12598 -2.22905,-0.16268 3.43959,-0.19161 4.10938,-0.021 6.79243,0.0583 6.48229,0.19161 -0.57346,0.24642 -4.27309,0.24642 -9.92188,0 z m 32.49957,-0.25823 9.8777,-0.13865 0.77178,-0.86407 0.77179,-0.86407 v -15.20937 c 0,-9.96319 0.0913,-15.20937 0.26458,-15.20937 0.17329,0 0.26458,5.19043 0.26458,15.04213 v 15.04212 l -0.60325,0.89517 c -1.05795,1.56989 -0.99577,1.56183 -11.56758,1.50065 l -9.65729,-0.0559 z m -44.02812,-9.26677 c 0,-3.27422 0.038,-4.61368 0.0844,-2.97657 0.0464,1.63711 0.0464,4.31602 0,5.95313 -0.0464,1.63711 -0.0844,0.29765 -0.0844,-2.97656 z m 70.82746,2.57224 c -0.42183,-0.42184 -0.36732,-0.90108 0.12393,-1.08959 0.55675,-0.21364 0.90216,0.0242 0.90216,0.62132 0,0.59197 -0.61962,0.87474 -1.02609,0.46827 z m -91.72125,-0.2086 c -0.24351,-0.394 0.0388,-0.60822 0.54541,-0.41382 0.23378,0.0897 0.35095,0.28301 0.26038,0.42956 -0.21447,0.34701 -0.58608,0.33975 -0.80579,-0.0157 z m 9.13901,-10.93021 c 0,-0.20046 0.18364,-0.51688 0.40809,-0.70316 0.50293,-0.4174 1.06592,0.0277 0.82597,0.65298 -0.19604,0.51086 -1.23406,0.55307 -1.23406,0.0502 z m 85.46042,-0.0324 c 0,-0.27251 0.1734,-0.40228 0.46302,-0.34651 0.5577,0.1074 0.52253,0.57697 -0.0522,0.69664 -0.23971,0.0499 -0.41085,-0.0959 -0.41085,-0.35013 z m -60.82661,-0.89848 c -0.70257,-0.70257 -0.74099,-2.16005 -0.0729,-2.76468 1.09799,-0.99367 3.22031,-0.13528 3.22031,1.30249 0,1.50079 -2.12271,2.48692 -3.14744,1.46219 z m 13.85104,-0.14783 c -1.21824,-1.21823 -0.56572,-3.05473 1.08536,-3.05473 1.80502,0 2.58034,1.79433 1.31994,3.05473 -0.82407,0.82407 -1.58123,0.82407 -2.4053,0 z m 13.90265,0.12027 c -0.67563,-0.67563 -0.69995,-2.14469 -0.0453,-2.73712 0.76254,-0.6901 2.02829,-0.55901 2.68689,0.27827 1.37084,1.74274 -1.07813,4.0223 -2.64158,2.45885 z m -42.17752,-1.07864 c -0.37674,-0.44773 -0.68498,-0.9779 -0.68498,-1.17817 0,-0.75529 0.65021,-1.7436 1.48761,-2.26114 0.81819,-0.50567 0.91472,-0.51183 1.69521,-0.10822 1.10159,0.56966 1.66939,1.9086 1.28138,3.02166 -0.55648,1.59632 -2.63512,1.88556 -3.77922,0.52587 z m -9.63045,-7.58647 c 0.049,-0.25466 0.26451,-0.46302 0.4788,-0.46302 0.2143,0 0.42976,0.20836 0.4788,0.46302 0.0626,0.32487 -0.0803,0.46302 -0.4788,0.46302 -0.3985,0 -0.54136,-0.13815 -0.4788,-0.46302 z m 11.18398,-12.76615 c 0,-6.62119 0.0343,-9.32987 0.0763,-6.01927 0.042,3.3106 0.042,8.72795 0,12.03855 -0.042,3.31059 -0.0763,0.60192 -0.0763,-6.01928 z m 78.24164,11.46171 c 0.065,-0.33742 0.32916,-0.4815 0.88285,-0.4815 1.1437,0 1.06266,0.76763 -0.0927,0.87838 -0.73412,0.0704 -0.86723,0.004 -0.79012,-0.39688 z m -65.34003,-1.55483 c -1.41551,-0.99146 -0.20218,-3.54015 1.50665,-3.16483 0.87435,0.19204 1.60948,1.01214 1.60948,1.79552 0,0.68106 -1.18183,1.78119 -1.91348,1.78119 -0.33804,0 -0.87923,-0.18535 -1.20265,-0.41188 z m 13.85105,-0.004 c -1.61462,-1.61462 0.36862,-4.18517 2.18655,-2.83408 0.94798,0.70456 1.07395,1.94963 0.27276,2.69605 -0.70287,0.65482 -1.87664,0.7207 -2.45931,0.13803 z m 13.9302,0.004 c -1.25961,-0.88227 -0.38582,-3.29229 1.19367,-3.29229 0.75022,0 1.92246,1.10024 1.92246,1.80437 0,0.27804 -0.24677,0.81923 -0.54837,1.20266 -0.63104,0.80223 -1.66559,0.91716 -2.56776,0.28526 z m 13.44548,-5.88682 c -0.58011,-0.58011 -0.802,-1.04975 -0.79594,-1.6846 0.01,-1.02963 0.34538,-1.52721 1.47601,-2.18888 0.81233,-0.47539 0.83403,-0.47347 1.67943,0.14893 0.47106,0.34679 1.02652,0.95796 1.23436,1.35814 0.32836,0.63226 0.32727,0.82547 -0.008,1.47448 -0.50655,0.97955 -0.95598,1.33124 -1.95709,1.53146 -0.68431,0.13687 -0.9605,0.0284 -1.62843,-0.63953 z m 17.62829,-1.28603 c -0.31205,-0.31205 -0.18823,-0.89401 0.22386,-1.05214 0.52234,-0.20044 1.19659,0.36715 1.01092,0.851 -0.14908,0.38852 -0.92157,0.51435 -1.23478,0.20114 z m -81.83384,-1.53526 c -0.0903,-0.23531 -0.0842,-0.50779 0.0135,-0.60551 0.22384,-0.22383 1.09643,0.30866 1.02616,0.62621 -0.0951,0.42991 -0.87267,0.41443 -1.03965,-0.0207 z m -15.56787,-0.91953 c -0.2554,-0.41323 0.0806,-0.8084 0.68742,-0.8084 0.36381,0 0.50483,0.14598 0.44436,0.45998 -0.10152,0.52719 -0.87427,0.76508 -1.13178,0.34842 z m 81.29174,-4.51257 c -0.10498,-0.21828 -0.22405,-2.70034 -0.26459,-5.5157 l -0.0737,-5.11882 -0.79375,-0.67475 c -0.63093,-0.53635 -0.65807,-0.59469 -0.13229,-0.28445 1.39842,0.82515 1.60668,1.7972 1.52745,7.1291 -0.0397,2.67382 -0.15813,4.6829 -0.26311,4.46462 z m -76.55255,-1.61055 c -0.27265,-0.44117 0.34058,-0.94708 0.70557,-0.58209 0.30531,0.30531 0.11423,0.86972 -0.29444,0.86972 -0.12835,0 -0.31335,-0.12943 -0.41113,-0.28763 z m 96.84656,-4.74785 c -0.10275,-0.16626 -0.0623,-0.42679 0.0898,-0.57895 0.35557,-0.35558 1.18458,-0.0454 1.03991,0.38905 -0.14727,0.4423 -0.89598,0.56815 -1.12975,0.1899 z m -31.00929,-1.58442 c -0.32306,-0.12999 -0.67876,-0.56893 -0.79044,-0.97541 -0.26395,-0.96072 -0.26933,-6.61122 -0.007,-7.54805 0.23788,-0.85013 1.24085,-1.20713 2.18402,-0.77739 0.83047,0.37839 0.98766,1.33246 0.87761,5.32675 -0.0834,3.02542 -0.12931,3.2661 -0.71372,3.73879 -0.69625,0.56315 -0.72478,0.56748 -1.55028,0.23531 z m -35.64048,-0.5017 c -0.38653,-0.42712 -0.46597,-1.11833 -0.50403,-4.38582 -0.0415,-3.56307 -0.003,-3.90945 0.46842,-4.25547 0.65446,-0.48001 1.49232,-0.48045 2.14782,-0.001 0.46868,0.34271 0.51359,0.72084 0.51359,4.32496 0,4.32105 -0.15096,4.82449 -1.4466,4.82449 -0.39619,0 -0.92683,-0.22816 -1.1792,-0.50702 z m -9.14816,-1.76153 c 0,-0.22989 0.34803,-0.76602 0.7734,-1.19139 0.70678,-0.70678 0.91757,-0.76908 2.44739,-0.72336 l 1.674,0.05 -1.50197,0.0949 c -1.36111,0.086 -1.59064,0.19304 -2.4474,1.14136 -0.59639,0.66013 -0.94542,0.89216 -0.94542,0.62848 z m -8.34863,-0.66492 c -0.25711,-0.41602 0.29872,-0.87045 0.82002,-0.67041 0.36089,0.13849 0.38302,0.24459 0.11768,0.5643 -0.38716,0.46649 -0.69354,0.50116 -0.9377,0.10611 z m -9.59629,-0.91696 c 0.11966,-0.57471 0.58923,-0.60987 0.69663,-0.0522 0.0558,0.28961 -0.074,0.46302 -0.3465,0.46302 -0.2542,0 -0.40005,-0.17114 -0.35013,-0.41085 z m 33.48919,-0.29355 c 0.1819,-0.0734 0.47956,-0.0734 0.66146,0 0.1819,0.0734 0.0331,0.13345 -0.33073,0.13345 -0.3638,0 -0.51263,-0.06 -0.33073,-0.13345 z m 7.14375,-0.0221 c 1.49159,-0.0472 3.93237,-0.0472 5.42396,0 1.49159,0.0472 0.2712,0.0857 -2.71198,0.0857 -2.98318,0 -4.20357,-0.0386 -2.71198,-0.0857 z m 10.19746,9e-4 c 0.98832,-0.0511 2.53613,-0.0507 3.43959,8.4e-4 0.90345,0.0515 0.0948,0.0933 -1.79695,0.0928 -1.89177,-4.6e-4 -2.63096,-0.0426 -1.64264,-0.0936 z m 17.31921,0.0212 c 0.1819,-0.0734 0.47955,-0.0734 0.66146,0 0.1819,0.0734 0.0331,0.13345 -0.33073,0.13345 -0.36381,0 -0.51263,-0.06 -0.33073,-0.13345 z m 1.41164,-0.0862 c 0.24736,-0.14466 0.73587,-0.15068 1.19063,-0.0147 0.71194,0.2129 0.67973,0.23174 -0.41946,0.2453 -0.85164,0.0105 -1.0712,-0.0551 -0.77117,-0.23061 z m 18.76284,-0.13547 c 0,-0.21829 0.17859,-0.39688 0.39687,-0.39688 0.21828,0 0.39688,0.17859 0.39688,0.39688 0,0.21828 -0.1786,0.39687 -0.39688,0.39687 -0.21828,0 -0.39687,-0.17859 -0.39687,-0.39687 z m -86.65594,-7.01939 c -0.10292,-0.16652 -0.0673,-0.42262 0.0792,-0.56911 0.37587,-0.37586 1.24859,-0.15494 1.24859,0.31608 0,0.47567 -1.06481,0.67859 -1.32781,0.25303 z m 13.16835,-3.88482 c -1.17183,-0.22199 -0.99387,-2.19267 0.198,-2.19267 0.66824,0 1.10992,0.64854 1.01131,1.48495 -0.0914,0.77511 -0.27777,0.88419 -1.20931,0.70772 z m 36.18134,-0.70623 c 0,-0.21828 0.11906,-0.47046 0.26458,-0.5604 0.14552,-0.0899 0.26458,0.0151 0.26458,0.23336 0,0.21828 -0.11906,0.47046 -0.26458,0.56039 -0.14552,0.0899 -0.26458,-0.0151 -0.26458,-0.23335 z m 32.80833,-0.16352 c 0,-0.29398 0.17639,-0.52917 0.39688,-0.52917 0.22048,0 0.39687,0.23519 0.39687,0.52917 0,0.29398 -0.17639,0.52916 -0.39687,0.52916 -0.22049,0 -0.39688,-0.23518 -0.39688,-0.52916 z m -84.08713,-1.52136 c 0.049,-0.25466 0.2645,-0.46302 0.47879,-0.46302 0.2143,0 0.42976,0.20836 0.4788,0.46302 0.0626,0.32487 -0.0803,0.46302 -0.4788,0.46302 -0.3985,0 -0.54136,-0.13815 -0.47879,-0.46302 z m 82.23505,-2.97656 c 0,-0.14552 0.12609,-0.26458 0.2802,-0.26458 0.1541,0 0.20661,0.11906 0.11667,0.26458 -0.0899,0.14552 -0.21602,0.26458 -0.2802,0.26458 -0.0642,0 -0.11667,-0.11906 -0.11667,-0.26458 z m -52.65209,-0.39687 c 0,-0.21829 0.11906,-0.39688 0.26458,-0.39688 0.14553,0 0.26459,0.17859 0.26459,0.39688 0,0.21828 -0.11906,0.39687 -0.26459,0.39687 -0.14552,0 -0.26458,-0.17859 -0.26458,-0.39687 z m 32.38745,-1.02551 c -0.22416,-0.58415 0.0741,-0.88236 0.47821,-0.47821 0.23863,0.23863 0.23965,0.38654 0.004,0.62192 -0.23538,0.23538 -0.35013,0.2012 -0.48248,-0.14371 z m -19.95203,-0.562 c 0,-0.24253 0.12799,-0.3983 0.28443,-0.34616 0.15643,0.0521 0.28442,0.20792 0.28442,0.34616 0,0.13825 -0.12799,0.29402 -0.28442,0.34617 -0.15644,0.0521 -0.28443,-0.10363 -0.28443,-0.34617 z"
         id="path392" /></g></g></svg>
