<?xml version="1.0" encoding="UTF-8" standalone="no"?>
<!-- Created with Inkscape (http://www.inkscape.org/) -->

<svg
   width="75.533875mm"
   height="77.981476mm"
   viewBox="0 0 75.533875 77.981476"
   version="1.1"
   id="svg1"
   xml:space="preserve"
   xmlns="http://www.w3.org/2000/svg"
   xmlns:svg="http://www.w3.org/2000/svg"><defs
     id="defs1" /><g
     id="layer1"
     transform="translate(-87.216026,-37.240457)"><g
       id="g395"
       transform="translate(104.09453,19.777961)"><path
         style="fill:#cfcfcf"
         d="m 19.580082,93.60637 c -0.621294,-1.060534 -1.844907,-2.923874 -2.71914,-4.140756 l -1.589514,-2.212512 0.155965,-2.21004 c 0.140267,-1.987613 0.866786,-8.131504 1.12644,-9.525875 0.05638,-0.302787 0.748462,-1.426216 1.53795,-2.49651 1.69622,-2.299531 2.308417,-4.2288 2.244497,-7.073281 -0.02371,-1.055026 -0.06651,-1.918229 -0.09511,-1.918229 -0.0286,0 -0.932579,1.309688 -2.008841,2.910417 -1.076262,1.600729 -2.041134,2.910417 -2.144161,2.910417 -0.103026,0 0.342644,-0.896398 0.990379,-1.991995 0.647735,-1.095598 1.1777,-2.23927 1.1777,-2.541494 0,-0.302224 0.305187,-0.912192 0.678193,-1.355485 0.497754,-0.591546 0.591313,-0.859681 0.35165,-1.007801 -0.250789,-0.154996 -0.223981,-0.358344 0.115557,-0.876545 0.577814,-0.881855 0.580032,-2.244526 0.004,-2.465565 -0.612595,-0.235074 -1.326976,0.732656 -1.552952,2.103694 -0.101868,0.618053 -0.293317,1.302326 -0.425444,1.520607 -0.155653,0.257148 -0.181372,0.04756 -0.07305,-0.595313 0.169183,-1.004099 -0.10899,-1.3002 -0.621411,-0.661458 -0.145927,0.181901 -0.655648,1.610651 -1.132713,3.175 -0.477066,1.564349 -0.972957,2.844271 -1.10198,2.844271 -0.259559,0 -0.0082,-1.728791 0.353381,-2.430002 0.126367,-0.245094 0.229758,-0.784149 0.229758,-1.197899 0,-0.41375 0.190738,-1.024589 0.423862,-1.357421 0.621292,-0.887019 0.294552,-0.960589 -0.66823,-0.150462 -1.292608,1.087658 -2.13831,3.052484 -2.716463,6.31118 -0.285484,1.609105 -0.71074,3.223302 -0.945013,3.587104 -1.005752,1.561835 -6.7626391,8.250207 -7.2899823,8.469528 -0.317973,0.132244 -1.8878202,0.485877 -3.48854947,0.78585 -1.60072923,0.299973 -3.55568403,0.716029 -4.34434403,0.924568 -0.78866,0.208539 -1.5464071,0.309646 -1.6838825,0.224681 -0.3228308,-0.19952 -0.1570737,-1.160418 1.0857612,-6.294186 1.00013,-4.131228 1.0450943,-4.241561 2.0486866,-5.027083 0.5643623,-0.441732 2.54063928,-2.072818 4.3917267,-3.624635 1.8510873,-1.551816 3.5809996,-2.885146 3.8442495,-2.962954 0.2632498,-0.07781 1.3898616,-0.263856 2.5035817,-0.41344 3.0366086,-0.407849 6.0448466,-1.772327 6.0448466,-2.741825 0,-0.292787 -2.277491,0.0021 -2.999223,0.388296 -0.267125,0.142949 -0.564782,0.174429 -0.661459,0.06996 -0.09668,-0.104473 -0.01207,-0.248065 0.188025,-0.319093 0.200092,-0.07103 0.587045,-0.352384 0.859896,-0.625236 0.272852,-0.272852 0.661078,-0.496094 0.862725,-0.496094 0.540989,0 1.71899,-0.660646 2.310922,-1.29601 0.284933,-0.30584 0.744796,-0.556073 1.021918,-0.556073 0.564153,0 1.327613,-0.936513 1.327613,-1.628542 0,-0.742458 -1.021527,-0.879435 -1.871584,-0.250961 -0.88987,0.65791 -1.151319,0.702183 -0.943153,0.159711 0.469387,-1.223202 -2.269142,0.582694 -4.6700498,3.079618 -0.2603302,0.270742 -0.6042824,0.492257 -0.764338,0.492257 -0.1600557,0 0.2613012,-0.514336 0.9363486,-1.14297 0.6750472,-0.628634 1.2273592,-1.283477 1.2273592,-1.455208 0,-0.379081 0.134068,-0.387313 -1.4326867,0.08797 -0.715217,0.216966 -1.3354867,0.359392 -1.3783771,0.316502 -0.096256,-0.09626 1.7622598,-1.037855 3.2668738,-1.65513 1.438303,-0.590071 1.20705,-0.939533 -0.53718,-0.811771 -2.3004877,0.168507 -3.3987038,0.607748 -5.968903,2.387312 -2.2639425,1.567516 -2.6100296,1.721063 -4.22705018,1.875392 -0.96867062,0.09245 -3.40719752,0.340407 -5.41894862,0.551013 -2.0117512,0.210607 -3.7976887,0.300552 -3.9687502,0.199879 -2.049477,-1.206168 -8.266928,-5.500484 -8.32489,-5.7499 -0.042,-0.180742 1.148622,-1.067558 2.645833,-1.970702 1.497212,-0.903145 3.413963,-2.138317 4.2594467,-2.744827 l 1.537244,-1.102745 5.6250827,0.678628 5.6250828,0.678628 2.1587305,1.600601 c 2.298122,1.703953 4.5190175,2.701074 6.0161253,2.701074 0.503864,0 0.916117,-0.07021 0.916117,-0.156027 0,-0.280537 -1.167253,-1.14497 -2.3151046,-1.714497 -0.6184635,-0.306862 -1.1244792,-0.666372 -1.1244792,-0.798912 0,-0.327928 0.1288801,-0.3083 1.2652689,0.192692 0.5410289,0.238521 1.6777639,0.524314 2.5260759,0.635097 0.990496,0.129351 1.753975,0.4002 2.13372,0.756952 0.734227,0.689771 2.994309,0.798058 3.240965,0.155284 0.178578,-0.465368 -0.339479,-1.187256 -0.852025,-1.187256 -0.408713,0 -1.548824,-1.078001 -1.781563,-1.684511 -0.131598,-0.342938 -0.463928,-0.38596 -1.926449,-0.249387 -1.451401,0.135534 -1.745442,0.09847 -1.644521,-0.2073 0.07835,-0.23737 0.659375,-0.420836 1.602855,-0.506118 0.813977,-0.07358 1.550549,-0.204365 1.636825,-0.290641 0.26764,-0.26764 -1.237986,-1.583435 -2.603894,-2.275593 C 11.348041,47.869517 10.096968,47.478347 9.283763,47.363016 6.2045697,46.926317 5.6685539,46.654607 2.33636,43.841323 0.5783538,42.357085 -1.4300144,40.698737 -2.1266805,40.156105 c -1.5930629,-1.240833 -1.7478914,-1.684674 -3.286361,-9.420881 -0.4029817,-2.026397 -0.2279254,-2.177933 1.803651,-1.561315 0.7482378,0.227103 2.826211,0.67939 4.6177183,1.005081 l 3.257286,0.592167 3.4618051,4.259734 c 1.9039929,2.342853 3.5665641,4.394561 3.6946021,4.55935 0.128039,0.164789 0.457538,1.474477 0.73222,2.910417 0.636851,3.329223 1.385634,5.312625 2.486381,6.586 1.539053,1.780422 1.942414,0.377721 0.831942,-2.8931 -0.233016,-0.686332 -0.384355,-1.448701 -0.336309,-1.694155 0.126765,-0.647603 1.208074,2.485368 1.41954,4.112954 0.216711,1.667958 0.7462,2.536373 1.172525,1.92306 0.151731,-0.218282 0.209778,-0.694532 0.128994,-1.058334 -0.268592,-1.209571 -0.264724,-1.397472 0.03093,-1.502499 0.403635,-0.143386 0.699401,2.206208 0.358013,2.844097 -0.336002,0.627825 0.364754,1.833402 1.065688,1.833402 0.948385,0 0.934899,-3.090263 -0.02279,-5.222637 -0.277052,-0.616878 -0.50373,-1.217151 -0.50373,-1.33394 0,-0.116789 -0.426859,-0.664894 -0.948575,-1.218012 -0.750983,-0.796183 -0.91381,-1.144183 -0.781678,-1.670639 0.10539,-0.419905 0.0028,-0.922796 -0.278464,-1.36456 l -0.445362,-0.699587 0.801499,0.749642 c 0.440824,0.412303 0.873531,1.109804 0.961571,1.550002 0.110527,0.552638 0.277824,0.755173 0.540517,0.654368 0.242304,-0.09298 0.600096,0.20885 0.985367,0.831249 l 0.604922,0.977239 0.09173,-0.730704 c 0.160909,-1.281848 -0.732511,-3.6878 -1.987862,-5.353248 -0.658736,-0.873931 -1.349928,-1.946152 -1.535982,-2.382715 -0.308642,-0.724207 -0.949497,-5.688818 -1.331993,-10.31875 l -0.153007,-1.852084 1.62031,-2.116667 c 0.89117,-1.164166 2.095538,-2.920338 2.676373,-3.902604 0.580835,-0.982266 1.167129,-1.785937 1.302877,-1.785937 0.135747,0 0.411778,0.26789 0.613402,0.595312 1.091216,1.772051 3.465531,5.238138 4.258513,6.216686 0.720945,0.889654 0.88754,1.302621 0.800516,1.984375 -0.06044,0.473505 -0.363548,3.123106 -0.673571,5.888002 -0.602848,5.376411 -0.704205,5.692956 -2.569074,8.023384 -0.503598,0.62932 -1.138508,1.860318 -1.410912,2.735552 -0.498142,1.600536 -0.666054,3.667181 -0.296841,3.653507 0.10914,-0.004 0.545703,-0.36123 0.970138,-0.79375 0.424436,-0.43252 0.849556,-0.786401 0.94471,-0.786401 0.09516,0 0.793178,-0.773906 1.551164,-1.719791 0.856361,-1.068649 1.575568,-1.719792 1.899561,-1.719792 0.712947,0 0.661695,0.472054 -0.06264,0.57691 -0.321223,0.0465 -0.918917,0.560798 -1.328208,1.142882 -1.778532,2.529381 -3.908583,5.798965 -3.908583,5.999592 0,0.38825 0.351249,0.233499 1.156422,-0.509488 l 0.788502,-0.727604 -0.615843,1.058333 c -0.338714,0.582083 -0.80592,1.381671 -1.038234,1.776862 -0.388843,0.66146 -0.387275,0.753644 0.01974,1.16066 0.669379,0.669378 1.276913,0.282779 1.276913,-0.812551 0,-0.51389 0.119063,-0.934346 0.264584,-0.934346 0.145521,0 0.264583,0.119063 0.264583,0.264584 0,0.628407 0.514396,0.184992 0.80425,-0.693273 0.55197,-1.672487 1.787791,-4.224374 2.21913,-4.582353 0.535872,-0.444734 0.535594,-0.03965 -4.99e-4,0.725726 -0.229187,0.327209 -0.483969,1.24667 -0.566183,2.043246 -0.120917,1.171578 -0.07441,1.44832 0.243404,1.44832 1.047805,0 2.412688,-2.898758 3.124979,-6.636876 0.552057,-2.897202 0.926537,-3.651451 2.944623,-5.930833 0.644195,-0.727604 2.030735,-2.411727 3.081199,-3.742496 l 1.909934,-2.41958 3.239895,-0.576913 c 1.781942,-0.317302 3.948141,-0.806245 4.813775,-1.086539 1.015597,-0.328852 1.664818,-0.41869 1.830242,-0.253266 0.291908,0.291909 -1.283702,8.422842 -1.85652,9.580567 -0.192673,0.389412 -2.107986,2.16606 -4.256251,3.948106 -2.148265,1.782046 -4.162318,3.467676 -4.475675,3.745844 -0.599554,0.532227 -1.527003,0.80538 -4.277046,1.259679 -1.701568,0.281094 -4.084712,1.428715 -4.948176,2.382833 -0.741375,0.81921 -0.252064,0.937053 1.270507,0.305983 0.765012,-0.31708 1.611568,-0.576509 1.881235,-0.576509 0.889532,0 -0.02316,0.710661 -1.33784,1.041701 -1.237741,0.311667 -3.263733,1.236106 -3.263733,1.489207 0,0.0764 0.416719,0.06073 0.926042,-0.03482 1.485353,-0.278654 1.109229,0.346296 -0.487844,0.810577 -0.777637,0.226066 -1.615175,0.558215 -1.861196,0.73811 -0.389077,0.2845 -0.399291,0.392751 -0.07846,0.831518 0.361044,0.493757 0.388505,0.49229 1.297113,-0.06926 0.510543,-0.315533 1.152332,-0.573105 1.426197,-0.572382 0.407799,0.0011 0.35425,0.119093 -0.295813,0.651943 l -0.79375,0.650629 0.679979,0.0095 c 0.401331,0.0056 1.111814,-0.360119 1.733773,-0.892492 0.760186,-0.650692 1.418486,-0.951759 2.362728,-1.080574 0.719915,-0.09821 1.532206,-0.240845 1.805091,-0.316964 0.284791,-0.07944 0.428181,-0.02841 0.336593,0.119779 -0.08776,0.141997 -0.614341,0.330898 -1.170184,0.419781 -1.06684,0.170595 -3.499022,1.61884 -3.499022,2.083497 0,0.175203 0.739548,0.230834 2.055758,0.154639 2.496888,-0.144542 4.235407,-0.882307 6.633815,-2.815151 0.922962,-0.743803 2.054056,-1.415494 2.513541,-1.492648 1.699394,-0.285351 9.326088,-1.196436 10.019478,-1.196927 0.430046,-3.05e-4 1.542777,0.559173 2.778125,1.396832 2.173812,1.47401 4.615794,3.026501 5.497982,3.495344 1.19519,0.635189 0.790992,1.089947 -3.524441,3.965308 l -4.219553,2.811475 -4.196623,-0.413366 c -6.723502,-0.662264 -7.02269,-0.734742 -8.887606,-2.153023 -1.89168,-1.438634 -3.837524,-2.389497 -5.396099,-2.636877 -1.693591,-0.26881 -1.598742,0.240605 0.296623,1.59311 0.946367,0.675313 1.720667,1.281358 1.720667,1.346766 0,0.298116 -0.551847,0.03344 -2.234449,-1.071702 -2.203475,-1.447247 -4.141482,-1.72279 -2.381826,-0.338644 1.122115,0.882655 0.557276,0.808466 -1.368396,-0.179733 -1.001296,-0.513836 -2.005084,-0.934829 -2.230642,-0.935539 -0.590327,-0.0019 -1.045104,0.538705 -1.045104,1.242249 0,0.627288 0.175371,0.691631 1.719792,0.630989 0.436562,-0.01714 0.972344,0.09754 1.190625,0.254847 0.305376,0.220074 0.168128,0.263827 -0.595313,0.18978 -0.545703,-0.05293 -0.987348,-0.03084 -0.981434,0.04908 0.03823,0.516581 1.646213,1.862025 2.697472,2.257043 1.287738,0.483878 2.477165,1.450443 1.392817,1.131846 -0.291042,-0.08551 -0.911576,-0.309141 -1.378965,-0.496953 -1.039578,-0.417736 -1.385882,-0.155567 -0.738877,0.559366 0.842596,0.931058 3.203711,1.855094 5.464538,2.138577 1.186874,0.148822 2.526751,0.431045 2.977504,0.627162 0.450752,0.196117 2.188769,1.511046 3.862258,2.922064 1.67349,1.411018 3.549773,2.932382 4.169518,3.380808 0.792801,0.573645 1.196281,1.095634 1.361179,1.760984 2.268742,9.154171 2.403332,10.067547 1.428372,9.69342 -0.244642,-0.09388 -2.237935,-0.525062 -4.429541,-0.958186 -2.191605,-0.433124 -4.253055,-0.847293 -4.581,-0.920377 -0.327946,-0.07308 -1.339977,-1.044709 -2.248959,-2.159168 -0.908982,-1.114458 -2.28053,-2.749192 -3.047886,-3.632741 -2.411982,-2.777204 -2.639569,-3.225475 -3.099192,-6.104369 -0.232328,-1.455209 -0.721162,-3.300678 -1.086297,-4.101042 -0.628061,-1.376689 -2.580429,-3.704167 -3.107182,-3.704167 -0.135863,0 -0.170102,0.496575 -0.07753,1.124479 0.173583,1.17742 0.15716,1.172675 -0.836384,-0.241664 -0.299048,-0.425704 -0.323198,-0.37115 -0.194826,0.440102 0.0806,0.509323 0.383037,1.248642 0.672092,1.642932 0.289055,0.39429 0.525555,0.860079 0.525555,1.035088 0,0.175008 0.30734,0.842633 0.682977,1.483611 0.375638,0.640977 0.6175,1.336047 0.537471,1.544599 -0.200505,0.522509 -1.055421,0.47585 -1.536072,-0.08383 -0.752276,-0.875972 -0.827008,-1.255833 -0.120412,-0.612046 1.065734,0.970999 1.372066,0.39205 0.556443,-1.051645 -0.366835,-0.649319 -0.853509,-1.597299 -1.081498,-2.106622 -0.227988,-0.509323 -0.590716,-1.124458 -0.806061,-1.366967 -0.223059,-0.251195 -0.421432,-1.081391 -0.461011,-1.929339 -0.07924,-1.697667 -0.446892,-2.278126 -1.152557,-1.819684 -0.575285,0.373739 -0.475746,1.347895 0.212595,2.080601 0.667207,0.710208 0.664696,1.017679 -0.0069,0.84206 -0.723697,-0.189252 -0.683329,-0.04211 0.529167,1.928746 0.58192,0.945885 1.05628,1.898385 1.054133,2.116666 -0.0035,0.351224 -0.0326,0.351478 -0.253417,0.0022 -0.468974,-0.741788 -0.877418,0.07466 -0.578655,1.156692 0.145448,0.52677 0.163434,0.957763 0.03997,0.957763 -0.215593,0 -0.814015,-1.836885 -1.185199,-3.638021 -0.332115,-1.611556 -0.610863,-0.86523 -0.543511,1.455209 0.08235,2.837221 0.650076,4.416032 2.410752,6.704162 1.140589,1.482281 1.315721,1.892846 1.619175,3.795871 0.280111,1.756629 1.140919,9.2526 1.140919,9.935191 0,0.10578 -0.446484,0.766328 -0.992188,1.467885 -0.545703,0.701557 -1.773294,2.52686 -2.72798,4.056229 -0.954687,1.529369 -1.861175,2.822464 -2.014418,2.873546 -0.153244,0.05108 -0.786956,-0.774835 -1.40825,-1.835369 z m 3.26911,-1.76536 c 0.707107,-1.108232 1.766354,-2.643897 2.353883,-3.412588 L 26.271309,87.0308 25.819715,82.607588 c -0.736026,-7.209128 -0.735399,-7.206577 -2.259393,-9.194937 -1.513109,-1.974156 -2.133379,-3.065493 -2.400808,-4.224109 -0.16134,-0.698993 -0.206112,-0.730579 -0.375043,-0.264583 -0.61892,1.707283 -1.182201,2.770167 -2.050645,3.869468 -1.393683,1.764162 -2.064547,3.125121 -2.068554,4.196406 -0.0019,0.511478 -0.2352,2.954022 -0.518414,5.427876 l -0.514936,4.497917 0.677079,0.926042 c 0.372393,0.509323 1.581242,2.285317 2.68633,3.946653 1.728265,2.59819 2.048335,2.953977 2.288731,2.544133 0.153714,-0.262063 0.858023,-1.383213 1.56513,-2.491444 z M -1.0583332,81.760711 c 2.1100522,-0.434106 4.0940754,-0.791292 4.4089405,-0.793747 0.391972,-0.0031 1.1419032,-0.692728 2.3783846,-2.187276 0.9932464,-1.200546 2.539667,-3.032045 3.4364901,-4.069996 0.896823,-1.037951 1.744125,-2.109514 1.882892,-2.38125 0.138768,-0.271737 0.46705,-1.803754 0.729517,-3.404483 0.262466,-1.600729 0.645624,-3.248903 0.851462,-3.662609 0.494197,-0.993269 0.263538,-1.157591 -0.867693,-0.618144 -0.512433,0.244362 -1.364388,0.444294 -1.8932339,0.444294 -0.5288461,0 -1.7292976,0.1337 -2.6676701,0.29711 -1.6260775,0.28317 -1.8443509,0.416879 -4.6518813,2.849633 -1.62016224,1.403888 -3.54148182,3.042643 -4.2695991,3.641679 l -1.3238496,1.089155 -1.0155053,4.437144 c -0.5585278,2.440428 -1.076862,4.597036 -1.1518537,4.792462 -0.1791635,0.466892 -0.2727408,0.476669 4.1535998,-0.433972 z M 47.095835,82.01389 c 0,-0.464206 -1.095631,-5.289473 -1.8728,-8.247996 -0.164912,-0.627786 -0.563193,-1.190944 -1.110402,-1.57008 -0.469291,-0.325149 -1.278421,-0.956207 -1.798068,-1.402351 -0.519646,-0.446144 -1.293553,-1.107139 -1.719792,-1.468878 -0.426239,-0.361739 -1.536085,-1.306322 -2.466325,-2.099073 -1.455415,-1.240306 -1.935212,-1.488598 -3.439584,-1.779964 -0.96153,-0.186229 -2.224488,-0.347193 -2.806571,-0.357698 -0.582083,-0.01051 -1.35599,-0.189257 -1.719792,-0.397225 -1.182883,-0.676197 -1.301854,-0.509292 -0.801537,1.12448 0.25624,0.836744 0.612332,2.533385 0.791315,3.770312 0.205805,1.422289 0.528955,2.540724 0.87913,3.042709 0.711157,1.019462 5.993911,7.238157 6.613965,7.785756 0.264262,0.233382 2.298892,0.780282 4.630208,1.24458 5.129138,1.021503 4.820253,0.998727 4.820253,0.355428 z M 21.340888,62.294819 c 0.04779,-0.428557 0.08471,-1.120617 0.08205,-1.537913 -0.0098,-1.540225 1.313884,-2.009032 2.3401,-0.828781 0.316321,0.363802 0.807016,0.661459 1.090432,0.661459 0.283416,0 0.588886,0.119062 0.678823,0.264583 0.08994,0.145521 0.335088,0.264583 0.544781,0.264583 0.742677,0 0.36531,-0.715501 -0.830171,-1.57403 -1.053001,-0.756208 -1.189228,-0.961036 -1.041651,-1.566206 0.09338,-0.382922 0.394541,-0.925183 0.669248,-1.205023 0.450034,-0.458443 0.608725,-0.476067 1.603363,-0.178066 0.788542,0.236253 1.185299,0.249331 1.38885,0.04578 0.156725,-0.156725 0.529033,-0.294355 0.827351,-0.305843 0.364268,-0.01403 0.412058,-0.06383 0.145521,-0.151638 -0.218282,-0.07191 -0.656176,-0.256629 -0.973099,-0.410481 -0.316924,-0.153851 -0.893173,-0.219141 -1.280555,-0.145088 -1.032585,0.197391 -2.174795,-0.469964 -2.376547,-1.388537 -0.146392,-0.666519 -0.0029,-0.948046 1.035293,-2.031517 2.094695,-2.186006 0.675353,-2.022808 -1.573773,0.180954 -1.17462,1.150929 -2.090707,0.359314 -2.34907,-2.029892 -0.111773,-1.033616 -0.07557,-1.693792 0.09879,-1.801553 0.25956,-0.160417 0.40207,-1.197194 0.164559,-1.197194 -0.06086,0 -0.282215,-0.06583 -0.491902,-0.146299 -0.272264,-0.104478 -0.390638,0.0657 -0.414089,0.595312 -0.188199,4.250284 -0.354443,5.002891 -1.161685,5.2591 -0.448702,0.142412 -0.827763,-0.09782 -1.857314,-1.177091 -0.711455,-0.745812 -1.523235,-1.356021 -1.803956,-1.356021 -0.280721,0 -0.510402,0.07022 -0.510402,0.156036 0,0.08582 0.595313,0.823962 1.322917,1.640315 1.89841,2.129969 1.684287,3.230732 -0.628449,3.230732 -0.510302,0 -1.008014,0.129755 -1.106028,0.288345 -0.107139,0.173353 -0.533835,0.221628 -1.069958,0.121051 -0.738627,-0.138567 -0.864524,-0.09634 -0.733186,0.24592 0.126986,0.330921 0.41528,0.37916 1.447584,0.24222 1.507993,-0.200043 2.768425,0.220244 2.96979,0.990266 0.191531,0.732416 -0.784417,2.808781 -1.414148,3.008649 -0.860339,0.273061 -0.592813,0.659489 0.335957,0.485273 0.489717,-0.09186 1.12443,-0.487667 1.474385,-0.919427 1.148238,-1.416647 2.588149,-0.7929 2.364268,1.024163 -0.142232,1.154391 0.194177,2.27534 0.638415,2.127261 0.168643,-0.05622 0.345722,-0.452845 0.393507,-0.881402 z M -1.0177643,60.475215 2.5946798,60.148428 4.4723401,58.756461 c 1.5849199,-1.17495 1.8776604,-1.513108 1.8776604,-2.168976 0,-0.92613 0.6696065,-1.295901 1.1520149,-0.636168 0.2009027,0.274751 0.5891682,0.419007 0.9794758,0.363915 C 9.3743967,56.189197 9.2119694,55.74787 8.1557645,55.430208 7.6719172,55.284688 6.2406584,54.380486 4.9751893,53.420871 L 2.6743365,51.676117 -0.58106088,51.346507 C -2.3715294,51.165221 -4.7150173,50.918193 -5.7888116,50.797555 c -2.2544665,-0.253283 -2.4865298,-0.196418 -3.7413006,0.916778 -0.5121348,0.454351 -1.6850838,1.2977 -2.6065538,1.874109 -0.92147,0.576409 -1.986863,1.30227 -2.367539,1.613024 -0.878623,0.717238 -0.735172,0.907084 2.319989,3.070319 1.244287,0.88103 2.6143066,1.894984 3.044487,2.253232 0.7274525,0.60581 0.9124693,0.638269 2.6458334,0.464172 1.025028,-0.102953 3.4892871,-0.334241 5.4761313,-0.513974 z M 52.3963,59.523485 c 1.232088,-0.877396 2.658627,-1.873234 3.170086,-2.212973 1.530912,-1.016916 1.744965,-1.395529 1.157111,-2.046674 -0.516602,-0.572223 -3.860449,-2.818918 -4.586268,-3.081464 -0.226152,-0.0818 -0.812722,-0.495002 -1.303489,-0.918217 -0.791816,-0.682827 -1.030185,-0.752041 -2.116666,-0.614609 -0.6734,0.08518 -2.534051,0.273871 -4.13478,0.419313 -5.105363,0.463874 -5.364465,0.538839 -7.356122,2.128321 -1.458032,1.163611 -1.76616,1.537196 -1.622368,1.967017 0.09763,0.291826 0.16226,0.93333 0.143627,1.425565 -0.03621,0.956654 -0.03526,0.957723 2.308563,2.600188 l 1.411201,0.988916 4.674216,0.433442 c 2.570819,0.238393 4.975831,0.449867 5.344472,0.469941 0.434619,0.02367 1.457811,-0.524335 2.910417,-1.558766 z M 34.395835,55.827083 c 0,-0.612301 -0.0065,-0.614176 -0.924739,-0.265078 -0.816663,0.310494 -0.646797,0.794245 0.278895,0.794245 0.469455,0 0.645844,-0.144523 0.645844,-0.529167 z M 12.964584,54.916657 c 0,-0.06417 -0.119062,-0.190262 -0.264583,-0.280199 -0.145521,-0.08994 -0.264584,-0.03743 -0.264584,0.116677 0,0.154109 0.119063,0.280198 0.264584,0.280198 0.145521,0 0.264583,-0.0525 0.264583,-0.116676 z M 30.0593,47.582284 c 0.161521,-0.123835 1.411677,-0.416369 2.778125,-0.650074 1.366449,-0.233706 2.787757,-0.580741 3.158464,-0.771188 0.370707,-0.190447 2.540892,-1.977363 4.822634,-3.970924 3.405265,-2.975185 4.170065,-3.773025 4.26829,-4.45269 0.06582,-0.455419 0.243945,-1.661471 0.395837,-2.680117 0.151893,-1.018646 0.354319,-2.430483 0.449835,-3.137416 l 0.173667,-1.285332 -0.761929,0.150843 c -0.419061,0.08296 -2.190679,0.350762 -3.93693,0.595107 l -3.175,0.444263 -3.280007,3.336059 c -1.804003,1.834833 -3.548176,3.752778 -3.875938,4.262101 -0.355676,0.552699 -0.772693,1.916345 -1.03437,3.382395 -0.241141,1.350995 -0.610328,2.943542 -0.820415,3.538995 -0.51047,1.446826 -0.491288,1.83222 0.08104,1.628192 0.254661,-0.09078 0.595174,-0.266379 0.756694,-0.390214 z m -17.094716,-0.04244 c 0,-0.192359 -0.177778,-0.876968 -0.395063,-1.521355 C 12.352237,45.3741 12.002489,43.851943 11.792304,42.635915 11.327618,39.947473 11.044353,39.500363 7.055191,35.158804 4.0061368,31.840401 3.9798261,31.819731 2.589346,31.650353 c -0.7692964,-0.09371 -2.44848543,-0.31212 -3.7315312,-0.485355 -2.748293,-0.37107 -2.8344812,-0.312138 -2.5062072,1.713629 0.1234333,0.761703 0.2862612,2.099289 0.3618397,2.972414 0.075579,0.873125 0.1898293,1.841179 0.2538905,2.151232 0.1375028,0.665506 7.9904108,7.754233 9.1180244,8.230733 0.4266445,0.180289 1.8001158,0.506438 3.0521582,0.724776 1.2520426,0.218337 2.4765026,0.513692 2.7210226,0.656344 0.629175,0.367056 1.106041,0.335028 1.106041,-0.07428 z m 8.532047,-5.009991 c 0.254241,-0.618429 1.139781,-2.059202 1.967868,-3.201717 l 1.505612,-2.0773 0.330899,-3.742604 c 0.181995,-2.058433 0.338252,-4.640172 0.347237,-5.737198 l 0.01634,-1.994593 -1.521355,-1.767849 c -0.836745,-0.972317 -1.7983,-2.128578 -2.13679,-2.569469 -0.33849,-0.440892 -0.777003,-0.801621 -0.974474,-0.801621 -0.197471,0 -0.809405,0.565547 -1.359854,1.256771 -0.55045,0.691224 -1.5794,1.884182 -2.286556,2.651019 -1.052517,1.141344 -1.260977,1.525289 -1.149225,2.116667 0.07508,0.39733 0.215273,2.670676 0.311535,5.05188 0.09626,2.381205 0.273716,4.673591 0.394343,5.094193 0.120627,0.420601 0.758,1.473045 1.416384,2.338763 1.311179,1.724087 2.278908,3.466003 2.278908,4.102042 0,0.746216 0.391454,0.418618 0.85913,-0.718984 z M 6.2395629,63.006194 C 6.1616459,62.880122 6.3534018,62.5527 6.6656872,62.27859 7.2060583,61.804277 7.2249234,61.803614 7.056323,62.26487 c -0.097436,0.266563 -0.1771559,0.593985 -0.1771559,0.727604 0,0.307772 -0.4518797,0.317466 -0.6396042,0.01372 z M 34.265416,61.915531 c -0.09027,-0.146059 0.0078,-0.19651 0.222206,-0.114254 0.547887,0.210244 0.809025,-0.358989 0.409464,-0.892554 -0.18593,-0.248287 -0.06267,-0.19555 0.273914,0.117194 0.336583,0.312744 0.530962,0.699697 0.431954,0.859896 -0.2239,0.362277 -1.119704,0.38218 -1.337538,0.02972 z M 31.088543,60.842866 C 30.50646,60.553242 30.248307,60.37777 30.51487,60.45293 c 0.266563,0.07516 0.63076,0.136654 0.809326,0.136654 0.178566,0 0.555782,0.174807 0.838257,0.38846 0.73208,0.553718 0.167894,0.482701 -1.07391,-0.135178 z M 13.209142,58.643364 c 0.693535,-0.756442 0.813775,-0.825216 0.813775,-0.46546 0,0.128784 -0.327421,0.443611 -0.727604,0.699614 l -0.727604,0.46546 z M 7.3587245,50.883843 c 0.1909961,-0.07643 0.4191992,-0.06703 0.507118,0.02089 0.087919,0.08792 -0.068351,0.150453 -0.3472656,0.138964 -0.3082245,-0.0127 -0.3709192,-0.07539 -0.1598524,-0.159852 z M 35.454168,49.616464 c 0,-0.231559 -0.26789,-0.528695 -0.595312,-0.660303 -0.684605,-0.275177 -0.351222,-0.342 0.529166,-0.106065 0.613554,0.164426 0.797904,0.735133 0.33073,1.023862 -0.145521,0.08994 -0.264584,-0.02594 -0.264584,-0.257494 z"
         id="path399" /><path
         style="fill:#a0a0a0"
         d="m 18.995331,91.788321 c -1.105088,-1.661336 -2.313937,-3.43733 -2.68633,-3.946653 l -0.677079,-0.926042 0.514936,-4.497917 c 0.283214,-2.473854 0.516501,-4.916398 0.518414,-5.427876 0.004,-1.071285 0.674871,-2.432244 2.068554,-4.196406 0.868444,-1.099301 1.431725,-2.162185 2.050645,-3.869468 0.168931,-0.465996 0.213703,-0.43441 0.375043,0.264583 0.267429,1.158616 0.887699,2.249953 2.400808,4.224109 1.523994,1.98836 1.523367,1.985809 2.259393,9.194937 l 0.451594,4.423212 -1.068234,1.397622 c -0.916097,1.198573 -3.003819,4.343747 -3.919013,5.904032 -0.240396,0.409844 -0.560466,0.05406 -2.288731,-2.544133 z m 2.890158,-0.440924 c 0.25654,-0.400182 1.131644,-1.561041 1.944675,-2.579687 0.813032,-1.018646 1.550195,-2.048851 1.63814,-2.289344 0.08795,-0.240493 0.03951,-1.55018 -0.107634,-2.910417 -0.147145,-1.360236 -0.325979,-3.657353 -0.397409,-5.104705 -0.142643,-2.890308 -0.148077,-2.904491 -2.143182,-5.593761 -0.969758,-1.307169 -1.548503,-1.860952 -1.916504,-1.83384 -0.331906,0.02445 -1.13565,0.86568 -2.169682,2.27087 l -1.642477,2.232029 -0.184777,2.910417 c -0.101627,1.600729 -0.273482,4.12053 -0.381899,5.599558 -0.192814,2.630349 -0.182938,2.702654 0.451734,3.307291 0.356871,0.339984 0.937592,1.094402 1.29049,1.676485 0.863162,1.42373 2.348796,3.042708 2.7921,3.042708 0.197994,0 0.569885,-0.327421 0.826425,-0.727604 z M -5.211933,82.194683 c 0.074992,-0.195426 0.5933259,-2.352034 1.1518537,-4.792462 l 1.0155053,-4.437144 1.3238496,-1.089155 C -0.99260712,71.276886 0.92871246,69.638131 2.5488747,68.234243 5.3564051,65.801489 5.5746785,65.66778 7.200756,65.38461 8.1391285,65.2212 9.33958,65.0875 9.8684261,65.0875 c 0.5288459,0 1.3808009,-0.199932 1.8932339,-0.444294 1.158378,-0.552392 1.33403,-0.395425 0.83062,0.742267 -0.217241,0.490959 -0.560426,1.845153 -0.762633,3.009319 l -0.36765,2.116667 0.02369,-2.247952 0.02369,-2.247953 -1.121985,-0.356061 C 9.4857284,65.37335 8.9054181,65.364151 7.4321733,65.612646 c -1.7941756,0.302627 -1.881391,0.355288 -4.0936057,2.471722 -1.2432048,1.189379 -3.00661734,2.83268 -3.91869442,3.65178 l -1.65832198,1.489273 -0.00525,1.704634 c -0.0039,1.26558 -0.1245128,1.823891 -0.4682756,2.167647 -0.3265069,0.326502 -0.4630208,0.88374 -0.4630208,1.890014 0,1.088888 0.1097079,1.485323 0.4630208,1.67315 0.5106622,0.271477 2.22246766,0.05506 5.1038289,-0.645255 1.6489061,-0.400767 1.9486879,-0.581487 3.0905286,-1.863092 0.6954734,-0.780601 2.1880168,-2.38886 3.3167632,-3.573908 1.1287463,-1.185049 2.1598057,-2.52542 2.2912417,-2.978602 0.161732,-0.557637 0.246689,-0.650574 0.262839,-0.287526 0.0292,0.656524 -0.421625,1.342951 -2.3411435,3.564601 -0.8172504,0.945886 -2.2966028,2.702058 -3.2874497,3.902604 -1.2346292,1.495923 -1.9816891,2.184217 -2.3740218,2.187276 -0.3148651,0.0025 -2.2988883,0.359641 -4.4089405,0.793747 -4.4263406,0.910641 -4.3327633,0.900864 -4.1535998,0.433972 z M 42.333335,81.65782 c -2.255573,-0.455893 -4.283302,-0.947669 -4.506064,-1.092836 -0.222762,-0.145168 -1.353855,-1.379631 -2.513541,-2.743251 -4.254312,-5.002445 -4.887705,-5.862738 -4.859562,-6.600399 0.02537,-0.664956 0.03995,-0.655701 0.230397,0.146259 0.200602,0.844715 0.815773,1.620206 3.698235,4.662038 0.807534,0.852182 1.884962,1.994239 2.394285,2.537905 0.816185,0.871218 1.229958,1.05926 3.487923,1.585115 2.713932,0.632043 4.300012,0.783351 4.639905,0.442632 0.360518,-0.361393 0.167503,-2.908758 -0.282914,-3.733824 -0.242043,-0.443371 -0.43404,-1.396978 -0.43495,-2.160307 -0.0016,-1.358103 -0.0132,-1.376925 -1.872098,-3.042708 -1.028757,-0.921883 -2.784929,-2.578916 -3.902604,-3.682294 -2.001805,-1.976199 -2.059782,-2.010448 -3.88422,-2.294548 -1.018646,-0.158623 -2.488792,-0.221859 -3.26699,-0.140524 -1.357691,0.141901 -1.40933,0.175842 -1.277009,0.839339 0.07584,0.380302 0.203015,1.465365 0.282602,2.41125 l 0.144706,1.719792 -0.378384,-1.959918 c -0.208111,-1.077954 -0.554551,-2.476939 -0.769866,-3.108854 -0.432159,-1.268318 -0.258226,-1.413772 0.899315,-0.752062 0.363802,0.207968 1.137709,0.386719 1.719792,0.397225 0.582083,0.0105 1.845041,0.171469 2.806571,0.357698 1.504372,0.291366 1.984169,0.539658 3.439584,1.779964 0.93024,0.792751 2.040086,1.737334 2.466325,2.099073 0.426239,0.361739 1.200146,1.022734 1.719792,1.468878 0.519647,0.446144 1.328777,1.077202 1.798068,1.402351 0.921955,0.638779 0.885172,0.538755 2.175375,5.915472 0.889396,3.706415 0.970356,4.454265 0.477098,4.407072 -0.181901,-0.0174 -2.176198,-0.404646 -4.431771,-0.860538 z M 20.413513,62.66161 c -0.124984,-0.33925 -0.17203,-1.064942 -0.104547,-1.61265 0.223881,-1.817063 -1.21603,-2.44081 -2.364268,-1.024163 -0.349955,0.43176 -0.984668,0.827568 -1.474385,0.919427 -0.92877,0.174216 -1.196296,-0.212212 -0.335957,-0.485273 0.629731,-0.199868 1.605679,-2.276233 1.414148,-3.008649 -0.201365,-0.770022 -1.461797,-1.190309 -2.96979,-0.990266 -1.032304,0.13694 -1.320598,0.0887 -1.447584,-0.24222 -0.131338,-0.34226 -0.0054,-0.384487 0.733186,-0.24592 0.536123,0.100577 0.962819,0.0523 1.069958,-0.121051 0.09801,-0.15859 0.595726,-0.288345 1.106028,-0.288345 2.312736,0 2.526859,-1.100763 0.628449,-3.230732 -0.727604,-0.816353 -1.322917,-1.554495 -1.322917,-1.640315 0,-0.08582 0.229681,-0.156036 0.510402,-0.156036 0.280721,0 1.092501,0.610209 1.803956,1.356021 1.029551,1.07927 1.408612,1.319503 1.857314,1.177091 0.807242,-0.256209 0.973486,-1.008816 1.161685,-5.2591 0.02345,-0.52961 0.141825,-0.69979 0.414089,-0.595312 0.209687,0.08046 0.431044,0.146299 0.491902,0.146299 0.237511,0 0.095,1.036777 -0.164559,1.197194 -0.174361,0.107761 -0.210562,0.767937 -0.09879,1.801553 0.258363,2.389206 1.17445,3.180821 2.34907,2.029892 2.249126,-2.203762 3.668468,-2.36696 1.573773,-0.180954 -1.038215,1.083471 -1.181685,1.364998 -1.035293,2.031517 0.201752,0.918573 1.343962,1.585928 2.376547,1.388537 0.387382,-0.07405 0.963631,-0.0088 1.280555,0.145088 0.316923,0.153852 0.754817,0.338568 0.973099,0.410481 0.266537,0.08781 0.218747,0.13761 -0.145521,0.151638 -0.298318,0.01149 -0.670626,0.149118 -0.827351,0.305843 -0.203551,0.203551 -0.600308,0.190473 -1.38885,-0.04578 -0.994638,-0.298001 -1.153329,-0.280377 -1.603363,0.178066 -0.274707,0.27984 -0.575869,0.822101 -0.669248,1.205023 -0.147577,0.60517 -0.01135,0.809998 1.041651,1.566206 1.195481,0.858529 1.572848,1.57403 0.830171,1.57403 -0.209693,0 -0.454844,-0.119062 -0.544781,-0.264583 -0.08994,-0.145521 -0.395407,-0.264583 -0.678823,-0.264583 -0.283416,0 -0.774111,-0.297657 -1.090432,-0.661459 -1.026216,-1.180251 -2.349913,-0.711444 -2.3401,0.828781 0.01387,2.176228 -0.530776,3.203923 -1.009425,1.904704 z M -9.1427641,60.522463 c -0.4285111,-0.356843 -1.7971649,-1.369648 -3.0414519,-2.250678 -3.055161,-2.163235 -3.198612,-2.353081 -2.319989,-3.070319 0.380676,-0.310754 1.446069,-1.036615 2.367539,-1.613024 0.92147,-0.576409 2.094419,-1.419758 2.6065538,-1.874109 1.2547708,-1.113196 1.4868341,-1.170061 3.7413006,-0.916778 1.0737943,0.120638 3.4172822,0.367666 5.20775072,0.548952 l 3.25539738,0.32961 2.3008528,1.744754 c 1.2654691,0.959615 2.6967279,1.863817 3.1805752,2.009337 1.0562049,0.317662 1.2186322,0.758989 0.3257267,0.885024 -0.3903076,0.05509 -0.7785731,-0.08916 -0.9794758,-0.363915 -0.4824084,-0.659733 -1.1520149,-0.289962 -1.1520149,0.636168 0,0.653485 -0.2890622,0.9913 -1.8182999,2.12497 -1.0000649,0.741379 -1.9107896,1.347962 -2.0238327,1.347962 -0.1130431,0 0.5935548,-0.604925 1.5702174,-1.344278 1.8850067,-1.426987 1.8884311,-1.431784 2.0976523,-2.938071 0.1289858,-0.928632 0.064507,-1.029412 -1.3542415,-2.116667 -0.8193215,-0.627885 -1.7333195,-1.286218 -2.0311065,-1.462963 -0.7542831,-0.447687 -2.88652253,-0.417589 -4.0218245,0.05677 -1.1644811,0.486552 -1.0625342,0.49463 -1.2171024,-0.09644 -0.1727195,-0.66048 -1.5027635,-0.87822 -3.5541211,-0.581841 -2.0744374,0.299714 -2.2469739,0.403676 -3.5516712,2.140065 -0.9079384,1.208352 -1.0559244,1.577108 -0.9341254,2.32767 0.13839,0.8528 0.114439,0.88425 -0.546984,0.718243 -0.67127,-0.168478 -0.679749,-0.155593 -0.286942,0.436007 0.222624,0.335289 0.569279,0.611152 0.770346,0.613029 0.201067,0.0019 0.9154573,0.568084 1.5875338,1.258237 L -7.7425439,60.325 h 2.3011661 c 1.2656413,0 2.5378797,-0.126685 2.8271962,-0.281523 0.3439441,-0.184073 1.2766785,-0.21011 2.69458523,-0.07522 l 2.16855497,0.206303 -3.3072918,0.300145 c -1.8190104,0.16508 -4.2068481,0.389338 -5.3063058,0.498353 -1.8809628,0.186504 -2.0450241,0.159894 -2.7781251,-0.450595 z m 53.2841751,0.08985 -4.674216,-0.433442 -1.411201,-0.988916 c -2.245234,-1.573374 -2.338648,-1.667712 -2.310869,-2.333704 0.02556,-0.612753 0.03169,-0.61453 0.198438,-0.05752 0.173049,0.578064 1.50611,1.758269 3.095551,2.740597 0.684464,0.423022 1.299413,0.525986 3.067346,0.513582 1.216188,-0.0085 3.364984,0.0572 4.775102,0.146072 1.617325,0.101931 2.757778,0.0578 3.089138,-0.119538 0.288907,-0.154619 0.916689,-0.885162 1.395071,-1.623431 0.675491,-1.04246 0.9053,-1.241058 1.028776,-0.889056 0.136565,0.389318 0.240581,0.349524 0.737431,-0.282118 0.318143,-0.404453 0.578441,-0.838374 0.578441,-0.96427 0,-0.315562 -0.365293,-0.286943 -0.70768,0.05544 -0.20274,0.20274 -0.334528,0.01686 -0.459196,-0.647681 -0.09617,-0.512616 -0.587337,-1.425743 -1.091487,-2.029172 -0.50415,-0.603429 -0.916637,-1.188765 -0.916637,-1.300748 0,-0.423831 -2.329336,-1.069085 -3.845304,-1.065194 -1.785005,0.0046 -2.334679,0.235402 -2.088475,0.876998 0.210651,0.548948 -0.148939,0.560646 -1.383073,0.04499 -0.522421,-0.218281 -1.573536,-0.396875 -2.335813,-0.396875 -1.248779,0 -1.546923,0.124391 -3.012266,1.256771 -1.08616,0.839358 -1.682028,1.505519 -1.794072,2.005717 -0.12063,0.53853 -0.230469,0.650031 -0.390954,0.396875 -0.409702,-0.646282 -0.242058,-0.897712 1.554644,-2.33162 1.97608,-1.577067 2.242319,-1.65384 7.342188,-2.117215 1.600729,-0.145442 3.46138,-0.334133 4.13478,-0.419313 1.086481,-0.137432 1.32485,-0.06822 2.116666,0.614609 0.490767,0.423215 1.077337,0.836413 1.303489,0.918217 0.725819,0.262546 4.069666,2.509241 4.586268,3.081464 0.587854,0.651145 0.373801,1.029758 -1.157111,2.046674 -0.511459,0.339739 -1.937998,1.335577 -3.170086,2.212973 -1.452606,1.034431 -2.475798,1.582434 -2.910417,1.558766 -0.368641,-0.02007 -2.773653,-0.231548 -5.344472,-0.469941 z M 32.94032,56.091171 c -0.09011,-0.145793 0.148744,-0.383918 0.530776,-0.529166 0.918198,-0.349098 0.924739,-0.347223 0.924739,0.265078 0,0.384644 -0.176389,0.529167 -0.645844,0.529167 -0.355213,0 -0.719565,-0.119285 -0.809671,-0.265079 z M -7.4083334,55.5625 c 0,-0.145521 0.1190625,-0.264583 0.2645833,-0.264583 0.1455209,0 0.2645834,0.119062 0.2645834,0.264583 0,0.145521 -0.1190625,0.264583 -0.2645834,0.264583 -0.1455208,0 -0.2645833,-0.119062 -0.2645833,-0.264583 z M 28.839585,47.782253 c 0,-0.195419 0.17189,-0.842495 0.381978,-1.437947 0.210087,-0.595453 0.579274,-2.188 0.820415,-3.538995 0.261677,-1.46605 0.678694,-2.829696 1.03437,-3.382395 0.327762,-0.509323 2.071935,-2.427268 3.875938,-4.262101 l 3.280007,-3.336059 3.175,-0.444263 c 1.746251,-0.244345 3.517869,-0.512143 3.93693,-0.595107 l 0.761929,-0.150843 -0.173667,1.285332 c -0.09552,0.706933 -0.297942,2.11877 -0.449835,3.137416 -0.151892,1.018646 -0.330019,2.224698 -0.395837,2.680117 -0.09822,0.679665 -0.863025,1.477505 -4.26829,4.45269 -2.281742,1.993561 -4.451927,3.780477 -4.822634,3.970924 -0.370707,0.190447 -1.792015,0.537482 -3.158464,0.771188 -1.366448,0.233705 -2.616604,0.526239 -2.778125,0.650074 -0.596007,0.456947 -1.219715,0.559203 -1.219715,0.199969 z M 35.09,46.176715 c 1.124421,-0.335461 1.756168,-0.809474 3.704166,-2.779317 1.291699,-1.306183 2.914031,-2.940403 3.605181,-3.631601 1.150255,-1.150334 1.25352,-1.358031 1.21983,-2.453447 -0.04261,-1.385533 -0.203822,-1.795448 -0.510779,-1.298782 -0.119418,0.193223 -0.311903,0.256536 -0.427743,0.140695 -0.115841,-0.115841 -0.0025,-0.327109 0.251946,-0.469484 0.369638,-0.20686 0.405353,-0.365767 0.177782,-0.790989 -0.236215,-0.441371 -0.353579,-0.47503 -0.688159,-0.197353 -0.335537,0.278471 -0.482113,0.230384 -0.871576,-0.285938 -0.417394,-0.553351 -0.558244,-0.589319 -1.297965,-0.331451 -0.681108,0.237436 -0.829765,0.220621 -0.829765,-0.09385 0,-0.457515 -0.906638,-0.5007 -2.061299,-0.09818 -0.998795,0.348182 -2.27413,1.941913 -2.09675,2.620217 0.08422,0.322062 -0.188469,0.792187 -0.79586,1.37208 l -0.923979,0.88215 0.188122,-0.926042 0.188123,-0.926042 -1.23915,1.190625 c -1.654141,1.589367 -1.936819,2.202334 -2.381395,5.163897 -0.208047,1.385911 -0.450348,2.636466 -0.538446,2.779012 -0.0881,0.142546 -0.07668,0.394276 0.02537,0.5594 0.239381,0.387327 3.438131,0.130579 5.302346,-0.425593 z m 5.126668,-9.135049 c 0,-0.145521 0.12609,-0.264583 0.280199,-0.264583 0.154109,0 0.206613,0.119062 0.116676,0.264583 -0.08994,0.145521 -0.216026,0.264583 -0.280198,0.264583 -0.06417,0 -0.116677,-0.119062 -0.116677,-0.264583 z M 11.858543,47.614126 C 11.614023,47.471474 10.389563,47.176119 9.1375204,46.957782 7.885478,46.739444 6.5120067,46.413295 6.0853622,46.233006 c -1.1276136,-0.4765 -8.9805216,-7.565227 -9.1180244,-8.230733 -0.064061,-0.310053 -0.1783119,-1.278107 -0.2538905,-2.151232 -0.075578,-0.873125 -0.2384064,-2.210711 -0.3618397,-2.972414 -0.328274,-2.025767 -0.2420858,-2.084699 2.5062072,-1.713629 1.28304577,0.173235 2.9609061,0.391468 3.7285785,0.484963 1.3827088,0.1684 1.4233552,0.199988 4.3442712,3.37616 3.0777315,3.346692 4.4519875,5.068538 4.4383735,5.560972 -0.0044,0.160067 -0.142059,0.05291 -0.305854,-0.238135 C 10.670239,39.650747 9.0027969,37.763712 8.5248007,37.476284 8.2161756,37.290702 8.1798488,37.41101 8.3250756,38.137742 L 8.5025891,39.026041 7.5685206,37.967708 C 7.054783,37.385624 6.6299818,36.693188 6.624518,36.428959 6.6077904,35.620018 6.1107583,34.947635 5.0209654,34.259679 3.8504044,33.520736 3.3995681,33.457354 2.6488474,33.926186 c -0.4095202,0.25575 -0.587327,0.25575 -0.8430766,0 -0.5441951,-0.544195 -1.25318807,-0.377231 -1.43253768,0.337355 -0.17446112,0.695108 -0.48964374,0.850676 -0.77804825,0.384027 -0.33340096,-0.539454 -0.84382167,0.268136 -1.18470307,1.874442 -0.3238828,1.526206 -0.3118246,1.627183 0.2951918,2.471973 0.34807753,0.484423 1.36594706,1.488616 2.26193226,2.23154 0.89598524,0.742923 2.19854104,2.010393 2.89456854,2.816599 1.5296656,1.771805 3.1440177,2.469291 6.2738786,2.710648 l 2.117785,0.163312 -0.184774,-1.034604 c -0.552591,-3.094116 -0.722171,-4.380928 -0.616136,-4.675397 0.06495,-0.180376 0.208615,0.386419 0.319253,1.259544 0.110638,0.873125 0.422654,2.301875 0.693368,3.175 0.270715,0.873125 0.493744,1.736328 0.495622,1.918229 0.004,0.392182 -0.483255,0.41661 -1.102628,0.05527 z m 8.778958,-4.365292 c 0,-0.636039 -0.967729,-2.377955 -2.278908,-4.102042 -0.658384,-0.865718 -1.295757,-1.918162 -1.416384,-2.338763 -0.120627,-0.420602 -0.298081,-2.712988 -0.394343,-5.094193 -0.09626,-2.381204 -0.236453,-4.65455 -0.311535,-5.05188 -0.111752,-0.591378 0.09671,-0.975323 1.149225,-2.116667 0.707156,-0.766837 1.736106,-1.959795 2.286556,-2.651019 0.550449,-0.691224 1.162383,-1.256771 1.359854,-1.256771 0.197471,0 0.635984,0.360729 0.974474,0.801621 0.33849,0.440891 1.300045,1.597152 2.13679,2.569469 l 1.521355,1.767849 -0.01634,1.994593 c -0.009,1.097026 -0.165242,3.678765 -0.347237,5.737198 l -0.330899,3.742604 -1.505612,2.0773 c -0.828087,1.142515 -1.713627,2.583288 -1.967868,3.201717 -0.467676,1.137602 -0.85913,1.4652 -0.85913,0.718984 z m 2.495365,-3.991364 c 0.810362,-1.109641 1.486511,-2.151438 1.502554,-2.315104 0.01604,-0.163666 0.05923,-1.224868 0.09597,-2.358225 0.0577,-1.779936 -3.36e-4,-2.096582 -0.426044,-2.324413 -0.623094,-0.33347 -0.64337,-0.822783 -0.02983,-0.719765 0.389053,0.06533 0.47569,-0.165043 0.542324,-1.442043 0.121071,-2.320256 -0.967643,-4.174841 -1.964922,-3.347172 -0.199837,0.165849 -0.36334,0.46556 -0.36334,0.666023 0,0.200463 -0.114424,0.364478 -0.254276,0.364478 -0.139852,0 -0.487921,0.250788 -0.773486,0.557306 -0.537947,0.577418 -1.088904,0.488344 -1.088904,-0.176046 0,-0.209693 -0.229844,-0.38126 -0.510765,-0.38126 -0.328242,0 -0.540978,-0.212736 -0.595313,-0.595313 -0.125403,-0.882979 -1.099853,-0.925967 -1.491767,-0.06581 -0.171915,0.377311 -0.312572,0.859012 -0.312572,1.070446 0,0.211435 -0.119063,0.384426 -0.264583,0.384426 -0.145521,0 -0.264584,0.654844 -0.264584,1.455208 0,1.27882 0.06414,1.455209 0.529167,1.455209 0.629842,0 0.68331,0.336445 0.126861,0.798257 -0.312077,0.259001 -0.389543,0.84484 -0.345397,2.612085 0.06142,2.458832 0.121486,2.601184 2.161403,5.122471 1.466436,1.812479 1.915165,1.720896 3.727498,-0.760759 z M 21.793163,27.221707 c 0.507833,-0.725032 0.308157,-1.202011 -0.578125,-1.381009 -0.954022,-0.192678 -1.448248,0.423824 -1.046544,1.305469 0.357557,0.784752 1.103622,0.81944 1.624669,0.07554 z"
         id="path398" /><path
         style="fill:#5e5e5e"
         d="m 19.803837,91.082814 c -0.492382,-0.545703 -1.183974,-1.468438 -1.536873,-2.050521 -0.352898,-0.582083 -0.933619,-1.336501 -1.29049,-1.676485 -0.634672,-0.604637 -0.644548,-0.676942 -0.451734,-3.307291 0.108417,-1.479028 0.280272,-3.998829 0.381899,-5.599558 l 0.184777,-2.910417 1.642477,-2.232029 c 1.034032,-1.40519 1.837776,-2.246418 2.169682,-2.27087 0.368001,-0.02711 0.946746,0.526671 1.916504,1.83384 1.995105,2.68927 2.000539,2.703453 2.143182,5.593761 0.07143,1.447352 0.250264,3.744469 0.397409,5.104705 0.147145,1.360237 0.19558,2.669924 0.107634,2.910417 -0.08795,0.240493 -0.825108,1.270698 -1.63814,2.289344 -0.813031,1.018646 -1.688135,2.179505 -1.944675,2.579687 -0.620787,0.968378 -1.014294,0.918362 -2.081652,-0.264583 z m 2.421164,-4.705009 c 0,-0.514047 -1.152738,-1.230666 -1.664023,-1.034468 -0.480424,0.184356 -1.009554,1.504886 -0.75635,1.887594 0.09428,0.142497 0.40954,0.394925 0.700581,0.560951 0.444775,0.253723 0.624108,0.195019 1.12448,-0.368095 0.327421,-0.368479 0.595312,-0.83917 0.595312,-1.045982 z m 1.704789,-0.182509 c 0.226533,-0.323421 0.411878,-0.859202 0.411878,-1.190625 0,-0.331422 0.119062,-0.602587 0.264583,-0.602587 0.145521,0 0.264584,-0.606459 0.264584,-1.347686 0,-1.100282 -0.09204,-1.371757 -0.501388,-1.478803 -0.603635,-0.157854 -1.009824,-1.581034 -1.17355,-4.111815 -0.0827,-1.278403 -0.347353,-2.26052 -0.940592,-3.490563 -0.938001,-1.944885 -1.328277,-2.310284 -1.733728,-1.623213 -0.154523,0.261852 -0.53548,0.863633 -0.84657,1.33729 -0.322737,0.491389 -0.644844,1.543795 -0.750114,2.450814 -0.101472,0.87429 -0.352503,1.913454 -0.557847,2.309254 -0.393949,0.759337 -0.25593,3.452544 0.191091,3.728818 0.31257,0.193179 0.286555,0.638404 -0.0373,0.638404 -0.145521,0 -0.264583,-0.174404 -0.264583,-0.387566 0,-0.213161 -0.238125,-0.515006 -0.529167,-0.670767 -0.496214,-0.265566 -0.529166,-0.201213 -0.529166,1.033409 0,0.724136 0.119062,1.390196 0.264583,1.480133 0.145521,0.08994 0.264583,0.431395 0.264583,0.758795 0,0.327401 0.16571,0.821895 0.368244,1.098877 0.320707,0.438592 0.42592,0.455737 0.815026,0.132807 0.262028,-0.217464 0.400052,-0.61525 0.333776,-0.961948 -0.07995,-0.418238 0.03566,-0.630029 0.395235,-0.724061 0.279532,-0.0731 0.572822,-0.379869 0.651755,-0.68171 0.07893,-0.301841 0.270783,-0.548802 0.426333,-0.548802 0.15555,0 0.558382,-0.258879 0.895183,-0.575287 0.741866,-0.696947 0.792799,-0.365156 0.104272,0.679255 -0.574706,0.871759 -0.462615,1.483532 0.271817,1.483532 0.346247,0 0.500859,0.187854 0.500859,0.608542 0,0.592477 0.435423,1.243542 0.831664,1.243542 0.108165,0 0.382009,-0.264618 0.608542,-0.588039 z M 17.734788,78.11823 c 0.0042,-0.109141 0.231549,-1.018356 0.505138,-2.020479 l 0.497434,-1.822041 -0.612925,0.631416 c -0.675814,0.696203 -1.222345,3.409542 -0.686762,3.409542 0.159176,0 0.292878,-0.0893 0.297115,-0.198438 z m 6.568922,-2.499893 c -0.469209,-0.850974 -0.623538,-0.0395 -0.190067,0.999381 0.298467,0.715326 0.330068,0.729574 0.424164,0.191244 0.05592,-0.319915 -0.04942,-0.855697 -0.234097,-1.190625 z m -27.0173119,5.046914 c -0.6516738,-0.364695 -0.6505135,-2.915424 0.00162,-3.567549 0.3437628,-0.343756 0.4643743,-0.902067 0.4682756,-2.167647 l 0.00525,-1.704634 1.65832198,-1.489273 c 0.91207708,-0.8191 2.67548962,-2.462401 3.91869442,-3.65178 2.2122147,-2.116434 2.2994301,-2.169095 4.0936057,-2.471722 1.4732448,-0.248495 2.0535551,-0.239296 2.9552182,0.04685 l 1.121985,0.356061 -0.04101,2.126349 c -0.06402,3.319216 -0.344975,3.996259 -2.6723354,6.439852 -1.1270329,1.18332 -2.6213869,2.793549 -3.3207869,3.578288 -1.2388094,1.389965 -1.3344311,1.440721 -3.7041668,1.966148 -3.4672185,0.768767 -3.9668891,0.828827 -4.4846743,0.53906 z m 8.0820376,-3.076785 c 0.6652252,-0.598485 2.0398981,-2.591517 2.0398981,-2.957491 0,-0.422809 -0.945034,-0.341503 -1.3229167,0.113817 -0.1811573,0.218282 -0.5393138,0.396875 -0.7959031,0.396875 -0.2565894,0 -0.7989243,0.172451 -1.2051886,0.383223 C 3.4288884,75.864935 3.3110101,75.860722 3.0381025,75.4875 2.800043,75.161934 2.4968983,75.110717 1.6966066,75.260853 0.52900577,75.479896 0.27443646,75.75345 0.26863506,76.795314 c -0.004912,0.882158 0.45327995,0.936098 1.42940914,0.168274 0.8996927,-0.707698 1.1171943,-0.521146 0.4223281,0.362234 -0.2930796,0.37259 -0.532872,0.739224 -0.532872,0.814741 0,0.569173 3.0257156,0.127355 3.7809354,-0.552097 z M 0.8039279,74.204792 c 0.6162742,-0.655994 0.6364282,-0.659201 0.8313446,-0.132292 0.169927,0.459357 0.428232,0.539133 1.7296394,0.53419 1.7342405,-0.0066 3.2966014,-0.623611 4.3080053,-1.701363 0.3638021,-0.387668 0.9594751,-1.025348 1.3237178,-1.417068 1.20957,-1.300813 2.409886,-4.624996 1.866317,-5.168618 -0.122675,-0.122688 -0.9093945,-0.08058 -1.7482651,0.09357 C 6.7820557,66.897459 4.5227906,68.661382 2.5709294,71.522249 2.16593,72.115862 1.7930261,72.643086 1.7422541,72.693858 1.691482,72.74463 1.3345988,72.707025 0.94918022,72.610291 0.38095663,72.467676 0.28218684,72.328018 0.426958,71.871885 0.58499911,71.373941 0.55555062,71.35081 0.17045687,71.67041 c -0.239272,0.198578 -0.43882659,0.554832 -0.44345464,0.791675 -0.004628,0.236843 -0.18322181,0.66174 -0.39687502,0.944215 -0.66145221,0.874518 -0.50594221,1.199129 0.68989825,1.440092 0.08377431,0.01688 0.4365304,-0.271839 0.78390244,-0.6416 z m 9.6683551,-2.110916 c 0.266595,-0.495038 0.418331,-0.966457 0.33719,-1.047598 -0.145977,-0.145976 -1.5490558,1.711552 -1.5490558,2.050786 0,0.448037 0.7764908,-0.194747 1.2118658,-1.003188 z M 2.2107985,71.03659 C 2.127888,70.820528 1.9683065,70.643751 1.856173,70.643751 c -0.360442,0 -0.8490885,0.761358 -0.6722686,1.047458 0.2633893,0.426173 1.2100571,-0.177304 1.0268941,-0.654619 z m 41.0485785,9.750804 c -4.781985,-0.972841 -5.562867,-1.238324 -6.482292,-2.203836 -2.841757,-2.984201 -5.65221,-6.060391 -5.834566,-6.386243 -0.114913,-0.205339 -0.342436,-1.383034 -0.505606,-2.6171 -0.16317,-1.234066 -0.36142,-2.614579 -0.440555,-3.067806 -0.143863,-0.823941 -0.143695,-0.82407 1.267902,-0.971631 0.776481,-0.08117 2.245221,-0.0178 3.263867,0.140824 1.824438,0.2841 1.882415,0.318349 3.88422,2.294548 1.117675,1.103378 2.873847,2.760411 3.902604,3.682294 1.858897,1.665783 1.870478,1.684605 1.872098,3.042708 9.1e-4,0.763329 0.192907,1.716936 0.43495,2.160307 0.40107,0.734674 0.659076,3.37039 0.35717,3.648748 -0.252316,0.232636 -1.193294,0.384297 -1.719792,0.277187 z m -3.335941,-2.447421 c 0.302824,-0.191761 0.26438,-0.379013 -0.216454,-1.054282 -0.609071,-0.855361 -0.495696,-1.085643 0.22427,-0.455527 1.128847,0.987971 2.021628,0.657119 1.686361,-0.624943 -0.252914,-0.967146 -2.253982,-1.439814 -2.826985,-0.667755 -0.258201,0.347898 -0.382798,0.349283 -1.02954,0.01145 -0.404684,-0.211395 -0.888446,-0.325774 -1.075027,-0.254176 -0.186582,0.0716 -0.55854,-0.112146 -0.826573,-0.40832 -0.550437,-0.608225 -1.463653,-0.722173 -1.463653,-0.18263 0,0.195728 0.238125,0.571368 0.529167,0.834757 0.291041,0.26339 0.529166,0.629156 0.529166,0.812814 0,0.183659 0.506016,0.758188 1.124479,1.276732 1.142852,0.95821 2.499741,1.247003 3.344789,0.711885 z m 0.0629,-4.259995 c 0.424124,-0.497449 0.438763,-0.49723 0.900903,0.01343 0.464784,0.51358 1.97526,0.733923 1.97526,0.288144 0,-0.512057 -1.152019,-2.788436 -1.255588,-2.481029 -0.14898,0.442193 -0.596496,0.423333 -0.596496,-0.02514 0,-0.195728 -0.235642,-0.569122 -0.52365,-0.829765 -0.485793,-0.439637 -0.536012,-0.441683 -0.694644,-0.0283 -0.107117,0.279144 0.01437,0.582456 0.325213,0.811954 0.370015,0.273183 0.420136,0.443586 0.197086,0.670054 -0.223764,0.227192 -0.510812,-0.0663 -1.139416,-1.164982 -0.462163,-0.807776 -1.33959,-1.900211 -1.949838,-2.427633 -1.357031,-1.172847 -3.885435,-2.406779 -5.438507,-2.654145 l -1.153965,-0.183798 0.18069,0.898427 c 0.335428,1.667822 0.689575,2.552081 1.211158,3.024107 0.285564,0.258432 0.519206,0.636998 0.519206,0.841258 0,0.518824 1.600287,2.45702 2.028657,2.45702 0.193927,0 0.586124,0.23353 0.871549,0.518956 1.113583,1.113583 3.692956,1.267718 4.542382,0.271438 z M 32.15555,72.512612 c -0.451665,-0.873424 -0.934718,-1.274996 -0.934718,-0.77705 0,0.293446 1.008722,1.554022 1.24354,1.554022 0.05113,0 -0.08784,-0.349637 -0.308822,-0.776972 z M -8.9459635,59.088715 c -0.6822723,-0.700348 -1.4050045,-1.274896 -1.6060715,-1.276774 -0.201067,-0.0019 -0.547722,-0.27774 -0.770346,-0.613029 -0.392807,-0.5916 -0.384328,-0.604485 0.286942,-0.436007 0.661423,0.166007 0.685374,0.134557 0.546984,-0.718243 -0.121799,-0.750562 0.02619,-1.119318 0.9341254,-2.32767 1.3046973,-1.736389 1.4772338,-1.840351 3.5516712,-2.140065 2.0513576,-0.296379 3.3814016,-0.07864 3.5541211,0.581841 0.1545682,0.59107 0.052621,0.582992 1.2171024,0.09644 1.13530197,-0.474359 3.2675414,-0.504457 4.0218245,-0.05677 0.297787,0.176745 1.211785,0.835078 2.0311065,1.462963 1.4187488,1.087255 1.4832273,1.188035 1.3542415,2.116667 -0.2092774,1.506692 -0.212156,1.510713 -2.1100065,2.947423 l -1.7881046,1.353631 -2.39558404,-0.02001 c -1.31757116,-0.01101 -3.56376756,0.05266 -4.99154756,0.141477 l -2.5959635,0.161486 z m 4.9772136,0.310244 c 0,-0.218282 0.1190625,-0.396875 0.2645833,-0.396875 0.1455208,0 0.2645833,-0.119063 0.2645833,-0.264584 0,-0.145521 -0.1823305,-0.264583 -0.4051789,-0.264583 -0.2228484,0 -0.4737117,-0.178594 -0.5574741,-0.396875 -0.1867257,-0.486599 -0.8894304,-0.528407 -0.8894304,-0.05292 0,0.189177 0.1362843,0.480243 0.3028539,0.646812 0.2274163,0.227417 0.128559,0.346599 -0.396875,0.478475 -1.0529433,0.264272 -0.8407181,0.647422 0.3586045,0.647422 0.7643519,0 1.0583334,-0.110244 1.0583334,-0.396875 z m 7.4083336,-0.68774 0.9260417,-0.805797 -1.3229167,0.727709 c -1.6605565,0.913438 -1.6443886,0.899537 -1.0362848,0.891002 0.2789149,-0.0039 0.9238368,-0.369726 1.4331598,-0.812914 z m -9.5035794,-0.04736 c 0.3482622,-0.764353 -0.092986,-2.043022 -0.7050136,-2.043022 -0.333042,0 -0.3925898,0.157448 -0.2597392,0.686767 0.096348,0.383883 0.040608,0.845527 -0.1263867,1.046743 -0.1643148,0.197988 -0.2219461,0.484255 -0.1280696,0.63615 0.2930554,0.474174 0.9323751,0.302894 1.2192091,-0.326638 z M 2.7865195,58.089586 C 4.2775074,57.466611 5.5921452,56.338258 5.5030932,55.757951 5.415915,55.189854 3.7709914,54.171066 1.9338907,53.547354 1.1030681,53.265282 0.31495292,53.201259 -0.74600524,53.329651 c -1.60145566,0.1938 -4.48274856,1.387145 -5.07645256,2.102515 -0.310599,0.374249 -0.2552824,0.517375 0.4170786,1.07915 1.5342365,1.281894 2.301092,1.559286 4.74392105,1.715997 1.30968756,0.08402 2.41483985,0.17365 2.45589395,0.199182 0.041054,0.02553 0.4874918,-0.126077 0.9920837,-0.336909 z M -6.8791667,55.5625 c 0,-0.145521 -0.1190625,-0.264583 -0.2645834,-0.264583 -0.1455208,0 -0.2645833,0.119062 -0.2645833,0.264583 0,0.145521 0.1190625,0.264583 0.2645833,0.264583 0.1455209,0 0.2645834,-0.119062 0.2645834,-0.264583 z m 0.749868,-1.836132 c 0.060071,-0.410437 -0.024737,-0.566767 -0.2645833,-0.487718 -0.1941462,0.06399 -0.3927774,0.388166 -0.4414027,0.720398 -0.060071,0.410437 0.024736,0.566768 0.2645833,0.487718 0.1941462,-0.06399 0.3927774,-0.388166 0.4414027,-0.720398 z m 2.6180575,-0.70497 c -0.087919,-0.08792 -0.316122,-0.09732 -0.5071181,-0.02089 -0.2110668,0.08446 -0.1483721,0.147157 0.1598524,0.159853 0.278915,0.01149 0.4351845,-0.05105 0.3472657,-0.138964 z m 47.9612432,7.026499 c -0.240859,-0.163254 -1.204486,-0.202706 -2.451284,-0.100358 -2.245958,0.184366 -2.259363,0.179584 -4.758612,-1.697688 -1.178312,-0.88507 -1.256518,-1.019069 -1.25272,-2.146407 0.0049,-1.446641 -0.0019,-1.43612 1.938432,-2.999659 1.405088,-1.132221 1.672767,-1.245452 2.944251,-1.245452 0.769253,0 1.826077,0.178594 2.348498,0.396875 1.234134,0.515654 1.593724,0.503956 1.383073,-0.04499 -0.246204,-0.641596 0.30347,-0.872417 2.088475,-0.876998 1.515968,-0.0039 3.845304,0.641363 3.845304,1.065194 0,0.111983 0.412487,0.697319 0.916637,1.300748 0.50415,0.603429 0.995319,1.516556 1.091487,2.029172 0.124668,0.664539 0.256456,0.850421 0.459196,0.647681 0.342387,-0.342387 0.70768,-0.371006 0.70768,-0.05544 0,0.125896 -0.260298,0.559817 -0.578441,0.96427 -0.52959,0.673265 -0.593237,0.693184 -0.753655,0.235869 -0.153942,-0.438854 -0.22618,-0.400942 -0.594992,0.312261 -0.230878,0.446468 -0.772939,1.189821 -1.204582,1.651896 -0.774076,0.828651 -0.818615,0.84008 -3.258338,0.836084 -1.360444,-0.0022 -2.652128,-0.125102 -2.870409,-0.273052 z m 3.021069,-0.148079 c 0.577876,-0.221752 0.523687,-0.564111 -0.121709,-0.768952 -0.37604,-0.11935 -0.493387,-0.319031 -0.386113,-0.657022 0.215807,-0.679947 -0.167929,-0.826906 -0.802175,-0.307208 -0.672759,0.551253 -0.773575,1.555967 -0.172069,1.714796 0.705827,0.186374 1.033695,0.190442 1.482066,0.01839 z m -7.254403,-0.633151 c -0.521259,-0.336864 -1.134235,-0.336864 -0.926041,0 0.08994,0.145521 0.424385,0.26276 0.743219,0.260532 0.471285,-0.0033 0.505475,-0.05202 0.182822,-0.260532 z m 9.135956,-0.277254 c 0.09424,-0.152489 0.07967,-0.479911 -0.03239,-0.727604 C 49.208177,58.014116 49.10833,57.513802 49.098351,57.15 c -0.02472,-0.901267 -0.593066,-0.831938 -1.21354,0.148034 -0.467264,0.737992 -0.476678,0.860683 -0.106587,1.389062 0.426489,0.608899 1.283243,0.773413 1.574396,0.302317 z m -3.820328,-1.374586 c 1.107499,-0.501231 2.357289,-1.819797 2.357289,-2.487011 0,-0.148306 -0.26789,-0.398107 -0.595312,-0.555112 -3.270737,-1.568387 -3.48391,-1.609055 -5.221245,-0.996088 -0.632169,0.223042 -1.540406,0.334763 -2.083786,0.256323 -1.231174,-0.177728 -3.47674,1.134453 -3.47674,2.031608 0,1.134924 1.95993,2.161163 4.497916,2.355152 2.389443,0.182636 2.946468,0.108125 4.521878,-0.604872 z m 3.178503,-3.98278 c -0.339589,-0.339589 -0.683962,-0.07713 -0.432551,0.329666 0.09739,0.157576 0.298278,0.21159 0.446423,0.120032 0.180712,-0.111686 0.176146,-0.25968 -0.01387,-0.449698 z M 8.3343755,46.562406 C 6.2686319,46.150823 5.1246705,45.504466 3.8510793,44.02927 3.1611541,43.230133 1.8635911,41.968446 0.96760586,41.225523 0.07162066,40.482599 -0.94624887,39.478406 -1.2943264,38.993983 -1.9013428,38.149193 -1.913401,38.048216 -1.5895182,36.52201 c 0.3408814,-1.606306 0.85130211,-2.413896 1.18470307,-1.874442 0.28840451,0.466649 0.60358713,0.311081 0.77804825,-0.384027 0.17934961,-0.714586 0.88834258,-0.88155 1.43253768,-0.337355 0.2557496,0.25575 0.4335564,0.25575 0.8430766,0 0.7507207,-0.468832 1.201557,-0.40545 2.372118,0.333493 1.0897929,0.687956 1.586825,1.360339 1.6035526,2.16928 0.00546,0.264229 0.430265,0.956665 0.9440026,1.538749 l 0.9340685,1.058333 -0.1775135,-0.888299 c -0.2265046,-1.133456 0.1635532,-0.940543 1.6915784,0.836614 1.151758,1.339542 1.187329,1.431625 1.604178,4.152727 0.144902,0.945885 0.343508,2.166276 0.441348,2.711979 L 12.240071,46.83125 10.81639,46.80226 C 10.033365,46.786316 8.9164589,46.678382 8.3343755,46.562406 Z m 2.7271765,-1.03352 c 0.0511,-0.153296 -0.09513,-0.655643 -0.324947,-1.116328 -0.22982,-0.460685 -0.417854,-1.061265 -0.417854,-1.334623 0,-1.08676 -0.897828,-2.543349 -2.5383218,-4.11804 L 6.0576809,37.306249 H 4.2194656 c -1.6555632,0 -1.8382153,0.05205 -1.8382153,0.523813 0,1.735068 2.5601975,5.074165 5.4239585,7.074112 L 9.1281256,45.82805 8.1434013,45.686037 C 7.6018029,45.60793 6.6111701,45.16733 5.941995,44.706925 5.2728199,44.24652 4.6711719,43.923967 4.6049994,43.990139 c -0.2563734,0.256374 0.9032625,1.345431 1.7648424,1.65743 1.0542931,0.381785 4.5544012,0.293245 4.6917102,-0.118683 z M 2.6458336,41.171015 c 0,-0.05719 -0.1847776,-0.17489 -0.4106168,-0.261552 -0.2354594,-0.09036 -0.3416623,-0.046 -0.2489685,0.103984 0.1553787,0.251408 0.6595853,0.371858 0.6595853,0.157568 z M 1.1766589,38.077401 c -0.085189,-0.137839 -0.26766745,-0.180916 -0.40550677,-0.09573 -0.13783932,0.08519 -0.18091654,0.267668 -0.0957272,0.405507 0.0851894,0.137839 0.26766741,0.180916 0.40550677,0.09573 0.1378393,-0.08519 0.1809164,-0.267667 0.095727,-0.405507 z m 28.6109951,8.524907 c -0.102052,-0.165124 -0.113469,-0.416854 -0.02537,-0.5594 0.0881,-0.142546 0.330399,-1.393101 0.538446,-2.779012 0.444576,-2.961563 0.727254,-3.57453 2.381395,-5.163897 l 1.23915,-1.190625 -0.188123,0.926042 -0.188122,0.926042 0.923979,-0.88215 c 0.607391,-0.579893 0.880081,-1.050018 0.79586,-1.37208 -0.17738,-0.678304 1.097955,-2.272035 2.09675,-2.620217 1.154661,-0.402517 2.061299,-0.359332 2.061299,0.09818 0,0.314475 0.148657,0.33129 0.829765,0.09385 0.739721,-0.257868 0.880571,-0.2219 1.297965,0.331451 0.389463,0.516322 0.536039,0.564409 0.871576,0.285938 0.33458,-0.277677 0.451944,-0.244018 0.688159,0.197353 0.227571,0.425222 0.191856,0.584129 -0.177782,0.790989 -0.254411,0.142375 -0.367787,0.353643 -0.251946,0.469484 0.11584,0.115841 0.308325,0.05253 0.427743,-0.140695 0.306957,-0.496666 0.468167,-0.08675 0.510779,1.298782 0.03369,1.095416 -0.06958,1.303113 -1.21983,2.453447 -0.69115,0.691198 -2.313482,2.325418 -3.605181,3.631601 -1.947998,1.969843 -2.579745,2.443856 -3.704166,2.779317 -1.864215,0.556172 -5.062965,0.81292 -5.302346,0.425593 z m 4.565567,-1.848804 c 0.532761,-0.41911 1.236546,-0.84547 1.563968,-0.947466 0.327422,-0.101996 0.595313,-0.313905 0.595313,-0.470909 0,-0.157003 0.518317,-0.839583 1.151815,-1.516845 1.035311,-1.106831 2.303454,-3.790793 1.955509,-4.138738 -0.06688,-0.06688 -0.887134,-0.193078 -1.822799,-0.280452 l -1.70121,-0.158861 -0.889359,1.157487 c -0.489147,0.636618 -1.471164,1.615991 -2.18226,2.176383 -0.952808,0.750878 -1.252542,1.146059 -1.13947,1.502319 0.08439,0.265883 -0.138587,1.175905 -0.495501,2.022272 -0.356913,0.846366 -0.60256,1.613881 -0.545882,1.705588 0.230023,0.372185 2.604789,-0.338767 3.509876,-1.050778 z m 0.863028,0.981946 c 0.912289,-0.306385 1.91821,-1.016271 1.720389,-1.214091 -0.05955,-0.05955 -0.625827,0.157688 -1.258393,0.482754 -0.632565,0.325067 -1.507306,0.678373 -1.943868,0.785125 -0.763247,0.186636 -0.767306,0.195136 -0.105628,0.221179 0.378467,0.0149 1.092842,-0.10884 1.5875,-0.274967 z m -3.252763,-6.187243 c -0.08146,-0.08146 -0.229406,0.06538 -0.328765,0.326319 -0.143586,0.377084 -0.113195,0.407475 0.148112,0.148112 0.180821,-0.179475 0.262115,-0.39297 0.180653,-0.474431 z m 8.650057,0.139292 c 0.08994,-0.14552 0.03743,-0.264583 -0.116676,-0.264583 -0.154109,0 -0.280199,0.119063 -0.280199,0.264583 0,0.145521 0.05251,0.264584 0.116677,0.264584 0.06417,0 0.190262,-0.119063 0.280198,-0.264584 z m 0.926042,-1.477257 c 0,-0.230408 -0.141387,-0.371794 -0.314193,-0.314192 -0.490596,0.163532 -0.571965,0.733116 -0.10473,0.733116 0.230408,0 0.418923,-0.188516 0.418923,-0.418924 z m -0.926042,-1.168576 c 0.08994,-0.145521 0.03743,-0.264583 -0.116676,-0.264583 -0.154109,0 -0.280199,0.119062 -0.280199,0.264583 0,0.145521 0.05251,0.264583 0.116677,0.264583 0.06417,0 0.190262,-0.119062 0.280198,-0.264583 z m -21.208175,2.976563 c -2.039917,-2.521287 -2.099982,-2.663639 -2.161403,-5.122471 -0.04415,-1.767245 0.03332,-2.353084 0.345397,-2.612085 0.556449,-0.461812 0.502981,-0.798257 -0.126861,-0.798257 -0.465025,0 -0.529167,-0.176389 -0.529167,-1.455209 0,-0.800364 0.119063,-1.455208 0.264584,-1.455208 0.14552,0 0.264583,-0.172991 0.264583,-0.384426 0,-0.211434 0.140657,-0.693135 0.312572,-1.070446 0.391914,-0.860158 1.366364,-0.81717 1.491767,0.06581 0.05434,0.382577 0.267071,0.595313 0.595313,0.595313 0.280921,0 0.510765,0.171567 0.510765,0.38126 0,0.66439 0.550957,0.753464 1.088904,0.176046 0.285565,-0.306518 0.633634,-0.557306 0.773486,-0.557306 0.139852,0 0.254276,-0.164015 0.254276,-0.364478 0,-0.200463 0.163503,-0.500174 0.36334,-0.666023 0.997279,-0.827669 2.085993,1.026916 1.964922,3.347172 -0.06663,1.277 -0.153271,1.507368 -0.542324,1.442043 -0.613545,-0.103018 -0.593269,0.386295 0.02983,0.719765 0.425708,0.227831 0.483746,0.544477 0.426044,2.324413 -0.03674,1.133357 -0.07993,2.194559 -0.09597,2.358225 -0.01604,0.163666 -0.692192,1.205463 -1.502554,2.315104 -1.812333,2.481655 -2.261062,2.573238 -3.727498,0.760759 z m 2.634383,-1.190625 c 0.883179,-1.765094 1.231258,-3.320876 1.228313,-5.490105 -0.0025,-1.812847 -0.255887,-2.339031 -1.564955,-3.249284 -0.872922,-0.606981 -0.903812,-0.599678 -2.123179,0.501947 -1.03415,0.934292 -1.059015,0.99817 -1.055682,2.711979 0.0051,2.629225 1.550157,6.914525 2.492998,6.914525 0.180112,0 0.640239,-0.625078 1.022505,-1.389062 z M 20.168494,27.146167 c -0.401704,-0.881645 0.09252,-1.498147 1.046544,-1.305469 0.886282,0.178998 1.085958,0.655977 0.578125,1.381009 -0.521047,0.7439 -1.267112,0.709212 -1.624669,-0.07554 z"
         id="path397" /><path
         style="fill:#323232"
         d="m 20.505209,87.791882 c -0.783256,-0.446811 -0.899676,-0.740633 -0.615947,-1.554538 0.327153,-0.938471 0.921419,-1.162259 1.711562,-0.644537 0.780857,0.511637 0.788185,0.976446 0.02886,1.83098 -0.500372,0.563114 -0.679705,0.621818 -1.12448,0.368095 z m 2.301875,-1.326047 c -0.174625,-0.174625 -0.3175,-0.591344 -0.3175,-0.926042 0,-0.420688 -0.154612,-0.608542 -0.500859,-0.608542 -0.734432,0 -0.846523,-0.611773 -0.271817,-1.483532 0.688527,-1.044411 0.637594,-1.376202 -0.104272,-0.679255 -0.336801,0.316408 -0.739633,0.575287 -0.895183,0.575287 -0.15555,0 -0.3474,0.246961 -0.426333,0.548802 -0.07893,0.301841 -0.372223,0.608611 -0.651755,0.68171 -0.359578,0.09403 -0.475186,0.305823 -0.395235,0.724061 0.06628,0.346698 -0.07175,0.744484 -0.333776,0.961948 -0.389106,0.32293 -0.494319,0.305785 -0.815026,-0.132807 -0.202534,-0.276982 -0.368244,-0.771476 -0.368244,-1.098877 0,-0.3274 -0.119062,-0.668858 -0.264583,-0.758795 -0.145521,-0.08994 -0.264583,-0.755997 -0.264583,-1.480133 0,-1.234622 0.03295,-1.298975 0.529166,-1.033409 0.291042,0.155761 0.529167,0.457606 0.529167,0.670767 0,0.213162 0.119062,0.387566 0.264583,0.387566 0.323858,0 0.349873,-0.445225 0.0373,-0.638404 -0.447021,-0.276274 -0.58504,-2.969481 -0.191091,-3.728818 0.205344,-0.3958 0.456375,-1.434964 0.557847,-2.309254 0.10527,-0.907019 0.427377,-1.959425 0.750114,-2.450814 0.31109,-0.473657 0.692047,-1.075438 0.84657,-1.33729 0.405451,-0.687071 0.795727,-0.321672 1.733728,1.623213 0.593239,1.230043 0.857887,2.21216 0.940592,3.490563 0.163726,2.530781 0.569915,3.953961 1.17355,4.111815 0.409344,0.107046 0.501388,0.378521 0.501388,1.478803 0,0.741227 -0.119063,1.347686 -0.264584,1.347686 -0.145521,0 -0.264583,0.271165 -0.264583,0.602587 0,0.616468 -0.666752,1.778664 -1.02042,1.778664 -0.108165,0 -0.339539,-0.142875 -0.514164,-0.3175 z M 2.0505211,78.375048 C 1.4631855,78.251775 1.4697658,78.152933 2.1203721,77.325821 2.8152383,76.442441 2.5977367,76.255889 1.698044,76.963587 0.72191481,77.731411 0.26372276,77.677471 0.26863486,76.795313 c 0.005801,-1.041864 0.26037071,-1.315418 1.42797154,-1.534461 0.8002917,-0.150136 1.1034364,-0.09892 1.3414959,0.226647 0.2729076,0.373223 0.3907859,0.377436 1.0462229,0.03739 0.4062643,-0.210772 0.9485992,-0.383223 1.2051886,-0.383223 0.2565893,0 0.6147458,-0.178593 0.7959031,-0.396875 0.3778827,-0.45532 1.3229167,-0.536626 1.3229167,-0.113817 0,0.365974 -1.3746729,2.359006 -2.0398981,2.957491 -0.5373181,0.483411 -2.5213528,0.953768 -3.3179146,0.786582 z m 34.5281259,-0.74696 c -0.618463,-0.518544 -1.124479,-1.093073 -1.124479,-1.276732 0,-0.183658 -0.238125,-0.549424 -0.529166,-0.812814 -0.291042,-0.263389 -0.529167,-0.639029 -0.529167,-0.834757 0,-0.539543 0.913216,-0.425595 1.463653,0.18263 0.268033,0.296174 0.639991,0.479918 0.826573,0.40832 0.186581,-0.0716 0.670343,0.04278 1.075027,0.254176 0.646742,0.337838 0.771339,0.336453 1.02954,-0.01145 0.573003,-0.772059 2.574071,-0.299391 2.826985,0.667755 0.335267,1.282062 -0.557514,1.612914 -1.686361,0.624943 -0.719966,-0.630116 -0.833341,-0.399834 -0.22427,0.455527 0.689635,0.968504 0.4218,1.288155 -1.077814,1.28633 -0.673678,-8.2e-4 -1.232483,-0.25806 -2.050521,-0.943933 z M 17.329886,76.927605 c 0.119752,-0.915861 0.390425,-1.604162 0.794549,-2.020479 l 0.612925,-0.631416 -0.497434,1.822041 c -0.273589,1.002123 -0.500901,1.911338 -0.505138,2.020479 -0.0042,0.109141 -0.137939,0.198438 -0.297115,0.198438 -0.195806,0 -0.230668,-0.449272 -0.107787,-1.389063 z m 6.783757,-0.309887 c -0.177371,-0.425099 -0.282715,-0.96088 -0.234097,-1.190625 0.140457,-0.663734 0.780838,0.6806 0.658261,1.381869 -0.0941,0.53833 -0.125697,0.524082 -0.424164,-0.191244 z M -0.59531231,74.6947 c -0.56502189,-0.147656 -0.59148649,-0.604963 -0.0745605,-1.2884 0.21365321,-0.282475 0.39224696,-0.707372 0.39687502,-0.944215 0.004628,-0.236843 0.20418264,-0.593097 0.44345464,-0.791675 0.38509375,-0.3196 0.41454224,-0.296469 0.25650113,0.201475 -0.14477116,0.456133 -0.0460014,0.595791 0.52222222,0.738406 0.3854186,0.09673 0.7423018,0.134339 0.7930739,0.08357 0.050772,-0.05077 0.4236759,-0.577996 0.8286753,-1.171609 1.9518612,-2.860867 4.2111263,-4.62479 6.5437575,-5.109042 0.8388706,-0.174149 1.6255901,-0.216254 1.7482651,-0.09357 0.543569,0.543622 -0.656747,3.867805 -1.866317,5.168618 -0.3642427,0.39172 -0.9599157,1.0294 -1.3237178,1.417068 -1.0114039,1.077752 -2.5737648,1.694776 -4.3080053,1.701363 -1.3014074,0.0049 -1.5597124,-0.07483 -1.7296394,-0.53419 -0.1949164,-0.526909 -0.2150704,-0.523702 -0.83134462,0.132292 -0.34737204,0.369761 -0.70012813,0.658481 -0.78390244,0.6416 -0.0837743,-0.01688 -0.3606763,-0.08514 -0.61533777,-0.151692 z M 36.83302,74.586649 c -0.478559,-0.142534 -1.103637,-0.492683 -1.389063,-0.778109 -0.285425,-0.285426 -0.677622,-0.518956 -0.871549,-0.518956 -0.42837,0 -2.028657,-1.938196 -2.028657,-2.45702 0,-0.20426 -0.233642,-0.582826 -0.519206,-0.841258 -0.521583,-0.472026 -0.87573,-1.356285 -1.211158,-3.024107 l -0.18069,-0.898427 1.153965,0.183798 c 1.553072,0.247366 4.081476,1.481298 5.438507,2.654145 0.610248,0.527422 1.487675,1.619857 1.949838,2.427633 0.628604,1.098686 0.915652,1.392174 1.139416,1.164982 0.22305,-0.226468 0.172929,-0.396871 -0.197086,-0.670054 -0.310844,-0.229498 -0.43233,-0.53281 -0.325213,-0.811954 0.158632,-0.413387 0.208851,-0.411341 0.694644,0.0283 0.288008,0.260643 0.52365,0.634037 0.52365,0.829765 0,0.448472 0.447516,0.467332 0.596496,0.02514 0.103569,-0.307407 1.255588,1.968972 1.255588,2.481029 0,0.445779 -1.510476,0.225436 -1.97526,-0.288144 -0.46214,-0.510659 -0.476779,-0.510878 -0.900903,-0.01343 -0.528697,0.620102 -1.986191,0.85429 -3.153319,0.506671 z M 9.2604172,73.097064 c 0,-0.339234 1.4030788,-2.196762 1.5490558,-2.050786 0.213974,0.213975 -0.756468,1.922554 -1.1854822,2.087182 -0.1999654,0.07673 -0.3635736,0.06036 -0.3635736,-0.0364 z M 31.796122,72.677219 C 31.215495,72.05917 30.994118,71.266152 31.4873,71.570955 c 0.267879,0.165559 1.150831,1.718629 0.977075,1.718629 -0.05113,0 -0.351845,-0.275564 -0.668253,-0.612365 z M 1.1839044,71.691209 c -0.1768199,-0.2861 0.3118266,-1.047458 0.6722686,-1.047458 0.1121335,0 0.271715,0.176777 0.3546255,0.392839 0.183163,0.477315 -0.7635048,1.080792 -1.0268941,0.654619 z M 45.989005,59.881432 c -0.601506,-0.158829 -0.50069,-1.163543 0.172069,-1.714796 0.634246,-0.519698 1.017982,-0.372739 0.802175,0.307208 -0.107274,0.337991 0.01007,0.537672 0.386113,0.657022 1.346109,0.427238 0.07376,1.129246 -1.360357,0.750566 z M -6.0854167,59.559933 c 0,-0.129745 0.314878,-0.31493 0.6997289,-0.411521 0.525434,-0.131876 0.6242913,-0.251058 0.396875,-0.478475 -0.1665696,-0.166569 -0.3028539,-0.457635 -0.3028539,-0.646812 0,-0.47549 0.7027047,-0.433682 0.8894304,0.05292 0.083762,0.218281 0.3346257,0.396875 0.5574741,0.396875 0.2228484,0 0.4051789,0.119062 0.4051789,0.264583 0,0.145521 -0.1190625,0.264584 -0.2645833,0.264584 -0.1455208,0 -0.2645833,0.178593 -0.2645833,0.396875 0,0.286631 -0.2939815,0.396875 -1.0583334,0.396875 -0.5820834,0 -1.0583334,-0.106156 -1.0583334,-0.235901 z m 7.6949656,-0.113888 c 0.060634,-0.04686 0.7055556,-0.412674 1.4331598,-0.812914 l 1.3229167,-0.727709 -0.9260417,0.805797 c -0.509323,0.443188 -1.1542449,0.808999 -1.4331598,0.812914 -0.2789149,0.0039 -0.4575087,-0.03122 -0.396875,-0.07809 z M 39.290627,59.266667 c -0.208194,-0.336864 0.404782,-0.336864 0.926041,0 0.322653,0.208514 0.288463,0.257238 -0.182822,0.260532 -0.318834,0.0022 -0.653282,-0.115011 -0.743219,-0.260532 z M -7.2832048,58.990493 c -0.093877,-0.151895 -0.036245,-0.438162 0.1280696,-0.63615 0.1669949,-0.201216 0.2227351,-0.66286 0.1263867,-1.046743 -0.1328506,-0.529319 -0.073303,-0.686767 0.2597392,-0.686767 0.6120279,0 1.0532758,1.278669 0.7050136,2.043022 -0.286834,0.629532 -0.9261537,0.800812 -1.2192091,0.326638 z M 47.778228,58.687096 c -0.370091,-0.528379 -0.360677,-0.65107 0.106587,-1.389062 0.620474,-0.979972 1.188817,-1.049301 1.21354,-0.148034 0.01,0.363802 0.109826,0.864116 0.221883,1.111809 0.471746,1.042763 -0.853504,1.408268 -1.54201,0.425287 z M -0.66145815,58.227313 C -3.1042872,58.070602 -3.8711427,57.79321 -5.4053792,56.511316 c -0.672361,-0.561775 -0.7276776,-0.704901 -0.4170786,-1.07915 0.593704,-0.71537 3.4749969,-1.908715 5.07645256,-2.102515 1.65467104,-0.20024 3.00567104,0.140637 5.01340144,1.264953 1.4909177,0.834904 1.5903531,1.468876 0.3756973,2.395339 -0.8403986,0.641003 -2.6557987,1.556493 -2.8486577,1.436552 -0.041054,-0.02553 -1.14620639,-0.115164 -2.45589395,-0.199182 z m 41.67187615,-0.0076 c -2.537986,-0.193989 -4.497916,-1.220228 -4.497916,-2.355152 0,-0.897155 2.245566,-2.209336 3.47674,-2.031608 0.54338,0.07844 1.451617,-0.03328 2.083786,-0.256323 1.482572,-0.523082 1.981137,-0.500089 3.417918,0.157628 2.80366,1.283436 2.728887,1.181255 1.827288,2.497053 -0.56556,0.825381 -2.38425,1.836865 -3.661982,2.036651 -0.363802,0.05688 -1.554427,0.03517 -2.645834,-0.04825 z M -6.8352847,53.959048 c 0.048625,-0.332232 0.2472565,-0.656411 0.4414027,-0.720398 0.2398468,-0.07905 0.3246547,0.07728 0.2645833,0.487718 -0.048625,0.332232 -0.2472565,0.656411 -0.4414027,0.720398 -0.2398468,0.07905 -0.3246547,-0.07728 -0.2645833,-0.487718 z m 55.1135327,0.0027 c -0.251411,-0.406793 0.09296,-0.669255 0.432551,-0.329666 0.190018,0.190018 0.194584,0.338012 0.01387,0.449698 -0.148145,0.09156 -0.349035,0.03754 -0.446423,-0.120032 z M -4.0183593,53.000509 c 0.1909961,-0.07643 0.4191992,-0.06703 0.5071181,0.02089 0.087919,0.08792 -0.068351,0.150452 -0.3472657,0.138964 -0.3082245,-0.0127 -0.3709192,-0.07539 -0.1598524,-0.159853 z M 6.3698418,45.647569 C 5.5082619,45.33557 4.348626,44.246513 4.6049994,43.990139 c 0.066173,-0.06617 0.6678205,0.256381 1.3369956,0.716786 0.6691751,0.460405 1.6598079,0.901005 2.2014063,0.979112 L 9.1281256,45.82805 7.8052088,44.904174 C 4.9414478,42.904227 2.3812503,39.56513 2.3812503,37.830062 c 0,-0.471765 0.1826521,-0.523813 1.8382153,-0.523813 h 1.8382153 l 1.7227483,1.653646 c 1.6404938,1.574691 2.5383218,3.03128 2.5383218,4.11804 0,0.273358 0.188034,0.873938 0.417854,1.334623 0.22982,0.460685 0.376046,0.963032 0.324947,1.116328 -0.137309,0.411928 -3.6374171,0.500468 -4.6917102,0.118683 z m 24.4735032,0.156713 c -0.05668,-0.09171 0.188969,-0.859222 0.545882,-1.705588 0.356914,-0.846367 0.579889,-1.756389 0.495501,-2.022272 -0.113072,-0.35626 0.186662,-0.751441 1.13947,-1.502319 0.711096,-0.560392 1.693113,-1.539765 2.18226,-2.176383 l 0.889359,-1.157487 1.70121,0.158861 c 0.935665,0.08737 1.755924,0.213577 1.822799,0.280452 0.347945,0.347945 -0.920198,3.031907 -1.955509,4.138738 -0.633498,0.677262 -1.151815,1.359842 -1.151815,1.516845 0,0.157004 -0.267891,0.368913 -0.595313,0.470909 -0.327422,0.101996 -1.031207,0.528356 -1.563968,0.947466 -0.905087,0.712011 -3.279853,1.422963 -3.509876,1.050778 z m 2.891032,-0.01504 c 0.436562,-0.106752 1.311303,-0.460058 1.943868,-0.785125 1.236712,-0.635528 1.65383,-0.622856 0.902025,0.0274 -0.605357,0.523591 -2.081429,1.013145 -2.951521,0.9789 -0.661678,-0.02604 -0.657619,-0.03454 0.105628,-0.221179 z M 1.9862483,41.013447 C 1.8935545,40.863465 1.9997574,40.819108 2.2352168,40.909463 2.6935855,41.085355 2.7774504,41.275 2.3968652,41.275 2.2599326,41.275 2.075155,41.157301 1.9862483,41.013447 Z M 20.108979,39.232299 c -0.923639,-1.565452 -1.581027,-4.025436 -1.584731,-5.930158 -0.0033,-1.713809 0.02153,-1.777687 1.055682,-2.711979 0.582502,-0.526256 1.151323,-0.95683 1.264045,-0.95683 0.311104,0 1.456171,0.842167 1.967536,1.447071 0.527938,0.624509 0.624648,3.239949 0.191078,5.167513 -0.345377,1.535475 -1.562608,3.96875 -1.985343,3.96875 -0.180112,0 -0.588832,-0.442965 -0.908267,-0.984367 z m 11.525742,0.642227 c 0.09936,-0.260938 0.247304,-0.407781 0.328765,-0.326319 0.08146,0.08146 1.68e-4,0.294956 -0.180653,0.474431 -0.261307,0.259363 -0.291698,0.228972 -0.148112,-0.148112 z m 8.581947,-0.187027 c 0,-0.14552 0.12609,-0.264583 0.280199,-0.264583 0.154109,0 0.206613,0.119063 0.116676,0.264583 -0.08994,0.145521 -0.216026,0.264584 -0.280198,0.264584 -0.06417,0 -0.116677,-0.119063 -0.116677,-0.264584 z M 0.67542498,38.387181 c -0.0851894,-0.137839 -0.0421122,-0.320317 0.0957272,-0.405507 0.13783932,-0.08519 0.32031732,-0.04211 0.40550672,0.09573 0.085189,0.13784 0.042112,0.320318 -0.095727,0.405507 -0.13783926,0.08519 -0.32031729,0.04211 -0.40550692,-0.09573 z M 40.806469,38.314973 c 0.163532,-0.490596 0.733116,-0.571965 0.733116,-0.104731 0,0.230408 -0.188515,0.418924 -0.418923,0.418924 -0.230408,0 -0.371795,-0.141387 -0.314193,-0.314193 z"
         id="path396" /></g></g></svg>
