<svg version="1.1" id="Layer_1" xmlns="http://www.w3.org/2000/svg" xmlns:xlink="http://www.w3.org/1999/xlink" x="0px" y="0px"
	 width="100%" viewBox="0 0 500 500" enable-background="new 0 0 500 500" xml:space="preserve">
<path fill="#000000" opacity="1.000000" stroke="none" 
	d="
M337.000000,501.000000 
	C226.000031,501.000000 115.500031,500.979645 5.000179,501.095337 
	C1.576374,501.098938 0.903033,500.423889 0.905298,497.000031 
	C1.013776,333.000122 1.013758,169.000153 0.905339,5.000261 
	C0.903076,1.576992 1.575751,0.903019 4.999862,0.905284 
	C168.999756,1.013775 332.999725,1.013760 496.999634,0.905354 
	C500.422638,0.903092 501.097015,1.575404 501.094757,4.999743 
	C500.986237,168.999634 500.986237,332.999603 501.094604,496.999512 
	C501.096893,500.422272 500.426208,501.106354 497.000183,501.097382 
	C443.833740,500.958069 390.666809,501.000000 337.000000,501.000000 
z"/>
<path fill="#F7D363" opacity="1.000000" stroke="none" 
	d="
M253.713074,230.823883 
	C255.613129,233.433350 256.469940,231.168015 257.209198,230.328674 
	C278.460907,206.199677 299.674927,182.037430 320.845673,157.837296 
	C332.344513,144.693024 343.771667,131.485840 355.189911,118.271370 
	C358.163513,114.829987 361.948120,114.230423 365.022003,116.911674 
	C367.794067,119.329643 367.796967,123.951584 364.939850,127.184227 
	C359.483154,133.358063 353.970459,139.482330 348.499908,145.643967 
	C338.965393,156.383011 329.240082,166.961273 319.968170,177.922760 
	C306.743622,193.557098 292.966949,208.694443 279.377167,224.001312 
	C275.011536,228.918564 270.973633,234.148300 266.360107,238.814194 
	C264.292725,240.905060 266.085419,242.405792 265.993835,244.529510 
	C267.820618,247.059372 270.318451,246.389786 273.031952,246.500641 
	C275.367859,246.516937 277.299652,246.462708 279.638428,246.660919 
	C281.181793,248.123474 280.835968,249.406143 279.556244,250.925385 
	C277.610352,251.758636 275.937408,251.393921 273.893005,251.499359 
	C271.142426,251.468262 268.782227,251.363632 266.317261,252.779755 
	C266.024384,253.036301 265.995667,253.002197 266.017700,253.005310 
	C265.239563,253.706207 265.621155,254.703262 265.204193,255.826843 
	C268.811951,263.536194 275.303558,268.786987 280.550415,275.025360 
	C293.516083,290.441254 306.885864,305.518097 320.141144,320.689362 
	C330.271515,332.284058 340.475555,343.814423 350.646027,355.374054 
	C355.648987,361.060364 360.783783,366.638184 365.597290,372.480621 
	C368.098175,375.516052 367.991180,379.186371 365.156860,381.929565 
	C362.104065,384.884155 358.720856,384.142151 356.017090,381.080688 
	C347.001099,370.871887 338.059631,360.597260 329.086914,350.350220 
	C317.157745,336.726868 305.067505,323.240570 293.340332,309.445557 
	C281.740326,295.800079 269.888245,282.384705 257.789368,269.187134 
	C256.791840,268.098999 256.419250,265.348633 254.582413,266.221954 
	C253.540237,266.717438 253.504898,269.330536 253.067444,271.375854 
	C253.834625,273.533691 253.383041,275.379822 253.342575,277.632996 
	C252.295410,279.093689 251.156082,279.243805 249.508087,278.668365 
	C247.905670,276.579224 248.759216,274.494812 248.500610,272.106079 
	C248.480011,270.033173 248.550491,268.380524 248.237427,266.376862 
	C248.030136,266.023834 247.972672,266.019592 247.977615,265.991211 
	C247.561707,265.567413 247.059586,265.486572 246.288788,265.727783 
	C246.065842,265.872650 246.065765,266.029114 245.987579,266.031799 
	C245.772034,266.190308 245.634674,266.346130 245.266418,266.711273 
	C245.035522,266.920563 245.033249,267.037048 244.975006,267.037903 
	C244.771255,267.198975 244.625748,267.359192 244.248840,267.747162 
	C244.017441,267.974884 244.021820,268.019897 243.999207,268.019531 
	C243.813187,268.184540 243.649796,268.349945 243.246994,268.768921 
	C228.823318,285.268646 214.591919,301.473999 200.466583,317.771210 
	C182.383499,338.634735 164.374969,359.562927 146.361664,380.486786 
	C143.248993,384.102356 140.184769,384.753632 136.903351,382.282776 
	C133.446976,379.680176 133.058731,376.337799 136.307953,372.431183 
	C142.253708,365.282440 148.457169,358.348541 154.521606,351.297913 
	C166.957596,336.839600 179.032028,322.050781 191.916351,308.004395 
	C200.501617,298.644836 208.466934,288.764587 217.099808,279.455994 
	C223.347946,272.718811 229.093491,265.517426 235.162125,258.609985 
	C236.217804,257.408417 236.069839,256.219635 235.990753,254.529907 
	C235.791550,253.872253 235.605255,253.619003 235.228271,253.215393 
	C235.064774,253.045044 234.957031,253.050064 234.951859,252.996368 
	C231.962463,251.166626 228.625778,252.452179 225.120804,251.708603 
	C223.562027,250.615967 223.020996,249.410385 223.389587,247.516998 
	C223.763229,246.969009 223.976608,246.800735 224.589874,246.575348 
	C228.152176,246.581085 231.280289,246.318024 234.673401,245.303482 
	C234.993332,245.074066 234.990555,244.981476 235.036819,244.979309 
	C235.290466,244.737656 235.495056,244.495804 235.843781,244.064896 
	C236.739136,240.702255 234.799805,238.526459 232.985916,236.466812 
	C216.784012,218.069809 200.489731,199.754150 184.289444,181.355728 
	C176.518127,172.529968 168.890594,163.577606 161.152267,154.342285 
	C161.316376,152.667328 164.206238,151.618790 161.643753,150.010498 
	C159.465500,148.643372 157.124924,147.263397 158.273926,144.268677 
	C159.436890,141.237534 162.228729,140.607971 165.546570,140.882080 
	C176.631638,153.076187 187.420807,165.123672 198.136276,177.236343 
	C207.100464,187.369370 215.984116,197.573715 224.892822,207.755768 
	C231.185028,214.947311 237.459503,222.154373 243.874756,229.662201 
	C244.165115,230.139038 244.322632,230.308167 244.721695,230.726028 
	C244.963226,230.974747 245.025467,230.973602 245.024521,231.004700 
	C245.180725,231.189087 245.337891,231.342377 245.716583,231.739319 
	C245.938095,231.982986 246.026779,231.983109 246.027939,232.027435 
	C246.478287,232.474655 246.996017,232.516174 247.766525,232.191559 
	C247.981888,232.022568 248.044266,231.574890 248.061554,231.349564 
	C248.714401,228.824371 248.448532,226.470093 248.500641,223.744019 
	C248.500793,222.568100 248.498215,221.783142 248.570663,220.604736 
	C250.438416,218.564270 251.964783,218.952911 253.373688,221.255615 
	C253.563614,224.581406 253.417480,227.519821 253.713074,230.823883 
z"/>
<path fill="#F6D467" opacity="1.000000" stroke="none" 
	d="
M165.759979,140.689957 
	C164.797211,142.408401 163.370651,143.020432 161.602280,143.153992 
	C160.365326,143.247421 159.375183,143.989166 159.329330,145.367691 
	C159.274368,147.019470 160.419739,147.648865 161.844131,147.901962 
	C163.529510,148.201431 165.898727,147.640686 165.776459,150.452148 
	C165.676147,152.759048 164.314774,154.072098 161.487030,153.992493 
	C161.106598,154.001999 160.982880,153.991409 160.983826,153.929337 
	C160.496246,153.433807 160.016937,152.990829 159.362015,152.261292 
	C159.145386,152.017059 158.980545,152.002319 158.987259,151.919846 
	C158.701279,151.662979 158.524734,151.408127 158.261261,150.948242 
	C150.937119,143.147568 143.707642,135.568024 136.744110,127.751579 
	C133.615005,124.239204 133.756485,118.765343 136.484253,116.684692 
	C139.923325,114.061485 143.382660,114.865677 147.215317,119.243919 
	C153.372223,126.277283 159.503494,133.333115 165.759979,140.689957 
z"/>
<path fill="#AC8034" opacity="1.000000" stroke="none" 
	d="
M253.114777,303.484314 
	C251.561951,312.490417 254.526596,319.034271 261.439026,324.553131 
	C265.881622,328.100098 268.776093,333.348724 275.849182,332.560669 
	C278.846222,332.226685 280.553680,335.915039 282.656433,337.936707 
	C288.507843,343.562469 294.125854,349.430145 299.917236,355.119659 
	C301.990936,357.156921 303.874847,359.472412 307.359283,359.434235 
	C309.041748,359.415802 310.277527,360.823486 310.442047,362.790344 
	C310.607513,364.769196 309.553345,366.042999 307.937378,366.678772 
	C306.194672,367.364410 304.190002,367.515747 302.930664,365.756317 
	C295.645172,355.578033 285.664307,347.959442 277.393921,338.721802 
	C276.614258,337.850952 275.812347,336.675690 274.587219,336.883789 
	C265.971344,338.347168 262.751190,330.953064 257.643311,326.678986 
	C256.251495,325.514374 254.978729,324.207458 253.301056,322.985779 
	C250.088028,325.462524 245.511230,324.764160 243.687241,321.203674 
	C243.861420,320.841736 243.892349,320.912018 243.855392,320.922394 
	C250.900192,316.810699 248.187637,310.038574 248.377197,303.666321 
	C249.181702,301.444794 250.533356,301.150391 252.565765,302.166748 
	C253.000961,302.648193 253.127121,302.880493 253.114777,303.484314 
z"/>
<path fill="#AF8037" opacity="1.000000" stroke="none" 
	d="
M314.684448,135.564423 
	C316.123749,142.607056 314.270142,147.738861 308.995819,152.582748 
	C299.006866,161.756531 289.769135,171.747650 280.203918,181.383881 
	C277.517426,184.090302 266.815643,185.993088 263.406708,184.446411 
	C262.383392,183.982117 261.840637,183.270050 261.950806,182.133209 
	C262.044220,181.169113 262.676056,180.675644 263.555084,180.503220 
	C264.201782,180.376373 264.906952,180.185760 265.522766,180.318130 
	C273.314789,181.992905 278.101318,177.629257 282.939209,172.404556 
	C290.606201,164.124557 298.463684,155.960709 306.855682,148.433441 
	C312.438599,143.425812 310.419220,137.604202 310.475464,131.393097 
	C313.590393,130.607986 314.103668,132.874771 314.684448,135.564423 
z"/>
<path fill="#A97E35" opacity="1.000000" stroke="none" 
	d="
M125.524277,272.249573 
	C126.143181,272.487152 126.557014,272.577393 126.702034,272.825073 
	C132.385696,282.531403 141.763290,281.006744 150.575409,280.316437 
	C155.860016,279.902435 157.723404,274.355713 161.327240,271.355377 
	C164.349899,268.838898 165.998611,264.019531 169.960526,263.508728 
	C176.341232,262.686066 182.903671,263.246796 189.388947,263.285461 
	C190.536255,263.292267 191.193298,264.103424 191.205673,265.252716 
	C191.224319,266.988037 190.061996,267.533752 188.582504,267.555817 
	C184.090958,267.622833 179.589813,267.829254 175.109863,267.615570 
	C172.163956,267.475037 170.041977,268.462830 168.118927,270.564362 
	C165.203522,273.750397 161.879410,276.593384 159.203522,279.959412 
	C156.111053,283.849457 152.467834,285.620056 147.558777,284.871857 
	C146.583160,284.723175 145.544296,284.720581 144.569977,284.874542 
	C136.208603,286.195923 129.258362,284.023590 124.166046,276.921387 
	C123.089264,275.419617 121.687424,274.192627 119.295151,274.189270 
	C119.204430,273.572144 119.489143,273.208588 120.178482,272.763367 
	C122.011658,271.968689 123.590401,271.936920 125.524277,272.249573 
z"/>
<path fill="#AB7B2F" opacity="1.000000" stroke="none" 
	d="
M249.390747,219.856445 
	C249.017365,220.814835 248.978897,221.498184 248.959961,222.523590 
	C248.892899,223.072220 248.806320,223.278793 248.450760,223.284027 
	C246.115479,212.019165 249.133423,200.979355 248.327927,189.908630 
	C247.911041,184.178909 246.413742,183.003555 240.369446,184.867126 
	C239.749329,181.536530 242.299469,181.282486 244.707733,180.690826 
	C246.096497,180.349594 248.130463,182.423019 248.848297,179.813751 
	C249.486710,177.493179 248.522263,175.669739 246.156769,174.256332 
	C247.967514,171.935486 248.418137,169.432999 248.392441,166.669769 
	C248.262848,152.729630 248.212540,138.788773 248.168121,124.374527 
	C248.609833,123.823448 249.010071,123.844391 249.654709,124.116714 
	C250.349991,124.490913 250.793396,124.708008 251.457748,124.129532 
	C252.037186,123.453751 252.518936,123.106232 253.414368,122.915894 
	C252.461761,149.318176 252.986008,175.712036 253.068329,202.789032 
	C249.998672,204.922455 250.757492,207.453476 250.942688,210.180695 
	C250.655685,213.580582 251.945267,216.824051 249.390747,219.856445 
z"/>
<path fill="#A97E35" opacity="1.000000" stroke="none" 
	d="
M380.879395,273.764404 
	C378.259888,274.976471 376.196136,277.143555 374.567474,279.266388 
	C370.795044,284.183411 365.996185,284.650726 360.244446,285.122314 
	C350.538818,285.918091 343.093445,283.372345 337.660706,275.221069 
	C333.503693,268.983948 327.758179,266.342682 320.249664,267.595490 
	C318.638824,267.864319 316.923584,267.654633 315.273499,267.491943 
	C314.056641,267.371948 312.966217,266.773346 312.967987,265.334778 
	C312.969757,263.893036 314.054230,263.187042 315.279449,263.219299 
	C323.610809,263.438660 332.836212,260.578979 338.645996,269.807312 
	C339.081207,270.498566 339.900574,270.957916 340.296265,271.662689 
	C346.039062,281.892029 355.667389,281.253845 365.189331,280.339233 
	C369.779541,279.898346 371.347595,275.080322 374.860107,272.482117 
	C376.928680,273.218750 379.040894,272.204895 380.879395,273.764404 
z"/>
<path fill="#AF8037" opacity="1.000000" stroke="none" 
	d="
M131.113068,321.143646 
	C134.651978,321.694794 137.137817,320.455231 139.458099,318.228363 
	C152.361588,305.844330 165.326630,293.524323 178.290344,281.203186 
	C180.068909,279.512787 181.686188,277.539856 184.674438,277.157288 
	C186.247940,278.732697 185.795761,280.031494 184.251633,281.473328 
	C169.238480,295.752014 154.467346,309.736908 139.859863,323.890656 
	C137.654114,326.027893 134.970917,325.520691 132.223175,326.556030 
	C131.037155,325.392334 132.235062,323.744354 130.972992,322.224304 
	C130.830963,321.710846 130.823059,321.493561 131.113068,321.143646 
z"/>
<path fill="#AF8037" opacity="1.000000" stroke="none" 
	d="
M197.745682,149.619385 
	C201.404739,156.758408 208.033295,160.709335 212.788864,166.361618 
	C215.121338,169.133911 218.283005,171.242035 220.438278,174.122910 
	C224.765350,179.906769 230.425171,181.170456 237.519974,180.143051 
	C238.423462,181.907669 237.166290,182.975571 236.183075,184.457718 
	C227.473724,186.277344 221.600296,182.398926 216.198608,176.251526 
	C209.981277,169.175919 203.108261,162.665863 196.360260,156.073746 
	C194.390701,154.149658 193.659515,152.137985 193.701279,149.480225 
	C193.805588,142.839111 193.720001,136.195007 193.686234,129.099167 
	C193.921860,128.711441 194.181839,128.776642 194.760010,129.085968 
	C197.235382,131.882568 196.278671,134.956787 196.492523,137.831818 
	C196.624969,139.612564 196.236511,141.440903 197.156677,143.519043 
	C197.696198,145.665421 197.371948,147.485901 197.745682,149.619385 
z"/>
<path fill="#AF8037" opacity="1.000000" stroke="none" 
	d="
M369.487183,326.455872 
	C362.307434,325.649445 358.118439,320.633820 353.521790,316.215820 
	C342.682587,305.797943 331.831329,295.392639 320.821106,284.697021 
	C320.658356,284.189545 320.659454,283.967255 320.786774,283.436279 
	C321.338776,282.606628 321.862152,282.193848 322.669678,281.602661 
	C336.373718,292.882996 348.548309,305.679504 361.362396,317.798737 
	C363.740906,320.048279 366.041229,321.359741 369.730591,320.441101 
	C371.675812,322.464478 371.098602,324.369385 369.487183,326.455872 
z"/>
<path fill="#AF843A" opacity="1.000000" stroke="none" 
	d="
M123.484650,207.415192 
	C130.996780,214.784256 138.296677,222.029800 145.242340,229.600342 
	C147.983887,232.588516 150.871460,233.801453 154.836777,233.612411 
	C160.153366,233.358948 165.490936,233.529205 170.819382,233.549850 
	C172.508789,233.556396 174.518433,233.562759 174.456223,235.881348 
	C174.391830,238.281403 172.292389,237.936066 170.665985,237.936981 
	C164.005280,237.940689 157.343353,237.838654 150.684525,237.943604 
	C148.303696,237.981125 146.608215,237.108749 145.000107,235.449844 
	C136.569366,226.752884 128.069260,218.123138 119.485428,209.164337 
	C120.242729,207.371826 121.675591,207.367966 123.484650,207.415192 
z"/>
<path fill="#C4923D" opacity="1.000000" stroke="none" 
	d="
M272.860046,251.208099 
	C274.820862,251.045135 276.432251,250.978882 278.445435,250.879333 
	C281.935425,248.599655 285.623444,247.805466 289.555420,246.552032 
	C296.336884,246.498077 302.702332,246.488922 309.500458,246.562653 
	C310.414062,246.573990 310.894958,246.536758 311.732849,246.566116 
	C315.114716,246.350922 318.145935,246.557785 321.545776,246.589081 
	C324.674530,246.612701 327.431458,246.563446 330.642639,246.587921 
	C338.080566,246.305603 345.068390,246.576691 352.484650,246.595062 
	C357.998932,246.623932 363.082581,246.579025 368.633636,246.607239 
	C372.990692,246.058411 376.896759,247.198868 380.801025,246.535156 
	C382.412109,246.261276 383.768280,246.752533 383.687134,249.186798 
	C382.925079,250.775696 381.743713,250.406128 380.327728,250.589417 
	C379.211151,250.667892 378.490509,250.682053 377.411316,250.657196 
	C360.658569,250.353867 344.263458,250.553757 327.398926,250.571411 
	C325.252502,250.648987 323.575989,250.672531 321.481323,250.664703 
	C319.246429,250.391266 317.423004,250.515793 315.263672,250.586349 
	C312.268951,250.687012 309.612152,250.735214 306.513123,250.754700 
	C305.236267,250.431488 304.378571,250.490967 303.223206,250.685486 
	C293.250946,251.216034 283.575775,251.621307 273.438293,251.943756 
	C272.820862,251.675537 272.665710,251.490173 272.860046,251.208099 
z"/>
<path fill="#C4923D" opacity="1.000000" stroke="none" 
	d="
M224.781921,250.713989 
	C228.254883,251.496017 231.641922,250.329514 234.771118,252.614624 
	C224.536163,253.520645 214.363403,250.529816 203.513153,250.840088 
	C200.610260,250.171310 198.122620,250.624664 195.291168,250.609985 
	C194.512360,250.705872 194.097443,250.721786 193.372742,250.702881 
	C177.666534,250.284790 162.267792,250.592896 146.400360,250.549866 
	C145.513779,250.608368 145.097198,250.629608 144.368835,250.620865 
	C139.211639,250.367004 134.362411,250.593033 129.064606,250.519745 
	C127.634987,250.631882 126.656929,250.692383 125.384827,250.729584 
	C124.865143,250.656784 124.639496,250.607285 124.099243,250.408417 
	C123.627060,250.086548 123.469467,249.914062 123.182755,249.413727 
	C122.940414,248.356522 123.076622,247.681412 123.780365,246.860413 
	C125.466675,246.367172 126.883377,246.558929 128.640305,246.539825 
	C133.610077,246.590683 138.230072,246.597321 143.266602,246.657623 
	C144.558731,246.532257 145.444611,246.477264 146.662476,246.561615 
	C150.027924,246.602722 153.067184,246.574387 156.557907,246.607574 
	C157.443344,246.533325 157.886932,246.470963 158.669312,246.580505 
	C159.759735,246.623581 160.522614,246.580292 161.664856,246.590530 
	C167.738342,246.325302 173.436768,246.574326 179.556702,246.568787 
	C181.383881,246.578156 182.787201,246.532181 184.608398,246.545837 
	C193.797913,246.365204 202.571274,246.565765 211.775803,246.510910 
	C215.651779,249.824646 220.793350,247.849548 224.781921,250.713989 
z"/>
<path fill="#AF843A" opacity="1.000000" stroke="none" 
	d="
M378.961395,212.348816 
	C371.481079,220.538818 364.086395,228.356827 356.673950,236.157990 
	C355.617004,237.270401 354.371521,237.947372 352.726440,237.934189 
	C346.744171,237.886215 340.761200,237.924622 334.778473,237.932449 
	C333.201294,237.934509 331.541718,237.808517 331.580292,235.746399 
	C331.616882,233.790497 333.216705,233.477417 334.811249,233.481308 
	C339.297852,233.492233 343.797363,233.331024 348.266785,233.622055 
	C351.781158,233.850922 354.218445,232.445801 356.534973,230.027618 
	C362.842377,223.443451 369.287384,216.991089 375.956390,210.295792 
	C377.857758,209.693588 378.604340,210.599792 378.961395,212.348816 
z"/>
<path fill="#AF843A" opacity="1.000000" stroke="none" 
	d="
M152.747665,202.832535 
	C152.712158,200.473282 153.406662,198.076920 155.403107,198.355270 
	C162.279053,199.313934 165.108734,193.628082 169.479919,190.491623 
	C171.557037,189.001205 172.977036,186.155838 176.227676,187.211639 
	C177.206177,187.529449 178.036911,188.433578 177.910950,189.472900 
	C177.514557,192.743759 174.414474,192.999252 172.245071,194.329712 
	C167.795471,197.058563 164.771149,201.383713 160.852249,204.702682 
	C157.203293,207.793030 154.989151,207.289551 152.747665,202.832535 
z"/>
<path fill="#A97E35" opacity="1.000000" stroke="none" 
	d="
M253.343719,383.473175 
	C255.139160,384.499573 255.186661,386.362030 254.556122,387.773346 
	C251.991913,393.512726 253.367905,399.514587 253.048019,405.394135 
	C252.996338,406.344177 253.044891,407.687592 253.623154,408.203430 
	C254.830978,409.280823 257.874207,409.933105 255.314789,411.804749 
	C253.381897,413.218262 251.154602,417.771729 247.381516,412.798645 
	C245.789520,410.700348 242.586197,410.364410 247.153732,408.457092 
	C248.028061,408.091980 248.322433,407.277893 248.292160,406.437775 
	C248.079498,400.534332 249.260162,394.550049 247.262726,388.321198 
	C249.332413,386.897644 251.944092,386.603271 253.343719,383.473175 
z"/>
<path fill="#AC8034" opacity="1.000000" stroke="none" 
	d="
M248.547379,112.463074 
	C248.359375,109.363129 248.263214,106.549149 248.374649,103.743423 
	C248.476700,101.173538 247.973541,99.039017 246.199249,96.944077 
	C244.498184,94.935616 245.131088,92.528961 247.068726,90.741440 
	C248.842636,89.104942 250.984909,88.900551 253.060455,90.034111 
	C255.384003,91.303123 256.727722,94.003922 255.412994,95.882690 
	C251.487061,101.492867 253.509827,107.328194 253.777740,113.573059 
	C251.798706,114.747215 250.220001,113.926865 248.547379,112.463074 
z"/>
<path fill="#AF843A" opacity="1.000000" stroke="none" 
	d="
M349.831757,202.715561 
	C347.215271,207.238052 345.325134,207.758118 342.093872,204.697113 
	C337.392395,200.243393 332.812622,195.678024 327.336792,192.138214 
	C325.726410,191.097183 324.953979,189.715622 326.546082,188.051331 
	C327.978790,186.553696 329.530975,186.833420 330.935059,188.122284 
	C333.624573,190.591141 336.265106,193.113388 338.929840,195.609299 
	C340.750122,197.314240 342.441528,198.816681 345.426727,198.231842 
	C348.184998,197.691483 349.665070,199.580292 349.831757,202.715561 
z"/>
<path fill="#AB7B2F" opacity="1.000000" stroke="none" 
	d="
M105.185074,250.609528 
	C102.139633,250.814529 99.323578,250.783844 96.508209,250.814621 
	C95.523521,250.825363 93.938103,250.635910 93.647766,251.133484 
	C89.782227,257.758179 88.444199,249.145126 85.629440,249.868317 
	C85.481766,249.242081 85.165009,248.601578 85.216393,247.992126 
	C85.413086,245.658798 88.349350,246.475998 89.295151,244.235764 
	C90.444046,241.514450 91.764099,244.027847 93.207108,245.049667 
	C95.891243,246.950363 99.219315,246.360123 102.325897,246.082611 
	C104.294312,245.906784 106.238594,245.460876 108.626297,245.076538 
	C109.806168,247.723160 107.098251,247.938004 105.872490,249.589966 
	C105.652039,250.055984 105.533386,250.227005 105.185074,250.609528 
z"/>
<path fill="#AF843A" opacity="1.000000" stroke="none" 
	d="
M319.193756,228.060043 
	C321.192017,226.302811 321.857788,224.374741 322.178802,222.130875 
	C322.537201,219.626083 324.338562,218.545853 326.833618,218.604370 
	C328.944733,218.653885 330.328644,219.786102 330.846802,221.718903 
	C331.480896,224.084091 330.694092,226.372177 328.357391,227.003693 
	C324.711365,227.989075 322.678650,230.790359 320.260071,233.151901 
	C318.836060,234.542282 317.458496,236.042862 315.757629,234.224075 
	C314.164429,232.520462 316.157806,231.282700 317.148773,230.067154 
	C317.670471,229.427246 318.328796,228.898758 319.193756,228.060043 
z"/>
<path fill="#AF843A" opacity="1.000000" stroke="none" 
	d="
M182.471832,221.678955 
	C182.256409,225.613571 185.175797,227.122040 187.142838,229.256897 
	C188.190109,230.393524 190.175110,231.462509 188.549683,233.332748 
	C186.740982,235.413818 185.259521,233.548111 183.950027,232.435944 
	C181.988998,230.770447 180.735397,228.300278 177.824860,227.754974 
	C175.351395,227.291550 173.555420,225.880981 173.658646,223.047089 
	C173.721710,221.315277 174.281830,219.660538 176.099808,219.094833 
	C178.656906,218.299103 181.043228,218.435715 182.471832,221.678955 
z"/>
<path fill="#9B6E28" opacity="1.000000" stroke="none" 
	d="
M396.697510,245.399612 
	C399.366669,245.473663 401.814331,245.943787 404.281952,246.101013 
	C405.553864,246.182053 407.522491,246.166504 408.048584,245.410141 
	C412.497894,239.013733 413.517273,247.495499 416.506317,247.360123 
	C416.818573,247.345993 417.019928,249.792358 416.221863,249.919205 
	C413.663269,250.325851 412.093292,255.013992 410.629608,253.369873 
	C406.921448,249.204742 402.660248,251.715866 398.294891,250.851974 
	C396.912354,249.170547 395.804291,247.657379 396.697510,245.399612 
z"/>
<path fill="#C4923D" opacity="1.000000" stroke="none" 
	d="
M236.179459,184.924835 
	C232.601868,181.844482 235.717224,181.467865 237.737228,180.385345 
	C237.974121,180.185806 238.069855,180.028580 238.158371,180.053802 
	C238.647385,179.581024 239.168228,179.201202 239.816895,178.501068 
	C240.050186,178.284302 240.106796,178.070084 240.213287,178.039520 
	C240.319778,178.008957 240.450439,177.547440 240.687469,177.510925 
	C241.433151,177.067688 241.941772,176.660965 242.758423,176.130096 
	C243.202042,175.844482 243.337601,175.683044 243.747803,175.364838 
	C244.022461,175.208099 244.039993,175.056976 244.115860,175.051422 
	C244.497253,174.490494 245.096497,174.518738 245.786560,174.148575 
	C245.980988,173.956055 245.990219,173.994766 245.973602,173.982544 
	C249.942047,171.769867 251.647018,172.782806 251.035339,177.438400 
	C250.701157,179.981964 251.426697,182.651123 250.246277,185.839264 
	C247.088226,181.852982 243.843414,181.253906 240.156677,184.665649 
	C238.883804,186.577866 237.631882,185.574432 236.179459,184.924835 
z"/>
<path fill="#E3B457" opacity="1.000000" stroke="none" 
	d="
M105.212891,250.220474 
	C103.231216,249.234116 102.163826,248.290207 104.786736,247.290405 
	C106.123062,246.781021 107.776474,247.097809 108.913315,245.358688 
	C111.362663,242.169632 113.895630,242.267822 116.788330,244.680542 
	C118.794273,246.857880 121.494041,245.355164 123.676033,246.943344 
	C123.898026,247.879517 123.917915,248.490662 123.966881,249.406189 
	C123.152985,251.210770 121.687889,250.166550 120.209244,250.671249 
	C119.847130,250.794586 119.445793,250.866104 119.246307,250.907959 
	C118.305611,251.679535 117.238342,251.850250 116.182053,252.642151 
	C115.929222,252.811035 115.895676,252.869186 115.864853,252.882462 
	C114.563210,253.972809 113.065521,253.339249 111.313309,253.194580 
	C110.960274,252.940643 110.612854,252.768600 110.430496,252.702881 
	C110.014168,252.602829 109.780197,252.568527 109.402786,252.209793 
	C109.259346,251.885376 109.164352,251.791962 109.132462,251.733490 
	C108.879936,251.602783 108.659302,251.530548 108.194145,251.210358 
	C107.949631,250.962402 107.552734,250.853516 107.351364,250.811096 
	C106.590309,250.569229 106.005058,250.500397 105.212891,250.220474 
z"/>
<path fill="#E3B457" opacity="1.000000" stroke="none" 
	d="
M193.846100,128.686844 
	C193.540375,128.658203 193.607040,128.710724 193.634460,128.678467 
	C193.924484,126.458717 193.713638,124.624275 191.801041,122.937561 
	C189.638412,121.030327 188.988693,118.285530 191.124435,115.928696 
	C192.770340,114.112434 194.933029,112.695930 197.593292,114.474022 
	C200.316727,116.294342 201.041901,118.707863 199.537766,121.621254 
	C198.533539,123.566383 197.943375,125.552895 197.833359,128.023163 
	C196.318237,127.543533 195.293427,128.612183 193.846100,128.686844 
z"/>
<path fill="#AC8034" opacity="1.000000" stroke="none" 
	d="
M248.760986,329.922516 
	C248.918259,329.461151 248.655243,329.290924 248.686844,329.137482 
	C252.503891,327.155304 252.498306,329.692932 252.497757,332.253693 
	C252.494812,345.633209 252.510361,359.012726 252.484695,372.392181 
	C252.479324,375.198059 252.557449,377.996338 252.579620,381.256500 
	C251.562927,382.610321 250.680206,382.536957 249.509033,381.429138 
	C248.687225,366.939941 249.130203,352.865356 249.018707,338.793884 
	C248.996399,335.980286 248.912003,333.178955 248.760986,329.922516 
z"/>
<path fill="#AF8037" opacity="1.000000" stroke="none" 
	d="
M253.339020,303.791931 
	C252.970505,303.683807 252.964737,303.511749 252.944916,303.081848 
	C252.500946,300.325104 250.308441,297.959717 252.672882,295.155182 
	C255.843353,300.010071 260.736420,303.047974 264.509583,307.150574 
	C265.399597,308.118317 266.501312,308.897949 267.346649,309.898499 
	C268.393738,311.137817 268.828156,312.659882 267.493195,313.906433 
	C265.979828,315.319550 264.997925,314.129211 263.815704,313.011993 
	C260.490967,309.869934 257.690826,306.144775 253.339020,303.791931 
z"/>
<path fill="#A97E35" opacity="1.000000" stroke="none" 
	d="
M252.020248,382.005432 
	C252.012939,365.863251 252.033066,350.036011 251.968506,334.209045 
	C251.960403,332.221771 252.818817,329.614441 249.139145,329.019226 
	C248.478882,327.387360 248.239319,325.790680 247.986328,324.104553 
	C245.101440,324.238281 244.492340,327.035492 242.318604,328.234009 
	C240.786240,327.332001 241.557632,325.819824 241.028992,324.298218 
	C241.749878,323.027557 242.531754,322.080078 243.587524,320.987183 
	C245.999329,324.074402 249.291275,323.285034 252.654510,323.142761 
	C252.975296,339.451996 252.965866,355.898438 253.052917,372.344360 
	C253.070389,375.645477 253.454849,378.944702 253.784729,382.660919 
	C253.899368,383.077057 253.670746,383.257538 253.555634,383.346802 
	C252.785248,383.296082 252.313736,382.922394 252.020248,382.005432 
z"/>
<path fill="#A97E35" opacity="1.000000" stroke="none" 
	d="
M248.737579,329.877472 
	C250.806198,335.997955 249.863358,342.694702 249.957458,349.320770 
	C250.101654,359.474487 249.997620,369.631714 250.004532,380.236328 
	C249.459503,381.662933 249.812744,383.287354 247.719086,383.273865 
	C248.595932,379.639618 248.349030,375.998596 248.368820,372.389648 
	C248.445801,358.357788 248.496445,344.325745 248.737579,329.877472 
z"/>
<path fill="#E3B457" opacity="1.000000" stroke="none" 
	d="
M248.262451,112.237747 
	C250.190674,111.961777 252.109238,111.445992 253.481277,113.830612 
	C253.766296,114.010834 253.916336,114.056160 253.938263,114.131401 
	C254.141510,114.306396 254.322830,114.406143 254.592880,114.803375 
	C256.000458,116.743706 255.957779,118.570930 255.163849,120.718628 
	C254.593521,121.424866 254.510040,121.968147 254.129456,122.627380 
	C253.895859,122.766617 253.864044,122.899529 253.797745,122.916649 
	C253.409988,123.352104 253.088531,123.770432 252.718994,124.463463 
	C251.923584,125.900276 250.904678,125.907509 249.483902,125.116570 
	C249.090546,124.505302 248.908966,124.250565 248.427689,123.974670 
	C248.201828,123.900887 248.089691,123.872986 248.094635,123.815414 
	C247.902603,123.674339 247.705597,123.590828 247.395477,123.206940 
	C247.282379,122.906563 247.137878,122.883560 247.109863,122.815971 
	C246.885147,122.662750 246.688416,122.577118 246.338074,122.208656 
	C246.184464,121.925835 246.092728,121.924263 246.095001,121.878448 
	C244.969894,119.943756 245.662292,117.895325 245.837769,115.565323 
	C246.097122,115.215691 246.112259,115.088936 246.174988,115.077187 
	C246.333527,114.866318 246.429321,114.667191 246.786636,114.264442 
	C247.122711,113.898102 247.197266,113.735382 247.411713,113.343506 
	C247.532120,112.912491 247.512619,112.710625 247.797012,112.522781 
	C248.100891,112.536812 248.159836,112.301987 248.262451,112.237747 
z"/>
<path fill="#E3B457" opacity="1.000000" stroke="none" 
	d="
M314.868591,135.536880 
	C313.537506,134.340210 312.246857,132.766785 310.677643,131.061081 
	C310.399078,130.928818 310.194244,130.861710 310.143433,130.766663 
	C309.893829,130.612961 309.695038,130.554306 309.401733,130.199448 
	C309.307281,129.903244 309.166351,129.862259 309.154968,129.789764 
	C307.902740,128.186203 308.715393,126.415482 308.801575,124.397110 
	C311.143372,120.930176 313.986176,120.842102 316.601990,122.880447 
	C319.313171,124.993126 318.932678,127.827164 316.764252,130.240433 
	C315.451263,131.701660 314.856689,133.266846 314.868591,135.536880 
z"/>
<path fill="#C4923D" opacity="1.000000" stroke="none" 
	d="
M318.430115,281.663391 
	C314.425140,281.123016 310.798065,280.857178 307.222992,282.021423 
	C305.242523,282.666382 303.343231,283.201904 302.014252,280.939484 
	C301.166748,279.496704 301.271942,278.152832 302.353088,276.797485 
	C304.142456,274.554291 305.730499,275.802734 307.464569,276.858246 
	C307.968964,277.165283 308.765503,276.992340 309.715668,277.113495 
	C310.166504,277.262939 310.329773,277.338257 310.746094,277.320160 
	C312.075684,277.191528 313.152252,277.156342 314.628784,277.182678 
	C316.133331,277.701233 317.314209,277.378235 318.733582,277.767029 
	C319.023285,277.955536 319.014893,277.989685 319.029663,277.979797 
	C319.979523,279.221619 320.085358,280.418762 318.430115,281.663391 
z"/>
<path fill="#E3B457" opacity="1.000000" stroke="none" 
	d="
M123.826355,207.299103 
	C123.095314,209.291504 121.507622,208.875107 119.711639,208.829926 
	C119.377594,208.858612 119.177597,208.785309 119.139748,208.685760 
	C118.897087,208.553375 118.692284,208.520569 118.398270,208.189667 
	C118.309074,207.891602 118.197990,207.941727 118.148972,207.905533 
	C117.899239,207.744934 117.698524,207.620514 117.453957,207.144623 
	C117.410095,206.793152 117.309410,206.306656 117.260193,206.063171 
	C116.489044,205.602966 116.530663,204.958694 116.381462,204.106323 
	C115.253769,200.039902 116.778595,197.658508 120.549339,197.460403 
	C124.413155,197.257401 126.165604,199.471954 125.092232,203.695099 
	C124.659126,204.364441 124.499908,204.782196 124.155174,205.445740 
	C123.896744,205.663727 123.852791,205.863449 123.763916,205.914001 
	C123.649902,206.146454 123.624748,206.328339 123.617798,206.785080 
	C123.636009,207.059921 123.813957,207.189682 123.826355,207.299103 
z"/>
<path fill="#E3B457" opacity="1.000000" stroke="none" 
	d="
M379.257629,204.329788 
	C377.804962,200.416092 379.401306,198.237335 382.686066,197.295837 
	C385.090271,196.606735 387.526642,197.198425 388.433258,199.801773 
	C389.792816,203.705963 387.745117,206.024445 383.945129,207.586395 
	C382.561523,208.985840 381.236786,209.555389 379.736908,208.658813 
	C377.829620,207.518707 379.721100,206.000092 379.257629,204.329788 
z"/>
<path fill="#A97E35" opacity="1.000000" stroke="none" 
	d="
M220.208008,338.244812 
	C221.858459,335.890350 222.932571,332.946198 226.506180,332.486938 
	C228.388428,333.799713 230.021301,333.865936 231.953552,332.634766 
	C234.095825,330.588409 236.001007,328.772858 238.196472,326.804321 
	C238.867828,326.481934 239.214920,326.522949 239.718414,327.021667 
	C240.040543,327.364105 240.165176,327.503326 240.469666,327.855896 
	C240.749954,328.225159 240.850388,328.381104 241.050751,328.796631 
	C237.885910,333.404572 234.736801,337.251923 228.182281,337.047394 
	C224.119080,336.920624 222.508194,342.021057 219.247772,344.635071 
	C217.239822,341.771027 220.069351,340.826019 221.757767,339.062164 
	C222.223129,338.679474 222.330841,338.579590 222.330841,338.579590 
	C222.695709,338.192108 222.731628,338.150665 222.213745,338.594055 
	C221.416519,338.880920 220.882736,338.785431 220.208008,338.244812 
z"/>
<path fill="#C4923D" opacity="1.000000" stroke="none" 
	d="
M184.406219,281.610809 
	C184.272034,280.435455 184.587738,279.158722 184.965759,277.557434 
	C188.076904,276.630219 191.357147,277.862305 194.259659,275.959961 
	C195.885986,274.893982 197.482941,275.278442 198.719971,276.703461 
	C199.824982,277.976440 199.750641,279.633606 198.973068,280.875977 
	C198.048950,282.352478 196.278870,283.145691 194.621674,282.367035 
	C191.415787,280.860748 188.134338,281.474854 184.406219,281.610809 
z"/>
<path fill="#F8CA5B" opacity="1.000000" stroke="none" 
	d="
M396.912476,245.108337 
	C396.868744,246.934479 400.661316,247.742966 398.026581,250.449585 
	C397.839142,250.732178 397.421570,250.825500 397.221527,250.901337 
	C396.602051,251.407562 396.516449,252.004196 395.966736,252.504669 
	C395.677277,252.495453 395.251312,252.648392 395.042542,252.735657 
	C393.676727,254.066025 392.222626,253.316055 390.593384,253.117828 
	C390.292389,252.825562 390.191437,252.781479 390.156433,252.738953 
	C389.259460,252.191513 388.339447,251.802216 387.253784,251.127106 
	C387.058533,250.900299 386.634918,250.814056 386.424133,250.766251 
	C383.744507,247.630722 386.277466,246.678970 388.737854,245.328735 
	C389.059052,245.098419 389.054840,245.055756 389.076172,245.057678 
	C390.788300,243.138199 393.024719,243.462128 395.536865,243.822357 
	C395.864014,244.070435 395.919525,244.092224 395.930847,244.119797 
	C396.129822,244.266998 396.317474,244.386642 396.686157,244.786804 
	C396.867126,245.067307 396.914185,245.083481 396.912476,245.108337 
z"/>
<path fill="#AF843A" opacity="1.000000" stroke="none" 
	d="
M247.170959,303.433777 
	C243.837311,306.892639 240.708557,310.055573 237.604919,313.242920 
	C236.633179,314.240906 235.626938,315.243225 234.271500,313.999207 
	C232.942261,312.779266 233.059250,311.309814 234.250351,310.062103 
	C236.408264,307.801697 238.658722,305.629608 241.183990,303.254456 
	C242.225739,302.084534 243.462662,301.913666 244.765961,301.194427 
	C245.850952,301.048889 246.500565,301.273621 247.208679,302.116272 
	C247.380753,302.670105 247.383133,302.908691 247.170959,303.433777 
z"/>
<path fill="#E3B457" opacity="1.000000" stroke="none" 
	d="
M381.406250,273.951141 
	C379.775085,273.666840 378.660645,273.786560 377.505859,274.659851 
	C375.336761,276.300171 375.205292,274.712158 375.207367,272.731567 
	C375.176117,272.411133 375.243073,272.202606 375.339722,272.151123 
	C375.465179,271.889191 375.494019,271.678741 375.803162,271.316650 
	C376.134460,270.974548 376.185486,270.784058 376.337067,270.315430 
	C376.501526,269.210114 376.463745,268.376312 376.858673,267.379211 
	C379.279327,264.555023 381.754211,264.485657 383.668640,267.140961 
	C385.605591,269.827484 385.191620,272.427368 381.406250,273.951141 
z"/>
<path fill="#E3B457" opacity="1.000000" stroke="none" 
	d="
M125.651169,272.022827 
	C125.418480,275.248627 123.120171,272.940460 121.645622,273.781555 
	C120.168472,273.359650 118.892639,273.569763 117.376419,273.184692 
	C114.811569,270.319305 114.986351,267.545868 117.857834,265.952515 
	C120.829613,264.303497 123.151871,265.758636 124.122490,269.130920 
	C124.385872,270.046021 124.996414,270.861145 125.651169,272.022827 
z"/>
<path fill="#C4923D" opacity="1.000000" stroke="none" 
	d="
M247.332214,303.127686 
	C246.541321,302.588745 246.014969,302.339722 245.195236,302.055420 
	C244.599960,301.690765 244.444183,301.305908 244.515778,300.537231 
	C244.768646,299.835175 245.011230,299.483124 245.524689,298.935425 
	C246.451294,298.222107 247.094315,297.674377 247.856659,296.804047 
	C248.159180,296.373566 248.188141,296.103424 248.294846,295.433289 
	C248.598633,293.788635 248.423325,292.522736 248.724670,290.922180 
	C249.659958,289.239044 250.782593,288.921478 252.495758,289.705261 
	C252.867798,291.363068 252.935989,292.774536 252.995575,294.611755 
	C252.091293,297.115631 253.197388,298.481659 254.593262,299.825806 
	C256.542480,301.702759 254.262085,301.793854 253.167969,302.649414 
	C251.804871,302.811981 250.678879,302.799957 249.281189,302.876709 
	C248.621109,303.374084 248.150177,303.524780 247.332214,303.127686 
z"/>
<path fill="#E3B457" opacity="1.000000" stroke="none" 
	d="
M369.474304,326.899475 
	C369.182800,324.789825 368.544373,322.802185 370.073700,320.771973 
	C372.748901,319.309387 374.993073,319.435608 376.697968,322.017456 
	C377.698822,323.533234 377.288391,325.025909 376.388000,326.200928 
	C374.579010,328.561646 372.228912,328.553101 369.474304,326.899475 
z"/>
<path fill="#E3B457" opacity="1.000000" stroke="none" 
	d="
M130.583801,320.948486 
	C133.552597,322.239349 135.613861,323.431335 131.890381,326.397247 
	C131.863968,326.671112 131.804810,326.841705 131.718109,326.866943 
	C131.591248,327.090302 131.551086,327.288422 131.218475,327.566833 
	C129.047272,328.914917 127.190224,329.158508 125.200516,327.242767 
	C124.861794,326.817902 124.695412,326.679718 124.437958,326.230164 
	C124.254936,325.197418 124.162994,324.476044 124.148575,323.396393 
	C124.385895,322.612885 124.505806,322.176697 124.854874,321.521484 
	C125.123863,321.313354 125.210434,321.138031 125.301125,321.101562 
	C125.423203,320.880676 125.454590,320.696289 125.757736,320.581604 
	C126.455742,320.477722 126.881996,320.304230 127.657822,320.138947 
	C128.773087,320.674255 129.694031,320.396149 130.583801,320.948486 
z"/>
<path fill="#895C1C" opacity="1.000000" stroke="none" 
	d="
M327.388367,250.748840 
	C330.284027,249.294556 333.788147,249.998322 337.211700,249.994156 
	C350.249237,249.978302 363.287018,250.133728 376.688721,250.421661 
	C360.651062,250.702866 344.249359,250.787552 327.388367,250.748840 
z"/>
<path fill="#F7B44A" opacity="1.000000" stroke="none" 
	d="
M252.855438,289.626373 
	C251.805801,290.157562 250.811996,290.363525 249.547424,290.716736 
	C247.568497,288.090332 248.960251,285.041473 248.503479,281.706848 
	C248.509491,280.358124 248.478989,279.458099 248.880814,278.220093 
	C250.143021,277.893738 251.114349,277.909943 252.448288,277.885284 
	C254.261230,280.859680 253.181183,284.044495 253.215027,287.562286 
	C252.967834,288.423462 252.939545,288.862305 252.855438,289.626373 
z"/>
<path fill="#AC8034" opacity="1.000000" stroke="none" 
	d="
M222.635162,338.001556 
	C222.813248,340.756317 219.867920,341.756470 219.045822,344.477814 
	C218.968674,344.799744 218.970886,344.937836 218.901825,344.938049 
	C216.905777,346.921234 214.915787,348.849701 213.155685,351.432129 
	C212.898483,351.664520 212.835434,351.899200 212.720245,351.937836 
	C212.563477,352.157684 212.521881,352.338898 212.216156,352.609558 
	C211.952011,352.699005 211.960083,352.877106 211.873657,352.898926 
	C210.751221,353.802246 209.562546,354.010925 208.811035,352.795471 
	C207.623871,350.875336 209.356949,349.820312 210.702591,348.315430 
	C211.101089,347.821472 211.201035,347.624725 211.552261,347.212463 
	C212.013275,346.590454 212.265854,346.212921 212.837952,345.659058 
	C213.108124,345.449341 213.170044,345.202240 213.288467,345.155396 
	C213.557480,344.460327 214.201843,344.514832 214.783737,344.039612 
	C214.943344,343.825989 214.945465,343.944000 214.886505,343.941925 
	C215.626892,343.303680 216.030090,342.368744 216.841949,341.375702 
	C217.069565,341.181061 217.066635,341.066223 217.124039,341.068298 
	C218.017654,340.275452 218.997208,339.619690 219.803406,338.314087 
	C220.016144,338.039093 219.997360,338.008881 220.015381,338.010254 
	C220.770401,338.002625 221.507370,337.993652 222.635162,338.001556 
z"/>
<path fill="#895C1C" opacity="1.000000" stroke="none" 
	d="
M146.388092,250.716553 
	C150.629150,249.251419 155.430862,250.023300 160.176834,250.001755 
	C170.897018,249.953064 181.618362,250.158508 192.701096,250.464325 
	C177.657257,250.727371 162.251541,250.786652 146.388092,250.716553 
z"/>
<path fill="#E3B457" opacity="1.000000" stroke="none" 
	d="
M247.262421,383.349976 
	C248.555283,382.985596 249.032867,382.024811 249.813675,380.935883 
	C250.479156,381.028992 250.948181,381.372711 251.718002,381.703430 
	C252.368881,382.133514 252.718948,382.576630 253.254791,383.227875 
	C254.233780,385.874359 253.582687,387.983002 251.581390,389.435059 
	C249.949585,390.619019 249.045425,388.742920 247.552017,387.987000 
	C247.230850,387.895996 247.121475,387.873840 247.125580,387.818207 
	C246.130508,386.891296 246.609924,385.743164 246.784241,384.354797 
	C247.013107,384.014618 247.149414,383.559113 247.262421,383.349976 
z"/>
<path fill="#9B6E28" opacity="1.000000" stroke="none" 
	d="
M388.625305,245.111877 
	C388.964233,247.258224 385.154388,247.213501 386.177368,250.366852 
	C385.417450,250.800812 384.621521,250.883194 383.417145,250.596222 
	C383.352783,247.786560 382.023163,246.795074 379.890839,247.235931 
	C376.460754,247.945084 373.141266,247.064682 369.436859,246.821259 
	C375.426666,245.697449 381.919250,246.763504 388.625305,245.111877 
z"/>
<path fill="#936421" opacity="1.000000" stroke="none" 
	d="
M213.365204,247.332367 
	C203.908707,246.980377 194.838272,246.956604 185.397064,246.769150 
	C198.070526,246.370987 211.114761,246.136505 224.623718,246.004150 
	C225.140915,246.325165 225.193405,246.544022 224.910858,246.804443 
	C224.575836,246.846039 224.296402,246.753448 224.151947,246.781647 
	C220.857895,250.338226 217.287292,248.790970 213.365204,247.332367 
z"/>
<path fill="#A97E35" opacity="1.000000" stroke="none" 
	d="
M247.031830,303.057434 
	C247.499847,302.855133 247.931992,302.872467 248.686829,302.927643 
	C249.141647,306.104523 249.042938,309.225433 249.483978,312.386169 
	C250.011368,316.165680 249.237061,319.756439 244.172897,320.811279 
	C248.951385,316.229309 249.243469,310.387878 247.362228,303.925598 
	C246.956375,303.720276 246.995987,303.277039 247.031830,303.057434 
z"/>
<path fill="#9B6E28" opacity="1.000000" stroke="none" 
	d="
M309.492096,246.461792 
	C303.276062,247.720612 296.581085,246.731598 289.438904,247.006378 
	C286.736298,247.784286 284.582550,249.007599 281.709076,247.940063 
	C281.149445,247.459381 280.969635,247.219620 280.869873,246.537506 
	C290.316956,246.167572 299.684021,246.239990 309.492096,246.461792 
z"/>
<path fill="#9B6E28" opacity="1.000000" stroke="none" 
	d="
M252.387100,203.338104 
	C252.721573,202.996750 252.959412,202.947433 253.080505,202.937988 
	C254.252777,212.008606 253.959152,221.132462 253.980408,230.717361 
	C252.548767,228.227585 253.413757,225.044373 252.907654,221.560013 
	C250.427521,217.772781 251.009705,213.917175 251.076828,209.679962 
	C251.387802,207.357498 250.669327,205.339996 252.387100,203.338104 
z"/>
<path fill="#AF8037" opacity="1.000000" stroke="none" 
	d="
M379.073181,204.335464 
	C380.873596,204.784637 378.910767,209.433304 383.377563,207.873779 
	C382.760010,209.827484 381.104614,211.118042 379.132843,212.535980 
	C378.153473,211.944351 377.425507,211.162552 376.466217,210.242920 
	C377.285736,208.353592 378.878784,206.887573 379.073181,204.335464 
z"/>
<path fill="#AC8034" opacity="1.000000" stroke="none" 
	d="
M231.743668,332.349365 
	C232.950089,333.167053 234.439438,334.539459 232.982117,334.959137 
	C230.707932,335.614075 228.083725,335.250519 225.648209,334.969116 
	C225.203751,334.917725 226.009125,333.624664 226.650269,332.790710 
	C228.314163,332.484833 229.805435,332.389801 231.743668,332.349365 
z"/>
<path fill="#A97E35" opacity="1.000000" stroke="none" 
	d="
M210.705139,348.151733 
	C211.964157,349.620148 207.094849,351.416809 211.475937,352.917877 
	C210.880203,354.622986 209.510132,356.255737 207.653580,354.860870 
	C205.826340,353.488037 207.138550,351.619324 208.257706,350.206940 
	C208.846100,349.464386 209.683914,348.919464 210.705139,348.151733 
z"/>
<path fill="#9B6E28" opacity="1.000000" stroke="none" 
	d="
M352.477539,246.513565 
	C345.901215,247.610550 338.867126,247.093613 331.467590,246.810181 
	C338.066406,245.767776 345.056885,246.321335 352.477539,246.513565 
z"/>
<path fill="#AF843A" opacity="1.000000" stroke="none" 
	d="
M198.006653,149.495667 
	C196.583008,148.424988 197.120453,146.546829 196.984695,144.395599 
	C195.642715,138.898422 195.006165,133.808502 197.697021,128.659180 
	C198.182053,128.556946 198.148727,128.487030 198.149445,128.449860 
	C198.125244,135.287369 198.100342,142.162033 198.006653,149.495667 
z"/>
<path fill="#936421" opacity="1.000000" stroke="none" 
	d="
M179.537842,246.469971 
	C174.267349,247.647461 168.523773,247.076263 162.416473,246.797699 
	C167.711838,245.701706 173.408661,246.277664 179.537842,246.469971 
z"/>
<path fill="#936421" opacity="1.000000" stroke="none" 
	d="
M124.250542,247.207428 
	C121.690781,246.497940 118.991737,247.929840 117.065018,245.316757 
	C120.715576,245.379105 124.443764,245.828156 128.581009,246.430634 
	C127.534363,246.771515 126.078651,246.958984 124.250542,247.207428 
z"/>
<path fill="#A97E35" opacity="1.000000" stroke="none" 
	d="
M213.158783,351.485657 
	C213.264389,348.353271 215.562332,346.598511 218.508163,345.021210 
	C217.028229,347.061127 215.223648,349.183960 213.158783,351.485657 
z"/>
<path fill="#936421" opacity="1.000000" stroke="none" 
	d="
M253.237885,287.651886 
	C252.980957,284.914917 252.965790,281.845245 252.880768,278.309998 
	C252.919617,276.112244 253.028320,274.380066 253.127869,272.204803 
	C254.970810,276.907379 253.839264,282.122253 253.237885,287.651886 
z"/>
<path fill="#F7B44A" opacity="1.000000" stroke="none" 
	d="
M225.057220,246.901398 
	C224.575836,246.846039 224.820618,246.468384 224.954529,246.287338 
	C228.107925,245.765976 231.127411,245.425659 234.570114,245.079712 
	C232.444550,248.728760 228.690781,246.332123 225.057220,246.901398 
z"/>
<path fill="#AC8034" opacity="1.000000" stroke="none" 
	d="
M239.350128,328.998077 
	C238.873016,328.440643 238.792435,327.923767 238.599289,327.029114 
	C238.486740,326.651337 238.527832,326.665558 238.545929,326.677307 
	C239.835663,326.504272 239.957062,325.250183 240.792114,324.228638 
	C240.975281,323.968048 240.996490,323.990845 240.982239,323.982910 
	C244.986588,324.065125 243.177048,326.058594 242.119888,328.055450 
	C241.912354,328.489349 241.794617,328.644806 241.413788,328.928223 
	C240.682678,329.050354 240.214676,329.044495 239.350128,328.998077 
z"/>
<path fill="#895C1C" opacity="1.000000" stroke="none" 
	d="
M129.024551,250.703827 
	C133.492737,249.473541 138.410675,249.937042 143.690521,250.400909 
	C139.194275,251.321350 134.312057,250.893906 129.024551,250.703827 
z"/>
<path fill="#AF8037" opacity="1.000000" stroke="none" 
	d="
M318.212708,282.065430 
	C318.365295,280.746643 318.680847,279.691620 319.020416,278.303223 
	C320.059784,278.720276 321.075165,279.470673 322.215271,280.518677 
	C322.012024,281.639923 321.636871,282.445526 321.234406,283.593781 
	C321.075989,283.886444 320.867340,284.149567 320.762268,284.280701 
	C319.896698,283.717621 319.136169,283.023407 318.212708,282.065430 
z"/>
<path fill="#936421" opacity="1.000000" stroke="none" 
	d="
M248.731522,280.800323 
	C248.940460,284.075256 249.068283,287.030365 249.236389,290.424683 
	C249.099869,292.050446 248.923080,293.236908 248.559448,294.728333 
	C248.240555,290.634735 248.108521,286.236237 248.062897,281.373840 
	C248.316360,280.766815 248.483383,280.623657 248.731522,280.800323 
z"/>
<path fill="#F7B44A" opacity="1.000000" stroke="none" 
	d="
M272.771057,251.074631 
	C273.209473,251.111389 273.086731,251.484329 273.031372,251.672607 
	C270.921387,252.214615 268.866791,252.568314 266.418274,252.979156 
	C267.290009,249.727737 270.147766,251.444824 272.771057,251.074631 
z"/>
<path fill="#C4923D" opacity="1.000000" stroke="none" 
	d="
M248.880875,280.718567 
	C248.812622,281.120178 248.482056,281.012115 248.315704,280.961029 
	C248.106186,277.894867 248.063034,274.879822 248.114136,271.419373 
	C248.366241,270.795380 248.524094,270.616821 248.840790,270.758545 
	C249.036118,273.064911 249.072556,275.051056 249.140350,277.457367 
	C249.097504,278.690704 249.023315,279.503815 248.880875,280.718567 
z"/>
<path fill="#9B6E28" opacity="1.000000" stroke="none" 
	d="
M321.493713,246.508850 
	C318.896301,247.518372 315.838318,247.134521 312.437744,246.782257 
	C315.062347,245.866241 318.070953,246.269409 321.493713,246.508850 
z"/>
<path fill="#F7B44A" opacity="1.000000" stroke="none" 
	d="
M248.141327,223.487610 
	C248.181793,223.082703 248.584915,222.991257 248.782196,222.928467 
	C249.001846,225.407135 249.432541,227.971176 248.319183,230.793701 
	C248.086166,228.713654 248.093506,226.303085 248.141327,223.487610 
z"/>
<path fill="#9B6E28" opacity="1.000000" stroke="none" 
	d="
M395.704590,243.714996 
	C393.850647,244.298599 391.707153,243.624008 389.473877,244.998535 
	C390.358917,241.125824 393.343170,243.726089 395.704590,243.714996 
z"/>
<path fill="#F7B44A" opacity="1.000000" stroke="none" 
	d="
M273.361267,246.590332 
	C270.838654,246.685822 268.220734,247.968536 266.108002,245.277451 
	C268.025299,245.479065 269.980469,246.394928 272.572205,246.088486 
	C273.151306,246.207489 273.329224,246.275940 273.361267,246.590332 
z"/>
<path fill="#C4923D" opacity="1.000000" stroke="none" 
	d="
M321.364532,283.843475 
	C320.405334,282.716339 320.009155,281.610016 322.043335,280.907867 
	C322.339996,280.816345 322.730835,281.025970 322.837891,281.220154 
	C322.851532,282.392303 322.851898,283.421051 321.364532,283.843475 
z"/>
<path fill="#895C1C" opacity="1.000000" stroke="none" 
	d="
M195.366699,250.807404 
	C197.380859,249.575684 199.887589,249.977570 202.727097,250.614807 
	C200.640823,250.842499 198.223480,250.883667 195.366699,250.807404 
z"/>
<path fill="#C4923D" opacity="1.000000" stroke="none" 
	d="
M273.626587,246.853638 
	C273.215332,246.836273 273.085205,246.490784 273.029297,246.314911 
	C275.338898,246.093765 277.704407,246.048508 280.509949,246.049194 
	C280.949921,246.095169 281.029907,246.375671 281.081512,246.512070 
	C280.978668,246.868668 280.824249,247.088882 280.285767,247.185516 
	C277.947083,246.998291 275.992432,246.934647 273.626587,246.853638 
z"/>
<path fill="#A97E35" opacity="1.000000" stroke="none" 
	d="
M244.954727,299.822144 
	C245.123169,300.509521 245.058105,300.940399 244.947449,301.695679 
	C243.966019,302.357544 243.030167,302.694977 241.795868,303.060364 
	C242.572021,301.914093 243.646622,300.739868 244.954727,299.822144 
z"/>
<path fill="#AB7B2F" opacity="1.000000" stroke="none" 
	d="
M245.746796,115.356583 
	C246.108383,117.144684 246.119629,119.073669 246.114075,121.417648 
	C243.989075,119.928284 245.267242,117.649330 245.746796,115.356583 
z"/>
<path fill="#A97E35" opacity="1.000000" stroke="none" 
	d="
M247.862442,296.717834 
	C248.071533,297.705414 247.643814,298.532684 246.356613,299.095093 
	C246.075150,299.197327 245.690720,299.369202 245.484970,299.324463 
	C245.279221,299.279724 245.241531,299.238953 245.224640,299.216888 
	C246.003372,298.393890 246.799026,297.592926 247.862442,296.717834 
z"/>
<path fill="#895C1C" opacity="1.000000" stroke="none" 
	d="
M315.352783,250.759491 
	C316.708557,249.620743 318.579895,249.910004 320.759399,250.448730 
	C319.302063,250.715622 317.540924,250.797897 315.352783,250.759491 
z"/>
<path fill="#AF8037" opacity="1.000000" stroke="none" 
	d="
M308.751068,124.258820 
	C309.070770,125.660194 309.103149,127.283363 309.139526,129.311905 
	C307.412048,128.167084 307.860260,126.333923 308.751068,124.258820 
z"/>
<path fill="#936421" opacity="1.000000" stroke="none" 
	d="
M116.258331,252.848450 
	C116.107094,251.383347 117.073479,250.912369 118.697968,250.883209 
	C118.477776,251.913681 117.923515,252.896362 116.258331,252.848450 
z"/>
<path fill="#9B6E28" opacity="1.000000" stroke="none" 
	d="
M387.208374,251.196442 
	C388.355286,250.456802 389.337433,250.859558 390.081665,252.352875 
	C388.836975,253.129181 388.041962,252.438538 387.208374,251.196442 
z"/>
<path fill="#936421" opacity="1.000000" stroke="none" 
	d="
M111.134781,253.265594 
	C112.315681,252.898376 113.671082,252.856125 115.430252,252.854797 
	C114.566727,254.696411 112.901733,253.907318 111.134781,253.265594 
z"/>
<path fill="#9B6E28" opacity="1.000000" stroke="none" 
	d="
M390.403259,253.149658 
	C391.553467,252.789078 392.814545,252.752609 394.454681,252.769531 
	C393.625000,254.573639 392.032471,253.777527 390.403259,253.149658 
z"/>
<path fill="#F7B44A" opacity="1.000000" stroke="none" 
	d="
M249.020996,270.688477 
	C248.999664,271.078796 248.607376,271.000732 248.407883,270.987366 
	C248.148849,269.598633 248.089310,268.223328 248.029953,266.435913 
	C249.364319,267.212555 248.980469,268.808136 249.020996,270.688477 
z"/>
<path fill="#A97E35" opacity="1.000000" stroke="none" 
	d="
M219.762817,338.200378 
	C219.841873,339.429291 219.199783,340.458221 217.492401,340.987549 
	C217.957458,340.167511 218.733459,339.264618 219.762817,338.200378 
z"/>
<path fill="#AF8037" opacity="1.000000" stroke="none" 
	d="
M318.809021,277.663116 
	C317.882965,277.846222 316.742676,277.736938 315.315582,277.435913 
	C316.217468,277.286377 317.406128,277.328522 318.809021,277.663116 
z"/>
<path fill="#A97E35" opacity="1.000000" stroke="none" 
	d="
M246.764587,384.212402 
	C247.072861,385.014465 247.132629,386.014343 247.161041,387.388367 
	C245.802856,386.850555 246.083328,385.644318 246.764587,384.212402 
z"/>
<path fill="#A97E35" opacity="1.000000" stroke="none" 
	d="
M216.799286,341.320007 
	C216.864441,342.248840 216.405518,343.147736 215.115494,343.812561 
	C215.394699,343.112885 215.961868,342.285889 216.799286,341.320007 
z"/>
<path fill="#A97E35" opacity="1.000000" stroke="none" 
	d="
M130.843613,321.209045 
	C129.928513,321.003601 129.205551,320.741119 128.244995,320.312866 
	C129.024887,320.271942 130.042374,320.396698 131.235413,320.766235 
	C131.410965,321.010986 131.035736,321.151978 130.843613,321.209045 
z"/>
<path fill="#AF8037" opacity="1.000000" stroke="none" 
	d="
M117.229233,273.194366 
	C118.303024,273.115784 119.506882,273.300842 121.040222,273.663025 
	C120.842682,273.874908 120.315681,273.909637 119.394638,273.972534 
	C118.453499,273.819824 117.906395,273.638916 117.229233,273.194366 
z"/>
<path fill="#A97E35" opacity="1.000000" stroke="none" 
	d="
M240.698395,324.106293 
	C240.853851,325.142151 240.471893,326.142914 238.901611,326.633423 
	C239.183182,325.874207 239.802353,325.059357 240.698395,324.106293 
z"/>
<path fill="#F7D363" opacity="1.000000" stroke="none" 
	d="
M159.165039,152.334656 
	C159.940079,152.152939 160.568024,152.509674 160.922272,153.589432 
	C160.208572,153.723282 159.170868,153.966721 159.165039,152.334656 
z"/>
<path fill="#936421" opacity="1.000000" stroke="none" 
	d="
M120.252571,250.901611 
	C120.993095,250.480713 122.139069,250.166840 123.640495,249.781769 
	C123.995949,249.710571 123.969658,249.975174 123.978546,250.424072 
	C122.877625,250.918182 121.767815,250.963409 120.252571,250.901611 
z"/>
<path fill="#895C1C" opacity="1.000000" stroke="none" 
	d="
M303.316132,250.898514 
	C303.733459,250.128937 304.627197,249.985138 305.839233,250.552948 
	C305.282684,250.812744 304.494385,250.899506 303.316132,250.898514 
z"/>
<path fill="#A97E35" opacity="1.000000" stroke="none" 
	d="
M376.850311,267.380493 
	C377.026886,268.000214 376.936951,268.795959 376.642334,269.814453 
	C376.486389,269.210327 376.535126,268.383392 376.850311,267.380493 
z"/>
<path fill="#936421" opacity="1.000000" stroke="none" 
	d="
M146.676727,246.479950 
	C146.102020,246.742813 145.215378,246.854599 144.005920,246.838837 
	C144.576996,246.583832 145.470886,246.456360 146.676727,246.479950 
z"/>
<path fill="#895C1C" opacity="1.000000" stroke="none" 
	d="
M382.690247,250.178467 
	C383.008667,250.226868 383.015259,250.540070 383.021484,250.696564 
	C382.244659,250.869766 381.461670,250.886459 380.305237,250.778442 
	C380.745148,250.479187 381.558472,250.304626 382.690247,250.178467 
z"/>
<path fill="#A97E35" opacity="1.000000" stroke="none" 
	d="
M212.915146,345.548645 
	C212.798706,345.902832 212.489304,346.356323 211.991730,346.903412 
	C212.109756,346.547333 212.415970,346.097656 212.915146,345.548645 
z"/>
<path fill="#F7B44A" opacity="1.000000" stroke="none" 
	d="
M265.315125,255.930267 
	C265.192688,255.233124 265.373901,254.359482 265.797424,253.247131 
	C265.899414,253.923538 265.759094,254.838638 265.315125,255.930267 
z"/>
<path fill="#AF8037" opacity="1.000000" stroke="none" 
	d="
M239.803436,178.372009 
	C239.942108,179.077881 239.576340,179.680923 238.522186,180.028778 
	C238.683487,179.539246 239.120087,178.999481 239.803436,178.372009 
z"/>
<path fill="#AB7B2F" opacity="1.000000" stroke="none" 
	d="
M245.698151,173.985443 
	C245.564545,174.293320 245.148071,174.630554 244.461670,175.006836 
	C244.599579,174.702179 245.007431,174.358505 245.698151,173.985443 
z"/>
<path fill="#F7D363" opacity="1.000000" stroke="none" 
	d="
M158.123779,151.065948 
	C158.656143,150.627762 158.871506,150.971970 158.984741,151.655396 
	C158.725769,151.660995 158.457565,151.484619 158.123779,151.065948 
z"/>
<path fill="#F7B44A" opacity="1.000000" stroke="none" 
	d="
M247.657150,232.049286 
	C247.580856,232.725784 247.032211,232.898529 246.174744,232.278351 
	C246.463531,232.073196 246.897980,232.074600 247.657150,232.049286 
z"/>
<path fill="#AF843A" opacity="1.000000" stroke="none" 
	d="
M124.144066,205.567261 
	C124.068092,205.180557 124.239441,204.697372 124.651047,204.094345 
	C124.724670,204.473251 124.558029,204.972031 124.144066,205.567261 
z"/>
<path fill="#936421" opacity="1.000000" stroke="none" 
	d="
M158.674622,246.531235 
	C158.452057,246.752655 157.907257,246.838425 157.185913,246.796661 
	C157.457047,246.577942 157.904709,246.486755 158.674622,246.531235 
z"/>
<path fill="#936421" opacity="1.000000" stroke="none" 
	d="
M104.995689,250.213577 
	C105.575249,250.130661 106.144814,250.250443 106.932190,250.569458 
	C106.661247,250.840912 106.172493,250.913162 105.319580,250.903229 
	C104.955414,250.821045 104.985695,250.416275 104.995689,250.213577 
z"/>
<path fill="#A97E35" opacity="1.000000" stroke="none" 
	d="
M124.872299,321.418579 
	C124.966278,321.789520 124.808693,322.265656 124.438599,322.889954 
	C124.357635,322.533325 124.489174,322.028534 124.872299,321.418579 
z"/>
<path fill="#936421" opacity="1.000000" stroke="none" 
	d="
M116.300842,204.124847 
	C116.665222,204.285278 116.984367,204.759338 117.257248,205.526550 
	C116.439880,205.672394 116.282028,205.100906 116.300842,204.124847 
z"/>
<path fill="#F7B44A" opacity="1.000000" stroke="none" 
	d="
M246.385498,265.878845 
	C246.489273,265.147125 247.043869,265.045929 247.851471,265.743958 
	C247.556747,265.936890 247.130951,265.910980 246.385498,265.878845 
z"/>
<path fill="#A97E35" opacity="1.000000" stroke="none" 
	d="
M214.697266,343.909546 
	C214.592789,344.192200 214.242233,344.558380 213.649292,345.016571 
	C213.754990,344.736755 214.103088,344.364929 214.697266,343.909546 
z"/>
<path fill="#9B6E28" opacity="1.000000" stroke="none" 
	d="
M395.988800,252.578918 
	C395.934967,252.019943 396.192657,251.544434 396.735931,251.023041 
	C396.781097,251.538910 396.540710,252.100647 395.988800,252.578918 
z"/>
<path fill="#AB7B2F" opacity="1.000000" stroke="none" 
	d="
M254.176666,122.691231 
	C254.067535,122.250648 254.239212,121.734688 254.665161,121.094589 
	C254.765442,121.518921 254.611465,122.067383 254.176666,122.691231 
z"/>
<path fill="#A97E35" opacity="1.000000" stroke="none" 
	d="
M125.870209,320.602905 
	C126.049194,320.901001 125.938576,321.060059 125.544724,321.096741 
	C125.339966,320.796021 125.446342,320.625854 125.870209,320.602905 
z"/>
<path fill="#AB7B2F" opacity="1.000000" stroke="none" 
	d="
M243.807556,175.261154 
	C243.929382,175.500107 243.748001,175.718918 243.272400,175.935242 
	C243.148697,175.704453 243.324097,175.473877 243.807556,175.261154 
z"/>
<path fill="#AF8037" opacity="1.000000" stroke="none" 
	d="
M131.125183,327.617065 
	C130.913284,327.363617 131.022903,327.140228 131.443161,326.934509 
	C131.689575,327.194702 131.587219,327.426331 131.125183,327.617065 
z"/>
<path fill="#AF8037" opacity="1.000000" stroke="none" 
	d="
M240.760864,177.465012 
	C240.875443,177.669571 240.763138,177.816345 240.453690,177.961853 
	C240.279007,177.757492 240.371475,177.573044 240.760864,177.465012 
z"/>
<path fill="#AF8037" opacity="1.000000" stroke="none" 
	d="
M309.336090,130.114594 
	C309.610657,129.891495 309.842651,130.014465 310.047913,130.471893 
	C309.770325,130.724167 309.527771,130.608963 309.336090,130.114594 
z"/>
<path fill="#AB7B2F" opacity="1.000000" stroke="none" 
	d="
M247.306152,123.133484 
	C247.622971,122.875816 247.875320,123.010498 248.069489,123.534225 
	C247.754898,123.795982 247.498337,123.663498 247.306152,123.133484 
z"/>
<path fill="#AB7B2F" opacity="1.000000" stroke="none" 
	d="
M246.214661,122.166550 
	C246.516785,121.909042 246.776733,122.038055 247.023071,122.530632 
	C246.714752,122.850838 246.435745,122.737129 246.214661,122.166550 
z"/>
<path fill="#A97E35" opacity="1.000000" stroke="none" 
	d="
M212.106110,352.625183 
	C212.077942,352.521576 212.217087,352.355164 212.487259,352.088135 
	C212.563553,352.212158 212.448593,352.403809 212.106110,352.625183 
z"/>
<path fill="#AC8034" opacity="1.000000" stroke="none" 
	d="
M254.709839,114.862930 
	C254.375732,115.058052 254.150238,114.900352 253.982651,114.417206 
	C254.333832,114.133240 254.593124,114.272690 254.709839,114.862930 
z"/>
<path fill="#AB7B2F" opacity="1.000000" stroke="none" 
	d="
M246.807220,114.127602 
	C247.066940,114.404541 246.947495,114.690475 246.463776,114.992027 
	C246.125458,114.691498 246.234985,114.401154 246.807220,114.127602 
z"/>
<path fill="#AC8034" opacity="1.000000" stroke="none" 
	d="
M247.906006,112.478310 
	C248.205383,112.791855 248.134781,112.982216 247.720367,113.111130 
	C247.344604,112.822784 247.397781,112.591270 247.906006,112.478310 
z"/>
<path fill="#895C1C" opacity="1.000000" stroke="none" 
	d="
M124.272141,250.890045 
	C123.987427,250.872940 123.983421,250.555481 123.973808,250.398254 
	C124.256477,250.208237 124.531158,250.263275 124.939529,250.556183 
	C124.912819,250.773239 124.734840,250.840195 124.272141,250.890045 
z"/>
<path fill="#F7B44A" opacity="1.000000" stroke="none" 
	d="
M243.255341,268.953674 
	C243.085617,268.691711 243.261673,268.425842 243.756165,268.122009 
	C243.818756,268.307739 243.660934,268.596313 243.255341,268.953674 
z"/>
<path fill="#F7B44A" opacity="1.000000" stroke="none" 
	d="
M244.254822,267.918945 
	C244.060425,267.648834 244.215088,267.389343 244.699097,267.117584 
	C244.954117,267.405609 244.812592,267.680359 244.254822,267.918945 
z"/>
<path fill="#A97E35" opacity="1.000000" stroke="none" 
	d="
M375.873596,271.236023 
	C376.165100,271.478607 376.086243,271.744507 375.641602,272.031219 
	C375.308502,271.777069 375.384277,271.512848 375.873596,271.236023 
z"/>
<path fill="#F7B44A" opacity="1.000000" stroke="none" 
	d="
M245.274780,266.888306 
	C245.037567,266.584412 245.181091,266.327271 245.687744,266.091766 
	C245.968216,266.400055 245.836426,266.673889 245.274780,266.888306 
z"/>
<path fill="#C4923D" opacity="1.000000" stroke="none" 
	d="
M235.102188,253.297302 
	C235.336456,253.237564 235.608139,253.430084 235.915222,253.884048 
	C235.680283,253.946838 235.409943,253.748184 235.102188,253.297302 
z"/>
<path fill="#936421" opacity="1.000000" stroke="none" 
	d="
M109.259979,252.160492 
	C109.608688,251.791382 109.885498,251.893784 110.168945,252.414871 
	C109.918953,252.569977 109.589775,252.502792 109.259979,252.160492 
z"/>
<path fill="#AF8037" opacity="1.000000" stroke="none" 
	d="
M310.752563,277.155029 
	C310.999146,277.226715 310.635620,277.469849 310.635620,277.469849 
	C310.635620,277.469849 310.209503,277.406586 310.106354,277.297089 
	C310.170807,277.152832 310.338409,277.118103 310.752563,277.155029 
z"/>
<path fill="#936421" opacity="1.000000" stroke="none" 
	d="
M108.069847,251.185120 
	C108.274170,251.039291 108.598701,251.116180 109.011902,251.434036 
	C108.797058,251.585953 108.493561,251.496887 108.069847,251.185120 
z"/>
<path fill="#A97E35" opacity="1.000000" stroke="none" 
	d="
M124.321640,326.156738 
	C124.657837,326.009430 124.866333,326.207794 125.000267,326.734985 
	C124.679108,326.905975 124.435188,326.718842 124.321640,326.156738 
z"/>
<path fill="#9B6E28" opacity="1.000000" stroke="none" 
	d="
M396.849335,244.806763 
	C396.577667,244.927780 396.288239,244.788254 395.970490,244.398041 
	C396.238647,244.280319 396.535095,244.413269 396.849335,244.806763 
z"/>
<path fill="#F7B44A" opacity="1.000000" stroke="none" 
	d="
M235.759613,243.991425 
	C235.837784,244.170120 235.684799,244.462021 235.307449,244.865524 
	C235.231552,244.686310 235.380020,244.395462 235.759613,243.991425 
z"/>
<path fill="#F7B44A" opacity="1.000000" stroke="none" 
	d="
M245.901825,231.735687 
	C245.611557,231.924332 245.359375,231.754959 245.102570,231.255341 
	C245.396881,231.014343 245.677551,231.165207 245.901825,231.735687 
z"/>
<path fill="#F7B44A" opacity="1.000000" stroke="none" 
	d="
M244.911469,230.724640 
	C244.626556,230.899902 244.365204,230.717285 244.093384,230.198395 
	C244.291641,230.138123 244.575668,230.306320 244.911469,230.724640 
z"/>
<path fill="#AF843A" opacity="1.000000" stroke="none" 
	d="
M118.354919,208.087555 
	C118.609474,207.839920 118.845299,207.940170 119.059219,208.389252 
	C118.801559,208.639603 118.567848,208.538712 118.354919,208.087555 
z"/>
<path fill="#936421" opacity="1.000000" stroke="none" 
	d="
M117.337265,207.055786 
	C117.734306,206.884735 117.945610,207.091614 118.071976,207.641571 
	C117.821442,207.685684 117.542938,207.502045 117.337265,207.055786 
z"/>
<path fill="#AF843A" opacity="1.000000" stroke="none" 
	d="
M123.676758,206.787186 
	C123.474579,206.870239 123.287613,206.695129 123.166336,206.482544 
	C123.126755,206.413162 123.258293,206.246140 123.493317,206.044174 
	C123.689201,206.147858 123.703346,206.331146 123.676758,206.787186 
z"/>
<path fill="#000000" opacity="1.000000" stroke="none" 
	d="
M240.522430,240.757141 
	C247.268585,232.654968 260.075928,234.853577 263.136200,244.880585 
	C264.984314,250.935989 262.244324,257.513702 256.296844,260.431671 
	C250.534348,263.258881 244.245850,261.429138 240.338181,256.159790 
	C236.537292,251.034409 237.686356,246.091034 240.522430,240.757141 
z"/>
<path fill="#F7B44A" opacity="1.000000" stroke="none" 
	d="
M252.592728,208.757843 
	C252.779526,212.814499 252.879745,216.500702 252.922440,220.656494 
	C251.754715,220.837906 250.644516,220.549728 249.295074,220.196518 
	C249.109970,216.774811 249.164093,213.418137 249.223145,209.612396 
	C249.931168,207.258850 250.953247,206.701859 252.592728,208.757843 
z"/>
<path fill="#F7B44A" opacity="1.000000" stroke="none" 
	d="
M212.989716,247.390106 
	C216.350281,246.894257 219.721436,246.784363 223.550034,246.742157 
	C224.309006,247.965851 224.610504,249.121841 225.007401,250.623627 
	C220.931030,250.426437 216.108459,252.349976 212.989716,247.390106 
z"/>
<path fill="#F7B44A" opacity="1.000000" stroke="none" 
	d="
M279.882629,247.389954 
	C280.109192,247.000076 280.316711,246.938232 280.828674,246.762436 
	C283.454315,246.768723 285.775543,246.888977 288.533112,247.024628 
	C286.492554,249.834839 283.299072,250.911499 279.254089,250.884079 
	C279.185974,249.803314 279.524750,248.760635 279.882629,247.389954 
z"/>
<path fill="#C4923D" opacity="1.000000" stroke="none" 
	d="
M252.740723,208.693527 
	C251.743195,208.355240 250.759186,208.072876 249.450653,208.999146 
	C249.193771,207.202667 248.960083,205.219879 249.174088,203.286682 
	C249.461563,200.689926 250.746353,200.710281 252.524231,202.734558 
	C252.748413,204.750748 252.775269,206.504745 252.740723,208.693527 
z"/>
<path fill="#C4923D" opacity="1.000000" stroke="none" 
	d="
M249.170013,125.178032 
	C250.128052,124.835419 251.057831,124.858154 252.329254,124.809525 
	C252.758316,126.096596 252.589005,127.407677 250.978256,127.673088 
	C249.406311,127.932106 249.216721,126.722946 249.170013,125.178032 
z"/>
<path fill="#C4923D" opacity="1.000000" stroke="none" 
	d="
M198.353271,128.260239 
	C195.801224,133.230774 197.517639,138.242264 196.984253,143.533722 
	C194.609741,143.280060 195.069885,141.284302 195.011627,139.554047 
	C194.897141,136.153641 195.372757,132.697159 193.763977,129.042114 
	C193.431976,125.706528 196.051178,125.551399 197.771286,125.199448 
	C198.826508,124.983528 198.689835,126.869835 198.353271,128.260239 
z"/>
<path fill="#9B6E28" opacity="1.000000" stroke="none" 
	d="
M319.194061,248.905731 
	C316.750092,248.905350 314.772064,248.905350 312.794006,248.905350 
	C312.794373,248.718475 312.794769,248.531601 312.795135,248.344727 
	C330.944305,248.344727 349.093475,248.344727 367.242645,248.344727 
	C367.244843,248.531860 367.247009,248.718979 367.249207,248.906113 
	C351.386108,248.906113 335.523041,248.906113 319.194061,248.905731 
z"/>
<path fill="#9B6E28" opacity="1.000000" stroke="none" 
	d="
M305.908386,248.526825 
	C305.880127,248.473450 306.122192,248.470032 306.122192,248.470032 
	C306.122192,248.470032 305.936615,248.580215 305.908386,248.526825 
z"/>
<path fill="#9B6E28" opacity="1.000000" stroke="none" 
	d="
M372.891907,248.526779 
	C372.859802,248.465942 373.132324,248.457382 373.132324,248.457382 
	C373.132324,248.457382 372.923981,248.587616 372.891907,248.526779 
z"/>
<path fill="#936421" opacity="1.000000" stroke="none" 
	d="
M160.999985,248.152237 
	C170.438324,248.153824 179.376663,248.153824 188.315002,248.153824 
	C188.313675,248.325424 188.312363,248.497009 188.311050,248.668610 
	C169.107986,248.668610 149.904938,248.668610 130.701874,248.668610 
	C130.700897,248.495956 130.699936,248.323303 130.698959,248.150650 
	C140.632629,248.150650 150.566315,248.150650 160.999985,248.152237 
z"/>
<path fill="#C4923D" opacity="1.000000" stroke="none" 
	d="
M345.975494,204.562073 
	C343.172333,203.874359 341.390320,202.445526 340.296783,199.830704 
	C348.465210,200.904968 348.465210,200.904968 345.975494,204.562073 
z"/>
<path fill="#AC8034" opacity="1.000000" stroke="none" 
	d="
M239.022293,329.025330 
	C238.857681,329.621887 238.808563,330.319641 237.976044,330.338593 
	C237.867416,330.341034 237.650803,330.067017 237.658279,330.057434 
	C237.919830,329.723572 238.202301,329.406097 238.717712,329.021912 
	C238.953613,328.957520 239.000015,329.002106 239.022293,329.025330 
z"/>
<path fill="#AC8034" opacity="1.000000" stroke="none" 
	d="
M222.991150,337.986542 
	C222.981369,337.974091 223.188629,337.694000 223.188629,337.694000 
	C223.188629,337.694000 223.184082,337.923035 223.105026,337.970734 
	C223.025970,338.018433 223.000946,337.998993 222.991150,337.986542 
z"/>
<path fill="#AF843A" opacity="1.000000" stroke="none" 
	d="
M245.236694,299.477203 
	C245.279221,299.279724 245.672684,299.197083 245.873917,299.197205 
	C245.889908,299.405121 245.696625,299.605133 245.341766,299.938019 
	C245.188232,300.078674 245.194153,299.674683 245.236694,299.477203 
z"/>
<path fill="#F8CA5B" opacity="1.000000" stroke="none" 
	d="
M252.652679,243.102234 
	C255.865158,242.551834 257.275482,244.459579 257.649445,246.526932 
	C258.300049,250.123611 255.296234,252.070618 253.049271,254.126358 
	C251.596497,255.455505 249.575256,255.517517 248.034698,254.225098 
	C246.416580,252.867630 244.798309,251.466690 243.917252,249.354706 
	C242.356949,245.614532 243.710922,243.222870 247.752502,243.067291 
	C249.239700,243.010056 250.732697,243.102982 252.652679,243.102234 
z"/>
</svg>