<?xml version="1.0" encoding="UTF-8" standalone="no"?>
<!-- Created with Inkscape (http://www.inkscape.org/) -->

<svg
   width="78.804016mm"
   height="76.155121mm"
   viewBox="0 0 78.804016 76.155121"
   version="1.1"
   id="svg1"
   xml:space="preserve"
   xmlns="http://www.w3.org/2000/svg"
   xmlns:svg="http://www.w3.org/2000/svg"><defs
     id="defs1" /><g
     id="layer1"
     transform="translate(-6.2266364,-153.21653)"><g
       id="g366"
       transform="translate(-12.144981,119.24164)"><path
         style="fill:#e5e5e5"
         d="m 55.604924,109.0951 c -0.787366,-0.78737 -1.026975,-1.23525 -1.026217,-1.91823 0.0012,-1.10142 0.835711,-2.52118 1.718195,-2.92327 0.978792,-0.44596 0.868398,-1.36895 -0.246119,-2.05776 -0.816926,-0.50489 -1.362076,-1.47752 -1.877402,-3.34957 -0.134171,-0.487407 -3.479916,-2.233536 -3.940793,-2.05668 -0.57543,0.220813 -1.740287,-0.586803 -1.740287,-1.206573 0,-0.698435 0.70535,-1.335716 1.478387,-1.335716 0.473876,0 0.760436,0.238212 1.071655,0.890845 0.301979,0.633257 0.895324,1.142235 2.052027,1.760251 l 1.627212,0.869406 1.108651,-0.768063 1.108652,-0.768064 0.01004,-4.693035 0.01004,-4.693035 -1.033798,-0.652608 c -2.835064,-1.789697 -1.53552,-5.836322 1.874292,-5.836322 3.27154,0 4.594824,4.059246 1.866385,5.725239 -0.542898,0.331495 -1.132129,0.786272 -1.309402,1.010615 -0.177273,0.224343 -0.324278,0.288834 -0.326678,0.143313 -0.0076,-0.45833 0.356741,-0.838031 1.236462,-1.288738 1.053389,-0.539682 1.396906,-1.153147 1.396906,-2.494645 0,-1.325174 -0.769649,-2.326592 -2.092798,-2.723017 -0.842279,-0.252353 -1.166263,-0.225413 -1.989995,0.165473 -1.394376,0.661675 -1.836488,1.447867 -1.665797,2.962231 0.136081,1.207305 0.315769,1.465612 1.706163,2.452654 0.500097,0.35502 0.565934,0.68986 0.624267,3.175 0.03587,1.527969 0.04572,3.68136 0.02189,4.785314 l -0.04332,2.007188 -1.297924,1.03552 c -1.141219,0.910496 -1.282275,1.131354 -1.168307,1.82927 0.240541,1.473027 0.672356,2.241777 1.57132,2.797367 0.734437,0.4539 0.894911,0.71527 0.894911,1.45755 0,0.49745 -0.109927,0.90446 -0.244283,0.90446 -0.134356,0 -0.610606,0.30824 -1.058333,0.68498 -0.697465,0.58687 -0.814051,0.86398 -0.814051,1.93487 0,1.01936 0.134206,1.37755 0.727604,1.94198 0.98176,0.93384 1.93576,1.13576 2.932005,0.62059 2.12726,-1.10005 2.195553,-3.67021 0.131419,-4.94592 -1.245181,-0.76956 -1.196494,-1.8986 0.111577,-2.58745 0.834401,-0.43941 1.392136,-1.38392 1.523852,-2.580601 0.103902,-0.943988 0.02532,-1.089699 -1.034707,-1.918524 -1.098479,-0.858892 -1.154159,-0.971148 -1.31236,-2.645833 -0.228801,-2.42203 -0.210579,-6.586828 0.02947,-6.734639 0.10914,-0.0672 0.207702,1.715686 0.219025,3.961979 l 0.02059,4.084171 0.905453,0.774153 c 0.497999,0.425784 1.069554,0.778992 1.270122,0.784906 0.583256,0.0172 3.232697,-1.596464 3.399902,-2.070736 0.463664,-1.315168 1.922526,-1.820386 2.443829,-0.846322 0.625323,1.168426 -0.01726,2.134229 -1.390203,2.089466 -0.541032,-0.01764 -1.449847,0.326254 -2.503092,0.947166 -1.379044,0.812977 -1.65381,1.093581 -1.654635,1.689791 -0.0014,0.986163 -0.873683,2.326153 -1.839394,2.825543 -1.058397,0.54732 -1.031905,1.27815 0.07104,1.95981 2.10243,1.29937 2.171085,4.07207 0.131616,5.3155 -1.401214,0.8543 -2.483841,0.70997 -3.685069,-0.49125 z M 50.712881,96.145301 c 0.219417,-0.355024 -0.125568,-1.320528 -0.526861,-1.474518 -0.610254,-0.234177 -1.164553,0.123449 -1.164553,0.751354 0,0.323979 0.07937,0.668428 0.176389,0.765442 0.249998,0.249998 1.353419,0.219206 1.515025,-0.04228 z m 15.459944,-0.389356 c 0.137228,-0.723313 -0.440323,-1.285308 -1.008428,-0.981267 -0.542098,0.290121 -0.871227,0.990708 -0.640676,1.363746 0.267807,0.433322 1.550783,0.135759 1.649104,-0.382479 z m 8.999665,9.415215 c -0.223881,-0.26005 -2.70139,-4.64 -5.505574,-9.733234 -3.288304,-5.972531 -5.377069,-9.484852 -5.883064,-9.892545 -0.674834,-0.543731 -0.761466,-0.755154 -0.619503,-1.511879 0.116379,-0.620357 0.006,-1.191484 -0.374336,-1.937018 -0.673471,-1.320111 -0.676258,-1.607517 -0.01559,-1.607517 0.350312,0 0.712804,0.372424 1.09449,1.12448 0.313886,0.618463 0.852087,1.461036 1.196003,1.872383 0.343915,0.411348 0.625301,1.012613 0.625301,1.336146 0,0.323533 0.10783,0.701351 0.239622,0.839596 0.131792,0.138245 0.882587,1.382448 1.668434,2.764896 1.392382,2.449454 1.923265,3.394489 6.6783,11.888162 1.285931,2.29699 2.251542,4.32115 2.20752,4.6275 -0.101798,0.70842 -0.794719,0.82942 -1.311603,0.22903 z m 0.883005,-1.00553 c -0.425832,-0.9346 -9.831756,-17.643762 -10.16311,-18.054266 -0.384042,-0.475778 -0.731334,-0.407052 -0.731334,0.144725 0,0.261499 1.643672,3.446421 3.652604,7.077604 2.008931,3.631183 4.215104,7.638957 4.902605,8.906167 1.429637,2.63513 1.967035,3.28686 2.374356,2.87954 0.189498,-0.18949 0.17863,-0.48464 -0.03512,-0.95377 z M 65.161051,84.737304 c 0,-0.506854 -0.207849,-0.925273 -0.595312,-1.198419 -0.573975,-0.40463 -0.604152,-0.389706 -0.841913,0.41635 -0.203808,0.690947 -0.160598,0.898908 0.249007,1.198419 0.791166,0.578514 1.188218,0.439388 1.188218,-0.41635 z m -1.5875,-2.660836 c -0.15576,-0.291042 -0.342732,-0.529167 -0.415493,-0.529167 -0.07276,0 -0.0049,0.238125 0.15091,0.529167 0.155761,0.291041 0.342733,0.529166 0.415493,0.529166 0.07276,0 0.0049,-0.238125 -0.15091,-0.529166 z M 38.278474,104.72243 c -0.100898,-0.26293 1.233442,-2.68839 3.614667,-6.570439 3.686994,-6.010818 4.241034,-6.901549 6.590299,-10.595233 0.845948,-1.330062 1.149573,-2.082683 1.170811,-2.90219 0.02275,-0.87779 0.155875,-1.169939 0.644203,-1.413725 0.33854,-0.169008 0.924822,-0.768023 1.302848,-1.331144 0.817121,-1.217212 1.166124,-1.484773 1.50053,-1.150367 0.154716,0.154716 0.03338,0.724067 -0.321862,1.510336 -0.313605,0.694105 -0.602952,1.617587 -0.642992,2.052183 -0.05109,0.554516 -0.322996,0.949058 -0.911713,1.322917 -0.461401,0.293008 -0.890185,0.716039 -0.952853,0.940069 -0.06267,0.224031 -1.461855,2.605281 -3.109303,5.291667 -1.647448,2.686387 -3.778508,6.167624 -4.735689,7.736083 -3.408029,5.584483 -3.787479,6.051813 -4.148946,5.109843 z m 2.600085,-3.33138 c 2.998524,-4.943785 3.231754,-5.326989 4.407034,-7.240879 0.637404,-1.037985 1.35982,-2.184901 1.605367,-2.548703 0.495966,-0.73482 0.85624,-1.5875 0.670749,-1.5875 -0.265591,0 -8.858992,13.904232 -8.858992,14.333972 0,0.5222 0.373781,0.0142 2.175842,-2.95689 z M 48.77253,88.34237 c 0.374865,-0.772077 0.407613,-0.946586 0.108346,-0.577361 -0.619107,0.763833 -1.277282,2.074292 -0.935815,1.863253 0.15962,-0.09865 0.531981,-0.677302 0.827469,-1.285892 z m 2.382998,-3.100211 c 0.354805,-0.189886 0.511773,-0.555068 0.511773,-1.190625 0,-1.031943 0.0053,-1.028337 -0.899037,-0.616312 -0.809402,0.368788 -1.038069,0.898418 -0.678205,1.570829 0.315772,0.590027 0.378282,0.603879 1.065469,0.236108 z m -25.069543,7.294966 c -2.120275,-0.922169 -2.177481,-4.218323 -0.09193,-5.296804 1.054913,-0.545516 1.944507,-0.504355 3.225681,0.14925 1.348111,0.687755 1.634206,0.451636 1.660622,-1.370537 0.01818,-1.253721 0.106206,-1.436261 1.131399,-2.34604 1.033243,-0.916923 1.124211,-1.108737 1.289106,-2.718206 0.137377,-1.34088 0.08027,-1.926405 -0.253075,-2.594602 -0.566275,-1.135125 -0.543053,-1.656085 0.09975,-2.237816 1.058178,-0.957638 2.698865,0.637712 1.742564,1.694413 -0.315272,0.348372 -0.420723,1.029858 -0.420723,2.71898 v 2.254088 l 1.050186,0.473567 1.050185,0.473568 3.973677,-2.483905 c 3.477529,-2.173769 3.974078,-2.570718 3.976898,-3.179197 0.0043,-0.922119 0.62846,-2.377485 1.267838,-2.956114 2.653411,-2.401304 6.995918,0.688819 5.474259,3.895476 -0.974215,2.053006 -3.344418,2.764262 -5.082712,1.525233 l -0.857378,-0.611126 -3.772831,2.286672 c -2.075056,1.257669 -3.883868,2.393992 -4.019581,2.525162 -0.135713,0.13117 -0.268761,0.760836 -0.295662,1.399258 -0.04886,1.159598 -0.04724,1.161745 1.611913,2.132309 1.175851,0.687844 1.845021,0.925312 2.291614,0.813225 0.938828,-0.235631 1.715324,0.702501 1.378629,1.665605 -0.386515,1.10561 -1.534546,1.131865 -2.192382,0.05014 -0.279505,-0.459609 -1.197778,-1.251055 -2.040606,-1.758769 l -1.532415,-0.923115 -1.10365,0.551189 c -1.393853,0.696124 -2.043782,0.693258 -3.303186,-0.01457 -1.346838,-0.756965 -1.843546,-0.531944 -1.843546,0.835175 0,1.465972 -0.644068,2.605459 -1.728866,3.058717 -1.105367,0.461851 -1.602849,0.459772 -2.685782,-0.01123 z m 3.23605,-0.791339 c 0.357187,-0.357187 0.658595,-0.863203 0.669795,-1.124479 0.0112,-0.261276 0.04104,-0.875038 0.0663,-1.363915 0.0795,-1.538358 -1.896437,-2.510272 -3.630486,-1.78574 -1.823667,0.761977 -2.182761,3.424542 -0.610394,4.52587 0.919929,0.644344 2.739387,0.513659 3.504782,-0.251736 z m 12.687974,-1.467235 c 0,-0.484909 -0.15921,-0.684066 -0.596496,-0.746161 -0.650109,-0.09232 -1.019349,0.475087 -0.755911,1.161593 0.09562,0.249185 0.398121,0.381536 0.755911,0.330729 0.437286,-0.06209 0.596496,-0.261252 0.596496,-0.746161 z m -6.096868,-2.144968 c 0.885097,-0.52222 0.937493,-0.63109 0.937493,-1.947954 V 84.79081 l 2.050521,-1.327299 c 1.127786,-0.730014 3.00302,-1.890067 4.167187,-2.577895 l 2.116667,-1.250597 0.97846,0.559266 c 1.5211,0.869426 2.912809,0.7514 4.003754,-0.339546 1.008279,-1.008279 1.23806,-1.753279 0.919699,-2.981873 -0.54622,-2.107931 -3.353825,-2.939799 -4.985396,-1.477128 -0.612801,0.549365 -0.857036,1.047185 -0.997008,2.032188 -0.176163,1.239683 -0.270911,1.363523 -1.904531,2.48932 -2.804095,1.932422 -6.302871,4.011305 -6.751057,4.011305 -0.229685,0 -0.889817,-0.228146 -1.466961,-0.506992 -0.952295,-0.460099 -1.121814,-0.470844 -1.832784,-0.116165 -1.352521,0.674726 -1.889333,1.605299 -1.800714,3.121563 0.07562,1.293828 0.117555,1.358019 1.268829,1.942168 1.300354,0.659791 1.844245,0.620921 3.295841,-0.235542 z M 34.569167,76.84727 c -0.42664,-0.676364 -1.272757,-0.583859 -1.376865,0.150531 -0.04755,0.335432 0.06171,0.788408 0.242807,1.006614 0.288886,0.348087 0.396376,0.329627 0.876534,-0.150531 0.432026,-0.432027 0.486255,-0.643999 0.257524,-1.006614 z M 86.67557,92.537125 c -0.995244,-0.432861 -1.670768,-1.602858 -1.670768,-2.893746 0,-1.284008 -0.613628,-1.584141 -1.898568,-0.928613 -1.259548,0.642573 -1.835869,0.635744 -3.155321,-0.03739 l -1.064059,-0.542842 -1.686846,0.943338 c -0.927765,0.518835 -1.758494,1.169081 -1.846064,1.44499 -0.247092,0.778519 -0.858827,1.154456 -1.582861,0.972735 -0.989786,-0.24842 -1.34224,-1.095435 -0.800113,-1.922825 0.358531,-0.547188 0.592805,-0.64599 1.275575,-0.537958 0.623893,0.09872 1.256502,-0.09948 2.490028,-0.78012 l 1.653646,-0.912458 -0.0017,-1.243822 c -0.0014,-1.075388 -0.09998,-1.301535 -0.727605,-1.670014 -0.399262,-0.234407 -2.179558,-1.343619 -3.956213,-2.464916 l -3.230282,-2.038723 -1.207053,0.70738 c -1.585778,0.929328 -2.75303,0.743227 -4.159415,-0.663158 -0.857641,-0.857642 -1.005115,-1.174957 -1.004271,-2.160867 0.0014,-1.622796 0.739842,-2.710377 2.22557,-3.277782 1.148716,-0.438698 1.275995,-0.43921 2.400805,-0.0096 1.566793,0.598364 2.251803,1.49529 2.251803,2.948429 0,1.119675 0.03511,1.164806 1.785937,2.296039 0.982266,0.634653 2.818424,1.784237 4.080351,2.554631 l 2.294414,1.400717 1.079024,-0.476064 1.079024,-0.476064 v -2.165644 c 0,-1.602237 -0.103249,-2.251332 -0.396875,-2.49502 -0.557626,-0.462789 -0.493454,-1.418082 0.133367,-1.985347 0.44033,-0.398494 0.643479,-0.428268 1.19805,-0.175588 0.910881,0.415025 1.092592,1.044948 0.566073,1.962354 -0.305979,0.533138 -0.442281,1.384875 -0.442281,2.763762 v 1.99313 l 1.091449,0.968577 c 0.961075,0.852879 1.10757,1.136346 1.226405,2.373087 0.157686,1.641075 0.511687,1.887772 1.816213,1.265687 1.432159,-0.682949 2.581918,-0.56152 3.661935,0.386748 0.820082,0.720041 0.935248,0.973438 0.935248,2.057795 0,1.472237 -0.526584,2.328085 -1.745873,2.837536 -1.088103,0.454639 -1.589222,0.451197 -2.668776,-0.01833 z m 3.376668,-0.915305 c 1.064263,-1.064262 1.079358,-2.538638 0.03622,-3.538026 -1.046772,-1.002871 -2.121504,-1.152372 -3.441854,-0.47878 -0.596693,0.30441 -1.281675,0.475397 -1.527133,0.381206 -0.413545,-0.158692 -0.413013,-0.121824 0.0075,0.519962 0.248934,0.379921 0.387277,0.796472 0.307429,0.925668 -0.267483,0.432796 0.378268,2.149501 0.96247,2.558692 0.317765,0.222572 1.096203,0.404676 1.729862,0.404676 0.920602,0 1.307512,-0.155406 1.925503,-0.773398 z M 74.817592,90.545502 c 0.22465,-0.707808 -0.03496,-1.060701 -0.780306,-1.060701 -0.663107,0 -1.016803,0.547028 -0.769831,1.190625 0.227056,0.591701 1.351001,0.497498 1.550137,-0.129924 z m 8.532852,-2.326668 1.123767,-0.453825 -0.151399,-1.322916 c -0.202496,-1.769404 -0.513092,-2.336474 -1.629049,-2.97424 l -0.939496,-0.536919 -1.292207,0.537017 -1.292207,0.537017 -1.382005,-0.738113 c -0.760102,-0.405962 -2.661926,-1.579772 -4.226275,-2.608467 -2.640023,-1.736043 -2.844271,-1.931543 -2.844271,-2.722454 0,-1.304952 -0.430276,-2.156971 -1.382468,-2.737523 -1.680273,-1.024462 -3.905343,-0.443618 -4.591501,1.19859 -0.476216,1.139746 -0.472165,1.56045 0.02512,2.608397 0.793069,1.67127 2.900673,2.233458 4.566182,1.217997 0.47646,-0.290498 0.966066,-0.528178 1.088013,-0.528178 0.300187,0 5.10346,2.890976 6.909238,4.158506 1.279122,0.897854 1.445485,1.117652 1.37485,1.816451 -0.134871,1.334288 0.368264,2.203463 1.599748,2.763597 0.619544,0.281797 1.305038,0.450827 1.523319,0.375623 0.218281,-0.0752 0.90257,-0.340956 1.520641,-0.59056 z M 82.34842,77.723553 c 0.175356,-0.211291 0.2776,-0.598244 0.227211,-0.859896 -0.125207,-0.650147 -1.366891,-0.647863 -1.492186,0.0027 -0.212739,1.104664 0.601603,1.656465 1.264975,0.857151 z M 42.085433,73.071808 C 41.797647,72.899503 37.395891,72.778858 30.050557,72.74195 19.350452,72.68819 18.462775,72.64925 18.382032,72.230191 c -0.05739,-0.297829 0.123052,-0.498715 0.5255,-0.585053 0.337091,-0.07232 5.592054,-0.180122 11.677695,-0.239567 7.741743,-0.07562 11.154616,-0.197896 11.363855,-0.407135 0.37006,-0.37006 1.427356,-0.392169 1.648427,-0.03447 0.08994,0.145521 0.801601,0.264583 1.581475,0.264583 1.750873,0 2.254983,0.181094 2.254983,0.810069 0,0.500212 -0.378688,0.618915 -2.778125,0.87083 -0.582083,0.06111 -1.296458,0.183769 -1.5875,0.27257 -0.291042,0.0888 -0.733351,0.03921 -0.982909,-0.11021 z m 3.165722,-0.713733 c 2.10259,-0.147929 2.164205,-0.600358 0.08176,-0.600358 -0.864536,0 -1.645469,-0.119062 -1.735406,-0.264583 -0.254819,-0.412307 -1.351847,-0.311055 -1.743554,0.160923 -0.300426,0.361991 -0.275641,0.482365 0.166041,0.80642 0.307893,0.225896 0.73453,0.306242 1.048346,0.197428 0.291042,-0.100917 1.273308,-0.235841 2.182813,-0.29983 z m -4.894792,-0.06404 c 0.254661,-0.0039 0.463021,-0.133901 0.463021,-0.288812 0,-0.309404 -11.284402,-0.322457 -17.859376,-0.02066 l -3.704167,0.170025 2.38125,0.163899 c 1.859653,0.127997 9.499259,0.118018 18.719272,-0.02445 z m 30.507389,0.273074 c -0.383717,-0.424003 -0.690664,-0.486763 -1.760799,-0.360021 -1.087043,0.128744 -1.296068,0.08355 -1.296068,-0.280229 0,-0.449401 0.394041,-0.555993 1.676826,-0.453599 0.412931,0.03296 0.948712,-0.112142 1.190625,-0.322451 0.692743,-0.602242 1.178067,-0.671437 1.955777,-0.278842 0.414731,0.209359 1.146897,0.31075 1.719792,0.238158 0.548683,-0.06952 5.908933,-0.197309 11.911668,-0.283966 10.751611,-0.155212 10.914063,-0.149765 10.914063,0.365976 0,0.358772 -0.228985,0.570224 -0.727604,0.671895 -0.400183,0.0816 -5.773746,0.214402 -11.941252,0.295119 -9.243596,0.120974 -11.310806,0.214809 -11.766684,0.534119 -0.749925,0.525267 -1.321596,0.48683 -1.876344,-0.126159 z m 1.875829,-0.41589 c 0.200268,-0.52189 -0.36276,-1.187256 -1.004647,-1.187256 -0.564807,0 -0.888961,0.587106 -0.657369,1.190625 0.19835,0.516892 1.463357,0.514327 1.662016,-0.0034 z m 11.265441,-0.300646 c 0.978089,-0.09238 1.715203,-0.270126 1.638031,-0.394994 -0.16284,-0.263481 -7.599425,-0.304024 -8.561582,-0.04668 -0.599491,0.160345 -0.60926,0.188012 -0.132292,0.374666 0.643502,0.251824 4.691961,0.29027 7.055843,0.067 z m 12.641447,-0.6327 c 0,-0.186544 -1.343061,-0.217589 -4.167187,-0.09633 -2.291954,0.09841 -4.216797,0.222278 -4.277431,0.275257 -0.06063,0.05298 1.814601,0.09633 4.167188,0.09633 2.78581,0 4.27743,-0.09599 4.27743,-0.275257 z m -49.57166,-1.846144 c -1.483153,-0.449813 -2.551258,-1.926857 -2.551258,-3.528042 0,-0.877761 -0.120715,-0.98964 -3.108855,-2.881297 -1.70987,-1.082443 -3.518325,-2.215814 -4.01879,-2.518603 l -0.909936,-0.550526 -1.006255,0.574413 -1.006256,0.574414 -0.002,2.192121 c -0.0014,1.549847 0.119753,2.377998 0.413642,2.826529 0.689325,1.052043 -0.374902,2.296439 -1.571315,1.837332 -0.597017,-0.229097 -0.848565,-1.392269 -0.441911,-2.043425 0.456119,-0.730362 0.419855,-5.028732 -0.04373,-5.18326 -0.622702,-0.207568 -1.769314,-1.538326 -1.951748,-2.265198 -0.664489,-2.647537 2.502793,-4.83291 4.928051,-3.400275 0.731635,0.432187 0.798998,0.422821 2.15749,-0.299961 0.771251,-0.410342 1.835005,-1.206407 2.363897,-1.769033 0.528892,-0.562625 1.135517,-1.022956 1.348056,-1.022956 0.498496,0 1.262197,0.843991 1.262197,1.394893 0,0.616476 -1.047609,1.263714 -1.757175,1.085624 -0.596957,-0.149826 -3.155596,1.096847 -3.736637,1.820643 -0.278839,0.347346 -0.256262,2.050341 0.0334,2.519017 0.09391,0.151943 1.865147,1.314479 3.93609,2.583412 3.65515,2.239628 3.788699,2.296815 4.563068,1.953984 0.438744,-0.194242 1.415036,-0.358611 2.169536,-0.365265 1.149663,-0.01014 1.496457,0.107331 2.141451,0.72538 1.182669,1.13326 1.47574,2.412795 0.867555,3.7877 -0.743964,1.681852 -2.383187,2.466544 -4.078525,1.952379 z m 2.801205,-0.780048 c 1.473111,-1.158749 1.599012,-3.314234 0.266638,-4.564943 -1.072191,-1.006473 -2.213824,-1.158955 -3.611472,-0.482366 l -1.160039,0.561565 -2.738899,-1.639294 c -1.506395,-0.901612 -3.423509,-2.10143 -4.260254,-2.666263 l -1.521354,-1.026968 v -1.398451 c 0,-1.386266 -0.01005,-1.40347 -1.15346,-1.974516 -1.361029,-0.679731 -2.037155,-0.718402 -3.08517,-0.176452 -0.971386,0.502323 -1.317621,1.142052 -1.317621,2.434537 0,1.208423 0.464056,1.94614 1.67284,2.659339 l 0.890346,0.525318 1.355677,-0.644326 1.355676,-0.644326 1.265335,0.723229 c 0.695934,0.397776 2.615287,1.613367 4.265228,2.701314 2.749469,1.812959 2.988313,2.035542 2.861183,2.666381 -0.178752,0.886996 0.711868,2.772077 1.486252,3.145792 0.986164,0.475919 2.696925,0.376354 3.429094,-0.19957 z M 34.611545,66.96412 c 0.121432,-0.382599 0.0098,-0.728301 -0.352086,-1.09017 l -0.529906,-0.529906 -0.455132,0.694619 c -0.367408,0.560735 -0.391859,0.77086 -0.126855,1.09017 0.475625,0.573093 1.257737,0.485097 1.463979,-0.164713 z m 7.663047,-13.727237 c 0,-0.89461 -1.025476,-1.067544 -1.464623,-0.246991 -0.24488,0.457561 -0.23477,0.627584 0.04824,0.811321 0.676119,0.43895 1.416379,0.144007 1.416379,-0.56433 z m 23.953955,16.058505 c -1.24078,-0.427355 -2.125829,-1.788436 -2.125829,-3.269226 0,-2.491301 2.922679,-4.089852 5.113872,-2.797017 l 0.904091,0.533427 3.407164,-2.02865 c 5.269454,-3.137469 4.900057,-2.803807 4.808716,-4.343527 -0.07842,-1.321855 -0.08302,-1.327958 -1.666134,-2.210711 -1.174882,-0.655118 -1.781236,-0.844238 -2.332874,-0.727615 -0.511248,0.108084 -0.906008,0.01221 -1.256771,-0.305226 -0.695293,-0.629231 -0.642598,-1.340962 0.137106,-1.851844 0.806447,-0.528403 1.680085,-0.28941 1.997917,0.546552 0.139178,0.366067 0.953566,1.019647 1.999024,1.6043 1.718199,0.960871 1.783413,0.975209 2.502789,0.550264 0.990832,-0.585299 2.584697,-0.549544 3.619126,0.08119 0.948171,0.578137 1.583131,2.170253 1.305959,3.274595 -0.206064,0.821024 -1.414341,2.29332 -1.882072,2.29332 -0.887355,0 -0.951328,3.500863 -0.09128,4.995229 0.656267,1.140289 0.535336,1.751052 -0.434174,2.19279 -0.554571,0.252679 -0.75772,0.222906 -1.19805,-0.175588 -0.628815,-0.56907 -0.674027,-1.164941 -0.141781,-1.868632 0.265445,-0.35095 0.391125,-1.193448 0.396875,-2.660458 l 0.0084,-2.146866 -1.178945,-0.450244 -1.178946,-0.450243 -3.914284,2.368645 -3.914283,2.368646 -0.172539,1.377579 c -0.20394,1.6283 -1.140066,2.777646 -2.590546,3.180591 -1.112771,0.309128 -0.973562,0.314459 -2.122545,-0.08128 z m 3.352918,-1.075246 c 0.784821,-0.719236 0.978048,-1.090596 0.998849,-1.91968 0.01418,-0.565365 0.121401,-1.182639 0.238259,-1.37172 0.287359,-0.464957 4.43113,-3.191703 6.602735,-4.34483 l 1.757457,-0.933214 1.051659,0.52032 c 1.328663,0.65737 2.404423,0.454728 3.312017,-0.623887 0.773955,-0.919792 0.912339,-2.669534 0.282274,-3.569079 -0.866309,-1.236829 -2.987248,-1.437481 -4.323472,-0.409022 -0.45651,0.351363 -0.646656,0.829689 -0.760255,1.912474 -0.138633,1.321393 -0.244138,1.509505 -1.243316,2.216784 -1.2715,0.900045 -3.003611,1.9506 -5.565914,3.375824 l -1.828252,1.016925 -1.15701,-0.560099 c -1.421336,-0.688057 -2.760719,-0.516379 -3.67595,0.471173 -1.851565,1.997871 -0.524514,5.109773 2.179031,5.109773 0.947023,0 1.33668,-0.162989 2.131888,-0.891742 z m 12.909795,-1.6218 c 0,-0.669112 -0.103296,-0.79375 -0.657835,-0.79375 -0.424245,0 -0.690554,0.169901 -0.74998,0.478476 -0.154584,0.802686 0.172812,1.284396 0.81132,1.193727 0.467561,-0.06639 0.596495,-0.256275 0.596495,-0.878453 z M 74.856248,53.630389 c 0.200268,-0.52189 -0.36276,-1.187256 -1.004647,-1.187256 -0.564807,0 -0.888961,0.587106 -0.657369,1.190625 0.19835,0.516892 1.463357,0.514327 1.662016,-0.0034 z m -18.619674,9.79756 c -1.075157,-0.467401 -1.921164,-1.828598 -1.922451,-3.093161 -0.0011,-1.069977 0.794272,-2.228177 1.957734,-2.850843 l 0.687111,-0.36773 -0.0112,-4.916229 -0.0112,-4.916228 -0.933189,-0.595313 c -0.513254,-0.327422 -1.133293,-0.594195 -1.377864,-0.592829 -0.81599,0.0046 -3.203897,1.574743 -3.620754,2.380855 -0.462695,0.894753 -1.408298,1.064278 -2.096688,0.375888 -0.937157,-0.937156 -0.0014,-2.416931 1.360892,-2.151966 0.521117,0.10136 1.162962,-0.09378 2.192084,-0.666463 1.748456,-0.972974 2.116667,-1.389249 2.116667,-2.39297 0,-0.755896 0.71613,-1.626131 2.146966,-2.608972 l 0.627363,-0.430936 -1.387164,-1.302339 c -1.104316,-1.036786 -1.387165,-1.472387 -1.387165,-2.136302 0,-2.001302 1.580372,-3.417183 3.523356,-3.15663 2.901298,0.389063 3.54731,4.274639 0.93527,5.625378 -0.868872,0.449311 -1.003563,1.320169 -0.241588,1.56201 0.857669,0.272214 2.132962,1.931073 2.132962,2.774487 0,0.535548 0.21925,0.921 0.727604,1.27916 1.454549,1.024801 2.850437,1.590797 3.579558,1.451416 0.912511,-0.174437 1.513671,0.312658 1.513671,1.226464 0,0.855309 -0.436932,1.343437 -1.202534,1.343437 -0.583323,0 -1.443299,-0.746199 -1.443299,-1.252348 0,-0.341639 -2.727861,-1.922652 -3.317321,-1.922652 -0.228206,0 -0.848292,0.294484 -1.37797,0.654409 -0.947596,0.643909 -0.963956,0.685301 -1.019583,2.579687 -0.03109,1.058904 0.0084,3.270219 0.08776,4.914034 0.143547,2.973254 0.148282,2.990817 0.913029,3.386283 0.914896,0.473111 1.801297,1.828872 1.802676,2.757215 0.0015,1.034505 -0.874642,2.419565 -1.867409,2.951992 -1.067597,0.572558 -1.922001,0.597796 -3.087329,0.0912 z m 3.604829,-0.904511 c 0.692643,-0.647025 0.821732,-0.961954 0.821732,-2.004727 0,-1.008284 -0.136483,-1.367938 -0.737852,-1.944368 -0.405818,-0.388988 -0.966546,-0.83625 -1.24606,-0.993915 -0.469191,-0.264654 -0.512312,-0.660375 -0.561656,-5.154364 -0.04987,-4.541817 0.09895,-5.803764 0.684447,-5.803764 0.13031,0 0.652698,-0.267891 1.160861,-0.595313 0.750181,-0.483359 0.898433,-0.719705 0.788334,-1.256771 -0.367927,-1.794754 -0.692798,-2.384347 -1.626259,-2.951418 -0.536446,-0.325888 -1.050061,-0.701286 -1.141365,-0.834217 -0.312905,-0.455561 0.101124,-1.262717 0.845034,-1.647408 2.194488,-1.134814 2.041318,-3.923295 -0.268048,-4.879865 -1.728725,-0.716062 -3.453687,0.523838 -3.453687,2.482504 0,1.085926 0.103657,1.276129 1.190625,2.184722 0.654844,0.547382 1.190625,1.206658 1.190625,1.465058 0,0.261137 -0.474651,0.769453 -1.06861,1.144403 -1.109251,0.70024 -1.397413,1.189512 -1.647382,2.797105 -0.141129,0.907621 -0.08968,0.986628 1.115371,1.712919 l 1.263324,0.761411 0.159495,2.617996 c 0.08772,1.439897 0.0861,3.735336 -0.0036,5.100975 l -0.1631,2.482981 -1.140423,0.93449 c -1.356226,1.111326 -1.701057,2.261311 -1.053537,3.513475 0.602332,1.164783 1.418227,1.635703 2.833942,1.635703 0.998838,0 1.393772,-0.147321 2.057795,-0.767612 z M 50.712952,48.320452 c 0.333806,-0.869887 0.169682,-1.168986 -0.641455,-1.168986 -0.835451,0 -1.224825,0.485776 -0.954349,1.190625 0.201869,0.526063 1.391823,0.509927 1.595804,-0.02164 z m 15.602113,0.02164 c 0.263287,-0.686114 -0.118975,-1.190625 -0.902123,-1.190625 -0.911031,0 -1.164956,0.341013 -0.783984,1.052866 0.335494,0.626876 1.463063,0.719002 1.686107,0.137759 z M 52.217654,62.861015 c -0.302694,-0.384814 -0.550353,-0.868392 -0.550353,-1.074618 0,-0.206227 -0.354098,-0.498396 -0.786884,-0.649266 -0.795635,-0.27736 -1.272894,-0.93624 -2.930587,-4.045823 -0.460188,-0.863244 -1.104446,-1.994338 -1.431684,-2.513542 -0.327238,-0.519204 -1.285904,-2.194164 -2.130371,-3.722133 -0.844466,-1.527969 -2.290473,-4.097144 -3.21335,-5.709277 -1.767135,-3.086932 -2.04953,-4.080307 -1.159944,-4.080307 0.333057,0 0.745589,0.401494 1.155394,1.12448 0.350559,0.618463 1.23564,2.196041 1.966847,3.505729 0.731207,1.309687 2.33081,4.167187 3.554674,6.35 1.223863,2.182813 2.516487,4.534297 2.872497,5.225521 0.532609,1.034106 0.775202,1.256771 1.36925,1.256771 0.762212,0 1.718955,1.064328 1.408415,1.56679 -0.09081,0.14693 0.07752,0.742735 0.374069,1.324012 0.296546,0.581277 0.539174,1.233177 0.539174,1.448668 0,0.708207 -0.477096,0.704985 -1.037147,-0.007 z m -0.418062,-3.009548 c 0,-0.550889 -0.141733,-0.675168 -0.847889,-0.743473 -0.774396,-0.07491 -0.960123,-0.29277 -2.142743,-2.513541 -0.71217,-1.337341 -2.185907,-4.038872 -3.274971,-6.003403 -5.330316,-9.615208 -5.118036,-9.260417 -5.540752,-9.260417 -0.515065,0 -0.144271,0.899398 1.708043,4.143036 1.067126,1.868674 3.160055,5.540714 4.650953,8.160089 3.481332,6.116389 4.14613,7.064661 4.87948,6.96012 0.407762,-0.05813 0.567879,-0.267456 0.567879,-0.742411 z m 10.188203,3.241146 c 9.58e-4,-0.254662 0.238299,-0.820209 0.527423,-1.256771 0.289124,-0.436563 0.526464,-1.177222 0.527423,-1.645911 10e-4,-0.498594 0.318215,-1.321922 0.7645,-1.984375 0.828606,-1.22996 5.481583,-8.713119 9.094326,-14.625965 1.244783,-2.037292 2.504503,-4.001823 2.799378,-4.365625 0.502583,-0.620063 0.564471,-0.633676 0.9889,-0.21753 0.426114,0.417798 0.189689,0.87393 -4.01661,7.749196 -2.458157,4.017897 -5.105121,8.274282 -5.882144,9.458633 -1.148323,1.750293 -1.383996,2.297231 -1.259054,2.921943 0.190503,0.952512 -0.204781,1.733537 -1.037615,2.050179 -0.349005,0.132692 -0.879967,0.722305 -1.179915,1.310252 -0.555908,1.089668 -1.329765,1.443153 -1.326612,0.605974 z m 2.982718,-3.571981 c -0.04813,-0.819969 0.230707,-1.440271 1.605628,-3.571875 0.915131,-1.41877 2.299127,-3.651145 3.075547,-4.960832 0.77642,-1.309688 2.447369,-4.048125 3.713219,-6.085417 3.099687,-4.988713 3.31083,-5.375298 3.066363,-5.614256 -0.27021,-0.26412 -0.519017,0.08322 -3.263497,4.555922 -1.250096,2.037292 -3.543695,5.72823 -5.096887,8.202084 -1.553192,2.473854 -3.050102,4.914636 -3.326468,5.423959 -0.276366,0.509323 -0.723639,1.183803 -0.993941,1.498844 -0.699426,0.815195 -0.374919,1.735075 0.57339,1.625393 0.636091,-0.07357 0.699207,-0.178383 0.646646,-1.073822 z M 25.461388,56.213446 c -2.101529,-1.877877 -0.716734,-5.357813 2.132072,-5.357813 1.069671,0 2.577491,1.368305 2.796957,2.538162 0.529099,2.820341 -2.798192,4.723717 -4.929029,2.819651 z m 3.88656,-0.366372 c 0.476647,-0.447787 0.623519,-0.867528 0.623519,-1.781938 0,-1.602567 -0.968709,-2.680336 -2.409112,-2.680336 -1.374442,0 -1.731478,0.184352 -2.375648,1.226642 -0.885533,1.432821 -0.254963,3.256452 1.345176,3.890298 0.715254,0.283327 2.180109,-0.05722 2.816065,-0.654666 z m 57.062803,0.577978 c -1.046765,-0.638258 -1.405949,-1.287276 -1.405949,-2.540444 0,-0.784664 0.206797,-1.18136 1.061283,-2.035846 1.004184,-1.004184 1.12828,-1.053732 2.306521,-0.920927 1.72403,0.194323 2.717613,1.291566 2.717613,3.001139 0,1.026609 -0.138174,1.351083 -0.899583,2.112493 -1.06817,1.068169 -2.430422,1.206412 -3.779885,0.383585 z m 3.515301,-0.648169 c 1.534045,-1.534044 1.014702,-3.699188 -1.050818,-4.380871 -1.043672,-0.344443 -1.895345,-0.08667 -2.711229,0.820612 -1.208637,1.344025 -1.000289,3.022249 0.487848,3.929565 1.29284,0.788244 2.221382,0.683511 3.274199,-0.369306 z"
         id="path370" /><path
         style="fill:#dbdbdb"
         d="m 56.958968,109.67153 c -0.218282,-0.0794 -0.724297,-0.44949 -1.12448,-0.82236 -0.595394,-0.55477 -0.727604,-0.90507 -0.727604,-1.92785 0,-1.07089 0.116586,-1.348 0.814051,-1.93487 0.447727,-0.37674 0.923977,-0.68498 1.058333,-0.68498 0.134356,0 0.244283,-0.40701 0.244283,-0.90446 0,-0.74228 -0.160474,-1.00365 -0.894911,-1.45755 -0.898964,-0.55559 -1.330779,-1.32434 -1.57132,-2.797367 -0.113968,-0.697916 0.02709,-0.918774 1.168307,-1.82927 l 1.297924,-1.03552 0.04332,-2.007188 c 0.02382,-1.103954 0.01397,-3.257345 -0.02189,-4.785314 -0.05833,-2.48514 -0.12417,-2.81998 -0.624267,-3.175 -1.390394,-0.987042 -1.570082,-1.245349 -1.706163,-2.452654 -0.170691,-1.514364 0.271421,-2.300556 1.665797,-2.962231 1.928969,-0.915356 4.082793,0.433843 4.082793,2.557544 0,1.341498 -0.343517,1.954963 -1.396906,2.494645 -0.468629,0.240093 -0.915135,0.533357 -0.992234,0.651698 -0.230398,0.353639 -0.306133,5.504604 -0.114747,7.804228 0.177962,2.138329 0.179067,2.140853 1.332322,3.042708 1.067426,0.834735 1.145759,0.979419 1.041771,1.92418 -0.131716,1.196681 -0.689451,2.141191 -1.523852,2.580601 -1.308071,0.68885 -1.356758,1.81789 -0.111577,2.58745 2.043608,1.26302 1.996523,3.84551 -0.08978,4.92438 -0.793941,0.41057 -1.176714,0.45387 -1.849161,0.20918 z m 2.434229,-1.149 c 0.689113,-0.68912 0.783744,-0.94333 0.652415,-1.75261 -0.180705,-1.11356 -0.710034,-1.76741 -1.794436,-2.21659 -0.719446,-0.298 -0.869465,-0.25845 -1.766809,0.46578 -0.802637,0.6478 -0.995361,0.99037 -1.061898,1.88758 -0.166335,2.24291 2.328435,3.25813 3.970728,1.61584 z m -0.361587,-7.09084 c 1.379322,-1.27338 1.530041,-2.592053 0.410833,-3.594474 -1.818864,-1.62907 -1.738688,-1.58456 -2.003123,-1.11204 -0.133135,0.237898 -0.392465,0.432542 -0.57629,0.432542 -0.183825,0 -0.654158,0.333937 -1.045186,0.742082 -1.163022,1.213933 -0.831307,2.66402 0.886916,3.87715 0.503617,0.35557 0.985152,0.65232 1.07008,0.65946 0.08493,0.007 0.650474,-0.44499 1.25677,-1.00472 z m 0.744459,-16.327438 c 1.496988,-1.496987 0.21491,-4.086118 -2.023351,-4.086118 -0.861949,0 -1.26588,0.166841 -1.872436,0.773398 -1.218054,1.218054 -0.925738,2.929097 0.687595,4.024764 0.984596,0.668671 1.08601,0.685963 1.814301,0.30935 0.424275,-0.219402 1.051527,-0.679029 1.393891,-1.021394 z M 49.197856,96.187579 c -0.09701,-0.09701 -0.176389,-0.441463 -0.176389,-0.765442 0,-0.627905 0.554299,-0.985531 1.164553,-0.751354 0.401293,0.15399 0.746278,1.119494 0.526861,1.474518 -0.161606,0.261484 -1.265027,0.292276 -1.515025,0.04228 z m 1.085894,-0.66697 c -0.163532,-0.490597 -0.733116,-0.571966 -0.733116,-0.104731 0,0.230408 0.188516,0.418923 0.418924,0.418923 0.230408,0 0.371794,-0.141386 0.314192,-0.314192 z m 14.239971,0.617815 c -0.230551,-0.373038 0.09858,-1.073625 0.640676,-1.363746 0.568105,-0.304041 1.145656,0.257954 1.008428,0.981267 -0.09832,0.518238 -1.381297,0.815801 -1.649104,0.382479 z m 1.166497,-0.568206 c 0,-0.145521 -0.112036,-0.264583 -0.248968,-0.264583 -0.136933,0 -0.322554,0.119062 -0.41249,0.264583 -0.08994,0.145521 0.0221,0.264583 0.248968,0.264583 0.22687,0 0.41249,-0.119062 0.41249,-0.264583 z M 25.817253,91.997522 c -1.572367,-1.101328 -1.213273,-3.763893 0.610394,-4.52587 1.734049,-0.724532 3.709991,0.247382 3.630486,1.78574 -0.02527,0.488877 -0.0551,1.102639 -0.0663,1.363915 -0.0112,0.261276 -0.312608,0.767292 -0.669795,1.124479 -0.765395,0.765395 -2.584853,0.89608 -3.504782,0.251736 z m 3.240198,-0.516319 c 0.891697,-0.891697 0.926338,-2.830777 0.06139,-3.436607 -1.604405,-1.123769 -3.909879,-0.04053 -3.909879,1.83708 0,2.01985 2.42166,3.026352 3.848485,1.599527 z m 57.339422,0.509339 c -0.584202,-0.409191 -1.229953,-2.125896 -0.96247,-2.558692 0.07985,-0.129196 -0.0585,-0.545747 -0.307429,-0.925668 -0.420514,-0.641786 -0.421046,-0.678654 -0.0075,-0.519962 0.245458,0.09419 0.93044,-0.0768 1.527133,-0.381206 1.32035,-0.673592 2.395082,-0.524091 3.441854,0.47878 1.675414,1.605149 0.444042,4.311424 -1.961725,4.311424 -0.633659,0 -1.412097,-0.182104 -1.729862,-0.404676 z m 3.192618,-0.400539 c 0.398055,-0.31311 0.76089,-0.932892 0.862161,-1.472714 0.148415,-0.791119 0.06239,-1.049477 -0.568829,-1.708327 -0.854512,-0.891918 -2.040676,-1.025689 -3.30366,-0.372575 -0.689744,0.356681 -0.780611,0.542873 -0.780611,1.599527 0,2.188191 2.110382,3.276015 3.790939,1.954089 z m -48.931889,-0.89602 c -0.263438,-0.686506 0.105802,-1.253909 0.755911,-1.161593 0.437286,0.06209 0.596496,0.261252 0.596496,0.746161 0,0.484909 -0.15921,0.684067 -0.596496,0.746161 -0.35779,0.05081 -0.66029,-0.08154 -0.755911,-0.330729 z m 1.087823,-0.415432 c 0.08994,-0.145521 -0.02913,-0.264583 -0.264583,-0.264583 -0.235458,0 -0.35452,0.119062 -0.264583,0.264583 0.08994,0.145521 0.208999,0.264584 0.264583,0.264584 0.05558,0 0.174647,-0.119063 0.264583,-0.264584 z m 31.52203,0.396875 c -0.246972,-0.643597 0.106724,-1.190625 0.769831,-1.190625 0.74535,0 1.004956,0.352893 0.780306,1.060701 -0.199136,0.627422 -1.323081,0.721625 -1.550137,0.129924 z m 1.154013,-0.396875 c 0,-0.145521 -0.178593,-0.264583 -0.396875,-0.264583 -0.218281,0 -0.396875,0.119062 -0.396875,0.264583 0,0.145521 0.178594,0.264584 0.396875,0.264584 0.218282,0 0.396875,-0.119063 0.396875,-0.264584 z M 32.6173,88.369125 c -1.151274,-0.584149 -1.19321,-0.64834 -1.268829,-1.942168 -0.08862,-1.516264 0.448193,-2.446837 1.800714,-3.121563 0.71097,-0.354679 0.880489,-0.343934 1.832784,0.116165 0.577144,0.278846 1.237276,0.506992 1.466961,0.506992 0.448186,0 3.946962,-2.078883 6.751057,-4.011305 1.63362,-1.125797 1.728368,-1.249637 1.904531,-2.48932 0.139972,-0.985003 0.384207,-1.482823 0.997008,-2.032188 1.631571,-1.462671 4.439176,-0.630803 4.985396,1.477128 0.318361,1.228594 0.08858,1.973594 -0.919699,2.981873 -1.090945,1.090946 -2.482654,1.208972 -4.003754,0.339546 l -0.97846,-0.559266 -2.116667,1.250597 c -1.164167,0.687828 -3.039401,1.847881 -4.167187,2.577895 l -2.050521,1.327299 v 1.394819 c 0,1.316864 -0.0524,1.425734 -0.937493,1.947954 -1.451596,0.856463 -1.995487,0.895333 -3.295841,0.235542 z m 2.725119,-0.37645 c 1.124966,-0.57632 1.245265,-0.803304 1.199596,-2.263432 -0.03813,-1.219178 -0.0621,-1.252018 -1.303166,-1.785912 -0.939586,-0.404199 -1.429693,-0.48102 -1.908188,-0.299097 -1.012915,0.38511 -1.771694,1.543663 -1.771694,2.705137 0,0.874214 0.127599,1.10434 0.859896,1.55083 1.047393,0.638608 1.810401,0.662742 2.923556,0.09247 z m 14.631548,-8.403291 c 1.427225,-1.427225 1.13613,-3.439268 -0.618008,-4.271661 -1.995024,-0.946701 -3.781408,0.216356 -3.97735,2.589522 -0.113795,1.378235 -0.105436,1.396546 0.904105,1.980332 1.514817,0.875973 2.60517,0.78789 3.691253,-0.298193 z m 30.332516,8.844387 c -1.231484,-0.560134 -1.734619,-1.429309 -1.599748,-2.763597 0.07064,-0.698799 -0.09573,-0.918597 -1.37485,-1.816451 -1.805778,-1.26753 -6.609051,-4.158506 -6.909238,-4.158506 -0.121947,0 -0.611553,0.23768 -1.088013,0.528178 -1.665509,1.015461 -3.773113,0.453273 -4.566182,-1.217997 -0.497284,-1.047947 -0.501335,-1.468651 -0.02512,-2.608397 0.686158,-1.642208 2.911228,-2.223052 4.591501,-1.19859 0.952192,0.580552 1.382468,1.432571 1.382468,2.737523 0,0.790911 0.204248,0.986411 2.844271,2.722454 1.564349,1.028695 3.466173,2.202505 4.226275,2.608467 l 1.382005,0.738113 1.292207,-0.537017 1.292207,-0.537017 0.939496,0.536919 c 1.115957,0.637766 1.426553,1.204836 1.629049,2.97424 l 0.151399,1.322916 -1.123767,0.453825 c -0.618072,0.249604 -1.302361,0.515356 -1.520642,0.59056 -0.218281,0.0752 -0.903775,-0.09383 -1.523318,-0.375623 z m 2.740104,-0.434325 c 0.844076,-0.400541 0.899882,-0.507939 0.899882,-1.731818 0,-2.363618 -1.794895,-3.32997 -4.034896,-2.172345 -0.65971,0.340936 -0.727604,0.511542 -0.727604,1.828327 0,1.35456 0.05787,1.487588 0.859895,1.976591 1.044233,0.636681 1.816379,0.662202 3.002723,0.09925 z m -13.71074,-8.201172 1.178579,-0.690693 -0.129167,-1.344259 c -0.0994,-1.034511 -0.292305,-1.484585 -0.837162,-1.953251 -1.950448,-1.677705 -4.651629,-0.64764 -4.651629,1.773847 0,1.33907 0.327159,1.984525 1.263423,2.492616 1.050066,0.569851 1.848069,0.499934 3.175956,-0.27826 z m -19.245788,5.207777 c -0.359864,-0.672411 -0.131197,-1.202041 0.678205,-1.570829 0.904297,-0.412025 0.899037,-0.415631 0.899037,0.616312 0,0.635557 -0.156968,1.000739 -0.511773,1.190625 -0.687187,0.367771 -0.749697,0.353919 -1.065469,-0.236108 z m 1.048075,-0.69624 c 0,-0.436582 -0.418159,-0.510343 -0.661458,-0.116677 -0.215769,0.349122 0.100597,0.844569 0.415157,0.65016 0.135466,-0.08372 0.246301,-0.32379 0.246301,-0.533483 z m 12.834699,0.843843 c -0.409605,-0.299511 -0.452815,-0.507472 -0.249007,-1.198419 0.237761,-0.806056 0.267938,-0.82098 0.841913,-0.41635 0.387463,0.273146 0.595312,0.691565 0.595312,1.198419 0,0.855738 -0.397052,0.994864 -1.188218,0.41635 z m 0.659052,-0.695936 c 0,-0.145521 -0.178594,-0.264584 -0.396875,-0.264584 -0.218282,0 -0.396875,0.119063 -0.396875,0.264584 0,0.14552 0.178593,0.264583 0.396875,0.264583 0.218281,0 0.396875,-0.119063 0.396875,-0.264583 z M 33.435109,78.004415 c -0.181094,-0.218206 -0.290358,-0.671182 -0.242807,-1.006614 0.104108,-0.73439 0.950225,-0.826895 1.376865,-0.150531 0.228731,0.362615 0.174502,0.574587 -0.257524,1.006614 -0.480158,0.480158 -0.587648,0.498618 -0.876534,0.150531 z M 34.2048,77.159627 c 0,-0.467235 -0.569584,-0.385866 -0.733116,0.104731 -0.0576,0.172806 0.08378,0.314193 0.314193,0.314193 0.230408,0 0.418923,-0.188516 0.418923,-0.418924 z m 46.932863,0.566671 c -0.0805,-0.209781 -0.104899,-0.596735 -0.05422,-0.859896 0.125295,-0.650608 1.366979,-0.652892 1.492186,-0.0027 0.181986,0.94498 -1.109147,1.719534 -1.437968,0.862641 z m 0.956722,-0.544622 c 0,-0.218282 -0.119062,-0.396875 -0.264583,-0.396875 -0.145521,0 -0.264583,0.178593 -0.264583,0.396875 0,0.218281 0.119062,0.396875 0.264583,0.396875 0.145521,0 0.264583,-0.178594 0.264583,-0.396875 z M 42.00442,72.447807 c -0.427882,-0.312875 -0.450506,-0.432223 -0.150465,-0.79375 0.435862,-0.525182 1.311618,-0.535288 1.988822,-0.02295 0.557529,0.421796 0.549467,0.446048 -0.29402,0.884522 -0.744067,0.386792 -0.934024,0.37845 -1.544337,-0.06782 z m 1.145502,-0.44535 c -0.05214,-0.156435 -0.207918,-0.284427 -0.346163,-0.284427 -0.138245,0 -0.294018,0.127992 -0.346163,0.284427 -0.05215,0.156435 0.103628,0.284427 0.346163,0.284427 0.242535,0 0.398308,-0.127992 0.346163,-0.284427 z m 27.927643,0.152135 c -0.231592,-0.603519 0.09256,-1.190625 0.657369,-1.190625 0.641887,0 1.204915,0.665366 1.004647,1.187256 -0.198659,0.517696 -1.463666,0.520261 -1.662016,0.0034 z m 1.166603,-0.347265 c 0.0576,-0.172806 -0.08379,-0.314193 -0.314193,-0.314193 -0.230408,0 -0.418923,0.188515 -0.418923,0.418923 0,0.467235 0.569584,0.385866 0.733116,-0.10473 z M 46.44692,68.791255 c -0.782734,-0.377744 -1.665024,-2.258469 -1.483215,-3.16168 0.1093,-0.54299 0.0064,-0.776621 -0.449532,-1.020627 -0.478846,-0.256271 -0.521594,-0.366092 -0.224805,-0.577546 0.283554,-0.202025 0.260095,-0.226782 -0.103682,-0.109418 -0.29093,0.09386 -0.946521,-0.185561 -1.719791,-0.733002 -0.6873,-0.486577 -2.290333,-1.505736 -3.562296,-2.264797 l -2.31266,-1.380111 -1.366685,0.649558 -1.366685,0.649559 -0.890346,-0.525318 c -1.208784,-0.713199 -1.67284,-1.450916 -1.67284,-2.659339 0,-1.292485 0.346235,-1.932214 1.317621,-2.434537 1.048015,-0.54195 1.724141,-0.503279 3.08517,0.176452 1.143409,0.571046 1.15346,0.58825 1.15346,1.974516 v 1.398451 l 1.521354,1.026968 c 0.836745,0.564833 2.753859,1.764651 4.260254,2.666263 l 2.738899,1.639294 1.160039,-0.561565 c 1.397648,-0.676589 2.539281,-0.524107 3.611472,0.482366 1.332374,1.250709 1.206473,3.406194 -0.266638,4.564943 -0.732169,0.575924 -2.44293,0.675489 -3.429094,0.19957 z m 3.424256,-0.710628 c 1.815019,-1.62172 0.65768,-4.524994 -1.80381,-4.524994 -0.615825,0 -1.485765,0.20836 -1.933201,0.463021 -0.671235,0.382039 -0.813811,0.629649 -0.815192,1.415727 -0.0038,2.171753 1.003858,3.379615 2.838424,3.402326 0.580487,0.0072 1.131709,-0.236001 1.713779,-0.75608 z M 35.694925,59.565304 c 0.770512,-0.476203 0.891125,-0.693424 0.891125,-1.604894 0,-1.432742 -0.327067,-1.939373 -1.574134,-2.43835 -1.8051,-0.722258 -3.452949,0.236743 -3.452949,2.009516 0,0.794131 0.18152,1.219199 0.773397,1.811077 0.939533,0.939533 2.080393,1.015074 3.362561,0.222651 z m 29.934497,9.026381 c -2.048372,-1.611249 -1.298867,-4.971946 1.21398,-5.443359 0.697271,-0.130809 1.250369,-0.03018 2.103094,0.382612 l 1.15701,0.560099 1.828252,-1.016925 c 2.562303,-1.425224 4.294414,-2.475779 5.565914,-3.375824 0.999178,-0.707279 1.104683,-0.895391 1.243316,-2.216784 0.113599,-1.082785 0.303745,-1.561111 0.760255,-1.912474 1.336224,-1.028459 3.457163,-0.827807 4.323472,0.409022 0.630065,0.899545 0.491681,2.649287 -0.282274,3.569079 -0.908777,1.080021 -1.983202,1.281332 -3.31689,0.621476 l -1.056531,-0.52273 -1.51388,0.802665 c -0.832634,0.441466 -2.491863,1.43813 -3.687176,2.21481 -1.195312,0.776679 -2.326406,1.37422 -2.513541,1.327868 -0.187136,-0.04635 -0.243671,-0.03191 -0.125635,0.03209 0.118037,0.064 0.0043,0.348778 -0.252783,0.632834 -0.271632,0.30015 -0.478722,0.96793 -0.494438,1.59436 -0.02223,0.886191 -0.200101,1.236489 -1.000102,1.969636 -0.795208,0.728753 -1.184865,0.891742 -2.131888,0.891742 -0.751539,0 -1.391264,-0.182833 -1.820155,-0.520199 z m 3.192146,-0.118687 c 0.893412,-0.462002 1.309384,-1.265031 1.426534,-2.753912 l 0.09,-1.143839 -1.399525,-0.662081 c -1.233982,-0.583767 -1.509979,-0.625629 -2.333314,-0.353903 -1.1398,0.376167 -1.761713,1.262207 -1.761713,2.509912 0,2.168696 2.044093,3.403894 3.978018,2.403823 z M 83.261491,59.302 c 1.412786,-1.679002 0.554591,-3.967022 -1.509908,-4.025542 -1.067546,-0.03026 -2.235281,0.650026 -2.540456,1.479992 -0.658464,1.790781 0.447913,3.338395 2.396718,3.35256 0.761621,0.0055 1.115077,-0.166958 1.653646,-0.80701 z m -50.113925,7.826833 c -0.265004,-0.31931 -0.240553,-0.529435 0.126855,-1.09017 l 0.455132,-0.694619 0.529906,0.529906 c 0.361869,0.361869 0.473518,0.707571 0.352086,1.09017 -0.206242,0.64981 -0.988354,0.737806 -1.463979,0.164713 z m 1.006522,-0.418043 c -0.05215,-0.156435 -0.207918,-0.284427 -0.346163,-0.284427 -0.138245,0 -0.294018,0.127992 -0.346163,0.284427 -0.05215,0.156435 0.103628,0.284427 0.346163,0.284427 0.242535,0 0.398308,-0.127992 0.346163,-0.284427 z m 46.990696,0.450731 c -0.294136,-0.766506 0.0055,-1.356929 0.688641,-1.356929 0.554539,0 0.657835,0.124638 0.657835,0.79375 0,0.622178 -0.128934,0.812059 -0.596495,0.878453 -0.349828,0.04968 -0.659966,-0.0807 -0.749981,-0.315274 z m 0.949601,-0.563179 c 0,-0.218281 -0.119062,-0.396875 -0.264583,-0.396875 -0.145521,0 -0.264583,0.178594 -0.264583,0.396875 0,0.218281 0.119062,0.396875 0.264583,0.396875 0.145521,0 0.264583,-0.178594 0.264583,-0.396875 z m -26.13639,-3.720228 c -0.909353,-0.636936 -1.45302,-1.894483 -1.261161,-2.917175 0.114101,-0.608214 0.522242,-1.176534 1.306369,-1.819067 l 1.140423,-0.93449 0.1631,-2.482981 c 0.08971,-1.365639 0.09133,-3.661078 0.0036,-5.100975 L 57.150837,47.00543 55.887513,46.244019 c -1.205054,-0.726291 -1.2565,-0.805298 -1.115371,-1.712919 0.249969,-1.607593 0.538131,-2.096865 1.647382,-2.797105 0.593959,-0.37495 1.06861,-0.883266 1.06861,-1.144403 0,-0.2584 -0.535781,-0.917676 -1.190625,-1.465058 -1.086968,-0.908593 -1.190625,-1.098796 -1.190625,-2.184722 0,-1.958666 1.724962,-3.198566 3.453687,-2.482504 2.309366,0.95657 2.462536,3.745051 0.268048,4.879865 -0.74391,0.384691 -1.157939,1.191847 -0.845034,1.647408 0.0913,0.132931 0.604919,0.508329 1.141365,0.834217 0.933461,0.567071 1.258332,1.156664 1.626259,2.951418 0.110099,0.537066 -0.03815,0.773412 -0.788334,1.256771 -0.508163,0.327422 -1.030551,0.595313 -1.160861,0.595313 -0.585493,0 -0.734316,1.261947 -0.684447,5.803764 0.04934,4.493989 0.09246,4.88971 0.561656,5.154364 0.279514,0.157665 0.840242,0.604927 1.24606,0.993915 0.601369,0.57643 0.737852,0.936084 0.737852,1.944368 0,1.042773 -0.129089,1.357702 -0.821732,2.004727 -0.664023,0.620291 -1.058957,0.767612 -2.057795,0.767612 -0.691872,0 -1.49562,-0.1818 -1.825613,-0.412936 z m 3.667159,-0.625045 c 0.578788,-0.578788 0.773397,-1.022125 0.773397,-1.76187 0,-0.84026 -0.187577,-1.160688 -1.251004,-2.137019 -0.688052,-0.631701 -1.326366,-1.148547 -1.418474,-1.148547 -0.09211,0 -0.719782,0.514337 -1.39483,1.14297 -1.039487,0.968016 -1.227359,1.29513 -1.227359,2.13702 0,1.436739 1.149728,2.540844 2.645834,2.540844 0.861949,0 1.265879,-0.166841 1.872436,-0.773398 z m -1.25973,-15.663833 c 1.185204,-0.610418 1.768544,-1.362263 1.768544,-2.27941 0,-1.174699 -0.370154,-1.825042 -1.317621,-2.314996 -1.08548,-0.561324 -1.697386,-0.500077 -2.601103,0.260352 -1.820483,1.531835 -1.037163,3.957538 1.488722,4.610118 0.04595,0.01187 0.343603,-0.112358 0.661458,-0.276064 z M 59.0724,38.724843 c 0.735285,-0.613843 0.902818,-0.939341 0.902818,-1.754079 0,-1.28341 -1.025954,-2.254715 -2.381573,-2.254715 -2.385475,0 -3.089391,3.193813 -0.958754,4.350067 1.034009,0.561137 1.421564,0.506876 2.437509,-0.341273 z m -8.83476,21.34739 c -0.675852,-0.964914 -0.538317,-1.214637 0.569765,-1.034524 0.836836,0.136024 0.992187,0.264141 0.992187,0.818246 0,0.901315 -0.986461,1.037907 -1.561952,0.216278 z m 1.114366,-0.24061 c -0.05215,-0.156435 -0.207919,-0.284427 -0.346164,-0.284427 -0.138244,0 -0.294018,0.127992 -0.346163,0.284427 -0.05214,0.156435 0.103629,0.284427 0.346163,0.284427 0.242535,0 0.398309,-0.127992 0.346164,-0.284427 z m 12.083236,0.265466 c -0.193621,-0.610044 0.426097,-1.480345 1.054114,-1.480345 0.413839,0 0.819233,1.311116 0.543393,1.757434 -0.306867,0.496522 -1.412859,0.304687 -1.597507,-0.277089 z m 1.145931,-0.265466 c -0.05215,-0.156435 -0.207919,-0.284427 -0.346163,-0.284427 -0.138245,0 -0.294019,0.127992 -0.346164,0.284427 -0.05215,0.156435 0.103629,0.284427 0.346164,0.284427 0.242534,0 0.398308,-0.127992 0.346163,-0.284427 z M 26.531883,56.50174 c -1.600139,-0.633846 -2.230709,-2.457477 -1.345176,-3.890298 0.64417,-1.04229 1.001206,-1.226642 2.375648,-1.226642 1.440403,0 2.409112,1.077769 2.409112,2.680336 0,0.91441 -0.146872,1.334151 -0.623519,1.781938 -0.635956,0.597449 -2.100811,0.937993 -2.816065,0.654666 z m 2.579688,-0.966249 c 0.993119,-0.898786 0.71974,-2.877603 -0.483512,-3.499829 -1.083601,-0.560352 -1.871755,-0.476719 -2.694192,0.285887 -1.721609,1.596366 -0.247095,4.374924 2.053225,3.869074 0.291041,-0.064 0.797057,-0.358811 1.124479,-0.655132 z m 57.540282,0.610698 c -1.488137,-0.907316 -1.696485,-2.58554 -0.487848,-3.929565 0.815884,-0.907278 1.667557,-1.165055 2.711229,-0.820612 2.06552,0.681683 2.584863,2.846827 1.050818,4.380871 -1.052817,1.052817 -1.981359,1.15755 -3.274199,0.369306 z m 3.247662,-0.840798 c 0.859589,-1.021563 0.756806,-2.149213 -0.278975,-3.060695 -1.502342,-1.322053 -3.82645,-0.253195 -3.817936,1.755871 0.0063,1.495211 0.718409,2.124556 2.419824,2.138687 0.769137,0.0064 1.114592,-0.165374 1.677087,-0.833863 z M 40.858213,53.801213 c -0.564791,-0.366673 0.105924,-1.412349 0.838969,-1.30799 0.783187,0.111497 0.824527,1.373521 0.04824,1.47278 -0.291041,0.03721 -0.690287,-0.03694 -0.887212,-0.16479 z m 32.336019,-0.167455 c -0.231592,-0.603519 0.09256,-1.190625 0.657369,-1.190625 0.641887,0 1.204915,0.665366 1.004647,1.187256 -0.198659,0.517696 -1.463666,0.520261 -1.662016,0.0034 z m 0.962653,-0.396875 c 0,-0.145521 -0.119062,-0.264583 -0.264583,-0.264583 -0.145521,0 -0.264584,0.119062 -0.264584,0.264583 0,0.145521 0.119063,0.264583 0.264584,0.264583 0.145521,0 0.264583,-0.119062 0.264583,-0.264583 z M 49.117148,48.342091 c -0.270476,-0.704849 0.118898,-1.190625 0.954349,-1.190625 0.811137,0 0.975261,0.299099 0.641455,1.168986 -0.203981,0.531566 -1.393935,0.547702 -1.595804,0.02164 z m 1.161054,-0.551251 c -0.252136,-0.252137 -0.757632,0.156263 -0.569729,0.460296 0.111686,0.180711 0.259679,0.176146 0.449698,-0.01387 0.155775,-0.155775 0.209789,-0.356665 0.120031,-0.446423 z m 14.350756,0.413492 c -0.380972,-0.711853 -0.127047,-1.052866 0.783984,-1.052866 0.783148,0 1.16541,0.504511 0.902123,1.190625 -0.223044,0.581243 -1.350613,0.489117 -1.686107,-0.137759 z m 1.325843,-0.274731 c 0,-0.136932 -0.178593,-0.248968 -0.396875,-0.248968 -0.409154,0 -0.525648,0.312198 -0.227679,0.610168 0.211384,0.211384 0.624554,-0.02757 0.624554,-0.3612 z"
         id="path369" /><path
         style="fill:#dadada"
         d="m 56.056417,108.66569 c -0.593346,-0.54989 -0.701385,-0.84967 -0.633948,-1.759 0.06654,-0.89721 0.259261,-1.23978 1.061898,-1.88758 0.897344,-0.72423 1.047363,-0.76378 1.766809,-0.46578 1.084402,0.44918 1.613731,1.10303 1.794436,2.21659 0.131329,0.80928 0.0367,1.06349 -0.652415,1.75261 -1.038789,1.03879 -2.311466,1.09339 -3.33678,0.14316 z m 0.648343,-6.88874 c -1.718223,-1.21313 -2.049938,-2.663217 -0.886916,-3.87715 0.391028,-0.408145 0.861361,-0.742082 1.045186,-0.742082 0.183825,0 0.443155,-0.194644 0.57629,-0.432542 0.264435,-0.47252 0.184259,-0.51703 2.003123,1.11204 1.119208,1.002421 0.968489,2.321094 -0.410833,3.594474 -0.606296,0.55973 -1.171843,1.01186 -1.25677,1.00472 -0.08493,-0.007 -0.566463,-0.30389 -1.07008,-0.65946 z m -7.154126,-6.361072 c 0,-0.467235 0.569584,-0.385866 0.733116,0.104731 0.0576,0.172806 -0.08378,0.314192 -0.314192,0.314192 -0.230408,0 -0.418924,-0.188515 -0.418924,-0.418923 z m 15.478126,0.15434 c 0.08994,-0.145521 0.275557,-0.264583 0.41249,-0.264583 0.136932,0 0.248968,0.119062 0.248968,0.264583 0,0.145521 -0.18562,0.264583 -0.41249,0.264583 -0.226869,0 -0.338905,-0.119062 -0.248968,-0.264583 z M 25.858398,91.481203 c -1.452854,-1.452854 -0.418953,-3.848485 1.660921,-3.848485 1.551011,0 2.187564,0.585292 2.187564,2.011404 0,0.908183 -0.152818,1.340467 -0.649432,1.837081 -0.883576,0.883576 -2.315477,0.883576 -3.199053,0 z m 60.589586,0 c -0.497938,-0.497938 -0.649432,-0.928392 -0.649432,-1.845289 0,-1.056654 0.09087,-1.242846 0.780611,-1.599527 1.262984,-0.653114 2.449148,-0.519343 3.30366,0.372575 0.631217,0.65885 0.717244,0.917208 0.568829,1.708327 -0.353551,1.884592 -2.687793,2.679789 -4.003668,1.363914 z M 41.216259,90.278551 c -0.08994,-0.145521 0.02913,-0.264583 0.264583,-0.264583 0.235458,0 0.35452,0.119062 0.264583,0.264583 -0.08994,0.145521 -0.208999,0.264584 -0.264583,0.264584 -0.05558,0 -0.174646,-0.119063 -0.264583,-0.264584 z m 32.411459,0 c 0,-0.145521 0.178594,-0.264583 0.396875,-0.264583 0.218282,0 0.396875,0.119062 0.396875,0.264583 0,0.145521 -0.178593,0.264584 -0.396875,0.264584 -0.218281,0 -0.396875,-0.119063 -0.396875,-0.264584 z m -41.208855,-2.37835 c -0.732297,-0.44649 -0.859896,-0.676616 -0.859896,-1.55083 0,-1.161474 0.758779,-2.320027 1.771694,-2.705137 0.478495,-0.181923 0.968602,-0.105102 1.908188,0.299097 1.24107,0.533894 1.265034,0.566734 1.303166,1.785912 0.04567,1.460128 -0.07463,1.687112 -1.199596,2.263432 -1.113155,0.570268 -1.876163,0.546134 -2.923556,-0.09247 z m 47.625001,0 c -0.802023,-0.489003 -0.859895,-0.622031 -0.859895,-1.976591 0,-1.316785 0.06789,-1.487391 0.727604,-1.828327 1.390143,-0.718421 2.521839,-0.645509 3.385464,0.218116 0.513933,0.513934 0.649432,0.921667 0.649432,1.954229 0,1.223879 -0.05581,1.331277 -0.899882,1.731818 -1.186344,0.562957 -1.95849,0.537436 -3.002723,-0.09925 z M 56.567877,85.816296 c -1.613333,-1.095667 -1.905649,-2.80671 -0.687595,-4.024764 1.643059,-1.64306 4.518269,-0.541013 4.518269,1.731818 0,1.044867 -0.665478,1.90372 -2.016373,2.602296 -0.728291,0.376613 -0.829705,0.359321 -1.814301,-0.30935 z m -6.088534,-1.089679 c -0.195142,-0.315747 0.05254,-0.798066 0.409823,-0.798066 0.321946,0 0.324034,0.716127 0.0027,0.914743 -0.135466,0.08372 -0.321086,0.03122 -0.41249,-0.116677 z m 13.358792,-0.268899 c 0,-0.145521 0.178593,-0.264584 0.396875,-0.264584 0.218281,0 0.396875,0.119063 0.396875,0.264584 0,0.14552 -0.178594,0.264583 -0.396875,0.264583 -0.218282,0 -0.396875,-0.119063 -0.396875,-0.264583 z M 46.282714,79.887577 c -1.009541,-0.583786 -1.0179,-0.602097 -0.904105,-1.980332 0.195942,-2.373166 1.982326,-3.536223 3.97735,-2.589522 1.754138,0.832393 2.045233,2.844436 0.618008,4.271661 -1.086083,1.086083 -2.176436,1.174166 -3.691253,0.298193 z m 19.877177,0.188957 c -0.936264,-0.508091 -1.263423,-1.153546 -1.263423,-2.492616 0,-2.421487 2.701181,-3.451552 4.651629,-1.773847 0.544857,0.468666 0.737759,0.91874 0.837162,1.953251 l 0.129167,1.344259 -1.178579,0.690693 c -1.327887,0.778194 -2.12589,0.848111 -3.175956,0.27826 z M 33.471684,77.264358 c 0.163532,-0.490597 0.733116,-0.571966 0.733116,-0.104731 0,0.230408 -0.188515,0.418924 -0.418923,0.418924 -0.230408,0 -0.371795,-0.141387 -0.314193,-0.314193 z m 48.093535,-0.08268 c 0,-0.218282 0.119062,-0.396875 0.264583,-0.396875 0.145521,0 0.264583,0.178593 0.264583,0.396875 0,0.218281 -0.119062,0.396875 -0.264583,0.396875 -0.145521,0 -0.264583,-0.178594 -0.264583,-0.396875 z M 42.457596,72.002457 c 0.05214,-0.156435 0.207918,-0.284427 0.346163,-0.284427 0.138245,0 0.294018,0.127992 0.346163,0.284427 0.05215,0.156435 -0.103628,0.284427 -0.346163,0.284427 -0.242535,0 -0.398308,-0.127992 -0.346163,-0.284427 z m 29.053456,-0.0904 c 0,-0.230408 0.188515,-0.418923 0.418923,-0.418923 0.467235,0 0.385866,0.569584 -0.104731,0.733116 -0.172806,0.0576 -0.314192,-0.08378 -0.314192,-0.314193 z M 46.602134,68.446086 c -0.78805,-0.428112 -1.285646,-1.596018 -1.283161,-3.011705 0.0014,-0.786078 0.143957,-1.033688 0.815192,-1.415727 0.447436,-0.254661 1.317376,-0.463021 1.933201,-0.463021 0.902142,0 1.269496,0.156372 1.890774,0.804847 2.184703,2.280339 -0.550232,5.609852 -3.356006,4.085606 z m 19.698821,0.134092 c -1.331525,-0.536342 -1.902576,-2.769748 -1.043442,-4.080952 0.227679,-0.347482 0.834167,-0.770465 1.347751,-0.939963 0.823335,-0.271726 1.099332,-0.229864 2.333314,0.353903 l 1.399525,0.662081 -0.09,1.143839 c -0.11715,1.488881 -0.533122,2.29191 -1.426534,2.753912 -0.810537,0.419145 -1.656794,0.455129 -2.520614,0.10718 z M 33.461762,66.71079 c 0.05215,-0.156435 0.207918,-0.284427 0.346163,-0.284427 0.138245,0 0.294018,0.127992 0.346163,0.284427 0.05214,0.156435 -0.103628,0.284427 -0.346163,0.284427 -0.242535,0 -0.398308,-0.127992 -0.346163,-0.284427 z m 48.103457,-0.112448 c 0,-0.218281 0.119062,-0.396875 0.264583,-0.396875 0.145521,0 0.264583,0.178594 0.264583,0.396875 0,0.218281 -0.119062,0.396875 -0.264583,0.396875 -0.145521,0 -0.264583,-0.178594 -0.264583,-0.396875 z M 55.880282,62.253069 c -0.580337,-0.580337 -0.773398,-1.021538 -0.773398,-1.767446 0,-0.84189 0.187872,-1.169004 1.227359,-2.13702 0.675048,-0.628633 1.302721,-1.14297 1.39483,-1.14297 0.09211,0 0.730422,0.516846 1.418474,1.148547 1.063427,0.976331 1.251004,1.296759 1.251004,2.137019 0,1.430887 -1.152544,2.535268 -2.645833,2.535268 -0.861949,0 -1.26588,-0.166841 -1.872436,-0.773398 z M 32.332364,59.342653 c -2.021241,-2.021242 -0.0057,-4.895028 2.679552,-3.820593 1.247067,0.498977 1.574134,1.005608 1.574134,2.43835 0,0.91147 -0.120613,1.128691 -0.891125,1.604894 -1.282168,0.792423 -2.423028,0.716882 -3.362561,-0.222651 z m 18.327315,0.48897 c 0.05215,-0.156435 0.207919,-0.284427 0.346163,-0.284427 0.138245,0 0.294019,0.127992 0.346164,0.284427 0.05214,0.156435 -0.103629,0.284427 -0.346164,0.284427 -0.242534,0 -0.398308,-0.127992 -0.346163,-0.284427 z m 13.229167,0 c 0.05214,-0.156435 0.207919,-0.284427 0.346164,-0.284427 0.138244,0 0.294018,0.127992 0.346163,0.284427 0.05214,0.156435 -0.103629,0.284427 -0.346163,0.284427 -0.242535,0 -0.398309,-0.127992 -0.346164,-0.284427 z m 16.046181,-0.166539 c -0.767403,-0.47613 -1.110875,-1.856203 -0.7239,-2.908634 0.538049,-1.463299 2.918495,-1.959165 4.095761,-0.85318 1.459274,1.370917 0.308163,4.220328 -1.699043,4.20574 -0.532768,-0.0039 -1.285536,-0.203639 -1.672818,-0.443926 z M 26.928758,56.200731 c -1.741715,-0.349741 -2.329519,-2.641646 -0.994891,-3.879182 0.822437,-0.762606 1.610591,-0.846239 2.694192,-0.285887 1.203252,0.622226 1.476631,2.601043 0.483512,3.499829 -0.66549,0.602278 -1.392685,0.8239 -2.182813,0.66524 z m 59.795836,-0.369594 c -0.755773,-0.428571 -0.917409,-0.749493 -0.92199,-1.83057 -0.0085,-2.009066 2.315594,-3.077924 3.817936,-1.755871 1.035781,0.911482 1.138564,2.039132 0.278975,3.060695 -0.562495,0.668489 -0.90795,0.840252 -1.677087,0.833863 -0.532767,-0.0044 -1.206792,-0.143078 -1.497834,-0.308117 z M 73.627718,53.236883 c 0,-0.145521 0.119063,-0.264583 0.264584,-0.264583 0.145521,0 0.264583,0.119062 0.264583,0.264583 0,0.145521 -0.119062,0.264583 -0.264583,0.264583 -0.145521,0 -0.264584,-0.119062 -0.264584,-0.264583 z M 49.708473,48.251136 c -0.09156,-0.148146 -0.03754,-0.349036 0.120032,-0.446423 0.406792,-0.251412 0.669255,0.09296 0.329666,0.43255 -0.190019,0.190019 -0.338012,0.194584 -0.449698,0.01387 z m 15.621774,0.03966 c -0.297969,-0.29797 -0.181475,-0.610168 0.227679,-0.610168 0.218282,0 0.396875,0.112036 0.396875,0.248968 0,0.333634 -0.41317,0.572584 -0.624554,0.3612 z m -8.528861,-1.806464 c -1.174124,-0.515184 -1.756031,-1.513955 -1.543162,-2.648643 0.191435,-1.020437 1.423931,-2.240478 2.26335,-2.240478 0.747286,0 2.020893,0.712066 2.339967,1.308261 0.478477,0.894042 0.323861,2.256817 -0.322886,2.845889 -0.552024,0.502796 -1.641944,1.165731 -1.834689,1.115934 -0.04595,-0.01187 -0.452108,-0.183304 -0.90258,-0.380963 z m -0.166495,-7.418221 c -2.130637,-1.156254 -1.426721,-4.350067 0.958754,-4.350067 1.355619,0 2.381573,0.971305 2.381573,2.254715 0,0.814738 -0.167533,1.140236 -0.902818,1.754079 -1.015945,0.848149 -1.4035,0.90241 -2.437509,0.341273 z"
         id="path368" /><path
         style="fill:#a8a8a8"
         d="m 75.391232,104.96885 c -0.233733,-0.23373 -0.98747,-1.46178 -1.674972,-2.72899 -0.687501,-1.26721 -2.893674,-5.274984 -4.902605,-8.906167 -2.008932,-3.631183 -3.652604,-6.816105 -3.652604,-7.077604 0,-0.551777 0.347292,-0.620503 0.731334,-0.144725 0.331354,0.410504 9.737278,17.119666 10.16311,18.054266 0.404738,0.88831 -0.04064,1.42685 -0.664263,0.80322 z m -36.688515,-0.62091 c 0,-0.42974 8.593401,-14.333972 8.858992,-14.333972 0.185491,0 -0.174783,0.85268 -0.670749,1.5875 -0.245547,0.363802 -0.967963,1.510718 -1.605367,2.548703 -1.17528,1.91389 -1.40851,2.297094 -4.407034,7.240879 -1.802061,2.97113 -2.175842,3.47909 -2.175842,2.95689 z m 9.350691,-15.297038 c 0.704192,-1.336999 1.317794,-1.941564 0.719122,-0.708532 -0.295488,0.60859 -0.667849,1.187242 -0.827469,1.285892 -0.15962,0.09865 -0.110864,-0.161161 0.108347,-0.57736 z m 15.25556,-6.974434 c -0.155761,-0.291042 -0.22367,-0.529167 -0.15091,-0.529167 0.07276,0 0.259733,0.238125 0.415493,0.529167 0.155761,0.291041 0.22367,0.529166 0.15091,0.529166 -0.07276,0 -0.259732,-0.238125 -0.415493,-0.529166 z m -41.671877,-9.757977 -2.38125,-0.163899 3.704167,-0.170025 c 6.574974,-0.301797 17.859376,-0.288744 17.859376,0.02066 0,0.154911 -0.20836,0.284876 -0.463021,0.288812 -9.220013,0.14247 -16.859619,0.152449 -18.719272,0.02445 z M 44.258967,72.0223 c 0,-0.14552 0.595313,-0.264583 1.322917,-0.264583 0.727604,0 1.322917,0.119063 1.322917,0.264583 0,0.145521 -0.595313,0.264584 -1.322917,0.264584 -0.727604,0 -1.322917,-0.119063 -1.322917,-0.264584 z m 32.690212,-0.238728 c -0.476968,-0.186654 -0.467199,-0.214321 0.132292,-0.374666 0.962157,-0.257347 8.398742,-0.216804 8.561582,0.04668 0.296616,0.479935 -7.549221,0.77593 -8.693874,0.327989 z m 11.252672,-0.386764 c 0.06063,-0.05298 1.985477,-0.176845 4.277431,-0.275257 2.824126,-0.121263 4.167187,-0.09022 4.167187,0.09633 0,0.179269 -1.49162,0.275257 -4.27743,0.275257 -2.352587,0 -4.227822,-0.04335 -4.167188,-0.09633 z M 49.248957,58.614996 c -0.231239,-0.265826 -2.356968,-3.936134 -4.723842,-8.156238 -2.366874,-4.220104 -4.407055,-7.786026 -4.533736,-7.924271 -0.299537,-0.32688 -0.298184,-1.203854 0.0019,-1.203854 0.42267,0 0.254248,-0.281587 5.538819,9.260417 3.487723,6.297552 4.329033,7.932178 4.232141,8.222854 -0.0542,0.162609 -0.274863,0.07742 -0.51524,-0.198908 z m 15.129097,-0.170657 c -0.0059,-0.264597 1.200484,-2.407722 2.680884,-4.7625 2.443349,-3.886478 5.486158,-8.797641 7.810358,-12.606096 1.03284,-1.692421 1.328962,-2.025265 1.579195,-1.775033 0.221527,0.221528 -0.299474,1.165866 -3.299901,5.98121 -1.264448,2.029297 -3.429605,5.552104 -4.81146,7.828461 -2.751647,4.532841 -3.941162,6.135444 -3.959076,5.333958 z"
         id="path367" /></g></g></svg>
