<?xml version="1.0" encoding="UTF-8" standalone="no"?>
<!-- Created with Inkscape (http://www.inkscape.org/) -->

<svg
   width="76.046219mm"
   height="77.612885mm"
   viewBox="0 0 76.046219 77.612885"
   version="1.1"
   id="svg1"
   xml:space="preserve"
   xmlns="http://www.w3.org/2000/svg"
   xmlns:svg="http://www.w3.org/2000/svg"><defs
     id="defs1" /><g
     id="layer1"
     transform="translate(-110.83504,-142.35699)"><g
       id="g363"
       transform="translate(-2.5762082,115.19331)"><path
         style="fill:#e3e3e3"
         d="m 162.79226,104.63761 c -0.25664,-0.0669 -0.65297,-0.48207 -0.88074,-0.92252 -0.50049,-0.96785 -0.15999,-2.0656 0.84495,-2.72407 l 0.6347,-0.41587 v -5.358987 c 0,-4.329256 -0.0761,-5.467586 -0.39586,-5.924165 -0.21773,-0.310849 -0.37739,-1.036793 -0.3548,-1.61321 0.0254,-0.649321 -0.16455,-1.387783 -0.49941,-1.941089 -0.29725,-0.491182 -1.04665,-1.845558 -1.66533,-3.009725 -0.61868,-1.164166 -1.87615,-3.498663 -2.79439,-5.187771 -1.75366,-3.225904 -2.17043,-4.310169 -1.75534,-4.566709 0.42688,-0.263826 0.99414,0.611486 3.23511,4.99198 4.13739,8.087497 4.29521,8.352472 5.20138,8.73285 0.79245,0.332646 1.40989,1.076591 1.40989,1.698757 0,0.153965 -0.35402,0.595374 -0.78672,0.980909 l -0.78672,0.700973 0.0319,5.188047 0.0319,5.18805 0.75478,0.8691 c 0.92621,1.06649 0.96045,1.99199 0.10535,2.84709 -0.61373,0.61374 -1.26554,0.74416 -2.33073,0.46636 z m 2.01844,-0.62988 c 0.90025,-0.70814 0.88469,-1.55419 -0.0449,-2.44484 -0.89235,-0.85492 -1.09886,-0.87171 -2.00036,-0.16259 -0.91303,0.71819 -0.96961,2.1412 -0.10911,2.74392 0.78886,0.55254 1.32134,0.51881 2.15441,-0.13649 z m 0.008,-14.927077 c 0.58583,-0.542935 0.66135,-0.751239 0.42944,-1.184562 -0.31092,-0.580974 -1.079,-1.067075 -1.68605,-1.067075 -0.61442,0 -0.82543,1.488761 -0.32028,2.259711 0.5318,0.811632 0.6933,0.810805 1.57689,-0.0081 z m -6.14131,-11.040214 c -0.18986,-0.189855 -0.31309,-0.205476 -0.31309,-0.03969 0,0.150371 0.0794,0.352778 0.17639,0.449792 0.097,0.09701 0.2379,0.114873 0.31309,0.03969 0.0752,-0.07519 -0.004,-0.277592 -0.17639,-0.449792 z m -1.37731,-2.786944 c -0.003,-0.109141 -0.24853,-0.496094 -0.54509,-0.859896 l -0.53921,-0.661458 0.4196,0.859896 c 0.39872,0.817126 0.67754,1.094586 0.6647,0.661458 z m -17.69109,27.781255 c -0.30672,-0.25467 -0.6315,-0.84521 -0.72172,-1.31232 -0.13591,-0.70362 -0.0335,-0.97984 0.59706,-1.6104 0.4186,-0.418603 0.91555,-0.812582 1.10432,-0.875507 0.18878,-0.06293 0.58431,-1.124184 0.87896,-2.358353 1.58299,-6.630543 1.59788,-6.716837 1.31835,-7.642222 -0.45727,-1.51382 0.29937,-2.285402 1.57282,-1.603873 0.61084,0.326915 0.6564,1.10423 0.12113,2.066535 -0.21485,0.386255 -0.88096,2.711628 -1.48024,5.167497 l -1.0896,4.465215 0.5542,0.749588 c 0.70198,0.94948 0.70387,1.8323 0.006,2.71972 -0.65628,0.83433 -2.00523,0.94471 -2.8611,0.23412 z m 2.59652,-0.49871 c 0.72178,-0.91759 0.69172,-1.47314 -0.13271,-2.45292 l -0.68108,-0.809421 -1.00472,0.512572 c -1.08631,0.554199 -1.43745,1.296929 -1.07003,2.263329 0.49316,1.29711 2.04527,1.55849 2.88854,0.48644 z m 2.19722,-13.48705 c 0.26771,-0.587558 0.24332,-0.742555 -0.16368,-1.040161 -0.90214,-0.659657 -1.52212,0.107784 -1.05999,1.312089 0.2451,0.638706 0.87226,0.499335 1.22367,-0.271928 z m 7.9065,9.267883 c -0.73078,-0.929031 -0.7061,-1.468325 0.10194,-2.22744 l 0.66146,-0.621408 V 84.41726 c 0,-10.850486 0.0779,-11.903651 0.82547,-11.156108 0.14947,0.149471 0.24692,4.691884 0.24206,11.283164 -0.007,9.242166 0.0523,11.056145 0.36399,11.175762 0.20466,0.07854 0.51284,0.482532 0.68484,0.897766 0.49007,1.183151 -0.11885,2.226167 -1.36029,2.330023 -0.7796,0.06522 -1.06509,-0.05333 -1.51947,-0.630994 z m 2.35158,0.0207 c 0.54542,-0.657193 0.38249,-1.721265 -0.37876,-2.473641 l -0.7088,-0.700545 -0.77948,0.864071 c -0.91732,1.01688 -0.96831,1.460637 -0.2503,2.178638 0.62608,0.626084 1.65388,0.689906 2.11734,0.131477 z m 17.14353,-6.412453 c -0.52122,-0.119187 -0.82354,-0.866476 -0.59329,-1.466502 0.39425,-1.027405 1.96992,-0.650321 1.96992,0.471436 0,0.692321 -0.64902,1.161449 -1.37663,0.995066 z m 0.97975,-0.991443 c 0,-0.605385 -0.88824,-0.889764 -1.20059,-0.384379 -0.32724,0.529495 0.0264,1.077458 0.63895,0.990058 0.35707,-0.05095 0.56164,-0.271564 0.56164,-0.605679 z m 7.27604,0.740216 c -0.84417,-0.322098 -1.32291,-0.983785 -1.32291,-1.828425 0,-1.161109 0.27917,-0.882536 -9.7187,-9.697849 -1.21321,-1.069709 -1.50523,-1.215094 -1.95604,-0.973827 -0.70729,0.378529 -1.33788,-0.13109 -1.13962,-0.921 0.12067,-0.480792 -0.35881,-1.00719 -2.84683,-3.125407 -4.66971,-3.975631 -4.79605,-4.101182 -4.61134,-4.582517 0.15248,-0.397367 0.23294,-0.392772 0.93289,0.05328 0.42132,0.268485 1.66019,1.296056 2.75306,2.283492 3.28575,2.968766 3.18997,2.92308 8.75432,4.175533 2.22776,0.501436 2.75313,0.540869 3.51854,0.264092 1.02011,-0.368876 1.66788,-0.05833 1.66788,0.799584 0,0.870368 -0.88793,1.089484 -2.17655,0.537113 -0.63638,-0.272784 -1.80358,-0.584889 -2.59377,-0.693569 -0.79019,-0.108679 -1.9071,-0.363562 -2.48203,-0.566407 -0.57777,-0.20385 -1.14638,-0.267741 -1.27128,-0.142846 -0.20129,0.201291 5.00077,4.98496 9.88273,9.087887 1.65739,1.392919 1.85713,1.488434 2.83762,1.356923 0.88685,-0.118951 1.16321,-0.03298 1.73629,0.540103 0.80334,0.803332 0.89588,1.981237 0.21856,2.781698 -0.49698,0.587322 -1.53776,0.898267 -2.18282,0.652142 z m 1.98707,-0.87911 c 0.61129,-0.675468 0.3994,-1.826856 -0.45276,-2.46024 -0.58553,-0.435207 -0.87235,-0.486185 -1.5875,-0.282156 -0.81185,0.231618 -0.8785,0.336707 -0.95376,1.503762 -0.0768,1.190777 -0.0378,1.272876 0.76512,1.610472 0.97778,0.411126 1.61681,0.304521 2.2289,-0.371838 z M 167.06775,78.649584 c 0.2031,-0.128606 0.29614,-0.424439 0.20674,-0.657407 -0.17319,-0.451311 -0.70832,-0.58778 -0.70832,-0.180634 0,0.133619 -0.0723,0.431275 -0.1606,0.661458 -0.17756,0.462728 0.0953,0.535503 0.66218,0.176583 z m 8.6408,-0.310289 c 0.29222,-0.472836 -0.32251,-0.850304 -1.07656,-0.661048 -0.58091,0.145797 -0.6481,0.244309 -0.38385,0.562712 0.37637,0.453498 1.20636,0.509386 1.46041,0.09834 z m -9.40696,-1.66843 c 0,-0.375973 -0.76202,-0.809695 -1.00162,-0.570096 -0.16889,0.168897 0.46209,0.938663 0.76943,0.938663 0.12771,0 0.23219,-0.165855 0.23219,-0.368567 z m -4.88718,-3.852447 c -0.0857,-0.138745 -0.53926,-0.516232 -1.0078,-0.838861 l -0.8519,-0.586596 0.77711,0.83886 c 0.71868,0.775795 1.44162,1.167514 1.08259,0.586597 z m -4.5849,18.455598 c -0.78994,-0.789935 0.0862,-2.026545 1.06473,-1.502839 0.77994,0.417415 0.42836,1.820339 -0.45619,1.820339 -0.16008,0 -0.43392,-0.142875 -0.60854,-0.3175 z m 1.20393,-0.674548 c 0.14466,-0.434479 -0.68434,-0.744628 -1.03992,-0.389054 -0.15216,0.152164 -0.19259,0.41269 -0.0898,0.578948 0.23377,0.378253 0.98248,0.252406 1.12975,-0.189894 z m -21.89435,-0.06629 c -0.67582,-0.675816 -0.66912,-1.182967 0.0248,-1.876878 0.43052,-0.430518 0.7496,-0.517259 1.43189,-0.38926 1.33312,0.250093 3.51242,-0.892797 4.40274,-2.30892 0.38503,-0.612416 1.9641,-3.673328 3.50904,-6.802026 2.61903,-5.303854 3.53556,-6.879167 4.00233,-6.879167 0.58273,0 -1.40695,4.574002 -3.85562,8.863542 -0.5815,1.018646 -1.23017,2.226314 -1.4415,2.683706 -0.21132,0.457392 -0.79717,1.536205 -1.30188,2.397362 -0.80086,1.366455 -1.10888,1.646575 -2.42005,2.200841 -0.85857,0.362942 -1.67978,0.922946 -1.91636,1.306805 -0.87345,1.417215 -1.5867,1.65268 -2.43538,0.803995 z m 2.06859,-1.019949 c 0.11243,-0.750943 -1.05845,-1.3411 -1.66388,-0.838637 -0.5461,0.453219 -0.51254,1.506594 0.0583,1.830148 0.59635,0.338012 1.48904,-0.213265 1.60557,-0.991511 z m 8.50633,-11.2676 c -0.005,-0.154088 -0.18322,-0.04904 -0.39688,0.233431 -0.21365,0.282475 -0.38467,0.639662 -0.38004,0.79375 0.005,0.154087 0.18322,0.04904 0.39687,-0.233431 0.21365,-0.282475 0.38467,-0.639663 0.38005,-0.79375 z m 1.30181,-2.595264 c 0.26242,-0.786703 0.25336,-0.81618 -0.10641,-0.346305 -0.21628,0.282474 -0.39324,0.669428 -0.39324,0.859895 0,0.590009 0.20016,0.38427 0.49965,-0.51359 z m 0.82327,-1.653646 c 0.18985,-0.228757 0.21556,-0.396875 0.0607,-0.396875 -0.14777,0 -0.3372,0.178594 -0.42097,0.396875 -0.0838,0.218281 -0.11107,0.396875 -0.0607,0.396875 0.0504,0 0.23981,-0.178594 0.42097,-0.396875 z m -24.04674,15.324315 c -0.75262,-0.956797 -0.71738,-2.093625 0.0899,-2.900924 0.79531,-0.795312 1.69767,-0.828279 2.62857,-0.09603 l 0.70354,0.5534 2.30871,-2.051862 c 1.26979,-1.128525 2.34366,-2.137252 2.38638,-2.241617 0.0427,-0.104365 -0.22367,-0.265385 -0.59197,-0.357822 -0.99779,-0.250429 -1.62314,-1.333082 -1.24692,-2.158776 0.48941,-1.074157 1.42673,-1.342601 2.46936,-0.707218 l 0.87936,0.53588 1.43664,-0.640594 c 1.11634,-0.497767 2.41965,-1.612612 5.84549,-5.000193 4.0059,-3.961152 5.28557,-4.940246 5.28557,-4.044033 0,0.173561 -1.54781,1.821927 -3.43958,3.663035 -1.89177,1.841108 -3.43958,3.417198 -3.43958,3.502423 0,0.452234 3.10674,-0.938597 3.59976,-1.611548 0.37876,-0.516996 1.16274,-0.220353 1.16274,0.439961 0,0.378025 -0.4163,0.659356 -1.65365,1.117508 -0.9095,0.336764 -2.18942,0.877807 -2.84427,1.202318 -0.65484,0.324511 -1.5013,0.667511 -1.88101,0.762222 -0.88105,0.219755 -9.67635,8.178122 -10.55489,9.550516 -0.54288,0.848041 -0.83487,1.048487 -1.6233,1.11435 -0.7811,0.06525 -1.06628,-0.05307 -1.52087,-0.630994 z m 2.34047,0.159396 c 0.26617,-0.142449 0.62077,-0.648465 0.78801,-1.12448 0.28334,-0.806467 0.24887,-0.915092 -0.50551,-1.593085 -0.97013,-0.871899 -1.30574,-0.898985 -2.22076,-0.179234 -0.86165,0.677777 -0.9108,1.703634 -0.12185,2.543432 0.61596,0.655664 1.28184,0.769881 2.06011,0.353367 z m 6.67267,-8.338886 c 0.63476,-1.393136 -1.47512,-2.341654 -2.32924,-1.047137 -0.30381,0.460445 -0.29616,0.628654 0.0511,1.124479 0.5873,0.838483 1.88084,0.794567 2.27811,-0.07734 z m 2.74563,-1.037776 c 0.28225,-0.206383 0.42457,-0.463848 0.31627,-0.572145 -0.24981,-0.249818 -1.52205,0.316176 -1.52205,0.677132 0,0.386322 0.60604,0.333554 1.20578,-0.104987 z m 1.81529,-1.108273 c 0.44583,-0.171082 0.58572,-0.897734 0.17283,-0.897734 -0.24513,0 -1.07724,0.72992 -1.07724,0.94494 0,0.161804 0.41637,0.140072 0.90441,-0.04721 z m 5.97476,-2.749818 c 0,-0.14552 -0.11906,-0.264583 -0.26458,-0.264583 -0.14552,0 -0.26459,0.119063 -0.26459,0.264583 0,0.145521 0.11907,0.264584 0.26459,0.264584 0.14552,0 0.26458,-0.119063 0.26458,-0.264584 z m 0.68546,-4.429822 c -0.18349,-0.183488 -0.68546,0.189321 -0.68546,0.509084 0,0.175444 0.15181,0.155372 0.40327,-0.05332 0.2218,-0.184076 0.34878,-0.389171 0.28219,-0.455766 z m 10.57063,13.179355 c -0.19567,-0.316601 0.30206,-0.630298 0.65448,-0.41249 0.2959,0.182876 0.10164,0.658791 -0.2689,0.658791 -0.12835,0 -0.30186,-0.110835 -0.38558,-0.246301 z m -7.54137,-0.66703 c -0.70286,-0.846888 0.32946,-2.147828 1.24622,-1.570498 0.91607,0.576901 0.58971,1.954662 -0.46302,1.954662 -0.25541,0 -0.60785,-0.172874 -0.7832,-0.384164 z m 1.32339,-0.290573 c 0.28119,-0.338818 0.26382,-0.486732 -0.0999,-0.850446 -0.41067,-0.410668 -0.46992,-0.410668 -0.88058,0 -0.36372,0.363714 -0.38109,0.511628 -0.0999,0.850446 0.18722,0.225585 0.4303,0.410154 0.54019,0.410154 0.10988,0 0.35297,-0.184569 0.54019,-0.410154 z m 36.81185,-6.964231 c -0.38899,-0.41789 -0.88584,-0.996602 -1.10412,-1.286025 -0.26036,-0.34521 -1.98962,-1.044504 -5.02709,-2.032899 -2.54661,-0.828671 -5.04692,-1.670806 -5.55625,-1.871411 -0.50932,-0.200605 -2.53338,-0.865478 -4.49791,-1.477496 -9.33184,-2.90718 -9.7102,-3.06285 -9.05603,-3.725926 0.27452,-0.278255 0.81189,-0.176939 2.91042,0.548725 4.18033,1.445547 19.41524,6.645529 20.58193,7.025029 0.96664,0.314428 1.13981,0.299721 1.71979,-0.146065 2.11563,-1.626102 4.47033,1.104728 2.6361,3.057177 -0.82773,0.881081 -1.73128,0.849502 -2.60684,-0.09111 z m 2.33546,-0.03395 c 1.10243,-1.10243 0.49445,-3.175 -0.93137,-3.175 -0.77129,0 -1.97905,0.968137 -1.97905,1.586404 0,0.686484 1.26762,2.117763 1.87561,2.117763 0.2781,0 0.74377,-0.238125 1.03481,-0.529167 z m -23.8125,-9.026207 c -1.97618,-0.733933 -2.98964,-1.03693 -3.09982,-0.926757 -0.0507,0.05069 0.23909,0.214387 0.64394,0.363783 0.40485,0.149395 1.21234,0.451507 1.79442,0.671359 0.58208,0.219852 1.29646,0.407007 1.5875,0.415898 0.29104,0.0089 -0.12568,-0.227035 -0.92604,-0.524283 z m -45.12349,8.376776 c -1.69284,-1.692847 0.48356,-4.031901 2.46209,-2.646085 0.44214,0.30969 0.71073,0.34052 1.10912,0.127312 0.28912,-0.154736 1.84056,-0.752359 3.44764,-1.328052 1.60708,-0.575693 3.24783,-1.218756 3.64611,-1.429029 l 0.72415,-0.382315 -0.66146,-0.248132 c -3.14502,-1.179786 -5.24987,-1.698383 -7.11332,-1.75259 -1.07284,-0.03121 -1.63906,-0.703028 -1.19268,-1.415115 0.41647,-0.664367 1.38603,-0.722742 2.04804,-0.12331 0.59823,0.541677 2.01793,1.124302 4.33974,1.780968 0.76398,0.216075 2.01414,0.574322 2.77812,0.796106 1.31875,0.382833 1.54307,0.369281 4.43177,-0.267732 1.67349,-0.369037 3.97187,-0.924439 5.10751,-1.234227 2.55741,-0.697627 4.02062,-0.77964 4.02062,-0.225355 0,0.47501 -1.26212,0.916576 -4.49792,1.573639 -1.30969,0.265946 -3.27422,0.745381 -4.36563,1.065411 -1.0914,0.320029 -2.52015,0.679003 -3.175,0.79772 -0.65484,0.118717 -2.79796,0.833191 -4.7625,1.587721 -1.96453,0.754529 -3.85352,1.437741 -4.19775,1.518247 -0.34424,0.08051 -0.86383,0.549661 -1.15465,1.042566 -0.90986,1.542104 -1.94947,1.806781 -2.994,0.762252 z m 2.14072,-0.264584 c 0.80693,-0.806929 0.82927,-1.575853 0.0614,-2.11369 -0.79145,-0.554349 -1.42211,-0.518403 -2.0578,0.117289 -0.67032,0.670317 -0.66631,1.077208 0.0192,1.948693 0.68212,0.867171 1.14653,0.878377 1.9772,0.04771 z m 12.82027,-5.593366 c 0.6509,-0.396776 0.64456,-0.400896 -0.39688,-0.258119 -0.58208,0.0798 -1.38575,0.146403 -1.78593,0.148005 -0.40019,0.0016 -0.72761,0.121974 -0.72761,0.267495 0,0.410827 2.17086,0.293438 2.91042,-0.157381 z m 8.86354,-2.099998 0.79375,-0.381428 -1.19063,0.156009 c -0.65484,0.08581 -1.30373,0.262818 -1.44197,0.393362 -0.40336,0.380883 0.95489,0.256833 1.83885,-0.167943 z m -19.4574,-0.11177 c 0.33065,-0.209145 0.3152,-0.323002 -0.10715,-0.789698 -0.58511,-0.646539 -1.01999,-0.69046 -1.46983,-0.148445 -0.65371,0.787674 0.61842,1.54446 1.57698,0.938143 z m 42.86201,4.869412 c -0.2808,-0.338343 -0.26564,-0.484917 0.0866,-0.837168 0.35225,-0.35225 0.49883,-0.367415 0.83717,-0.08661 0.52804,0.438238 0.52426,0.968951 -0.008,1.173338 -0.55387,0.21254 -0.5255,0.220275 -0.91542,-0.249555 z m -15.00409,-0.830978 c -0.1819,-0.06923 -0.33073,-0.27333 -0.33073,-0.453545 0,-0.180214 -0.59424,-0.596225 -1.32053,-0.924468 -2.56721,-1.160236 -4.03069,-4.006206 -3.45233,-6.713653 0.56356,-2.638218 2.30562,-4.316094 5.13788,-4.948582 2.86204,-0.639138 6.024,1.294201 6.88394,4.209089 0.52059,1.76464 0.52229,1.972215 0.0297,3.631007 -0.64598,2.175265 -3.20481,4.302168 -5.19585,4.318806 -0.38243,0.0032 -0.85868,0.23113 -1.05833,0.506519 -0.19965,0.27539 -0.51183,0.444062 -0.69373,0.374827 z m 2.945,-1.428163 c 0.62668,-0.174004 1.51828,-0.776596 2.28813,-1.546452 1.03276,-1.032752 1.31693,-1.529014 1.56795,-2.738188 0.78444,-3.778611 -1.88358,-7.07751 -5.71241,-7.063171 -1.92141,0.0072 -3.38276,0.639006 -4.54825,1.966422 -1.12923,1.286127 -1.41465,2.062625 -1.41465,3.8486 0,1.800352 0.36276,2.784198 1.45088,3.934913 1.60701,1.699467 3.91597,2.278805 6.36835,1.597876 z m 20.27219,-3.541619 c 0,-0.374658 1.26356,-1.19742 1.83894,-1.19742 0.55713,0 0.25783,0.691411 -0.4907,1.133579 -0.94244,0.556711 -1.34824,0.575927 -1.34824,0.06384 z m 2.64583,-1.144503 c 0,-0.479255 0.7224,-0.865832 2.18094,-1.167089 1.24229,-0.256591 1.67452,-0.489441 2.2088,-1.189923 0.82666,-1.083801 1.70994,-1.140316 2.48199,-0.158807 0.70662,0.898318 0.60597,1.598352 -0.32991,2.294523 -0.7222,0.537225 -0.74914,0.538133 -1.64535,0.0555 -0.86478,-0.465719 -0.98979,-0.468597 -2.45813,-0.0566 -1.70346,0.477967 -2.43834,0.544996 -2.43834,0.222403 z m 6.8699,-0.829343 c 0.33976,-0.634854 -0.0308,-1.72664 -0.66919,-1.971613 -0.72602,-0.278597 -1.35583,0.05831 -1.71073,0.915121 -0.28962,0.699218 -0.26909,0.841003 0.16998,1.173412 0.73038,0.552949 1.8841,0.491909 2.20994,-0.11692 z m -13.43774,0.100992 c 0.11967,-0.574704 0.58924,-0.60987 0.69664,-0.05217 0.0558,0.289614 -0.074,0.463021 -0.34651,0.463021 -0.25419,0 -0.40004,-0.171142 -0.35013,-0.410851 z m -35.77997,-0.532636 c -0.80071,-0.964799 -1.89992,-1.245855 -5.06324,-1.294618 -2.49381,-0.03844 -3.20707,-0.135978 -3.60093,-0.492416 -0.38157,-0.345319 -1.01774,-0.445666 -2.85156,-0.449799 -1.29823,-0.0029 -3.12389,-0.115678 -4.05702,-0.25056 -1.56737,-0.226559 -1.7822,-0.195079 -2.82026,0.413263 -1.31762,0.772176 -2.22494,0.665774 -3.02795,-0.355089 -0.70509,-0.896384 -0.6614,-1.806595 0.12445,-2.592446 1.13084,-1.130839 2.81972,-0.747369 3.46026,0.785674 l 0.36073,0.863346 3.2549,0.223173 c 1.79019,0.122746 4.20739,0.242288 5.37156,0.265649 1.16416,0.02336 2.59291,0.184088 3.175,0.35717 1.76425,0.524599 3.87886,0.830094 5.6253,0.81268 1.83399,-0.01829 2.12206,0.227153 1.66809,1.421208 -0.30302,0.796983 -1.08372,0.93813 -1.61933,0.292765 z m 1.2051,-0.53377 c 0,-0.356535 -0.21605,-0.531978 -0.7276,-0.590838 -0.83781,-0.0964 -0.90971,0.105414 -0.2839,0.796928 0.53309,0.589053 1.0115,0.491577 1.0115,-0.20609 z m -8.05305,-1.321033 c 0.28684,-0.345624 0.28106,-0.458203 -0.0337,-0.657407 -0.91136,-0.576681 -1.90737,-0.04715 -1.29629,0.689162 0.41534,0.500451 0.89791,0.488929 1.33004,-0.03176 z m -11.61309,-0.550009 c 1.03,-0.932139 0.0866,-3.001701 -1.36823,-3.001701 -1.55311,0 -2.34221,2.179501 -1.12558,3.108854 0.61117,0.466857 1.92176,0.410545 2.49381,-0.107153 z m 44.3382,1.606123 c -0.50107,-0.501078 -0.0704,-0.830184 1.45555,-1.112266 2.21811,-0.410035 6.59972,-0.822763 11.53401,-1.086453 l 4.05953,-0.216942 3.40905,-3.401483 c 3.39498,-3.387443 3.40838,-3.405664 3.24705,-4.414566 -0.22007,-1.376225 0.61525,-2.313615 2.06169,-2.313615 1.85329,0 2.69406,1.794912 1.53249,3.271611 -0.43083,0.547709 -0.77761,0.69714 -1.61785,0.69714 -1.01803,0 -1.24017,0.169223 -4.61782,3.517711 l -3.54835,3.517711 -6.54162,0.706873 c -8.31096,0.898065 -10.72631,1.081692 -10.97373,0.834279 z m 8.86388,-0.961103 c 2.10606,-0.306783 2.94564,-0.878601 0.92604,-0.630702 -0.61846,0.07592 -2.40622,0.210358 -3.97279,0.298762 -1.56657,0.0884 -3.3525,0.328399 -3.96875,0.533322 -1.05864,0.352036 -0.95261,0.364995 1.92227,0.234949 1.67349,-0.0757 3.96545,-0.27205 5.09323,-0.436331 z m 3.43959,-0.64695 c -0.18191,-0.0734 -0.47956,-0.0734 -0.66146,0 -0.1819,0.0734 -0.0331,0.133453 0.33073,0.133453 0.3638,0 0.51263,-0.06005 0.33073,-0.133453 z m 14.66732,-7.808392 c 0.7526,-0.707033 0.78558,-1.632744 0.0832,-2.33513 -1.20109,-1.201081 -3.38993,-0.214726 -3.07027,1.383551 0.0879,0.439594 0.15985,0.962973 0.15985,1.163064 0,0.623014 2.10668,0.465428 2.82722,-0.211485 z m -48.73243,8.777371 c -0.0899,-0.145521 0.0221,-0.264583 0.24897,-0.264583 0.22687,0 0.41249,0.119062 0.41249,0.264583 0,0.145521 -0.11204,0.264583 -0.24897,0.264583 -0.13693,0 -0.32255,-0.119062 -0.41249,-0.264583 z m 2.87262,-2.632069 c -1.18496,-0.417205 -2.37558,-0.875874 -2.64584,-1.019265 -0.5054,-0.268157 -3.74157,-1.392965 -5.38616,-1.872089 -0.50932,-0.148383 -3.36682,-1.095098 -6.35,-2.103811 -4.16889,-1.409643 -5.56569,-1.780175 -6.03649,-1.601311 -0.3369,0.127991 -0.84291,0.232711 -1.12448,0.232711 -0.70122,0 -1.57028,-0.926281 -1.57028,-1.673671 0,-0.761038 1.02598,-1.765912 1.80299,-1.765912 0.70335,0 1.6366,0.879425 1.6366,1.542206 0,0.394879 0.93674,0.787316 5.09323,2.133739 2.80127,0.907427 5.68854,1.87074 6.41614,2.140697 0.72761,0.269956 3.32801,1.157769 5.77869,1.972916 4.6901,1.560032 5.99527,2.112117 5.99527,2.535987 0,0.457714 -1.40296,0.254753 -3.60967,-0.522197 z m 1.68593,-0.173617 c -0.0879,-0.08792 -0.31612,-0.09732 -0.50712,-0.02089 -0.21106,0.08446 -0.14837,0.147157 0.15985,0.159852 0.27892,0.01149 0.43519,-0.05105 0.34727,-0.138964 z m -22.30286,-6.71276 c 0.48118,-0.182944 0.67868,-0.452432 0.67868,-0.926041 0,-0.736826 -0.8341,-1.726341 -1.4552,-1.726341 -0.56363,0 -1.45521,0.963441 -1.45521,1.572497 0,0.28279 0.26461,0.699509 0.58804,0.926042 0.69195,0.484663 0.75745,0.490793 1.64369,0.153843 z m 21.27467,4.246859 c -1.65066,-1.298647 -3.95369,-3.144143 -5.11786,-4.101103 -2.09075,-1.718621 -8.46881,-6.842037 -10.70382,-8.598239 -0.98545,-0.774339 -1.33347,-0.897035 -2.40558,-0.848115 -1.07972,0.04927 -1.33074,-0.04107 -1.81109,-0.651727 -1.12794,-1.433939 -0.26494,-3.283391 1.53211,-3.283391 1.30282,0 2.14359,0.857675 2.14359,2.186697 0,0.810482 0.17707,1.107383 1.12448,1.885407 1.15155,0.945672 9.75449,7.743928 12.36927,9.774502 5.33275,4.141283 6.35,5.02099 6.35,5.491412 0,0.278153 -0.10798,0.505733 -0.23996,0.505733 -0.13197,0 -1.59049,-1.062529 -3.24114,-2.361176 z M 125.98579,44.153835 c 0.067,-0.06697 0.1896,-0.539823 0.27252,-1.050794 0.36404,-2.243293 -2.95021,-2.921702 -3.48116,-0.712575 -0.11357,0.472544 0.0129,0.894842 0.42456,1.418245 0.51203,0.650944 0.71774,0.727703 1.6243,0.606107 0.57092,-0.07657 1.09282,-0.194018 1.15978,-0.260983 z m 32.47167,15.813942 c -0.10396,-0.270898 0.13803,-0.736687 0.66538,-1.280777 0.50715,-0.523245 0.82875,-1.128515 0.82875,-1.559753 0,-0.90251 0.94368,-1.783649 1.91026,-1.783649 0.62954,0 1.92391,-1.159405 7.94114,-7.113161 l 7.189,-7.113161 -0.0643,-1.090158 c -0.11301,-1.915342 1.79422,-3.080011 3.30774,-2.019901 0.7733,0.541638 0.96458,1.54737 0.50396,2.649778 -0.38673,0.925589 -0.52591,0.991741 -2.18255,1.037376 -0.736,0.02028 -1.75729,0.930646 -8.13594,7.252363 -6.15879,6.103825 -7.29428,7.346797 -7.29428,7.984748 0,0.954957 -0.62147,1.587116 -1.56028,1.587116 -0.44282,0 -0.98039,0.26905 -1.37016,0.685753 -0.95596,1.022012 -1.54091,1.27885 -1.73869,0.763426 z m 4.12562,-2.093353 c 0.17327,-0.208776 0.27714,-0.774322 0.23083,-1.256771 -0.07,-0.729627 -0.20389,-0.891002 -0.79577,-0.959353 -0.93284,-0.107725 -1.80197,0.761403 -1.80197,1.801965 0,0.745475 0.0624,0.79375 1.02594,0.79375 0.5684,0 1.16643,-0.169285 1.34097,-0.379591 z m 17.75313,-16.964716 c 0.49178,-0.592569 0.41928,-1.877036 -0.14091,-2.496029 -0.65501,-0.723779 -1.76062,-0.675854 -2.49725,0.108249 -0.50625,0.538876 -0.57303,0.812489 -0.41974,1.719791 l 0.18229,1.078962 h 1.26727 c 0.82299,0 1.38683,-0.144075 1.60834,-0.410973 z m -16.68045,18.977928 c 0,-0.353322 1.19107,-1.369038 1.60539,-1.369038 0.20937,0 0.9756,-0.426695 1.70274,-0.948212 0.72714,-0.521517 1.89616,-1.242225 2.59782,-1.601573 2.05226,-1.051044 3.87379,-2.478279 4.04781,-3.171596 0.30319,-1.208034 1.65736,-1.409855 2.23373,-0.332908 0.39857,0.744737 -0.13618,1.556373 -1.02543,1.556373 -0.78919,0 -1.49932,0.413886 -3.01953,1.759889 -1.11521,0.987409 -4.43299,2.738027 -5.18913,2.738027 -0.27467,0 -0.94885,0.357188 -1.4982,0.79375 -1.00676,0.800077 -1.4552,0.97736 -1.4552,0.575288 z m 6.74687,-3.485704 c 0.0899,-0.145521 -0.0151,-0.264584 -0.23335,-0.264584 -0.21828,0 -0.47046,0.119063 -0.5604,0.264584 -0.0899,0.14552 0.0151,0.264583 0.23335,0.264583 0.21829,0 0.47046,-0.119063 0.5604,-0.264583 z m 5.02708,-3.439584 c 0,-0.529167 -0.13229,-0.661458 -0.66145,-0.661458 -0.52917,0 -0.67858,0.149411 -0.74706,0.747055 -0.0779,0.679562 -0.0181,0.739322 0.66146,0.661459 0.59764,-0.06848 0.74705,-0.217889 0.74705,-0.747056 z m -3.28857,6.096985 c -0.4381,-0.27076 -0.18299,-1.069901 0.34155,-1.069901 0.20728,0 0.44206,0.169888 0.52174,0.37753 0.192,0.500351 -0.4025,0.977153 -0.86329,0.692371 z m -24.04552,-1.148666 c -0.31411,-0.334363 -0.79808,-1.267595 -1.07547,-2.073849 -0.27739,-0.806254 -0.63272,-1.693545 -0.78962,-1.971756 -0.1569,-0.278211 -0.63422,-1.339276 -1.06071,-2.357922 -1.47221,-3.516255 -3.2253,-7.033854 -3.54782,-7.118706 -1.6695,-0.439237 -1.9146,-0.594489 -1.99238,-1.262057 -0.0797,-0.684328 0.0915,-0.935729 1.12312,-1.648991 0.57892,-0.400266 0.54715,-0.638052 -0.84854,-6.351179 -0.65373,-2.675977 -0.76935,-2.924961 -1.5806,-3.403606 -1.58443,-0.934838 -1.7859,-1.953741 -0.61736,-3.122273 0.91293,-0.912938 1.79674,-0.984923 2.76279,-0.225027 0.85935,0.675965 0.92044,1.805991 0.16381,3.030243 -0.44403,0.718451 -0.48442,0.989501 -0.24125,1.61873 0.36007,0.931672 0.88628,3.289333 1.58596,7.105782 0.69107,3.769414 0.25136,2.68103 5.71273,14.140343 1.54765,3.247348 1.83113,4.248199 1.20323,4.248199 -0.12472,0 -0.48377,-0.273569 -0.79789,-0.607931 z m 0.0592,-1.768337 c -0.39829,-0.731802 -0.75788,-1.296845 -0.79907,-1.25565 -0.20204,0.202044 0.43668,2.147921 0.85778,2.61323 0.76347,0.84363 0.73103,0.09343 -0.0587,-1.35758 z m -1.43238,-2.915398 c -0.1691,-0.315969 -0.36699,-0.514957 -0.43975,-0.442197 -0.0728,0.07276 0.006,0.390812 0.17517,0.70678 0.1691,0.315968 0.36699,0.514956 0.43975,0.442196 0.0728,-0.07276 -0.006,-0.390811 -0.17517,-0.706779 z m -4.54275,-10.410381 c -0.25703,-1.205139 -0.31067,-1.265833 -0.97202,-1.099845 -1.29399,0.324772 -1.80859,1.287197 -1.0326,1.931211 0.24815,0.205952 1.74245,0.507455 2.22921,0.449785 0.0261,-0.0031 -0.075,-0.579611 -0.22459,-1.281151 z m -1.83314,-11.654773 c 0.78025,-0.830537 0.65433,-1.919759 -0.30431,-2.63234 -0.9178,-0.682228 -2.01563,-0.376091 -2.53465,0.706807 -0.30357,0.633372 -0.29232,0.827445 0.081,1.397139 0.40304,0.61512 1.20781,1.106041 1.87787,1.145526 0.15654,0.0092 0.5526,-0.268485 0.88013,-0.617132 z m 14.04881,26.558428 c 0,-0.293595 0.59531,-1.493651 1.32292,-2.66679 0.7276,-1.17314 1.32291,-2.183621 1.32291,-2.245515 0,-0.06189 0.5138,-0.856134 1.14178,-1.764981 0.62798,-0.908846 1.77947,-2.701271 2.55887,-3.983168 1.3652,-2.245384 1.42036,-2.410071 1.50644,-4.497917 0.09,-2.183356 -0.38359,-9.993287 -0.62063,-10.234432 -0.0701,-0.07135 -0.91063,0.702552 -1.86776,1.719792 -0.95713,1.01724 -2.61523,2.75454 -3.68468,3.860667 -1.10682,1.144794 -1.94443,2.240684 -1.94443,2.544006 0,0.293077 -0.23813,0.835594 -0.52917,1.205593 -0.49907,0.634459 -0.5294,1.076718 -0.53322,7.774745 -0.002,3.906109 -0.10927,7.268195 -0.23788,7.471301 -0.13546,0.213938 -0.42234,0.296944 -0.68196,0.197321 -0.41261,-0.158333 -0.43285,-0.74689 -0.25536,-7.425627 0.19007,-7.15205 0.18486,-7.263729 -0.37232,-7.972065 -0.6638,-0.843878 -0.71111,-1.411183 -0.17663,-2.117823 0.63307,-0.837006 0.53681,-3.928992 -0.1513,-4.859715 -0.66502,-0.899485 -0.49219,-1.766733 0.4364,-2.189827 1.36977,-0.624106 2.52753,1.070488 1.58381,2.318194 -0.24997,0.330485 -0.39146,1.150314 -0.39688,2.299528 -0.007,1.589945 0.0475,1.785938 0.50147,1.785938 0.52481,0 6.81681,-6.415258 7.2698,-7.412224 0.17142,-0.377262 0.11528,-0.662911 -0.19843,-1.009556 -0.48837,-0.539639 -0.57258,-1.679353 -0.1785,-2.415701 0.31182,-0.58265 1.69508,-1.108995 2.32814,-0.885887 0.87315,0.307721 1.64619,1.227937 1.64619,1.959605 0,0.400031 -0.30975,1.095454 -0.68835,1.545385 l -0.68835,0.818056 0.19222,3.58885 c 0.14359,2.680986 0.28508,3.624484 0.55931,3.729715 0.2019,0.07748 0.92097,0.05781 1.59794,-0.04371 1.0136,-0.151999 1.50657,-0.44757 2.793,-1.674621 0.91027,-0.868246 1.6231,-1.794778 1.7082,-2.220293 0.19117,-0.955817 0.67384,-1.329164 1.58277,-1.224257 0.53266,0.06148 0.81106,0.292124 0.99802,0.82683 0.35216,1.007149 -0.0746,1.618637 -1.20227,1.722599 -0.67947,0.06264 -1.2875,0.459921 -2.48686,1.624882 -1.38039,1.340798 -1.76009,1.564945 -2.91042,1.718093 -0.7276,0.09687 -1.53128,0.236899 -1.78594,0.311177 -0.63013,0.183793 -0.61365,1.549987 0.0242,2.002618 1.23296,0.874987 1.25393,2.342327 0.039,2.727937 -0.55533,0.176256 -2.4484,2.90013 -4.68835,6.74592 -3.80718,6.536601 -4.83364,7.884081 -4.83364,6.345358 z m -1.93593,-1.89705 c -0.0845,-0.211067 -0.14715,-0.148373 -0.15985,0.159852 -0.0115,0.278915 0.051,0.435184 0.13896,0.347266 0.0879,-0.08792 0.0973,-0.316122 0.0209,-0.507118 z m 0,-3.175001 c -0.0845,-0.211066 -0.14715,-0.148372 -0.15985,0.159853 -0.0115,0.278915 0.051,0.435184 0.13896,0.347266 0.0879,-0.08792 0.0973,-0.316122 0.0209,-0.507119 z m 11.31619,-8.459527 c 0.95628,-0.43571 0.90086,-1.41408 -0.10971,-1.936662 -0.73702,-0.381128 -0.80099,-0.372744 -1.07594,0.141015 -0.31076,0.58065 -0.10762,2.1027 0.28063,2.1027 0.12711,0 0.53437,-0.138174 0.90502,-0.307053 z m -10.4578,-2.771337 c 0.76029,-0.966548 0.69947,-1.744312 -0.1679,-2.147131 -0.98869,-0.459162 -1.06844,-0.434729 -1.5367,0.470791 -0.41884,0.809943 -0.37103,1.071052 0.34985,1.910459 0.5307,0.617968 0.7087,0.587209 1.35475,-0.234119 z m 18.54654,-5.792987 c 0.25683,-0.309458 0.26579,-0.558547 0.0381,-1.058334 -0.54164,-1.188781 -1.89665,-0.672819 -1.89665,0.722211 0,0.639754 0.10387,0.740833 0.76135,0.740833 0.41874,0 0.9125,-0.182119 1.09723,-0.40471 z m -19.01119,-0.826922 c 0.92772,-0.839571 0.34868,-2.07322 -0.89064,-1.897533 -0.77672,0.110108 -0.95817,1.129028 -0.32555,1.828067 0.55836,0.616984 0.60805,0.619823 1.21619,0.06947 z m 10.24603,-4.201533 c 0.45164,-0.514386 0.82116,-1.16923 0.82116,-1.455208 0,-1.433507 -2.46294,-2.174312 -3.29229,-0.990256 -0.56561,0.807519 -0.51675,1.474132 0.18343,2.502636 0.7607,1.117394 1.26754,1.104728 2.2877,-0.05717 z m -30.0028,23.953999 c -0.22147,-0.358341 0.0774,-0.79375 0.54478,-0.79375 0.20969,0 0.38126,0.238125 0.38126,0.529167 0,0.547768 -0.63831,0.730143 -0.92604,0.264583 z m 28.84367,-2.989172 c -0.11147,-0.261597 -0.14078,-0.91644 -0.0651,-1.455208 0.20964,-1.493258 1.25798,-4.065168 1.60664,-3.941634 0.39151,0.138714 0.34527,0.487522 -0.32253,2.432889 -0.29972,0.873125 -0.651,2.004219 -0.78063,2.513542 -0.19098,0.75045 -0.2741,0.835855 -0.43834,0.450411 z m -21.47127,-1.90385 c -0.0916,-0.238818 -0.0397,-0.561083 0.11531,-0.716145 0.40312,-0.403121 1.16692,-0.03468 1.06162,0.512099 -0.11729,0.60904 -0.96511,0.756028 -1.17693,0.204046 z m 7.36489,-1.245311 c -0.43519,-0.435187 -0.39915,-1.402026 0.0667,-1.788618 0.87759,-0.728339 2.14983,0.391863 1.71586,1.510805 -0.25479,0.656928 -1.24853,0.811806 -1.78253,0.277813 z m 1.48121,-0.634397 c 0.11077,-0.771504 -0.60737,-1.339947 -1.13725,-0.900187 -0.48174,0.399812 -0.50659,0.84279 -0.0717,1.277723 0.46711,0.467117 1.11675,0.264237 1.2089,-0.377536 z m 16.36215,-0.554602 c -0.31621,-0.316218 -0.17084,-0.874751 0.22768,-0.874751 0.21829,0 0.39688,0.171567 0.39688,0.38126 0,0.442024 -0.37763,0.740411 -0.62456,0.493491 z m -9.5619,-1.139335 c -0.10561,-0.17088 -0.0729,-0.429753 0.0726,-0.575274 0.17638,-0.176389 0.32859,-0.16102 0.4566,0.04611 0.10561,0.17088 0.073,0.429753 -0.0726,0.575274 -0.17639,0.176389 -0.32859,0.161019 -0.4566,-0.04611 z m -24.29757,-5.203472 c -0.31442,-0.314424 -0.18673,-1.337737 0.20779,-1.665157 0.50681,-0.420618 1.39789,-0.11878 1.60852,0.54486 0.0922,0.290581 0.0242,0.701209 -0.15115,0.912507 -0.32742,0.394518 -1.35074,0.522213 -1.66516,0.20779 z m 1.35895,-0.784826 c 0.0444,-0.309436 -0.0946,-0.625999 -0.31138,-0.709174 -0.50368,-0.193282 -1.06673,0.479833 -0.85748,1.025115 0.22556,0.587821 1.0721,0.359006 1.16886,-0.315941 z"
         id="path366" /><path
         style="fill:#cdcdcd"
         d="m 162.65629,104.14422 c -0.8605,-0.60272 -0.80392,-2.02573 0.10911,-2.74392 0.9015,-0.70912 1.10801,-0.69233 2.00036,0.16259 0.92963,0.89065 0.94519,1.7367 0.0449,2.44484 -0.83307,0.6553 -1.36555,0.68903 -2.15441,0.13649 z m 2.00488,-0.43479 c 0.48128,-0.48128 0.38065,-1.39542 -0.21274,-1.93243 -0.43591,-0.39449 -0.64643,-0.42692 -1.18333,-0.18229 -0.76962,0.35066 -1.13526,1.47195 -0.66483,2.03878 0.39247,0.4729 1.61876,0.51808 2.0609,0.0759 z m -24.63415,-0.77023 c -0.60899,-0.35428 -0.98577,-1.33709 -0.79389,-2.07083 0.0819,-0.31324 0.60106,-0.80018 1.15366,-1.082099 l 1.00472,-0.512572 0.68108,0.809421 c 0.82443,0.97978 0.85449,1.53533 0.13271,2.45292 -0.5727,0.72807 -1.36705,0.87509 -2.17828,0.40316 z m 1.60945,-0.38248 c 0.64783,-0.45376 0.7968,-1.65477 0.27053,-2.18104 -0.80017,-0.800175 -2.32833,-0.0509 -2.32833,1.14161 0,0.53257 0.83746,1.45131 1.32292,1.45131 0.0808,0 0.41146,-0.18534 0.73488,-0.41188 z m 10.90679,-4.35062 c -0.71801,-0.718001 -0.66702,-1.161758 0.2503,-2.178638 l 0.77948,-0.864071 0.7088,0.700545 c 1.15801,1.144506 0.80898,2.871331 -0.58036,2.871331 -0.34598,0 -0.86718,-0.238125 -1.15822,-0.529167 z m 1.71497,-0.165271 c 0.87095,-0.870949 -0.10397,-2.429025 -1.11966,-1.789392 -0.64901,0.408714 -0.72313,1.110308 -0.18062,1.709766 0.56177,0.620758 0.74776,0.632147 1.30028,0.07963 z m 17.26089,-6.790046 c -0.20979,-0.546697 0.19987,-1.047725 0.7673,-0.938447 0.70296,0.135377 0.6512,1.124953 -0.0642,1.227024 -0.3089,0.04407 -0.6253,-0.08579 -0.70312,-0.288577 z m 8.29897,-0.08416 c -0.8029,-0.337596 -0.84191,-0.419695 -0.76512,-1.610472 0.0753,-1.167055 0.14191,-1.272144 0.95376,-1.503762 0.71515,-0.204029 1.00197,-0.153051 1.5875,0.282156 0.85216,0.633384 1.06405,1.784772 0.45276,2.46024 -0.61209,0.676359 -1.25112,0.782964 -2.2289,0.371838 z m 1.77642,-0.421775 c 0.46984,-0.469849 0.39968,-1.9756 -0.10102,-2.167735 -1.21345,-0.465645 -2.22732,0.0187 -2.22732,1.064044 0,1.158687 1.54227,1.88976 2.32834,1.103691 z m -24.69082,0.04451 c -0.10276,-0.166258 -0.0623,-0.426784 0.0898,-0.578948 0.35558,-0.355574 1.18458,-0.04542 1.03992,0.389054 -0.14727,0.4423 -0.89598,0.568147 -1.12975,0.189894 z m -20.30158,-0.284617 c -0.57085,-0.323554 -0.60441,-1.376929 -0.0583,-1.830148 0.60543,-0.502463 1.77631,0.08769 1.66388,0.838637 -0.11653,0.778246 -1.00922,1.329523 -1.60557,0.991511 z m 1.07673,-0.984474 c 0.0629,-0.427238 -0.0519,-0.574588 -0.4474,-0.574588 -0.69636,0 -0.95698,0.451552 -0.54625,0.946444 0.42964,0.517686 0.888,0.346153 0.99365,-0.371856 z m -12.60613,-0.393203 c -0.78895,-0.839798 -0.7398,-1.865655 0.12185,-2.543432 0.91502,-0.719751 1.25063,-0.692665 2.22076,0.179234 0.75438,0.677993 0.78885,0.786618 0.50551,1.593085 -0.5127,1.459315 -1.85913,1.823851 -2.84812,0.771113 z m 2.07054,-0.181385 c 0.64383,-0.643823 0.6732,-1.254389 0.0913,-1.897396 -0.50022,-0.552731 -1.42288,-0.633923 -1.89045,-0.166354 -0.52627,0.526268 -0.3773,1.72728 0.27054,2.181039 0.75675,0.530048 0.89164,0.519698 1.52862,-0.117289 z m 16.0356,0.375235 c -0.46213,-1.204305 0.15785,-1.971746 1.05999,-1.312089 0.407,0.297606 0.43139,0.452603 0.16368,1.040161 -0.35141,0.771263 -0.97857,0.910634 -1.22367,0.271928 z m 0.89774,-0.787725 c 0,-0.436582 -0.41816,-0.510343 -0.66146,-0.116677 -0.21577,0.349122 0.1006,0.844569 0.41516,0.65016 0.13546,-0.08372 0.2463,-0.32379 0.2463,-0.533483 z m 19.16501,0.555534 c -0.50515,-0.77095 -0.29414,-2.259711 0.32028,-2.259711 0.60705,0 1.37513,0.486101 1.68605,1.067075 0.23191,0.433323 0.15639,0.641627 -0.42944,1.184562 -0.88359,0.818879 -1.04509,0.819706 -1.57689,0.0081 z m 1.73707,-0.760895 c 0,-0.482524 -0.55826,-0.969649 -1.11125,-0.969649 -0.34975,0 -0.47625,0.20497 -0.47625,0.771701 0,0.424436 0.14883,0.825066 0.33073,0.890289 0.45145,0.161875 1.25677,-0.281766 1.25677,-0.692341 z m -16.67977,-4.29022 c -0.28119,-0.338818 -0.26382,-0.486732 0.0999,-0.850446 0.41066,-0.410668 0.46991,-0.410668 0.88058,0 0.36372,0.363714 0.38109,0.511628 0.0999,0.850446 -0.18722,0.225585 -0.43031,0.410154 -0.54019,0.410154 -0.10989,0 -0.35297,-0.184569 -0.54019,-0.410154 z m -16.77152,-2.818721 c -0.86791,-1.239113 1.0569,-2.419632 2.08781,-1.280491 0.40737,0.450141 0.43984,0.655462 0.1903,1.203149 -0.39727,0.871909 -1.69081,0.915825 -2.27811,0.07734 z m 1.83358,-0.446456 c 0,-0.837682 -0.73338,-1.311853 -1.30074,-0.840992 -0.50062,0.415477 -0.55146,1.241838 -0.0883,1.435572 0.75026,0.31384 1.38906,0.0404 1.38906,-0.59458 z m 1.98438,-0.563675 c 0,-0.360956 1.27224,-0.92695 1.52205,-0.677132 0.22831,0.228304 -0.66411,0.947388 -1.17575,0.947388 -0.19046,0 -0.3463,-0.121615 -0.3463,-0.270256 z m 10.59175,-0.935945 c -0.005,-0.154088 0.16639,-0.511275 0.38004,-0.79375 0.21366,-0.282475 0.39225,-0.387519 0.39688,-0.233431 0.005,0.154087 -0.1664,0.511275 -0.38005,0.79375 -0.21365,0.282474 -0.39225,0.387518 -0.39687,0.233431 z M 137.462,79.042706 c 0,-0.21502 0.83211,-0.94494 1.07724,-0.94494 0.41289,0 0.273,0.726652 -0.17283,0.897734 -0.48804,0.187278 -0.90441,0.20901 -0.90441,0.04721 z m 28.94357,-0.569705 c 0.0883,-0.230183 0.1606,-0.527839 0.1606,-0.661458 0,-0.407146 0.53513,-0.270677 0.70832,0.180634 0.0894,0.232968 -0.004,0.528801 -0.20674,0.657407 -0.56684,0.35892 -0.83974,0.286145 -0.66218,-0.176583 z m -7.86509,-0.02246 c -0.097,-0.09701 -0.17639,-0.299421 -0.17639,-0.449792 0,-0.165789 0.12323,-0.150168 0.31309,0.03969 0.1722,0.1722 0.25157,0.374606 0.17639,0.449792 -0.0752,0.07519 -0.21608,0.05733 -0.31309,-0.03969 z m 15.70766,-0.209585 c -0.26425,-0.318403 -0.19706,-0.416915 0.38385,-0.562712 0.75405,-0.189256 1.36878,0.188212 1.07656,0.661048 -0.25405,0.41105 -1.08404,0.355162 -1.46041,-0.09834 z m 12.05301,-1.48641 c -0.37674,-0.447728 -0.68498,-1.034399 -0.68498,-1.303713 0,-0.618267 1.20776,-1.586404 1.97905,-1.586404 1.42582,0 2.0338,2.07257 0.93137,3.175 -0.74624,0.746243 -1.43163,0.658505 -2.22544,-0.284883 z m 2.07425,-0.13089 c 0.62992,-0.629917 0.51485,-1.623775 -0.24569,-2.122099 -0.61274,-0.401483 -0.71017,-0.401483 -1.32291,0 -0.76279,0.499798 -0.85591,1.3553 -0.22358,2.054018 0.53741,0.593826 1.23975,0.620506 1.79218,0.06808 z m -22.87287,0.0125 c -0.18407,-0.221797 -0.27522,-0.462725 -0.20256,-0.535394 0.2396,-0.239599 1.00162,0.194123 1.00162,0.570096 0,0.4854 -0.38115,0.468848 -0.79906,-0.0347 z m -45.74841,-0.558454 c -0.68551,-0.871485 -0.68952,-1.278376 -0.0192,-1.948693 0.63569,-0.635692 1.26635,-0.671638 2.0578,-0.117289 0.76787,0.537837 0.74553,1.306761 -0.0614,2.11369 -0.83067,0.830669 -1.29508,0.819463 -1.9772,-0.04771 z m 1.8208,-0.214338 c 0.17451,-0.210272 0.27838,-0.656756 0.23083,-0.992188 -0.0715,-0.504144 -0.247,-0.609876 -1.0125,-0.609876 -0.76549,0 -0.94103,0.105732 -1.01249,0.609876 -0.10351,0.730122 0.37116,1.374499 1.01249,1.374499 0.25541,0 0.60716,-0.17204 0.78167,-0.382311 z m 22.23708,0.382311 c 0,-0.14552 0.11907,-0.264583 0.26459,-0.264583 0.14552,0 0.26458,0.119063 0.26458,0.264583 0,0.145521 -0.11906,0.264584 -0.26458,0.264584 -0.14552,0 -0.26459,-0.119063 -0.26459,-0.264584 z m 3.70417,-0.08172 c 0,-0.190467 0.17696,-0.577421 0.39324,-0.859895 0.35977,-0.469875 0.36883,-0.440398 0.10641,0.346305 -0.29949,0.89786 -0.49965,1.103599 -0.49965,0.51359 z m 9.119,-1.571923 -0.4196,-0.859896 0.53921,0.661458 c 0.51915,0.636857 0.6886,1.058333 0.42548,1.058333 -0.069,0 -0.31432,-0.386953 -0.54509,-0.859895 z m -8.15635,-0.595313 c 0.0838,-0.218281 0.2732,-0.396875 0.42097,-0.396875 0.15486,0 0.12915,0.168118 -0.0607,0.396875 -0.18116,0.218281 -0.37059,0.396875 -0.42097,0.396875 -0.0504,0 -0.0231,-0.178594 0.0607,-0.396875 z m 11.853,-1.764903 -0.77711,-0.83886 0.8519,0.586596 c 0.91199,0.627977 1.30802,1.091125 0.93301,1.091125 -0.12688,0 -0.58039,-0.377487 -1.0078,-0.838861 z m -15.99065,0.09312 c 0,-0.319763 0.50197,-0.692572 0.68546,-0.509084 0.0666,0.06659 -0.0604,0.27169 -0.28219,0.455766 -0.25146,0.20869 -0.40327,0.228762 -0.40327,0.05332 z m 5.95313,-1.609014 c -1.25483,-0.582218 -2.62585,-1.962201 -3.04928,-3.069206 -0.3762,-0.98355 -0.39535,-3.466607 -0.034,-4.402379 0.42703,-1.105693 1.92489,-2.648782 3.08096,-3.17397 0.63201,-0.287115 1.68765,-0.48417 2.61229,-0.487632 3.82883,-0.01434 6.49685,3.28456 5.71241,7.063171 -0.73233,3.527625 -4.99672,5.613087 -8.32243,4.070016 z m 5.11975,-0.402881 c 1.16208,-0.600938 2.63627,-2.399661 2.83503,-3.459154 0.51631,-2.752149 -0.58023,-5.258548 -2.79541,-6.389567 -2.83118,-1.445537 -6.63443,-0.11569 -7.84225,2.742127 -0.42955,1.016356 -0.47015,3.187156 -0.079,4.224607 0.39566,1.049469 1.78073,2.439325 3.02648,3.036958 1.21218,0.581529 3.57689,0.50605 4.85517,-0.154971 z m -23.77288,0.376383 c 0,-0.145521 0.32742,-0.265894 0.72761,-0.267495 0.40018,-0.0016 1.20385,-0.0682 1.78593,-0.148005 1.04144,-0.142777 1.04778,-0.138657 0.39688,0.258119 -0.73956,0.450819 -2.91042,0.568208 -2.91042,0.157381 z m 9.93511,-2.089436 c 0.13824,-0.130544 0.78713,-0.307556 1.44197,-0.393362 l 1.19063,-0.156009 -0.79375,0.381428 c -0.88396,0.424776 -2.24221,0.548826 -1.83885,0.167943 z M 122.38075,68.17589 c -0.26278,-0.316631 -0.26278,-0.477119 0,-0.79375 0.44984,-0.542015 0.88472,-0.498094 1.46983,0.148445 0.42235,0.466696 0.4378,0.580553 0.10715,0.789698 -0.57232,0.36201 -1.20476,0.304102 -1.57698,-0.144393 z m 1.05834,-0.396875 c 0,-0.14552 -0.1786,-0.264583 -0.39688,-0.264583 -0.21828,0 -0.39687,0.119063 -0.39687,0.264583 0,0.145521 0.17859,0.264584 0.39687,0.264584 0.21828,0 0.39688,-0.119063 0.39688,-0.264584 z m 40.61354,0.342595 c -0.58208,-0.219852 -1.38957,-0.521964 -1.79442,-0.671359 -0.95965,-0.354126 -0.78103,-0.526588 0.22444,-0.216706 1.79128,0.552063 3.64827,1.318958 3.15748,1.303963 -0.29104,-0.0089 -1.00542,-0.196046 -1.5875,-0.415898 z m 18.286,-2.589601 c -0.43907,-0.332409 -0.4596,-0.474194 -0.16998,-1.173412 0.54341,-1.311894 1.92659,-1.368179 2.4095,-0.09805 0.52298,1.375542 -0.97711,2.227199 -2.23952,1.27146 z m 1.82233,-0.795702 c 0,-0.662919 -0.11618,-0.807188 -0.70489,-0.875279 -0.52538,-0.06077 -0.74993,0.06038 -0.88175,0.475718 -0.22558,0.710716 0.31454,1.375065 1.03433,1.272225 0.41976,-0.05997 0.55231,-0.269414 0.55231,-0.872664 z m -48.6365,-0.08054 c -0.62581,-0.691514 -0.55391,-0.893329 0.2839,-0.796928 0.51155,0.05886 0.7276,0.234303 0.7276,0.590838 0,0.697667 -0.47841,0.795143 -1.0115,0.20609 z m 27.53194,-1.23073 c 0.61625,-0.204923 2.40218,-0.444918 3.96875,-0.533322 1.56657,-0.0884 3.35433,-0.222847 3.97279,-0.298762 0.61847,-0.07591 1.12448,-0.03227 1.12448,0.09699 0,0.327886 -3.52285,0.80625 -7.14375,0.970042 -2.87488,0.130046 -2.98091,0.117087 -1.92227,-0.234949 z m -35.90353,-0.264638 c -0.61108,-0.736315 0.38493,-1.265843 1.29629,-0.689162 0.31481,0.199204 0.32059,0.311783 0.0337,0.657407 -0.43213,0.520684 -0.9147,0.532206 -1.33004,0.03176 z m 0.78413,-0.408465 c 0,-0.145521 -0.0525,-0.264583 -0.11667,-0.264583 -0.0642,0 -0.19026,0.119062 -0.2802,0.264583 -0.0899,0.145521 -0.0374,0.264583 0.11668,0.264583 0.1541,0 0.28019,-0.119062 0.28019,-0.264583 z m -13.56099,-0.06615 c -1.21663,-0.929353 -0.42753,-3.108854 1.12558,-3.108854 0.86865,0 1.85208,1.050846 1.85208,1.979049 0,1.217076 -1.91313,1.94297 -2.97766,1.129805 z m 2.33257,-0.481102 c 0.45197,-0.499431 0.46061,-0.609243 0.0988,-1.256771 -0.4409,-0.789082 -1.6201,-1.084928 -2.24783,-0.563953 -0.20949,0.173855 -0.38088,0.652792 -0.38088,1.064305 0,1.277189 1.62021,1.761618 2.52991,0.756419 z m 56.14145,0.372019 c 0.1819,-0.0734 0.47955,-0.0734 0.66146,0 0.1819,0.0734 0.0331,0.133453 -0.33073,0.133453 -0.36381,0 -0.51263,-0.06005 -0.33073,-0.133453 z m -29.35222,-1.857595 c 0.191,-0.07643 0.4192,-0.06703 0.50712,0.02089 0.0879,0.08792 -0.0684,0.150453 -0.34727,0.138964 -0.30822,-0.0127 -0.37091,-0.07539 -0.15985,-0.159852 z m 16.71836,-3.258843 c 0,-1.040562 0.86913,-1.90969 1.80197,-1.801965 0.59188,0.06835 0.72574,0.229726 0.79577,0.959353 0.11251,1.172078 -0.33346,1.636362 -1.5718,1.636362 -0.96354,0 -1.02594,-0.04828 -1.02594,-0.79375 z m 1.97869,0.100177 c 0.65642,-0.656418 0.39737,-1.290802 -0.5271,-1.290802 -0.63149,0 -0.80806,0.126796 -0.87942,0.631537 -0.14019,0.991482 0.68672,1.379071 1.40652,0.659265 z m -13.98135,-0.06053 c -0.4211,-0.465309 -1.05982,-2.411186 -0.85778,-2.61323 0.0412,-0.0412 0.40078,0.523848 0.79907,1.25565 0.78974,1.45101 0.82218,2.20121 0.0587,1.35758 z m 21.39537,-1.097978 c 0.0899,-0.145521 0.34212,-0.264584 0.5604,-0.264584 0.21828,0 0.32329,0.119063 0.23335,0.264584 -0.0899,0.14552 -0.34211,0.264583 -0.5604,0.264583 -0.21828,0 -0.32329,-0.119063 -0.23335,-0.264583 z m -17.30932,-0.418924 c 0.0127,-0.308225 0.0754,-0.370919 0.15985,-0.159852 0.0764,0.190996 0.067,0.419199 -0.0209,0.507118 -0.0879,0.08792 -0.15045,-0.06835 -0.13896,-0.347266 z m 33.05203,-1.003212 c 0,-0.200091 -0.0719,-0.72347 -0.15985,-1.163064 -0.31966,-1.598277 1.86918,-2.584632 3.07027,-1.383551 1.2115,1.211507 0.15903,2.910417 -1.80299,2.910417 -0.76325,0 -1.10743,-0.113067 -1.10743,-0.363802 z m 2.32238,-0.312659 c 0.84387,-0.591074 0.80231,-1.883089 -0.0734,-2.282097 -1.05493,-0.480658 -1.98438,0.07212 -1.98438,1.180178 0,1.447559 0.88655,1.922292 2.0578,1.101919 z m -67.61559,-0.79375 c -0.32343,-0.226533 -0.58804,-0.643252 -0.58804,-0.926042 0,-0.609056 0.89158,-1.572497 1.45521,-1.572497 0.6211,0 1.4552,0.989515 1.4552,1.726341 0,0.473609 -0.1975,0.743097 -0.67868,0.926041 -0.88624,0.33695 -0.95174,0.33082 -1.64369,-0.153843 z m 1.66092,-1.043331 c 0,-0.704746 -0.0886,-0.79375 -0.79013,-0.79375 -0.55187,0 -0.81791,0.144284 -0.88227,0.478476 -0.16528,0.858208 0.16973,1.281867 0.94329,1.19289 0.61509,-0.07075 0.72911,-0.207987 0.72911,-0.877616 z m 24.73854,0.661459 c -0.1691,-0.315968 -0.24793,-0.634019 -0.17517,-0.70678 0.0728,-0.07276 0.27065,0.126228 0.43975,0.442197 0.1691,0.315968 0.24793,0.634019 0.17517,0.706779 -0.0728,0.07276 -0.27065,-0.126228 -0.43975,-0.442196 z m 27.56336,-0.44357 c 0.0685,-0.597644 0.21789,-0.747055 0.74706,-0.747055 0.52916,0 0.66145,0.132291 0.66145,0.661458 0,0.529167 -0.14941,0.678578 -0.74705,0.747056 -0.67956,0.07786 -0.73932,0.0181 -0.66146,-0.661459 z m 1.15818,0.155933 c 0.27266,-0.441171 -0.34058,-0.947079 -0.70557,-0.582084 -0.30531,0.30531 -0.11423,0.869721 0.29445,0.869721 0.12834,0 0.31335,-0.129437 0.41112,-0.287637 z m -22.87982,-0.39587 c 0.0127,-0.308225 0.0754,-0.370919 0.15985,-0.159853 0.0764,0.190997 0.067,0.4192 -0.0209,0.507119 -0.0879,0.08792 -0.15045,-0.06835 -0.13896,-0.347266 z m -4.19358,-4.653354 c -0.43494,-0.434933 -0.41009,-0.877911 0.0717,-1.277723 0.52988,-0.43976 1.24802,0.128683 1.13725,0.900187 -0.0921,0.641773 -0.74179,0.844653 -1.2089,0.377536 z m 0.73311,-0.616264 c 0,-0.218282 -0.11906,-0.396875 -0.26459,-0.396875 -0.14552,0 -0.26458,0.178593 -0.26458,0.396875 0,0.218281 0.11906,0.396875 0.26458,0.396875 0.14553,0 0.26459,-0.178594 0.26459,-0.396875 z m -25.63738,-3.729679 c -0.98945,-1.257875 -0.25838,-2.752613 1.34628,-2.752613 1.1348,0 1.89488,0.90967 1.71032,2.046943 -0.18744,1.15508 -0.1743,1.143045 -1.4323,1.311777 -0.90656,0.121596 -1.11227,0.04484 -1.6243,-0.606107 z m 1.93994,0.164352 c 0.55259,-0.210093 0.67869,-0.432521 0.67869,-1.197174 0,-0.771125 -0.12473,-0.986559 -0.69717,-1.204203 -1.5192,-0.577596 -2.673,1.32831 -1.36063,2.247534 0.69627,0.487686 0.54533,0.470848 1.37911,0.153843 z m 37.32689,-0.255614 c -0.094,-0.428027 -0.0394,-1.024038 0.12141,-1.324468 0.27495,-0.513759 0.33892,-0.522143 1.07594,-0.141015 1.01057,0.522582 1.06599,1.500952 0.10971,1.936662 -0.97576,0.444587 -1.11712,0.39363 -1.30706,-0.471179 z m 1.29787,0.08847 c 0.58187,-0.223283 0.52283,-0.823289 -0.11458,-1.164418 -0.41949,-0.224503 -0.56648,-0.198295 -0.68977,0.122983 -0.15211,0.396399 0.0268,1.202034 0.26688,1.202034 0.0654,0 0.30728,-0.07227 0.53747,-0.160599 z m -22.33459,0.207387 c -2.0637,-0.200848 -2.21938,-1.795829 -0.22417,-2.296596 0.66135,-0.165988 0.71499,-0.105294 0.97202,1.099845 0.14963,0.70154 0.25069,1.278058 0.22459,1.281151 -0.0261,0.0031 -0.4637,-0.03489 -0.97244,-0.0844 z m 0.21495,-1.191671 c 0.0959,-0.809749 -0.35495,-0.930596 -1.15763,-0.310325 -0.50816,0.392674 -0.50811,0.401114 0.005,0.797316 0.68613,0.529932 1.0506,0.375958 1.15276,-0.486991 z m 10.31628,-1.170221 c -0.72088,-0.839407 -0.76869,-1.100516 -0.34985,-1.910459 0.46826,-0.90552 0.54801,-0.929953 1.5367,-0.470791 0.86737,0.402819 0.92819,1.180583 0.1679,2.147131 -0.64605,0.821328 -0.82405,0.852087 -1.35475,0.234119 z m 1.05646,-0.383646 c 0.45832,-0.458326 0.39017,-1.450079 -0.11292,-1.643132 -0.52617,-0.201912 -1.15708,0.278887 -1.15708,0.881779 0,0.432542 0.47551,1.078853 0.79375,1.078853 0.0873,0 0.30162,-0.142875 0.47625,-0.3175 z m 24.2588,-1.026045 c -0.15329,-0.907302 -0.0865,-1.180915 0.41974,-1.719791 1.15537,-1.229831 2.97923,-0.49485 2.97923,1.200569 0,1.186179 -0.50255,1.598184 -1.94941,1.598184 h -1.26727 z m 2.89897,-0.05948 c 0.34903,-0.998581 -0.0719,-1.616943 -1.17463,-1.725457 -0.96642,-0.0951 -1.31365,0.244153 -1.31993,1.289627 -0.005,0.913682 0.49586,1.349245 1.44508,1.255469 0.59321,-0.05861 0.85491,-0.262991 1.04948,-0.819639 z m -48.16963,0.228584 c -0.20925,-0.545282 0.3538,-1.218397 0.85748,-1.025115 0.52794,0.202591 0.34912,1.245643 -0.23257,1.356511 -0.2551,0.04862 -0.53631,-0.100506 -0.62491,-0.331396 z m 0.95644,-0.265153 c 0,-0.06417 -0.11906,-0.190262 -0.26459,-0.280198 -0.14552,-0.08994 -0.26458,-0.03743 -0.26458,0.116676 0,0.154109 0.11906,0.280199 0.26458,0.280199 0.14553,0 0.26459,-0.05251 0.26459,-0.116677 z m 37.04167,-4.85749 c 0,-1.39503 1.35501,-1.910992 1.89665,-0.722211 0.38807,0.851711 -0.0863,1.463044 -1.1353,1.463044 -0.65748,0 -0.76135,-0.101079 -0.76135,-0.740833 z m 1.53975,-0.254057 c 0.0629,-0.441173 -0.0481,-0.59261 -0.43471,-0.59261 -0.54381,0 -0.95498,0.658993 -0.68436,1.09686 0.2775,0.449007 1.03155,0.109237 1.11907,-0.50425 z m -19.90855,-0.306208 c -0.63262,-0.699039 -0.45117,-1.717959 0.32555,-1.828067 1.23932,-0.175687 1.81836,1.057962 0.89064,1.897533 -0.60814,0.550357 -0.65783,0.547518 -1.21619,-0.06947 z m 1.03859,-0.833994 c 0,-0.39557 -0.17525,-0.669535 -0.46382,-0.72511 -0.59499,-0.114583 -0.88666,0.628995 -0.45212,1.152592 0.45865,0.552636 0.91594,0.339213 0.91594,-0.427482 z m -14.07364,-2.365364 c -0.31894,-0.128469 -0.77496,-0.531297 -1.01338,-0.895174 -0.37328,-0.569694 -0.38453,-0.763767 -0.081,-1.397139 0.51902,-1.082898 1.61685,-1.389035 2.53465,-0.706807 0.95864,0.712581 1.08456,1.801803 0.30431,2.63234 -0.64122,0.682554 -0.85113,0.726683 -1.74462,0.36678 z m 1.65406,-0.910548 c 0.53431,-0.815455 0.28621,-1.680057 -0.54171,-1.887853 -1.00023,-0.251041 -1.5621,-0.02256 -1.83202,0.744978 -0.52334,1.488092 1.50702,2.465644 2.37373,1.142875 z m 20.55551,0.03501 c -0.70018,-1.028504 -0.74904,-1.695117 -0.18343,-2.502636 0.82935,-1.184056 3.29229,-0.443251 3.29229,0.990256 0,0.662663 -1.50354,2.391032 -2.07793,2.388648 -0.23959,-9.94e-4 -0.7035,-0.395315 -1.03093,-0.876268 z m 1.96733,-0.226378 c 1.11033,-1.043107 0.61609,-2.599712 -0.82545,-2.599712 -0.51003,0 -1.4726,0.927881 -1.4726,1.419527 0,0.474986 1.01478,1.755473 1.39121,1.755473 0.16196,0 0.57004,-0.25888 0.90684,-0.575288 z"
         id="path365" /><path
         style="fill:#bababa"
         d="m 162.99621,103.39144 c -0.55211,-0.55211 -0.63098,-0.78274 -0.40933,-1.1969 0.41026,-0.76657 1.27876,-0.94496 1.89323,-0.38887 0.64526,0.58395 0.55422,1.375 -0.21688,1.88441 -0.53435,0.35301 -0.64036,0.32802 -1.26702,-0.29864 z m -22.95452,-0.9732 c -1.02956,-0.59966 -0.27049,-2.36006 1.01764,-2.36006 1.22568,0 1.40936,2.02788 0.22484,2.48242 -0.55534,0.2131 -0.68915,0.19993 -1.24248,-0.12236 z m 12.81907,-4.52964 c -0.65594,-0.655935 -0.17216,-1.799167 0.76135,-1.799167 0.67189,0 1.11916,0.698194 0.93002,1.451773 -0.1827,0.727967 -1.11858,0.920188 -1.69137,0.347394 z m 26.81729,-7.678872 c -0.60458,-0.863162 -0.51155,-1.177388 0.44802,-1.513281 0.76269,-0.266975 0.91224,-0.236677 1.32292,0.268012 0.56917,0.699468 0.5755,0.889279 0.0472,1.417533 -0.58696,0.58696 -1.33611,0.515981 -1.81818,-0.172264 z m -42.99286,-0.317601 c -0.41073,-0.494892 -0.15011,-0.946444 0.54625,-0.946444 0.39553,0 0.51027,0.14735 0.4474,0.574588 -0.10565,0.718009 -0.56401,0.889542 -0.99365,0.371856 z m -11.08567,-0.839736 c -0.815,-0.570846 -0.68032,-1.675886 0.26888,-2.206254 0.64753,-0.361805 0.75734,-0.353172 1.25677,0.09881 0.69039,0.624792 0.69669,1.32213 0.0181,2.000738 -0.63896,0.63896 -0.77082,0.648075 -1.54373,0.106708 z m 17.81828,-0.102392 c -0.19515,-0.315748 0.0525,-0.798066 0.40982,-0.798066 0.32195,0 0.32403,0.716127 0.003,0.914743 -0.13547,0.08372 -0.32109,0.03122 -0.41249,-0.116677 z m 20.3041,0.07017 c -0.1819,-0.06522 -0.33073,-0.465853 -0.33073,-0.890289 0,-0.566731 0.1265,-0.771701 0.47625,-0.771701 0.55299,0 1.11125,0.487125 1.11125,0.969649 0,0.410575 -0.80532,0.854216 -1.25677,0.692341 z m -31.75,-7.653158 c -0.46314,-0.193734 -0.4123,-1.020095 0.0883,-1.435572 0.56736,-0.470861 1.30074,0.0033 1.30074,0.840992 0,0.634984 -0.6388,0.90842 -1.38906,0.59458 z m 54.63646,-4.877942 c -0.73518,-0.428201 -0.5897,-1.531241 0.24374,-1.848115 1.32936,-0.505419 2.16393,0.143619 1.8407,1.431481 -0.13771,0.548701 -0.33441,0.700649 -0.89886,0.694364 -0.39741,-0.0044 -0.93092,-0.129403 -1.18558,-0.27773 z m -66.59677,-0.625702 c -0.17451,-0.210272 -0.27839,-0.656756 -0.23083,-0.992188 0.0715,-0.504144 0.247,-0.609876 1.01249,-0.609876 0.7655,0 0.94103,0.105732 1.0125,0.609876 0.1035,0.730122 -0.37116,1.374499 -1.0125,1.374499 -0.2554,0 -0.60715,-0.17204 -0.78166,-0.382311 z m 30.53597,-6.974429 c -2.2606,-1.42167 -2.56094,-4.314598 -0.66923,-6.446287 0.90728,-1.022378 1.09835,-1.11341 2.55045,-1.215114 1.322,-0.09259 1.71197,-0.01231 2.4714,0.508788 1.82839,1.254589 2.44752,2.863425 1.89357,4.920609 -0.44015,1.634607 -1.73214,2.530142 -3.81924,2.647279 -1.25344,0.07035 -1.80477,-0.02399 -2.42695,-0.415275 z m -27.90222,-1.109927 c 0,-0.14552 0.17859,-0.264583 0.39687,-0.264583 0.21828,0 0.39688,0.119063 0.39688,0.264583 0,0.145521 -0.1786,0.264584 -0.39688,0.264584 -0.21828,0 -0.39687,-0.119063 -0.39687,-0.264584 z m 60.08155,-2.488077 c -0.54323,-0.654553 -0.099,-1.525697 0.72918,-1.42991 0.58871,0.06809 0.70489,0.21236 0.70489,0.875279 0,0.60325 -0.13255,0.812689 -0.55231,0.872664 -0.30378,0.0434 -0.70057,-0.09971 -0.88176,-0.318033 z m -55.18676,-2.539006 c 0.0899,-0.145521 0.21603,-0.264583 0.2802,-0.264583 0.0642,0 0.11667,0.119062 0.11667,0.264583 0,0.145521 -0.12609,0.264583 -0.28019,0.264583 -0.15411,0 -0.20662,-0.119062 -0.11668,-0.264583 z m -12.77938,-0.582083 c -0.48607,-0.486072 -0.37778,-1.483701 0.19428,-1.789858 0.72704,-0.389101 1.00468,-0.34494 1.60489,0.255274 0.70999,0.709992 0.66639,1.175456 -0.14474,1.545031 -0.85612,0.390075 -1.25643,0.387548 -1.65443,-0.01045 z m 46.29217,-4.412828 c -0.19463,-0.123369 -0.3137,-0.508499 -0.26458,-0.855844 0.0714,-0.504741 0.24793,-0.631537 0.87942,-0.631537 0.92447,0 1.18352,0.634384 0.5271,1.290802 -0.48623,0.486231 -0.64253,0.513137 -1.14194,0.196579 z m 25.15857,-3.117818 c -0.18191,-0.0734 -0.33073,-0.48327 -0.33073,-0.910826 0,-1.079691 1.07471,-1.60183 1.851,-0.899293 1.21441,1.09902 0.0761,2.45429 -1.52027,1.810119 z m -66.10358,-1.246805 c -0.31708,-0.826316 0.004,-1.356092 0.82126,-1.356092 0.70153,0 0.79013,0.089 0.79013,0.79375 0,0.669629 -0.11402,0.806865 -0.72911,0.877616 -0.4653,0.05352 -0.78453,-0.06056 -0.88228,-0.315274 z m 54.24922,-0.18852 c -0.27266,-0.441171 0.34058,-0.947079 0.70557,-0.582084 0.30531,0.30531 0.11423,0.869721 -0.29444,0.869721 -0.12835,0 -0.31335,-0.129437 -0.41113,-0.287637 z M 148.30992,47.53839 c 0,-0.218282 0.11906,-0.396875 0.26458,-0.396875 0.14553,0 0.26459,0.178593 0.26459,0.396875 0,0.218281 -0.11906,0.396875 -0.26459,0.396875 -0.14552,0 -0.26458,-0.178594 -0.26458,-0.396875 z m -24.45506,-3.723066 c -0.58672,-0.586717 -0.51605,-1.600651 0.14377,-2.062805 0.94823,-0.664165 1.81043,-0.0815 1.81766,1.228357 0.003,0.546573 -0.16936,0.800082 -0.67464,0.992187 -0.85715,0.32589 -0.79562,0.333434 -1.28679,-0.157739 z m 39.10283,-0.245685 c -0.0838,-0.218281 -0.0818,-0.580603 0.004,-0.805159 0.12329,-0.321278 0.27028,-0.347486 0.68977,-0.122983 0.63741,0.341129 0.69645,0.941135 0.11458,1.164418 -0.58662,0.225105 -0.63737,0.210278 -0.80872,-0.236276 z m -22.46368,-0.261017 c -0.51298,-0.396202 -0.51303,-0.404642 -0.005,-0.797316 0.80268,-0.620271 1.25349,-0.499424 1.15763,0.310325 -0.10216,0.862949 -0.46663,1.016923 -1.15276,0.486991 z m 11.573,-2.040858 c -0.70455,-0.704543 -0.0504,-1.984668 0.83958,-1.643132 0.70578,0.27083 0.39263,1.960632 -0.36333,1.960632 -0.0873,0 -0.30163,-0.142875 -0.47625,-0.3175 z m 25.88987,-0.59213 c -0.21855,-0.263335 -0.27654,-0.736106 -0.16392,-1.336428 0.14999,-0.799502 0.27749,-0.928942 0.91503,-0.928942 1.79752,0 2.16938,2.419379 0.39858,2.593199 -0.49062,0.04816 -0.94524,-0.08148 -1.14969,-0.327829 z m -45.52196,-0.693485 c 0,-0.154109 0.11906,-0.206613 0.26458,-0.116676 0.14553,0.08994 0.26459,0.216026 0.26459,0.280198 0,0.06417 -0.11906,0.116677 -0.26459,0.116677 -0.14552,0 -0.26458,-0.12609 -0.26458,-0.280199 z m 37.99152,-4.443775 c -0.27062,-0.437867 0.14055,-1.09686 0.68436,-1.09686 0.38657,0 0.49765,0.151437 0.43471,0.59261 -0.0875,0.613487 -0.84157,0.953257 -1.11907,0.50425 z m -18.66683,-1.21697 c -0.43454,-0.523597 -0.14287,-1.267175 0.45212,-1.152592 0.28857,0.05557 0.46382,0.32954 0.46382,0.72511 0,0.766695 -0.45729,0.980118 -0.91594,0.427482 z m -13.45094,-3.37239 c -0.17462,-0.174625 -0.3175,-0.581606 -0.3175,-0.904402 0,-1.423306 0.6679,-1.800254 1.79321,-1.012053 1.03102,0.722153 0.62323,2.233955 -0.60258,2.233955 -0.3056,0 -0.6985,-0.142875 -0.87313,-0.3175 z m 22.95934,-0.351783 c -0.42245,-0.509024 -0.20745,-2.004349 0.33722,-2.345389 0.66383,-0.415647 1.37027,0.103587 1.46872,1.079516 0.11832,1.172773 -1.14708,2.059751 -1.80594,1.265873 z"
         id="path364" /><path
         style="fill:#afafaf"
         d="m 162.60481,103.63895 c -0.54916,-0.66168 -0.17298,-0.83648 0.44618,-0.20733 0.3772,0.38329 0.45941,0.59531 0.23083,0.59531 -0.19526,0 -0.49992,-0.17459 -0.67701,-0.38798 z m 1.33758,0.31311 c 0.0606,-0.0412 0.34837,-0.24953 0.63941,-0.46302 0.48948,-0.35904 0.50193,-0.35342 0.16604,0.0749 -0.19972,0.25466 -0.48746,0.46302 -0.63941,0.46302 -0.15196,0 -0.22668,-0.0337 -0.16604,-0.0749 z m -22.90851,-1.28898 c 0.29104,-0.15919 0.67799,-0.47598 0.8599,-0.70399 0.1819,-0.228 0.33072,-0.27948 0.33072,-0.1144 0,0.33615 -1.02787,1.1283 -1.44793,1.11586 -0.14952,-0.004 -0.0337,-0.13829 0.25731,-0.29747 z m 38.64807,-12.016504 c -0.22868,-0.228676 -0.41578,-0.552824 -0.41578,-0.72033 0,-0.167506 0.18535,-0.03994 0.41188,0.283482 0.48207,0.688245 1.23122,0.759224 1.81818,0.172264 0.22868,-0.228675 0.41578,-0.312019 0.41578,-0.185208 0,0.836388 -1.53406,1.145799 -2.23006,0.449792 z m 1.76841,-1.691104 c -0.27131,-0.434422 -0.26008,-0.494709 0.0686,-0.368567 0.21615,0.08294 0.39301,0.316665 0.39301,0.519377 0,0.490813 -0.0766,0.465799 -0.46165,-0.15081 z m -1.71628,-0.318941 c 0.15375,-0.153751 0.43572,-0.227488 0.6266,-0.163861 0.19816,0.06605 0.0782,0.185987 -0.27955,0.279546 -0.44009,0.115087 -0.54339,0.08065 -0.34705,-0.115685 z m -54.38306,-1.696052 c 0.25119,-0.262262 0.51367,-0.419889 0.58328,-0.350281 0.0696,0.06961 -0.13592,0.284185 -0.45672,0.47684 -0.5573,0.334676 -0.56294,0.329038 -0.12656,-0.126559 z m 61.4794,-10.127409 c -0.0769,-0.124499 0.15415,-0.170151 0.51355,-0.101447 0.3594,0.0687 0.65345,0.170566 0.65345,0.226362 0,0.204721 -1.03151,0.09431 -1.167,-0.124915 z m 0.10867,-2.419471 c 0.21828,-0.141064 0.51594,-0.25648 0.66146,-0.25648 0.14552,0 0.086,0.115416 -0.13229,0.25648 -0.21828,0.141064 -0.51594,0.25648 -0.66146,0.25648 -0.14552,0 -0.086,-0.115416 0.13229,-0.25648 z M 150.55888,70.46802 c -1.24575,-0.597633 -2.63082,-1.987489 -3.02648,-3.036958 -0.39113,-1.037451 -0.35053,-3.208251 0.079,-4.224607 1.20782,-2.857817 5.01107,-4.187664 7.84225,-2.742127 3.07561,1.570336 3.92858,5.89332 1.65858,8.405936 -1.23869,1.371083 -2.0926,1.794198 -3.96705,1.965686 -1.17535,0.107529 -1.77223,0.02262 -2.58632,-0.36793 z m 4.98705,-1.979074 c 0.64889,-0.494932 1.04398,-1.074986 1.24782,-1.832008 0.55395,-2.057184 -0.0652,-3.66602 -1.89357,-4.920609 -0.75943,-0.521099 -1.1494,-0.601381 -2.4714,-0.508788 -1.4521,0.101704 -1.64317,0.192736 -2.55045,1.215114 -1.89171,2.131689 -1.59137,5.024617 0.66923,6.446287 1.219,0.766617 3.73258,0.565467 4.99837,-0.399996 z m -40.90424,-6.02279 c -0.81763,-0.476229 -0.45391,-2.378184 0.44979,-2.352012 0.1528,0.0044 0.0695,0.129404 -0.18521,0.277731 -0.57674,0.335923 -0.60227,1.385946 -0.0449,1.848494 0.32536,0.270029 0.59372,0.280687 1.21002,0.04806 0.68006,-0.256693 0.74725,-0.245068 0.47556,0.08229 -0.36587,0.440851 -1.23725,0.484501 -1.90523,0.09544 z m 71.29198,-7.704641 c -0.17462,-0.174625 -0.3175,-0.712959 -0.3175,-1.196297 0,-0.680627 0.14916,-0.94676 0.66146,-1.180178 0.73819,-0.33634 1.98438,0.0484 1.98438,0.612643 0,0.182542 -0.21928,0.112819 -0.53025,-0.168599 -0.43812,-0.396498 -0.64496,-0.42759 -1.19062,-0.178971 -0.97138,0.442588 -0.92972,1.757269 0.0672,2.121382 0.59009,0.215517 0.62509,0.269692 0.18521,0.286632 -0.29832,0.01149 -0.68527,-0.121987 -0.8599,-0.296612 z M 123.35089,43.525542 c -0.34077,-0.34077 -0.17152,-1.350132 0.28663,-1.709443 0.41931,-0.328846 0.42886,-0.319559 0.10116,0.09837 -0.19902,0.253825 -0.30483,0.759841 -0.23513,1.124479 0.13587,0.710739 0.1205,0.759743 -0.15266,0.48659 z m 56.4107,-4.784549 c -0.32911,-0.419643 -0.31975,-0.429002 0.0999,-0.09989 0.44072,0.345643 0.58088,0.562915 0.36312,0.562915 -0.0549,0 -0.2633,-0.208359 -0.46302,-0.463021 z m -41.99323,-8.797396 c 0,-0.363802 0.0601,-0.51263 0.13346,-0.330729 0.0734,0.181901 0.0734,0.479557 0,0.661458 -0.0734,0.181902 -0.13346,0.03307 -0.13346,-0.330729 z m 2.60406,-0.117288 c 0,-0.21003 -0.26462,-0.567218 -0.58804,-0.79375 -0.32342,-0.226533 -0.45098,-0.411878 -0.28348,-0.411878 0.42608,0 1.1361,0.755914 1.1361,1.209523 0,0.207887 -0.0595,0.377977 -0.13229,0.377977 -0.0728,0 -0.13229,-0.171843 -0.13229,-0.381872 z m 20.28114,-0.07115 c -0.42706,-1.236716 0.98304,-2.319457 2.1838,-1.676829 0.3989,0.213482 0.54506,0.534322 0.52251,1.146977 l -0.0313,0.850587 -0.16713,-0.765455 c -0.3629,-1.662059 -1.89136,-1.569186 -2.16248,0.131397 -0.12833,0.804906 -0.16436,0.837588 -0.34539,0.313323 z"
         id="path363" /></g></g></svg>
